<svg width="604" height="40" viewBox="0 0 604 40" fill="none" xmlns="http://www.w3.org/2000/svg">
<path d="M0 12C0 5.37258 5.37258 0 12 0H183C189.627 0 195 5.37258 195 12V40H0V12Z" fill="#CCB29C" fill-opacity="0.1"/>
<path d="M23.44 25H24.784V15.08H28V13.8H20.224V15.08H23.44V25ZM32.8707 17.416C31.5907 17.416 30.9187 18.184 30.6947 18.504V12.904H29.3507V25H30.6947V19.912C30.6947 19.912 31.3347 18.664 32.5347 18.664C33.5268 18.664 34.3108 19.208 34.3108 20.472V25H35.6547V20.248C35.6547 18.424 34.3428 17.416 32.8707 17.416ZM37.7634 25H39.1074V17.608H37.7634V25ZM37.5234 15.24C37.5234 15.736 37.9394 16.152 38.4354 16.152C38.9314 16.152 39.3474 15.736 39.3474 15.24C39.3474 14.744 38.9314 14.328 38.4354 14.328C37.9394 14.328 37.5234 14.744 37.5234 15.24ZM44.7384 17.416C43.1384 17.416 42.4664 18.648 42.4664 18.648V17.608H41.2184V25H42.5624V19.912C42.5624 19.912 43.2024 18.664 44.4024 18.664C45.3944 18.664 46.1784 19.208 46.1784 20.472V25H47.5224V20.248C47.5224 18.424 46.2104 17.416 44.7384 17.416ZM59.1581 22.888C59.1581 22.888 58.4381 23.944 56.9981 23.944C55.5101 23.944 54.5341 22.76 54.5341 21.304C54.5341 19.848 55.5101 18.664 56.9981 18.664C58.3101 18.664 59.0301 19.56 59.0301 19.56L59.9421 18.744C59.9421 18.744 58.8861 17.416 56.9981 17.416C54.8221 17.416 53.1901 19.144 53.1901 21.304C53.1901 23.48 54.8221 25.192 56.9981 25.192C58.9501 25.192 60.0221 23.768 60.0221 23.768L59.1581 22.888ZM64.4591 17.416C63.0511 17.416 62.3951 18.744 62.3951 18.744V17.608H61.1471V25H62.4911V19.912C62.4911 19.912 63.0191 18.664 64.1871 18.664C64.7471 18.664 65.0351 18.824 65.0351 18.824L65.5311 17.608C65.5311 17.608 65.0671 17.416 64.4591 17.416ZM69.1886 25.192C70.7886 25.192 71.4606 23.864 71.4606 23.864V25H72.7086V17.608H71.3646V22.728C71.3646 22.728 70.7726 23.944 69.5246 23.944C68.5326 23.944 67.7486 23.4 67.7486 22.136V17.608H66.4046V22.36C66.4046 24.184 67.7166 25.192 69.1886 25.192ZM74.104 23.64C74.104 23.64 75.192 25.192 77.272 25.192C78.696 25.192 80.2 24.456 80.2 23.032C80.2 21.528 79 21 77.592 20.696C76.376 20.44 75.8 20.136 75.8 19.576C75.8 19.096 76.264 18.632 77.208 18.632C78.328 18.632 79.064 19.448 79.064 19.448L79.944 18.536C79.944 18.536 78.952 17.416 77.208 17.416C75.56 17.416 74.488 18.472 74.488 19.544C74.488 20.936 75.608 21.56 77.192 21.88C78.328 22.104 78.872 22.424 78.872 23.064C78.872 23.656 78.024 23.976 77.272 23.976C75.816 23.976 75.032 22.776 75.032 22.776L74.104 23.64ZM81.0453 18.824H82.4853V22.872C82.4853 24.504 83.6533 25.192 84.7093 25.192C85.1413 25.192 85.6053 25.096 86.2453 24.744L85.7493 23.64C85.7493 23.64 85.3173 23.944 84.9013 23.944C84.1813 23.944 83.8293 23.528 83.8293 22.808V18.824H86.1333V17.608H83.8293V15.352H82.4853V17.608H81.0453V18.824ZM92.3372 25H93.6812V13.8H92.3372V25ZM95.4271 18.824H96.8671V22.872C96.8671 24.504 98.0351 25.192 99.0911 25.192C99.5231 25.192 99.9871 25.096 100.627 24.744L100.131 23.64C100.131 23.64 99.6991 23.944 99.2831 23.944C98.5631 23.944 98.2111 23.528 98.2111 22.808V18.824H100.515V17.608H98.2111V15.352H96.8671V17.608H95.4271V18.824ZM107.359 22.696C107.359 22.696 106.639 23.944 105.199 23.944C103.695 23.944 102.735 22.76 102.735 21.304C102.735 19.848 103.695 18.664 105.199 18.664C106.639 18.664 107.359 19.912 107.359 19.912V22.696ZM107.471 17.608V18.68C107.471 18.68 106.751 17.416 104.943 17.416C102.975 17.416 101.391 19.128 101.391 21.304C101.391 23.48 102.975 25.192 104.943 25.192C106.751 25.192 107.471 23.928 107.471 23.928V25H108.703V17.608H107.471ZM110.855 25H112.199V12.904H110.855V25ZM114.595 25H115.939V17.608H114.595V25ZM114.355 15.24C114.355 15.736 114.771 16.152 115.267 16.152C115.763 16.152 116.179 15.736 116.179 15.24C116.179 14.744 115.763 14.328 115.267 14.328C114.771 14.328 114.355 14.744 114.355 15.24ZM123.506 22.696C123.506 22.696 122.786 23.944 121.346 23.944C119.842 23.944 118.882 22.76 118.882 21.304C118.882 19.848 119.842 18.664 121.346 18.664C122.786 18.664 123.506 19.912 123.506 19.912V22.696ZM123.618 17.608V18.68C123.618 18.68 122.898 17.416 121.09 17.416C119.122 17.416 117.538 19.128 117.538 21.304C117.538 23.48 119.122 25.192 121.09 25.192C122.898 25.192 123.618 23.928 123.618 23.928V25H124.85V17.608H123.618ZM130.234 17.416C128.634 17.416 127.962 18.648 127.962 18.648V17.608H126.714V25H128.058V19.912C128.058 19.912 128.698 18.664 129.898 18.664C130.89 18.664 131.674 19.208 131.674 20.472V25H133.018V20.248C133.018 18.424 131.706 17.416 130.234 17.416ZM139.198 17.608V28.68H140.542V24.088C140.798 24.424 141.566 25.192 142.926 25.192C144.926 25.192 146.51 23.48 146.51 21.304C146.51 19.128 144.926 17.416 142.926 17.416C141.166 17.416 140.43 18.68 140.43 18.68V17.608H139.198ZM140.542 19.928C140.542 19.928 141.246 18.664 142.718 18.664C144.222 18.664 145.166 19.848 145.166 21.304C145.166 22.76 144.222 23.944 142.718 23.944C141.246 23.944 140.542 22.68 140.542 22.68V19.928ZM148.102 25H149.446V17.608H148.102V25ZM147.862 15.24C147.862 15.736 148.278 16.152 148.774 16.152C149.27 16.152 149.686 15.736 149.686 15.24C149.686 14.744 149.27 14.328 148.774 14.328C148.278 14.328 147.862 14.744 147.862 15.24ZM151.301 17.608V18.856H155.317L151.077 25H157.509V23.752H153.445L157.685 17.608H151.301ZM158.636 17.608V18.856H162.652L158.412 25H164.844V23.752H160.78L165.02 17.608H158.636ZM171.684 22.696C171.684 22.696 170.964 23.944 169.524 23.944C168.02 23.944 167.06 22.76 167.06 21.304C167.06 19.848 168.02 18.664 169.524 18.664C170.964 18.664 171.684 19.912 171.684 19.912V22.696ZM171.796 17.608V18.68C171.796 18.68 171.076 17.416 169.268 17.416C167.3 17.416 165.716 19.128 165.716 21.304C165.716 23.48 167.3 25.192 169.268 25.192C171.076 25.192 171.796 23.928 171.796 23.928V25H173.028V17.608H171.796Z" fill="#CCB29C"/>
<path d="M195 40V40.5C195.276 40.5 195.5 40.2761 195.5 40H195ZM0 40H-0.5C-0.5 40.2761 -0.276142 40.5 0 40.5L0 40ZM192.969 39.5C192.693 39.5 192.469 39.7239 192.469 40C192.469 40.2761 192.693 40.5 192.969 40.5V39.5ZM188.906 40.5C189.182 40.5 189.406 40.2761 189.406 40C189.406 39.7239 189.182 39.5 188.906 39.5V40.5ZM184.844 39.5C184.568 39.5 184.344 39.7239 184.344 40C184.344 40.2761 184.568 40.5 184.844 40.5V39.5ZM180.781 40.5C181.057 40.5 181.281 40.2761 181.281 40C181.281 39.7239 181.057 39.5 180.781 39.5V40.5ZM176.719 39.5C176.443 39.5 176.219 39.7239 176.219 40C176.219 40.2761 176.443 40.5 176.719 40.5V39.5ZM172.656 40.5C172.932 40.5 173.156 40.2761 173.156 40C173.156 39.7239 172.932 39.5 172.656 39.5V40.5ZM168.594 39.5C168.318 39.5 168.094 39.7239 168.094 40C168.094 40.2761 168.318 40.5 168.594 40.5V39.5ZM164.531 40.5C164.807 40.5 165.031 40.2761 165.031 40C165.031 39.7239 164.807 39.5 164.531 39.5V40.5ZM160.469 39.5C160.193 39.5 159.969 39.7239 159.969 40C159.969 40.2761 160.193 40.5 160.469 40.5V39.5ZM156.406 40.5C156.682 40.5 156.906 40.2761 156.906 40C156.906 39.7239 156.682 39.5 156.406 39.5V40.5ZM152.344 39.5C152.068 39.5 151.844 39.7239 151.844 40C151.844 40.2761 152.068 40.5 152.344 40.5V39.5ZM148.281 40.5C148.557 40.5 148.781 40.2761 148.781 40C148.781 39.7239 148.557 39.5 148.281 39.5V40.5ZM144.219 39.5C143.943 39.5 143.719 39.7239 143.719 40C143.719 40.2761 143.943 40.5 144.219 40.5V39.5ZM140.156 40.5C140.432 40.5 140.656 40.2761 140.656 40C140.656 39.7239 140.432 39.5 140.156 39.5V40.5ZM136.094 39.5C135.818 39.5 135.594 39.7239 135.594 40C135.594 40.2761 135.818 40.5 136.094 40.5V39.5ZM132.031 40.5C132.307 40.5 132.531 40.2761 132.531 40C132.531 39.7239 132.307 39.5 132.031 39.5V40.5ZM127.969 39.5C127.693 39.5 127.469 39.7239 127.469 40C127.469 40.2761 127.693 40.5 127.969 40.5V39.5ZM123.906 40.5C124.182 40.5 124.406 40.2761 124.406 40C124.406 39.7239 124.182 39.5 123.906 39.5V40.5ZM119.844 39.5C119.568 39.5 119.344 39.7239 119.344 40C119.344 40.2761 119.568 40.5 119.844 40.5V39.5ZM115.781 40.5C116.057 40.5 116.281 40.2761 116.281 40C116.281 39.7239 116.057 39.5 115.781 39.5V40.5ZM111.719 39.5C111.443 39.5 111.219 39.7239 111.219 40C111.219 40.2761 111.443 40.5 111.719 40.5V39.5ZM107.656 40.5C107.932 40.5 108.156 40.2761 108.156 40C108.156 39.7239 107.932 39.5 107.656 39.5V40.5ZM103.594 39.5C103.318 39.5 103.094 39.7239 103.094 40C103.094 40.2761 103.318 40.5 103.594 40.5V39.5ZM99.5312 40.5C99.8074 40.5 100.031 40.2761 100.031 40C100.031 39.7239 99.8074 39.5 99.5312 39.5V40.5ZM95.4687 39.5C95.1926 39.5 94.9687 39.7239 94.9687 40C94.9687 40.2761 95.1926 40.5 95.4687 40.5V39.5ZM91.4062 40.5C91.6824 40.5 91.9062 40.2761 91.9062 40C91.9062 39.7239 91.6824 39.5 91.4062 39.5V40.5ZM87.3438 39.5C87.0676 39.5 86.8438 39.7239 86.8438 40C86.8438 40.2761 87.0676 40.5 87.3438 40.5V39.5ZM83.2812 40.5C83.5574 40.5 83.7812 40.2761 83.7812 40C83.7812 39.7239 83.5574 39.5 83.2812 39.5V40.5ZM79.2188 39.5C78.9426 39.5 78.7188 39.7239 78.7188 40C78.7188 40.2761 78.9426 40.5 79.2188 40.5V39.5ZM75.1563 40.5C75.4324 40.5 75.6563 40.2761 75.6563 40C75.6563 39.7239 75.4324 39.5 75.1563 39.5V40.5ZM71.0937 39.5C70.8176 39.5 70.5937 39.7239 70.5937 40C70.5937 40.2761 70.8176 40.5 71.0937 40.5V39.5ZM67.0312 40.5C67.3074 40.5 67.5312 40.2761 67.5312 40C67.5312 39.7239 67.3074 39.5 67.0312 39.5V40.5ZM62.9688 39.5C62.6926 39.5 62.4688 39.7239 62.4688 40C62.4688 40.2761 62.6926 40.5 62.9688 40.5V39.5ZM58.9062 40.5C59.1824 40.5 59.4062 40.2761 59.4062 40C59.4062 39.7239 59.1824 39.5 58.9062 39.5V40.5ZM54.8438 39.5C54.5676 39.5 54.3438 39.7239 54.3438 40C54.3438 40.2761 54.5676 40.5 54.8438 40.5V39.5ZM50.7813 40.5C51.0574 40.5 51.2813 40.2761 51.2813 40C51.2813 39.7239 51.0574 39.5 50.7813 39.5V40.5ZM46.7187 39.5C46.4426 39.5 46.2187 39.7239 46.2187 40C46.2187 40.2761 46.4426 40.5 46.7187 40.5V39.5ZM42.6562 40.5C42.9324 40.5 43.1562 40.2761 43.1562 40C43.1562 39.7239 42.9324 39.5 42.6562 39.5V40.5ZM38.5938 39.5C38.3176 39.5 38.0938 39.7239 38.0938 40C38.0938 40.2761 38.3176 40.5 38.5938 40.5V39.5ZM34.5312 40.5C34.8074 40.5 35.0312 40.2761 35.0312 40C35.0312 39.7239 34.8074 39.5 34.5312 39.5V40.5ZM30.4688 39.5C30.1926 39.5 29.9688 39.7239 29.9688 40C29.9688 40.2761 30.1926 40.5 30.4688 40.5V39.5ZM26.4063 40.5C26.6824 40.5 26.9063 40.2761 26.9063 40C26.9063 39.7239 26.6824 39.5 26.4063 39.5V40.5ZM22.3437 39.5C22.0676 39.5 21.8437 39.7239 21.8437 40C21.8437 40.2761 22.0676 40.5 22.3437 40.5V39.5ZM18.2812 40.5C18.5574 40.5 18.7812 40.2761 18.7812 40C18.7812 39.7239 18.5574 39.5 18.2812 39.5V40.5ZM14.2188 39.5C13.9426 39.5 13.7188 39.7239 13.7188 40C13.7188 40.2761 13.9426 40.5 14.2188 40.5V39.5ZM10.1562 40.5C10.4324 40.5 10.6562 40.2761 10.6562 40C10.6562 39.7239 10.4324 39.5 10.1562 39.5V40.5ZM6.09375 39.5C5.81761 39.5 5.59375 39.7239 5.59375 40C5.59375 40.2761 5.81761 40.5 6.09375 40.5V39.5ZM2.03125 40.5C2.3074 40.5 2.53125 40.2761 2.53125 40C2.53125 39.7239 2.3074 39.5 2.03125 39.5V40.5ZM0.5 38.25C0.5 37.9739 0.276142 37.75 0 37.75C-0.276142 37.75 -0.5 37.9739 -0.5 38.25H0.5ZM-0.5 34.75C-0.5 35.0261 -0.276142 35.25 0 35.25C0.276142 35.25 0.5 35.0261 0.5 34.75H-0.5ZM0.5 31.25C0.5 30.9739 0.276142 30.75 0 30.75C-0.276142 30.75 -0.5 30.9739 -0.5 31.25H0.5ZM-0.5 27.75C-0.5 28.0261 -0.276142 28.25 0 28.25C0.276142 28.25 0.5 28.0261 0.5 27.75H-0.5ZM0.5 24.25C0.5 23.9739 0.276142 23.75 0 23.75C-0.276142 23.75 -0.5 23.9739 -0.5 24.25H0.5ZM-0.5 20.75C-0.5 21.0261 -0.276142 21.25 0 21.25C0.276142 21.25 0.5 21.0261 0.5 20.75H-0.5ZM0.5 17.25C0.5 16.9739 0.276142 16.75 0 16.75C-0.276142 16.75 -0.5 16.9739 -0.5 17.25H0.5ZM-0.5 13.75C-0.5 14.0261 -0.276142 14.25 0 14.25C0.276142 14.25 0.5 14.0261 0.5 13.75H-0.5ZM0.718903 9.75509C0.772493 9.4842 0.596335 9.22115 0.325443 9.16756C0.0545508 9.11397 -0.208495 9.29013 -0.262085 9.56102L0.718903 9.75509ZM1.60573 5.05445C1.45211 5.28392 1.51359 5.59447 1.74306 5.7481C1.97252 5.90172 2.28308 5.84024 2.4367 5.61077L1.60573 5.05445ZM5.61077 2.4367C5.84024 2.28308 5.90172 1.97252 5.7481 1.74305C5.59447 1.51359 5.28392 1.45211 5.05445 1.60573L5.61077 2.4367ZM9.56102 -0.262085C9.29013 -0.208495 9.11397 0.0545506 9.16756 0.325443C9.22115 0.596335 9.4842 0.772493 9.75509 0.718902L9.56102 -0.262085ZM14.0357 0.5C14.3119 0.5 14.5357 0.276142 14.5357 0C14.5357 -0.276142 14.3119 -0.5 14.0357 -0.5V0.5ZM18.1071 -0.5C17.831 -0.5 17.6071 -0.276142 17.6071 0C17.6071 0.276142 17.831 0.5 18.1071 0.5V-0.5ZM22.1786 0.5C22.4547 0.5 22.6786 0.276142 22.6786 0C22.6786 -0.276142 22.4547 -0.5 22.1786 -0.5V0.5ZM26.25 -0.5C25.9739 -0.5 25.75 -0.276142 25.75 0C25.75 0.276142 25.9739 0.5 26.25 0.5V-0.5ZM30.3214 0.5C30.5976 0.5 30.8214 0.276142 30.8214 0C30.8214 -0.276142 30.5976 -0.5 30.3214 -0.5V0.5ZM34.3929 -0.5C34.1167 -0.5 33.8929 -0.276142 33.8929 0C33.8929 0.276142 34.1167 0.5 34.3929 0.5V-0.5ZM38.4643 0.5C38.7404 0.5 38.9643 0.276142 38.9643 0C38.9643 -0.276142 38.7404 -0.5 38.4643 -0.5V0.5ZM42.5357 -0.5C42.2596 -0.5 42.0357 -0.276142 42.0357 0C42.0357 0.276142 42.2596 0.5 42.5357 0.5V-0.5ZM46.6071 0.5C46.8833 0.5 47.1071 0.276142 47.1071 0C47.1071 -0.276142 46.8833 -0.5 46.6071 -0.5V0.5ZM50.6786 -0.5C50.4024 -0.5 50.1786 -0.276142 50.1786 0C50.1786 0.276142 50.4024 0.5 50.6786 0.5V-0.5ZM54.75 0.5C55.0261 0.5 55.25 0.276142 55.25 0C55.25 -0.276142 55.0261 -0.5 54.75 -0.5V0.5ZM58.8214 -0.5C58.5453 -0.5 58.3214 -0.276142 58.3214 0C58.3214 0.276142 58.5453 0.5 58.8214 0.5V-0.5ZM62.8929 0.5C63.169 0.5 63.3929 0.276142 63.3929 0C63.3929 -0.276142 63.169 -0.5 62.8929 -0.5V0.5ZM66.9643 -0.5C66.6882 -0.5 66.4643 -0.276142 66.4643 0C66.4643 0.276142 66.6882 0.5 66.9643 0.5V-0.5ZM71.0357 0.5C71.3119 0.5 71.5357 0.276142 71.5357 0C71.5357 -0.276142 71.3119 -0.5 71.0357 -0.5V0.5ZM75.1072 -0.5C74.831 -0.5 74.6072 -0.276142 74.6072 0C74.6072 0.276142 74.831 0.5 75.1072 0.5V-0.5ZM79.1786 0.5C79.4547 0.5 79.6786 0.276142 79.6786 0C79.6786 -0.276142 79.4547 -0.5 79.1786 -0.5V0.5ZM83.25 -0.5C82.9739 -0.5 82.75 -0.276142 82.75 0C82.75 0.276142 82.9739 0.5 83.25 0.5V-0.5ZM87.3214 0.5C87.5976 0.5 87.8214 0.276142 87.8214 0C87.8214 -0.276142 87.5976 -0.5 87.3214 -0.5V0.5ZM91.3929 -0.5C91.1167 -0.5 90.8929 -0.276142 90.8929 0C90.8929 0.276142 91.1167 0.5 91.3929 0.5V-0.5ZM95.4643 0.5C95.7404 0.5 95.9643 0.276142 95.9643 0C95.9643 -0.276142 95.7404 -0.5 95.4643 -0.5V0.5ZM99.5357 -0.5C99.2596 -0.5 99.0357 -0.276142 99.0357 0C99.0357 0.276142 99.2596 0.5 99.5357 0.5V-0.5ZM103.607 0.5C103.883 0.5 104.107 0.276142 104.107 0C104.107 -0.276142 103.883 -0.5 103.607 -0.5V0.5ZM107.679 -0.5C107.402 -0.5 107.179 -0.276142 107.179 0C107.179 0.276142 107.402 0.5 107.679 0.5V-0.5ZM111.75 0.5C112.026 0.5 112.25 0.276142 112.25 0C112.25 -0.276142 112.026 -0.5 111.75 -0.5V0.5ZM115.821 -0.5C115.545 -0.5 115.321 -0.276142 115.321 0C115.321 0.276142 115.545 0.5 115.821 0.5V-0.5ZM119.893 0.5C120.169 0.5 120.393 0.276142 120.393 0C120.393 -0.276142 120.169 -0.5 119.893 -0.5V0.5ZM123.964 -0.5C123.688 -0.5 123.464 -0.276142 123.464 0C123.464 0.276142 123.688 0.5 123.964 0.5V-0.5ZM128.036 0.5C128.312 0.5 128.536 0.276142 128.536 0C128.536 -0.276142 128.312 -0.5 128.036 -0.5V0.5ZM132.107 -0.5C131.831 -0.5 131.607 -0.276142 131.607 0C131.607 0.276142 131.831 0.5 132.107 0.5V-0.5ZM136.179 0.5C136.455 0.5 136.679 0.276142 136.679 0C136.679 -0.276142 136.455 -0.5 136.179 -0.5V0.5ZM140.25 -0.5C139.974 -0.5 139.75 -0.276142 139.75 0C139.75 0.276142 139.974 0.5 140.25 0.5V-0.5ZM144.321 0.5C144.598 0.5 144.821 0.276142 144.821 0C144.821 -0.276142 144.598 -0.5 144.321 -0.5V0.5ZM148.393 -0.5C148.117 -0.5 147.893 -0.276142 147.893 0C147.893 0.276142 148.117 0.5 148.393 0.5V-0.5ZM152.464 0.5C152.74 0.5 152.964 0.276142 152.964 0C152.964 -0.276142 152.74 -0.5 152.464 -0.5V0.5ZM156.536 -0.5C156.26 -0.5 156.036 -0.276142 156.036 0C156.036 0.276142 156.26 0.5 156.536 0.5V-0.5ZM160.607 0.5C160.883 0.5 161.107 0.276142 161.107 0C161.107 -0.276142 160.883 -0.5 160.607 -0.5V0.5ZM164.679 -0.5C164.402 -0.5 164.179 -0.276142 164.179 0C164.179 0.276142 164.402 0.5 164.679 0.5V-0.5ZM168.75 0.5C169.026 0.5 169.25 0.276142 169.25 0C169.25 -0.276142 169.026 -0.5 168.75 -0.5V0.5ZM172.821 -0.5C172.545 -0.5 172.321 -0.276142 172.321 0C172.321 0.276142 172.545 0.5 172.821 0.5V-0.5ZM176.893 0.5C177.169 0.5 177.393 0.276142 177.393 0C177.393 -0.276142 177.169 -0.5 176.893 -0.5V0.5ZM180.964 -0.5C180.688 -0.5 180.464 -0.276142 180.464 0C180.464 0.276142 180.688 0.5 180.964 0.5V-0.5ZM185.245 0.718903C185.516 0.772493 185.779 0.596335 185.832 0.325443C185.886 0.0545508 185.71 -0.208495 185.439 -0.262085L185.245 0.718903ZM189.946 1.60573C189.716 1.45211 189.406 1.51359 189.252 1.74306C189.098 1.97252 189.16 2.28308 189.389 2.4367L189.946 1.60573ZM192.563 5.61077C192.717 5.84024 193.027 5.90172 193.257 5.7481C193.486 5.59447 193.548 5.28392 193.394 5.05445L192.563 5.61077ZM195.262 9.56102C195.208 9.29013 194.945 9.11397 194.675 9.16756C194.404 9.22115 194.228 9.4842 194.281 9.75509L195.262 9.56102ZM194.5 13.75C194.5 14.0261 194.724 14.25 195 14.25C195.276 14.25 195.5 14.0261 195.5 13.75H194.5ZM195.5 17.25C195.5 16.9739 195.276 16.75 195 16.75C194.724 16.75 194.5 16.9739 194.5 17.25H195.5ZM194.5 20.75C194.5 21.0261 194.724 21.25 195 21.25C195.276 21.25 195.5 21.0261 195.5 20.75H194.5ZM195.5 24.25C195.5 23.9739 195.276 23.75 195 23.75C194.724 23.75 194.5 23.9739 194.5 24.25H195.5ZM194.5 27.75C194.5 28.0261 194.724 28.25 195 28.25C195.276 28.25 195.5 28.0261 195.5 27.75H194.5ZM195.5 31.25C195.5 30.9739 195.276 30.75 195 30.75C194.724 30.75 194.5 30.9739 194.5 31.25H195.5ZM194.5 34.75C194.5 35.0261 194.724 35.25 195 35.25C195.276 35.25 195.5 35.0261 195.5 34.75H194.5ZM195.5 38.25C195.5 37.9739 195.276 37.75 195 37.75C194.724 37.75 194.5 37.9739 194.5 38.25H195.5ZM195 39.5H192.969V40.5H195V39.5ZM188.906 39.5H184.844V40.5H188.906V39.5ZM180.781 39.5H176.719V40.5H180.781V39.5ZM172.656 39.5H168.594V40.5H172.656V39.5ZM164.531 39.5H160.469V40.5H164.531V39.5ZM156.406 39.5H152.344V40.5H156.406V39.5ZM148.281 39.5H144.219V40.5H148.281V39.5ZM140.156 39.5H136.094V40.5H140.156V39.5ZM132.031 39.5H127.969V40.5H132.031V39.5ZM123.906 39.5H119.844V40.5H123.906V39.5ZM115.781 39.5H111.719V40.5H115.781V39.5ZM107.656 39.5H103.594V40.5H107.656V39.5ZM99.5312 39.5H95.4687V40.5H99.5312V39.5ZM91.4062 39.5H87.3438V40.5H91.4062V39.5ZM83.2812 39.5H79.2188V40.5H83.2812V39.5ZM75.1563 39.5H71.0937V40.5H75.1563V39.5ZM67.0312 39.5H62.9688V40.5H67.0312V39.5ZM58.9062 39.5H54.8438V40.5H58.9062V39.5ZM50.7813 39.5H46.7187V40.5H50.7813V39.5ZM42.6562 39.5H38.5938V40.5H42.6562V39.5ZM34.5312 39.5H30.4688V40.5H34.5312V39.5ZM26.4063 39.5H22.3437V40.5H26.4063V39.5ZM18.2812 39.5H14.2188V40.5H18.2812V39.5ZM10.1562 39.5H6.09375V40.5H10.1562V39.5ZM2.03125 39.5H0V40.5H2.03125V39.5ZM0.5 40V38.25H-0.5V40H0.5ZM0.5 34.75V31.25H-0.5V34.75H0.5ZM0.5 27.75V24.25H-0.5V27.75H0.5ZM0.5 20.75V17.25H-0.5V20.75H0.5ZM0.5 13.75V12H-0.5V13.75H0.5ZM0.5 12C0.5 11.2313 0.575345 10.4807 0.718903 9.75509L-0.262085 9.56102C-0.418219 10.3503 -0.5 11.1658 -0.5 12H0.5ZM2.4367 5.61077C3.27644 4.35646 4.35647 3.27644 5.61077 2.4367L5.05445 1.60573C3.69153 2.51819 2.51819 3.69153 1.60573 5.05445L2.4367 5.61077ZM9.75509 0.718902C10.4807 0.575345 11.2313 0.5 12 0.5V-0.5C11.1658 -0.5 10.3503 -0.418219 9.56102 -0.262085L9.75509 0.718902ZM12 0.5H14.0357V-0.5H12V0.5ZM18.1071 0.5H22.1786V-0.5H18.1071V0.5ZM26.25 0.5H30.3214V-0.5H26.25V0.5ZM34.3929 0.5H38.4643V-0.5H34.3929V0.5ZM42.5357 0.5H46.6071V-0.5H42.5357V0.5ZM50.6786 0.5H54.75V-0.5H50.6786V0.5ZM58.8214 0.5H62.8929V-0.5H58.8214V0.5ZM66.9643 0.5H71.0357V-0.5H66.9643V0.5ZM75.1072 0.5H79.1786V-0.5H75.1072V0.5ZM83.25 0.5H87.3214V-0.5H83.25V0.5ZM91.3929 0.5H95.4643V-0.5H91.3929V0.5ZM99.5357 0.5H103.607V-0.5H99.5357V0.5ZM107.679 0.5H111.75V-0.5H107.679V0.5ZM115.821 0.5H119.893V-0.5H115.821V0.5ZM123.964 0.5H128.036V-0.5H123.964V0.5ZM132.107 0.5H136.179V-0.5H132.107V0.5ZM140.25 0.5H144.321V-0.5H140.25V0.5ZM148.393 0.5H152.464V-0.5H148.393V0.5ZM156.536 0.5H160.607V-0.5H156.536V0.5ZM164.679 0.5H168.75V-0.5H164.679V0.5ZM172.821 0.5H176.893V-0.5H172.821V0.5ZM180.964 0.5H183V-0.5H180.964V0.5ZM183 0.5C183.769 0.5 184.519 0.575345 185.245 0.718903L185.439 -0.262085C184.65 -0.418219 183.834 -0.5 183 -0.5V0.5ZM189.389 2.4367C190.644 3.27644 191.724 4.35647 192.563 5.61077L193.394 5.05445C192.482 3.69153 191.308 2.51819 189.946 1.60573L189.389 2.4367ZM194.281 9.75509C194.425 10.4808 194.5 11.2313 194.5 12H195.5C195.5 11.1658 195.418 10.3503 195.262 9.56102L194.281 9.75509ZM194.5 12V13.75H195.5V12H194.5ZM194.5 17.25V20.75H195.5V17.25H194.5ZM194.5 24.25V27.75H195.5V24.25H194.5ZM194.5 31.25V34.75H195.5V31.25H194.5ZM194.5 38.25V40H195.5V38.25H194.5ZM195 40V41C195.552 41 196 40.5523 196 40H195ZM0 40H-1C-1 40.5523 -0.552285 41 0 41L0 40ZM192.969 39C192.416 39 191.969 39.4477 191.969 40C191.969 40.5523 192.416 41 192.969 41V39ZM188.906 41C189.459 41 189.906 40.5523 189.906 40C189.906 39.4477 189.459 39 188.906 39V41ZM184.844 39C184.291 39 183.844 39.4477 183.844 40C183.844 40.5523 184.291 41 184.844 41V39ZM180.781 41C181.334 41 181.781 40.5523 181.781 40C181.781 39.4477 181.334 39 180.781 39V41ZM176.719 39C176.166 39 175.719 39.4477 175.719 40C175.719 40.5523 176.166 41 176.719 41V39ZM172.656 41C173.209 41 173.656 40.5523 173.656 40C173.656 39.4477 173.209 39 172.656 39V41ZM168.594 39C168.041 39 167.594 39.4477 167.594 40C167.594 40.5523 168.041 41 168.594 41V39ZM164.531 41C165.084 41 165.531 40.5523 165.531 40C165.531 39.4477 165.084 39 164.531 39V41ZM160.469 39C159.916 39 159.469 39.4477 159.469 40C159.469 40.5523 159.916 41 160.469 41V39ZM156.406 41C156.959 41 157.406 40.5523 157.406 40C157.406 39.4477 156.959 39 156.406 39V41ZM152.344 39C151.791 39 151.344 39.4477 151.344 40C151.344 40.5523 151.791 41 152.344 41V39ZM148.281 41C148.834 41 149.281 40.5523 149.281 40C149.281 39.4477 148.834 39 148.281 39V41ZM144.219 39C143.666 39 143.219 39.4477 143.219 40C143.219 40.5523 143.666 41 144.219 41V39ZM140.156 41C140.709 41 141.156 40.5523 141.156 40C141.156 39.4477 140.709 39 140.156 39V41ZM136.094 39C135.541 39 135.094 39.4477 135.094 40C135.094 40.5523 135.541 41 136.094 41V39ZM132.031 41C132.584 41 133.031 40.5523 133.031 40C133.031 39.4477 132.584 39 132.031 39V41ZM127.969 39C127.416 39 126.969 39.4477 126.969 40C126.969 40.5523 127.416 41 127.969 41V39ZM123.906 41C124.459 41 124.906 40.5523 124.906 40C124.906 39.4477 124.459 39 123.906 39V41ZM119.844 39C119.291 39 118.844 39.4477 118.844 40C118.844 40.5523 119.291 41 119.844 41V39ZM115.781 41C116.334 41 116.781 40.5523 116.781 40C116.781 39.4477 116.334 39 115.781 39V41ZM111.719 39C111.166 39 110.719 39.4477 110.719 40C110.719 40.5523 111.166 41 111.719 41V39ZM107.656 41C108.209 41 108.656 40.5523 108.656 40C108.656 39.4477 108.209 39 107.656 39V41ZM103.594 39C103.041 39 102.594 39.4477 102.594 40C102.594 40.5523 103.041 41 103.594 41V39ZM99.5312 41C100.084 41 100.531 40.5523 100.531 40C100.531 39.4477 100.084 39 99.5312 39V41ZM95.4687 39C94.9165 39 94.4687 39.4477 94.4687 40C94.4687 40.5523 94.9165 41 95.4687 41V39ZM91.4062 41C91.9585 41 92.4062 40.5523 92.4062 40C92.4062 39.4477 91.9585 39 91.4062 39V41ZM87.3438 39C86.7915 39 86.3438 39.4477 86.3438 40C86.3438 40.5523 86.7915 41 87.3438 41V39ZM83.2812 41C83.8335 41 84.2812 40.5523 84.2812 40C84.2812 39.4477 83.8335 39 83.2812 39V41ZM79.2188 39C78.6665 39 78.2188 39.4477 78.2188 40C78.2188 40.5523 78.6665 41 79.2188 41V39ZM75.1563 41C75.7085 41 76.1563 40.5523 76.1563 40C76.1563 39.4477 75.7085 39 75.1563 39V41ZM71.0937 39C70.5415 39 70.0937 39.4477 70.0937 40C70.0937 40.5523 70.5415 41 71.0937 41V39ZM67.0312 41C67.5835 41 68.0312 40.5523 68.0312 40C68.0312 39.4477 67.5835 39 67.0312 39V41ZM62.9688 39C62.4165 39 61.9688 39.4477 61.9688 40C61.9688 40.5523 62.4165 41 62.9688 41V39ZM58.9062 41C59.4585 41 59.9062 40.5523 59.9062 40C59.9062 39.4477 59.4585 39 58.9062 39V41ZM54.8438 39C54.2915 39 53.8438 39.4477 53.8438 40C53.8438 40.5523 54.2915 41 54.8438 41V39ZM50.7813 41C51.3335 41 51.7813 40.5523 51.7813 40C51.7813 39.4477 51.3335 39 50.7813 39V41ZM46.7187 39C46.1665 39 45.7187 39.4477 45.7187 40C45.7187 40.5523 46.1665 41 46.7187 41V39ZM42.6562 41C43.2085 41 43.6562 40.5523 43.6562 40C43.6562 39.4477 43.2085 39 42.6562 39V41ZM38.5938 39C38.0415 39 37.5938 39.4477 37.5938 40C37.5938 40.5523 38.0415 41 38.5938 41V39ZM34.5312 41C35.0835 41 35.5312 40.5523 35.5312 40C35.5312 39.4477 35.0835 39 34.5312 39V41ZM30.4688 39C29.9165 39 29.4688 39.4477 29.4688 40C29.4688 40.5523 29.9165 41 30.4688 41V39ZM26.4063 41C26.9585 41 27.4063 40.5523 27.4063 40C27.4063 39.4477 26.9585 39 26.4063 39V41ZM22.3437 39C21.7915 39 21.3437 39.4477 21.3437 40C21.3437 40.5523 21.7915 41 22.3437 41V39ZM18.2812 41C18.8335 41 19.2812 40.5523 19.2812 40C19.2812 39.4477 18.8335 39 18.2812 39V41ZM14.2188 39C13.6665 39 13.2188 39.4477 13.2188 40C13.2188 40.5523 13.6665 41 14.2188 41V39ZM10.1562 41C10.7085 41 11.1562 40.5523 11.1562 40C11.1562 39.4477 10.7085 39 10.1562 39V41ZM6.09375 39C5.54147 39 5.09375 39.4477 5.09375 40C5.09375 40.5523 5.54147 41 6.09375 41V39ZM2.03125 41C2.58354 41 3.03125 40.5523 3.03125 40C3.03125 39.4477 2.58354 39 2.03125 39V41ZM1 38.25C1 37.6977 0.552285 37.25 0 37.25C-0.552285 37.25 -1 37.6977 -1 38.25H1ZM-1 34.75C-1 35.3023 -0.552285 35.75 0 35.75C0.552285 35.75 1 35.3023 1 34.75H-1ZM1 31.25C1 30.6977 0.552285 30.25 0 30.25C-0.552285 30.25 -1 30.6977 -1 31.25H1ZM-1 27.75C-1 28.3023 -0.552285 28.75 0 28.75C0.552285 28.75 1 28.3023 1 27.75H-1ZM1 24.25C1 23.6977 0.552285 23.25 0 23.25C-0.552285 23.25 -1 23.6977 -1 24.25H1ZM-1 20.75C-1 21.3023 -0.552285 21.75 0 21.75C0.552285 21.75 1 21.3023 1 20.75H-1ZM1 17.25C1 16.6977 0.552285 16.25 0 16.25C-0.552285 16.25 -1 16.6977 -1 17.25H1ZM-1 13.75C-1 14.3023 -0.552285 14.75 0 14.75C0.552285 14.75 1 14.3023 1 13.75H-1ZM1.2094 9.85213C1.31658 9.31034 0.964262 8.78425 0.422478 8.67707C-0.119307 8.56989 -0.645398 8.9222 -0.752579 9.46399L1.2094 9.85213ZM1.19025 4.77629C0.883 5.23522 1.00596 5.85633 1.4649 6.16358C1.92383 6.47083 2.54494 6.34786 2.85218 5.88893L1.19025 4.77629ZM5.88893 2.85218C6.34786 2.54494 6.47083 1.92383 6.16358 1.4649C5.85633 1.00596 5.23522 0.883 4.77629 1.19025L5.88893 2.85218ZM9.46399 -0.752579C8.9222 -0.645398 8.56989 -0.119307 8.67707 0.422477C8.78425 0.964262 9.31034 1.31658 9.85213 1.2094L9.46399 -0.752579ZM14.0357 1C14.588 1 15.0357 0.552285 15.0357 0C15.0357 -0.552285 14.588 -1 14.0357 -1V1ZM18.1071 -1C17.5549 -1 17.1071 -0.552285 17.1071 0C17.1071 0.552285 17.5549 1 18.1071 1V-1ZM22.1786 1C22.7309 1 23.1786 0.552285 23.1786 0C23.1786 -0.552285 22.7309 -1 22.1786 -1V1ZM26.25 -1C25.6977 -1 25.25 -0.552285 25.25 0C25.25 0.552285 25.6977 1 26.25 1V-1ZM30.3214 1C30.8737 1 31.3214 0.552285 31.3214 0C31.3214 -0.552285 30.8737 -1 30.3214 -1V1ZM34.3929 -1C33.8406 -1 33.3929 -0.552285 33.3929 0C33.3929 0.552285 33.8406 1 34.3929 1V-1ZM38.4643 1C39.0166 1 39.4643 0.552285 39.4643 0C39.4643 -0.552285 39.0166 -1 38.4643 -1V1ZM42.5357 -1C41.9834 -1 41.5357 -0.552285 41.5357 0C41.5357 0.552285 41.9834 1 42.5357 1V-1ZM46.6071 1C47.1594 1 47.6071 0.552285 47.6071 0C47.6071 -0.552285 47.1594 -1 46.6071 -1V1ZM50.6786 -1C50.1263 -1 49.6786 -0.552285 49.6786 0C49.6786 0.552285 50.1263 1 50.6786 1V-1ZM54.75 1C55.3023 1 55.75 0.552285 55.75 0C55.75 -0.552285 55.3023 -1 54.75 -1V1ZM58.8214 -1C58.2691 -1 57.8214 -0.552285 57.8214 0C57.8214 0.552285 58.2691 1 58.8214 1V-1ZM62.8929 1C63.4451 1 63.8929 0.552285 63.8929 0C63.8929 -0.552285 63.4451 -1 62.8929 -1V1ZM66.9643 -1C66.412 -1 65.9643 -0.552285 65.9643 0C65.9643 0.552285 66.412 1 66.9643 1V-1ZM71.0357 1C71.588 1 72.0357 0.552285 72.0357 0C72.0357 -0.552285 71.588 -1 71.0357 -1V1ZM75.1072 -1C74.5549 -1 74.1072 -0.552285 74.1072 0C74.1072 0.552285 74.5549 1 75.1072 1V-1ZM79.1786 1C79.7309 1 80.1786 0.552285 80.1786 0C80.1786 -0.552285 79.7309 -1 79.1786 -1V1ZM83.25 -1C82.6977 -1 82.25 -0.552285 82.25 0C82.25 0.552285 82.6977 1 83.25 1V-1ZM87.3214 1C87.8737 1 88.3214 0.552285 88.3214 0C88.3214 -0.552285 87.8737 -1 87.3214 -1V1ZM91.3929 -1C90.8406 -1 90.3929 -0.552285 90.3929 0C90.3929 0.552285 90.8406 1 91.3929 1V-1ZM95.4643 1C96.0166 1 96.4643 0.552285 96.4643 0C96.4643 -0.552285 96.0166 -1 95.4643 -1V1ZM99.5357 -1C98.9834 -1 98.5357 -0.552285 98.5357 0C98.5357 0.552285 98.9834 1 99.5357 1V-1ZM103.607 1C104.159 1 104.607 0.552285 104.607 0C104.607 -0.552285 104.159 -1 103.607 -1V1ZM107.679 -1C107.126 -1 106.679 -0.552285 106.679 0C106.679 0.552285 107.126 1 107.679 1V-1ZM111.75 1C112.302 1 112.75 0.552285 112.75 0C112.75 -0.552285 112.302 -1 111.75 -1V1ZM115.821 -1C115.269 -1 114.821 -0.552285 114.821 0C114.821 0.552285 115.269 1 115.821 1V-1ZM119.893 1C120.445 1 120.893 0.552285 120.893 0C120.893 -0.552285 120.445 -1 119.893 -1V1ZM123.964 -1C123.412 -1 122.964 -0.552285 122.964 0C122.964 0.552285 123.412 1 123.964 1V-1ZM128.036 1C128.588 1 129.036 0.552285 129.036 0C129.036 -0.552285 128.588 -1 128.036 -1V1ZM132.107 -1C131.555 -1 131.107 -0.552285 131.107 0C131.107 0.552285 131.555 1 132.107 1V-1ZM136.179 1C136.731 1 137.179 0.552285 137.179 0C137.179 -0.552285 136.731 -1 136.179 -1V1ZM140.25 -1C139.698 -1 139.25 -0.552285 139.25 0C139.25 0.552285 139.698 1 140.25 1V-1ZM144.321 1C144.874 1 145.321 0.552285 145.321 0C145.321 -0.552285 144.874 -1 144.321 -1V1ZM148.393 -1C147.841 -1 147.393 -0.552285 147.393 0C147.393 0.552285 147.841 1 148.393 1V-1ZM152.464 1C153.017 1 153.464 0.552285 153.464 0C153.464 -0.552285 153.017 -1 152.464 -1V1ZM156.536 -1C155.983 -1 155.536 -0.552285 155.536 0C155.536 0.552285 155.983 1 156.536 1V-1ZM160.607 1C161.159 1 161.607 0.552285 161.607 0C161.607 -0.552285 161.159 -1 160.607 -1V1ZM164.679 -1C164.126 -1 163.679 -0.552285 163.679 0C163.679 0.552285 164.126 1 164.679 1V-1ZM168.75 1C169.302 1 169.75 0.552285 169.75 0C169.75 -0.552285 169.302 -1 168.75 -1V1ZM172.821 -1C172.269 -1 171.821 -0.552285 171.821 0C171.821 0.552285 172.269 1 172.821 1V-1ZM176.893 1C177.445 1 177.893 0.552285 177.893 0C177.893 -0.552285 177.445 -1 176.893 -1V1ZM180.964 -1C180.412 -1 179.964 -0.552285 179.964 0C179.964 0.552285 180.412 1 180.964 1V-1ZM185.148 1.2094C185.69 1.31658 186.216 0.964262 186.323 0.422478C186.43 -0.119307 186.078 -0.645398 185.536 -0.752579L185.148 1.2094ZM190.224 1.19025C189.765 0.883 189.144 1.00596 188.836 1.4649C188.529 1.92383 188.652 2.54494 189.111 2.85218L190.224 1.19025ZM192.148 5.88893C192.455 6.34786 193.076 6.47083 193.535 6.16358C193.994 5.85633 194.117 5.23522 193.81 4.77629L192.148 5.88893ZM195.753 9.46399C195.645 8.9222 195.119 8.56989 194.578 8.67707C194.036 8.78425 193.683 9.31034 193.791 9.85213L195.753 9.46399ZM194 13.75C194 14.3023 194.448 14.75 195 14.75C195.552 14.75 196 14.3023 196 13.75H194ZM196 17.25C196 16.6977 195.552 16.25 195 16.25C194.448 16.25 194 16.6977 194 17.25H196ZM194 20.75C194 21.3023 194.448 21.75 195 21.75C195.552 21.75 196 21.3023 196 20.75H194ZM196 24.25C196 23.6977 195.552 23.25 195 23.25C194.448 23.25 194 23.6977 194 24.25H196ZM194 27.75C194 28.3023 194.448 28.75 195 28.75C195.552 28.75 196 28.3023 196 27.75H194ZM196 31.25C196 30.6977 195.552 30.25 195 30.25C194.448 30.25 194 30.6977 194 31.25H196ZM194 34.75C194 35.3023 194.448 35.75 195 35.75C195.552 35.75 196 35.3023 196 34.75H194ZM196 38.25C196 37.6977 195.552 37.25 195 37.25C194.448 37.25 194 37.6977 194 38.25H196ZM195 39H192.969V41H195V39ZM188.906 39H184.844V41H188.906V39ZM180.781 39H176.719V41H180.781V39ZM172.656 39H168.594V41H172.656V39ZM164.531 39H160.469V41H164.531V39ZM156.406 39H152.344V41H156.406V39ZM148.281 39H144.219V41H148.281V39ZM140.156 39H136.094V41H140.156V39ZM132.031 39H127.969V41H132.031V39ZM123.906 39H119.844V41H123.906V39ZM115.781 39H111.719V41H115.781V39ZM107.656 39H103.594V41H107.656V39ZM99.5312 39H95.4687V41H99.5312V39ZM91.4062 39H87.3438V41H91.4062V39ZM83.2812 39H79.2188V41H83.2812V39ZM75.1563 39H71.0937V41H75.1563V39ZM67.0312 39H62.9688V41H67.0312V39ZM58.9062 39H54.8438V41H58.9062V39ZM50.7813 39H46.7187V41H50.7813V39ZM42.6562 39H38.5938V41H42.6562V39ZM34.5312 39H30.4688V41H34.5312V39ZM26.4063 39H22.3437V41H26.4063V39ZM18.2812 39H14.2188V41H18.2812V39ZM10.1562 39H6.09375V41H10.1562V39ZM2.03125 39H0V41H2.03125V39ZM1 40V38.25H-1V40H1ZM1 34.75V31.25H-1V34.75H1ZM1 27.75V24.25H-1V27.75H1ZM1 20.75V17.25H-1V20.75H1ZM1 13.75V12H-1V13.75H1ZM1 12C1 11.2641 1.07213 10.546 1.2094 9.85213L-0.752579 9.46399C-0.915001 10.285 -1 11.1331 -1 12H1ZM2.85218 5.88893C3.65556 4.68893 4.68894 3.65556 5.88893 2.85218L4.77629 1.19025C3.35906 2.13906 2.13906 3.35906 1.19025 4.77629L2.85218 5.88893ZM9.85213 1.2094C10.546 1.07213 11.2641 1 12 1V-1C11.1331 -1 10.285 -0.915001 9.46399 -0.752579L9.85213 1.2094ZM12 1H14.0357V-1H12V1ZM18.1071 1H22.1786V-1H18.1071V1ZM26.25 1H30.3214V-1H26.25V1ZM34.3929 1H38.4643V-1H34.3929V1ZM42.5357 1H46.6071V-1H42.5357V1ZM50.6786 1H54.75V-1H50.6786V1ZM58.8214 1H62.8929V-1H58.8214V1ZM66.9643 1H71.0357V-1H66.9643V1ZM75.1072 1H79.1786V-1H75.1072V1ZM83.25 1H87.3214V-1H83.25V1ZM91.3929 1H95.4643V-1H91.3929V1ZM99.5357 1H103.607V-1H99.5357V1ZM107.679 1H111.75V-1H107.679V1ZM115.821 1H119.893V-1H115.821V1ZM123.964 1H128.036V-1H123.964V1ZM132.107 1H136.179V-1H132.107V1ZM140.25 1H144.321V-1H140.25V1ZM148.393 1H152.464V-1H148.393V1ZM156.536 1H160.607V-1H156.536V1ZM164.679 1H168.75V-1H164.679V1ZM172.821 1H176.893V-1H172.821V1ZM180.964 1H183V-1H180.964V1ZM183 1C183.736 1 184.454 1.07213 185.148 1.2094L185.536 -0.752579C184.715 -0.915001 183.867 -1 183 -1V1ZM189.111 2.85218C190.311 3.65556 191.344 4.68894 192.148 5.88893L193.81 4.77629C192.861 3.35906 191.641 2.13906 190.224 1.19025L189.111 2.85218ZM193.791 9.85213C193.928 10.546 194 11.2641 194 12H196C196 11.1331 195.915 10.285 195.753 9.46399L193.791 9.85213ZM194 12V13.75H196V12H194ZM194 17.25V20.75H196V17.25H194ZM194 24.25V27.75H196V24.25H194ZM194 31.25V34.75H196V31.25H194ZM194 38.25V40H196V38.25H194Z" fill="#CCB29C"/>
<circle cx="213.578" cy="20" r="2.57762" fill="#DFC6B0"/>
<path d="M232.155 12C232.155 5.37258 237.528 0 244.155 0H416.155C422.783 0 428.155 5.37258 428.155 12V40H232.155V12Z" fill="#CCB29C" fill-opacity="0.1"/>
<path d="M253.467 13.8V25H254.811V16.248L258.635 22.456L262.459 16.232V25H263.803V13.8H262.507L258.667 20.056L254.811 13.8H253.467ZM269.136 17.416C266.912 17.416 265.44 19.144 265.44 21.304C265.44 23.496 267.056 25.192 269.296 25.192C271.248 25.192 272.368 23.736 272.368 23.736L271.52 22.856C271.52 22.856 270.752 23.944 269.296 23.944C267.904 23.944 266.832 22.904 266.752 21.784H272.72C272.736 21.608 272.736 21.496 272.736 21.352C272.736 18.968 271.2 17.416 269.136 17.416ZM266.784 20.664C266.88 19.896 267.536 18.664 269.136 18.664C270.624 18.664 271.376 19.832 271.424 20.664H266.784ZM277.157 17.416C275.157 17.416 273.573 19.128 273.573 21.304C273.573 23.48 275.157 25.192 277.157 25.192C278.933 25.192 279.653 23.928 279.653 23.928V25H280.885V12.904H279.541V18.52C279.541 18.52 278.789 17.416 277.157 17.416ZM279.541 22.664C279.541 22.664 278.837 23.944 277.365 23.944C275.861 23.944 274.917 22.76 274.917 21.304C274.917 19.848 275.893 18.664 277.365 18.664C278.837 18.664 279.541 19.944 279.541 19.944V22.664ZM283.286 25H284.63V17.608H283.286V25ZM283.046 15.24C283.046 15.736 283.462 16.152 283.958 16.152C284.454 16.152 284.87 15.736 284.87 15.24C284.87 14.744 284.454 14.328 283.958 14.328C283.462 14.328 283.046 14.744 283.046 15.24ZM286.101 18.824H287.541V22.872C287.541 24.504 288.709 25.192 289.765 25.192C290.197 25.192 290.661 25.096 291.301 24.744L290.805 23.64C290.805 23.64 290.373 23.944 289.957 23.944C289.237 23.944 288.885 23.528 288.885 22.808V18.824H291.189V17.608H288.885V15.352H287.541V17.608H286.101V18.824ZM295.76 17.416C293.536 17.416 292.064 19.144 292.064 21.304C292.064 23.496 293.68 25.192 295.92 25.192C297.872 25.192 298.992 23.736 298.992 23.736L298.144 22.856C298.144 22.856 297.376 23.944 295.92 23.944C294.528 23.944 293.456 22.904 293.376 21.784H299.344C299.36 21.608 299.36 21.496 299.36 21.352C299.36 18.968 297.824 17.416 295.76 17.416ZM293.408 20.664C293.504 19.896 294.16 18.664 295.76 18.664C297.248 18.664 298 19.832 298.048 20.664H293.408ZM304.021 17.416C302.613 17.416 301.957 18.744 301.957 18.744V17.608H300.709V25H302.053V19.912C302.053 19.912 302.581 18.664 303.749 18.664C304.309 18.664 304.597 18.824 304.597 18.824L305.093 17.608C305.093 17.608 304.629 17.416 304.021 17.416ZM309.278 17.416C307.87 17.416 307.214 18.744 307.214 18.744V17.608H305.966V25H307.31V19.912C307.31 19.912 307.838 18.664 309.006 18.664C309.566 18.664 309.854 18.824 309.854 18.824L310.35 17.608C310.35 17.608 309.886 17.416 309.278 17.416ZM316.43 22.696C316.43 22.696 315.71 23.944 314.27 23.944C312.766 23.944 311.806 22.76 311.806 21.304C311.806 19.848 312.766 18.664 314.27 18.664C315.71 18.664 316.43 19.912 316.43 19.912V22.696ZM316.542 17.608V18.68C316.542 18.68 315.822 17.416 314.014 17.416C312.046 17.416 310.462 19.128 310.462 21.304C310.462 23.48 312.046 25.192 314.014 25.192C315.822 25.192 316.542 23.928 316.542 23.928V25H317.774V17.608H316.542ZM323.157 17.416C321.557 17.416 320.885 18.648 320.885 18.648V17.608H319.637V25H320.981V19.912C320.981 19.912 321.621 18.664 322.821 18.664C323.813 18.664 324.597 19.208 324.597 20.472V25H325.941V20.248C325.941 18.424 324.629 17.416 323.157 17.416ZM331.001 17.416C328.777 17.416 327.305 19.144 327.305 21.304C327.305 23.496 328.921 25.192 331.161 25.192C333.113 25.192 334.233 23.736 334.233 23.736L333.385 22.856C333.385 22.856 332.617 23.944 331.161 23.944C329.769 23.944 328.697 22.904 328.617 21.784H334.585C334.601 21.608 334.601 21.496 334.601 21.352C334.601 18.968 333.065 17.416 331.001 17.416ZM328.649 20.664C328.745 19.896 329.401 18.664 331.001 18.664C332.489 18.664 333.241 19.832 333.289 20.664H328.649ZM341.405 22.696C341.405 22.696 340.685 23.944 339.245 23.944C337.741 23.944 336.781 22.76 336.781 21.304C336.781 19.848 337.741 18.664 339.245 18.664C340.685 18.664 341.405 19.912 341.405 19.912V22.696ZM341.517 17.608V18.68C341.517 18.68 340.797 17.416 338.989 17.416C337.021 17.416 335.437 19.128 335.437 21.304C335.437 23.48 337.021 25.192 338.989 25.192C340.797 25.192 341.517 23.928 341.517 23.928V25H342.749V17.608H341.517ZM348.133 17.416C346.533 17.416 345.861 18.648 345.861 18.648V17.608H344.613V25H345.957V19.912C345.957 19.912 346.597 18.664 347.797 18.664C348.789 18.664 349.573 19.208 349.573 20.472V25H350.917V20.248C350.917 18.424 349.605 17.416 348.133 17.416ZM362.553 22.888C362.553 22.888 361.833 23.944 360.393 23.944C358.905 23.944 357.929 22.76 357.929 21.304C357.929 19.848 358.905 18.664 360.393 18.664C361.705 18.664 362.425 19.56 362.425 19.56L363.337 18.744C363.337 18.744 362.281 17.416 360.393 17.416C358.217 17.416 356.585 19.144 356.585 21.304C356.585 23.48 358.217 25.192 360.393 25.192C362.345 25.192 363.417 23.768 363.417 23.768L362.553 22.888ZM367.838 17.416C365.662 17.416 364.03 19.128 364.03 21.304C364.03 23.48 365.662 25.192 367.838 25.192C370.014 25.192 371.646 23.48 371.646 21.304C371.646 19.128 370.014 17.416 367.838 17.416ZM367.838 23.944C366.35 23.944 365.374 22.76 365.374 21.304C365.374 19.848 366.35 18.664 367.838 18.664C369.326 18.664 370.302 19.848 370.302 21.304C370.302 22.76 369.326 23.944 367.838 23.944ZM375.786 25.192C377.386 25.192 378.058 23.864 378.058 23.864V25H379.306V17.608H377.962V22.728C377.962 22.728 377.37 23.944 376.122 23.944C375.13 23.944 374.346 23.4 374.346 22.136V17.608H373.002V22.36C373.002 24.184 374.314 25.192 375.786 25.192ZM380.702 23.64C380.702 23.64 381.79 25.192 383.87 25.192C385.294 25.192 386.798 24.456 386.798 23.032C386.798 21.528 385.598 21 384.19 20.696C382.974 20.44 382.398 20.136 382.398 19.576C382.398 19.096 382.862 18.632 383.806 18.632C384.926 18.632 385.662 19.448 385.662 19.448L386.542 18.536C386.542 18.536 385.55 17.416 383.806 17.416C382.158 17.416 381.086 18.472 381.086 19.544C381.086 20.936 382.206 21.56 383.79 21.88C384.926 22.104 385.47 22.424 385.47 23.064C385.47 23.656 384.622 23.976 383.87 23.976C382.414 23.976 381.63 22.776 381.63 22.776L380.702 23.64ZM388.523 25H389.867V17.608H388.523V25ZM388.283 15.24C388.283 15.736 388.699 16.152 389.195 16.152C389.691 16.152 390.107 15.736 390.107 15.24C390.107 14.744 389.691 14.328 389.195 14.328C388.699 14.328 388.283 14.744 388.283 15.24ZM395.498 17.416C393.898 17.416 393.226 18.648 393.226 18.648V17.608H391.978V25H393.322V19.912C393.322 19.912 393.962 18.664 395.162 18.664C396.154 18.664 396.938 19.208 396.938 20.472V25H398.282V20.248C398.282 18.424 396.97 17.416 395.498 17.416ZM403.341 17.416C401.117 17.416 399.645 19.144 399.645 21.304C399.645 23.496 401.261 25.192 403.501 25.192C405.453 25.192 406.573 23.736 406.573 23.736L405.725 22.856C405.725 22.856 404.957 23.944 403.501 23.944C402.109 23.944 401.037 22.904 400.957 21.784H406.925C406.941 21.608 406.941 21.496 406.941 21.352C406.941 18.968 405.405 17.416 403.341 17.416ZM400.989 20.664C401.085 19.896 401.741 18.664 403.341 18.664C404.829 18.664 405.581 19.832 405.629 20.664H400.989Z" fill="#CCB29C"/>
<path d="M428.155 40V40.5C428.431 40.5 428.655 40.2761 428.655 40H428.155ZM232.155 40H231.655C231.655 40.2761 231.879 40.5 232.155 40.5V40ZM426.195 39.5C425.919 39.5 425.695 39.7239 425.695 40C425.695 40.2761 425.919 40.5 426.195 40.5V39.5ZM422.275 40.5C422.551 40.5 422.775 40.2761 422.775 40C422.775 39.7239 422.551 39.5 422.275 39.5V40.5ZM418.355 39.5C418.079 39.5 417.855 39.7239 417.855 40C417.855 40.2761 418.079 40.5 418.355 40.5V39.5ZM414.435 40.5C414.711 40.5 414.935 40.2761 414.935 40C414.935 39.7239 414.711 39.5 414.435 39.5V40.5ZM410.515 39.5C410.239 39.5 410.015 39.7239 410.015 40C410.015 40.2761 410.239 40.5 410.515 40.5V39.5ZM406.595 40.5C406.871 40.5 407.095 40.2761 407.095 40C407.095 39.7239 406.871 39.5 406.595 39.5V40.5ZM402.675 39.5C402.399 39.5 402.175 39.7239 402.175 40C402.175 40.2761 402.399 40.5 402.675 40.5V39.5ZM398.755 40.5C399.031 40.5 399.255 40.2761 399.255 40C399.255 39.7239 399.031 39.5 398.755 39.5V40.5ZM394.835 39.5C394.559 39.5 394.335 39.7239 394.335 40C394.335 40.2761 394.559 40.5 394.835 40.5V39.5ZM390.915 40.5C391.191 40.5 391.415 40.2761 391.415 40C391.415 39.7239 391.191 39.5 390.915 39.5V40.5ZM386.995 39.5C386.719 39.5 386.495 39.7239 386.495 40C386.495 40.2761 386.719 40.5 386.995 40.5V39.5ZM383.075 40.5C383.351 40.5 383.575 40.2761 383.575 40C383.575 39.7239 383.351 39.5 383.075 39.5V40.5ZM379.155 39.5C378.879 39.5 378.655 39.7239 378.655 40C378.655 40.2761 378.879 40.5 379.155 40.5V39.5ZM375.235 40.5C375.511 40.5 375.735 40.2761 375.735 40C375.735 39.7239 375.511 39.5 375.235 39.5V40.5ZM371.315 39.5C371.039 39.5 370.815 39.7239 370.815 40C370.815 40.2761 371.039 40.5 371.315 40.5V39.5ZM367.395 40.5C367.671 40.5 367.895 40.2761 367.895 40C367.895 39.7239 367.671 39.5 367.395 39.5V40.5ZM363.475 39.5C363.199 39.5 362.975 39.7239 362.975 40C362.975 40.2761 363.199 40.5 363.475 40.5V39.5ZM359.555 40.5C359.831 40.5 360.055 40.2761 360.055 40C360.055 39.7239 359.831 39.5 359.555 39.5V40.5ZM355.635 39.5C355.359 39.5 355.135 39.7239 355.135 40C355.135 40.2761 355.359 40.5 355.635 40.5V39.5ZM351.715 40.5C351.991 40.5 352.215 40.2761 352.215 40C352.215 39.7239 351.991 39.5 351.715 39.5V40.5ZM347.795 39.5C347.519 39.5 347.295 39.7239 347.295 40C347.295 40.2761 347.519 40.5 347.795 40.5V39.5ZM343.875 40.5C344.151 40.5 344.375 40.2761 344.375 40C344.375 39.7239 344.151 39.5 343.875 39.5V40.5ZM339.955 39.5C339.679 39.5 339.455 39.7239 339.455 40C339.455 40.2761 339.679 40.5 339.955 40.5V39.5ZM336.035 40.5C336.311 40.5 336.535 40.2761 336.535 40C336.535 39.7239 336.311 39.5 336.035 39.5V40.5ZM332.115 39.5C331.839 39.5 331.615 39.7239 331.615 40C331.615 40.2761 331.839 40.5 332.115 40.5V39.5ZM328.195 40.5C328.471 40.5 328.695 40.2761 328.695 40C328.695 39.7239 328.471 39.5 328.195 39.5V40.5ZM324.275 39.5C323.999 39.5 323.775 39.7239 323.775 40C323.775 40.2761 323.999 40.5 324.275 40.5V39.5ZM320.355 40.5C320.631 40.5 320.855 40.2761 320.855 40C320.855 39.7239 320.631 39.5 320.355 39.5V40.5ZM316.435 39.5C316.159 39.5 315.935 39.7239 315.935 40C315.935 40.2761 316.159 40.5 316.435 40.5V39.5ZM312.515 40.5C312.791 40.5 313.015 40.2761 313.015 40C313.015 39.7239 312.791 39.5 312.515 39.5V40.5ZM308.595 39.5C308.319 39.5 308.095 39.7239 308.095 40C308.095 40.2761 308.319 40.5 308.595 40.5V39.5ZM304.675 40.5C304.951 40.5 305.175 40.2761 305.175 40C305.175 39.7239 304.951 39.5 304.675 39.5V40.5ZM300.755 39.5C300.479 39.5 300.255 39.7239 300.255 40C300.255 40.2761 300.479 40.5 300.755 40.5V39.5ZM296.835 40.5C297.111 40.5 297.335 40.2761 297.335 40C297.335 39.7239 297.111 39.5 296.835 39.5V40.5ZM292.915 39.5C292.639 39.5 292.415 39.7239 292.415 40C292.415 40.2761 292.639 40.5 292.915 40.5V39.5ZM288.995 40.5C289.271 40.5 289.495 40.2761 289.495 40C289.495 39.7239 289.271 39.5 288.995 39.5V40.5ZM285.075 39.5C284.799 39.5 284.575 39.7239 284.575 40C284.575 40.2761 284.799 40.5 285.075 40.5V39.5ZM281.155 40.5C281.431 40.5 281.655 40.2761 281.655 40C281.655 39.7239 281.431 39.5 281.155 39.5V40.5ZM277.235 39.5C276.959 39.5 276.735 39.7239 276.735 40C276.735 40.2761 276.959 40.5 277.235 40.5V39.5ZM273.315 40.5C273.591 40.5 273.815 40.2761 273.815 40C273.815 39.7239 273.591 39.5 273.315 39.5V40.5ZM269.395 39.5C269.119 39.5 268.895 39.7239 268.895 40C268.895 40.2761 269.119 40.5 269.395 40.5V39.5ZM265.475 40.5C265.751 40.5 265.975 40.2761 265.975 40C265.975 39.7239 265.751 39.5 265.475 39.5V40.5ZM261.555 39.5C261.279 39.5 261.055 39.7239 261.055 40C261.055 40.2761 261.279 40.5 261.555 40.5V39.5ZM257.635 40.5C257.911 40.5 258.135 40.2761 258.135 40C258.135 39.7239 257.911 39.5 257.635 39.5V40.5ZM253.715 39.5C253.439 39.5 253.215 39.7239 253.215 40C253.215 40.2761 253.439 40.5 253.715 40.5V39.5ZM249.795 40.5C250.071 40.5 250.295 40.2761 250.295 40C250.295 39.7239 250.071 39.5 249.795 39.5V40.5ZM245.875 39.5C245.599 39.5 245.375 39.7239 245.375 40C245.375 40.2761 245.599 40.5 245.875 40.5V39.5ZM241.955 40.5C242.231 40.5 242.455 40.2761 242.455 40C242.455 39.7239 242.231 39.5 241.955 39.5V40.5ZM238.035 39.5C237.759 39.5 237.535 39.7239 237.535 40C237.535 40.2761 237.759 40.5 238.035 40.5V39.5ZM234.115 40.5C234.391 40.5 234.615 40.2761 234.615 40C234.615 39.7239 234.391 39.5 234.115 39.5V40.5ZM232.655 38.25C232.655 37.9739 232.431 37.75 232.155 37.75C231.879 37.75 231.655 37.9739 231.655 38.25H232.655ZM231.655 34.75C231.655 35.0261 231.879 35.25 232.155 35.25C232.431 35.25 232.655 35.0261 232.655 34.75H231.655ZM232.655 31.25C232.655 30.9739 232.431 30.75 232.155 30.75C231.879 30.75 231.655 30.9739 231.655 31.25H232.655ZM231.655 27.75C231.655 28.0261 231.879 28.25 232.155 28.25C232.431 28.25 232.655 28.0261 232.655 27.75H231.655ZM232.655 24.25C232.655 23.9739 232.431 23.75 232.155 23.75C231.879 23.75 231.655 23.9739 231.655 24.25H232.655ZM231.655 20.75C231.655 21.0261 231.879 21.25 232.155 21.25C232.431 21.25 232.655 21.0261 232.655 20.75H231.655ZM232.655 17.25C232.655 16.9739 232.431 16.75 232.155 16.75C231.879 16.75 231.655 16.9739 231.655 17.25H232.655ZM231.655 13.75C231.655 14.0261 231.879 14.25 232.155 14.25C232.431 14.25 232.655 14.0261 232.655 13.75H231.655ZM232.874 9.75509C232.928 9.4842 232.752 9.22115 232.481 9.16756C232.21 9.11397 231.947 9.29013 231.893 9.56102L232.874 9.75509ZM233.761 5.05445C233.607 5.28392 233.669 5.59447 233.898 5.7481C234.128 5.90172 234.438 5.84024 234.592 5.61077L233.761 5.05445ZM237.766 2.4367C237.996 2.28308 238.057 1.97252 237.903 1.74305C237.75 1.51359 237.439 1.45211 237.21 1.60573L237.766 2.4367ZM241.716 -0.262085C241.445 -0.208495 241.269 0.0545506 241.323 0.325443C241.376 0.596335 241.639 0.772493 241.91 0.718902L241.716 -0.262085ZM246.11 0.5C246.386 0.5 246.61 0.276142 246.61 0C246.61 -0.276142 246.386 -0.5 246.11 -0.5V0.5ZM250.019 -0.5C249.743 -0.5 249.519 -0.276142 249.519 0C249.519 0.276142 249.743 0.5 250.019 0.5V-0.5ZM253.928 0.5C254.204 0.5 254.428 0.276142 254.428 0C254.428 -0.276142 254.204 -0.5 253.928 -0.5V0.5ZM257.837 -0.5C257.561 -0.5 257.337 -0.276142 257.337 0C257.337 0.276142 257.561 0.5 257.837 0.5V-0.5ZM261.746 0.5C262.022 0.5 262.246 0.276142 262.246 0C262.246 -0.276142 262.022 -0.5 261.746 -0.5V0.5ZM265.655 -0.5C265.379 -0.5 265.155 -0.276142 265.155 0C265.155 0.276142 265.379 0.5 265.655 0.5V-0.5ZM269.564 0.5C269.841 0.5 270.064 0.276142 270.064 0C270.064 -0.276142 269.841 -0.5 269.564 -0.5V0.5ZM273.473 -0.5C273.197 -0.5 272.973 -0.276142 272.973 0C272.973 0.276142 273.197 0.5 273.473 0.5V-0.5ZM277.383 0.5C277.659 0.5 277.883 0.276142 277.883 0C277.883 -0.276142 277.659 -0.5 277.383 -0.5V0.5ZM281.292 -0.5C281.015 -0.5 280.792 -0.276142 280.792 0C280.792 0.276142 281.015 0.5 281.292 0.5V-0.5ZM285.201 0.5C285.477 0.5 285.701 0.276142 285.701 0C285.701 -0.276142 285.477 -0.5 285.201 -0.5V0.5ZM289.11 -0.5C288.834 -0.5 288.61 -0.276142 288.61 0C288.61 0.276142 288.834 0.5 289.11 0.5V-0.5ZM293.019 0.5C293.295 0.5 293.519 0.276142 293.519 0C293.519 -0.276142 293.295 -0.5 293.019 -0.5V0.5ZM296.928 -0.5C296.652 -0.5 296.428 -0.276142 296.428 0C296.428 0.276142 296.652 0.5 296.928 0.5V-0.5ZM300.837 0.5C301.113 0.5 301.337 0.276142 301.337 0C301.337 -0.276142 301.113 -0.5 300.837 -0.5V0.5ZM304.746 -0.5C304.47 -0.5 304.246 -0.276142 304.246 0C304.246 0.276142 304.47 0.5 304.746 0.5V-0.5ZM308.655 0.5C308.931 0.5 309.155 0.276142 309.155 0C309.155 -0.276142 308.931 -0.5 308.655 -0.5V0.5ZM312.564 -0.5C312.288 -0.5 312.064 -0.276142 312.064 0C312.064 0.276142 312.288 0.5 312.564 0.5V-0.5ZM316.473 0.5C316.75 0.5 316.973 0.276142 316.973 0C316.973 -0.276142 316.75 -0.5 316.473 -0.5V0.5ZM320.383 -0.5C320.106 -0.5 319.883 -0.276142 319.883 0C319.883 0.276142 320.106 0.5 320.383 0.5V-0.5ZM324.292 0.5C324.568 0.5 324.792 0.276142 324.792 0C324.792 -0.276142 324.568 -0.5 324.292 -0.5V0.5ZM328.201 -0.5C327.925 -0.5 327.701 -0.276142 327.701 0C327.701 0.276142 327.925 0.5 328.201 0.5V-0.5ZM332.11 0.5C332.386 0.5 332.61 0.276142 332.61 0C332.61 -0.276142 332.386 -0.5 332.11 -0.5V0.5ZM336.019 -0.5C335.743 -0.5 335.519 -0.276142 335.519 0C335.519 0.276142 335.743 0.5 336.019 0.5V-0.5ZM339.928 0.5C340.204 0.5 340.428 0.276142 340.428 0C340.428 -0.276142 340.204 -0.5 339.928 -0.5V0.5ZM343.837 -0.5C343.561 -0.5 343.337 -0.276142 343.337 0C343.337 0.276142 343.561 0.5 343.837 0.5V-0.5ZM347.746 0.5C348.022 0.5 348.246 0.276142 348.246 0C348.246 -0.276142 348.022 -0.5 347.746 -0.5V0.5ZM351.655 -0.5C351.379 -0.5 351.155 -0.276142 351.155 0C351.155 0.276142 351.379 0.5 351.655 0.5V-0.5ZM355.564 0.5C355.84 0.5 356.064 0.276142 356.064 0C356.064 -0.276142 355.84 -0.5 355.564 -0.5V0.5ZM359.473 -0.5C359.197 -0.5 358.973 -0.276142 358.973 0C358.973 0.276142 359.197 0.5 359.473 0.5V-0.5ZM363.383 0.5C363.659 0.5 363.883 0.276142 363.883 0C363.883 -0.276142 363.659 -0.5 363.383 -0.5V0.5ZM367.292 -0.5C367.015 -0.5 366.792 -0.276142 366.792 0C366.792 0.276142 367.015 0.5 367.292 0.5V-0.5ZM371.201 0.5C371.477 0.5 371.701 0.276142 371.701 0C371.701 -0.276142 371.477 -0.5 371.201 -0.5V0.5ZM375.11 -0.5C374.834 -0.5 374.61 -0.276142 374.61 0C374.61 0.276142 374.834 0.5 375.11 0.5V-0.5ZM379.019 0.5C379.295 0.5 379.519 0.276142 379.519 0C379.519 -0.276142 379.295 -0.5 379.019 -0.5V0.5ZM382.928 -0.5C382.652 -0.5 382.428 -0.276142 382.428 0C382.428 0.276142 382.652 0.5 382.928 0.5V-0.5ZM386.837 0.5C387.113 0.5 387.337 0.276142 387.337 0C387.337 -0.276142 387.113 -0.5 386.837 -0.5V0.5ZM390.746 -0.5C390.47 -0.5 390.246 -0.276142 390.246 0C390.246 0.276142 390.47 0.5 390.746 0.5V-0.5ZM394.655 0.5C394.931 0.5 395.155 0.276142 395.155 0C395.155 -0.276142 394.931 -0.5 394.655 -0.5V0.5ZM398.564 -0.5C398.288 -0.5 398.064 -0.276142 398.064 0C398.064 0.276142 398.288 0.5 398.564 0.5V-0.5ZM402.473 0.5C402.75 0.5 402.973 0.276142 402.973 0C402.973 -0.276142 402.75 -0.5 402.473 -0.5V0.5ZM406.382 -0.5C406.106 -0.5 405.882 -0.276142 405.882 0C405.882 0.276142 406.106 0.5 406.382 0.5V-0.5ZM410.292 0.5C410.568 0.5 410.792 0.276142 410.792 0C410.792 -0.276142 410.568 -0.5 410.292 -0.5V0.5ZM414.201 -0.5C413.925 -0.5 413.701 -0.276142 413.701 0C413.701 0.276142 413.925 0.5 414.201 0.5V-0.5ZM418.4 0.718903C418.671 0.772493 418.934 0.596335 418.988 0.325443C419.041 0.0545507 418.865 -0.208495 418.594 -0.262085L418.4 0.718903ZM423.101 1.60573C422.871 1.45211 422.561 1.51359 422.407 1.74306C422.254 1.97252 422.315 2.28308 422.545 2.4367L423.101 1.60573ZM425.719 5.61077C425.872 5.84024 426.183 5.90172 426.412 5.7481C426.642 5.59447 426.703 5.28392 426.55 5.05445L425.719 5.61077ZM428.417 9.56102C428.364 9.29013 428.101 9.11397 427.83 9.16756C427.559 9.22115 427.383 9.4842 427.436 9.75509L428.417 9.56102ZM427.655 13.75C427.655 14.0261 427.879 14.25 428.155 14.25C428.431 14.25 428.655 14.0261 428.655 13.75H427.655ZM428.655 17.25C428.655 16.9739 428.431 16.75 428.155 16.75C427.879 16.75 427.655 16.9739 427.655 17.25H428.655ZM427.655 20.75C427.655 21.0261 427.879 21.25 428.155 21.25C428.431 21.25 428.655 21.0261 428.655 20.75H427.655ZM428.655 24.25C428.655 23.9739 428.431 23.75 428.155 23.75C427.879 23.75 427.655 23.9739 427.655 24.25H428.655ZM427.655 27.75C427.655 28.0261 427.879 28.25 428.155 28.25C428.431 28.25 428.655 28.0261 428.655 27.75H427.655ZM428.655 31.25C428.655 30.9739 428.431 30.75 428.155 30.75C427.879 30.75 427.655 30.9739 427.655 31.25H428.655ZM427.655 34.75C427.655 35.0261 427.879 35.25 428.155 35.25C428.431 35.25 428.655 35.0261 428.655 34.75H427.655ZM428.655 38.25C428.655 37.9739 428.431 37.75 428.155 37.75C427.879 37.75 427.655 37.9739 427.655 38.25H428.655ZM428.155 39.5H426.195V40.5H428.155V39.5ZM422.275 39.5H418.355V40.5H422.275V39.5ZM414.435 39.5H410.515V40.5H414.435V39.5ZM406.595 39.5H402.675V40.5H406.595V39.5ZM398.755 39.5H394.835V40.5H398.755V39.5ZM390.915 39.5H386.995V40.5H390.915V39.5ZM383.075 39.5H379.155V40.5H383.075V39.5ZM375.235 39.5H371.315V40.5H375.235V39.5ZM367.395 39.5H363.475V40.5H367.395V39.5ZM359.555 39.5H355.635V40.5H359.555V39.5ZM351.715 39.5H347.795V40.5H351.715V39.5ZM343.875 39.5H339.955V40.5H343.875V39.5ZM336.035 39.5H332.115V40.5H336.035V39.5ZM328.195 39.5H324.275V40.5H328.195V39.5ZM320.355 39.5H316.435V40.5H320.355V39.5ZM312.515 39.5H308.595V40.5H312.515V39.5ZM304.675 39.5H300.755V40.5H304.675V39.5ZM296.835 39.5H292.915V40.5H296.835V39.5ZM288.995 39.5H285.075V40.5H288.995V39.5ZM281.155 39.5H277.235V40.5H281.155V39.5ZM273.315 39.5H269.395V40.5H273.315V39.5ZM265.475 39.5H261.555V40.5H265.475V39.5ZM257.635 39.5H253.715V40.5H257.635V39.5ZM249.795 39.5H245.875V40.5H249.795V39.5ZM241.955 39.5H238.035V40.5H241.955V39.5ZM234.115 39.5H232.155V40.5H234.115V39.5ZM232.655 40V38.25H231.655V40H232.655ZM232.655 34.75V31.25H231.655V34.75H232.655ZM232.655 27.75V24.25H231.655V27.75H232.655ZM232.655 20.75V17.25H231.655V20.75H232.655ZM232.655 13.75V12H231.655V13.75H232.655ZM232.655 12C232.655 11.2313 232.731 10.4807 232.874 9.75509L231.893 9.56102C231.737 10.3503 231.655 11.1658 231.655 12H232.655ZM234.592 5.61077C235.432 4.35646 236.512 3.27644 237.766 2.4367L237.21 1.60573C235.847 2.51819 234.673 3.69153 233.761 5.05445L234.592 5.61077ZM241.91 0.718902C242.636 0.575345 243.387 0.5 244.155 0.5V-0.5C243.321 -0.5 242.506 -0.418219 241.716 -0.262085L241.91 0.718902ZM244.155 0.5H246.11V-0.5H244.155V0.5ZM250.019 0.5H253.928V-0.5H250.019V0.5ZM257.837 0.5H261.746V-0.5H257.837V0.5ZM265.655 0.5H269.564V-0.5H265.655V0.5ZM273.473 0.5H277.383V-0.5H273.473V0.5ZM281.292 0.5H285.201V-0.5H281.292V0.5ZM289.11 0.5H293.019V-0.5H289.11V0.5ZM296.928 0.5H300.837V-0.5H296.928V0.5ZM304.746 0.5H308.655V-0.5H304.746V0.5ZM312.564 0.5H316.473V-0.5H312.564V0.5ZM320.383 0.5H324.292V-0.5H320.383V0.5ZM328.201 0.5H332.11V-0.5H328.201V0.5ZM336.019 0.5H339.928V-0.5H336.019V0.5ZM343.837 0.5H347.746V-0.5H343.837V0.5ZM351.655 0.5H355.564V-0.5H351.655V0.5ZM359.473 0.5H363.383V-0.5H359.473V0.5ZM367.292 0.5H371.201V-0.5H367.292V0.5ZM375.11 0.5H379.019V-0.5H375.11V0.5ZM382.928 0.5H386.837V-0.5H382.928V0.5ZM390.746 0.5H394.655V-0.5H390.746V0.5ZM398.564 0.5H402.473V-0.5H398.564V0.5ZM406.382 0.5H410.292V-0.5H406.382V0.5ZM414.201 0.5H416.155V-0.5H414.201V0.5ZM416.155 0.5C416.924 0.5 417.675 0.575345 418.4 0.718903L418.594 -0.262085C417.805 -0.418219 416.989 -0.5 416.155 -0.5V0.5ZM422.545 2.4367C423.799 3.27644 424.879 4.35647 425.719 5.61077L426.55 5.05445C425.637 3.69153 424.464 2.51819 423.101 1.60573L422.545 2.4367ZM427.436 9.75509C427.58 10.4808 427.655 11.2313 427.655 12H428.655C428.655 11.1658 428.573 10.3503 428.417 9.56102L427.436 9.75509ZM427.655 12V13.75H428.655V12H427.655ZM427.655 17.25V20.75H428.655V17.25H427.655ZM427.655 24.25V27.75H428.655V24.25H427.655ZM427.655 31.25V34.75H428.655V31.25H427.655ZM427.655 38.25V40H428.655V38.25H427.655ZM428.155 40V41C428.708 41 429.155 40.5523 429.155 40H428.155ZM232.155 40H231.155C231.155 40.5523 231.603 41 232.155 41V40ZM426.195 39C425.643 39 425.195 39.4477 425.195 40C425.195 40.5523 425.643 41 426.195 41V39ZM422.275 41C422.828 41 423.275 40.5523 423.275 40C423.275 39.4477 422.828 39 422.275 39V41ZM418.355 39C417.803 39 417.355 39.4477 417.355 40C417.355 40.5523 417.803 41 418.355 41V39ZM414.435 41C414.988 41 415.435 40.5523 415.435 40C415.435 39.4477 414.988 39 414.435 39V41ZM410.515 39C409.963 39 409.515 39.4477 409.515 40C409.515 40.5523 409.963 41 410.515 41V39ZM406.595 41C407.148 41 407.595 40.5523 407.595 40C407.595 39.4477 407.148 39 406.595 39V41ZM402.675 39C402.123 39 401.675 39.4477 401.675 40C401.675 40.5523 402.123 41 402.675 41V39ZM398.755 41C399.308 41 399.755 40.5523 399.755 40C399.755 39.4477 399.308 39 398.755 39V41ZM394.835 39C394.283 39 393.835 39.4477 393.835 40C393.835 40.5523 394.283 41 394.835 41V39ZM390.915 41C391.468 41 391.915 40.5523 391.915 40C391.915 39.4477 391.468 39 390.915 39V41ZM386.995 39C386.443 39 385.995 39.4477 385.995 40C385.995 40.5523 386.443 41 386.995 41V39ZM383.075 41C383.628 41 384.075 40.5523 384.075 40C384.075 39.4477 383.628 39 383.075 39V41ZM379.155 39C378.603 39 378.155 39.4477 378.155 40C378.155 40.5523 378.603 41 379.155 41V39ZM375.235 41C375.788 41 376.235 40.5523 376.235 40C376.235 39.4477 375.788 39 375.235 39V41ZM371.315 39C370.763 39 370.315 39.4477 370.315 40C370.315 40.5523 370.763 41 371.315 41V39ZM367.395 41C367.948 41 368.395 40.5523 368.395 40C368.395 39.4477 367.948 39 367.395 39V41ZM363.475 39C362.923 39 362.475 39.4477 362.475 40C362.475 40.5523 362.923 41 363.475 41V39ZM359.555 41C360.108 41 360.555 40.5523 360.555 40C360.555 39.4477 360.108 39 359.555 39V41ZM355.635 39C355.083 39 354.635 39.4477 354.635 40C354.635 40.5523 355.083 41 355.635 41V39ZM351.715 41C352.268 41 352.715 40.5523 352.715 40C352.715 39.4477 352.268 39 351.715 39V41ZM347.795 39C347.243 39 346.795 39.4477 346.795 40C346.795 40.5523 347.243 41 347.795 41V39ZM343.875 41C344.428 41 344.875 40.5523 344.875 40C344.875 39.4477 344.428 39 343.875 39V41ZM339.955 39C339.403 39 338.955 39.4477 338.955 40C338.955 40.5523 339.403 41 339.955 41V39ZM336.035 41C336.588 41 337.035 40.5523 337.035 40C337.035 39.4477 336.588 39 336.035 39V41ZM332.115 39C331.563 39 331.115 39.4477 331.115 40C331.115 40.5523 331.563 41 332.115 41V39ZM328.195 41C328.748 41 329.195 40.5523 329.195 40C329.195 39.4477 328.748 39 328.195 39V41ZM324.275 39C323.723 39 323.275 39.4477 323.275 40C323.275 40.5523 323.723 41 324.275 41V39ZM320.355 41C320.908 41 321.355 40.5523 321.355 40C321.355 39.4477 320.908 39 320.355 39V41ZM316.435 39C315.883 39 315.435 39.4477 315.435 40C315.435 40.5523 315.883 41 316.435 41V39ZM312.515 41C313.068 41 313.515 40.5523 313.515 40C313.515 39.4477 313.068 39 312.515 39V41ZM308.595 39C308.043 39 307.595 39.4477 307.595 40C307.595 40.5523 308.043 41 308.595 41V39ZM304.675 41C305.228 41 305.675 40.5523 305.675 40C305.675 39.4477 305.228 39 304.675 39V41ZM300.755 39C300.203 39 299.755 39.4477 299.755 40C299.755 40.5523 300.203 41 300.755 41V39ZM296.835 41C297.388 41 297.835 40.5523 297.835 40C297.835 39.4477 297.388 39 296.835 39V41ZM292.915 39C292.363 39 291.915 39.4477 291.915 40C291.915 40.5523 292.363 41 292.915 41V39ZM288.995 41C289.548 41 289.995 40.5523 289.995 40C289.995 39.4477 289.548 39 288.995 39V41ZM285.075 39C284.523 39 284.075 39.4477 284.075 40C284.075 40.5523 284.523 41 285.075 41V39ZM281.155 41C281.708 41 282.155 40.5523 282.155 40C282.155 39.4477 281.708 39 281.155 39V41ZM277.235 39C276.683 39 276.235 39.4477 276.235 40C276.235 40.5523 276.683 41 277.235 41V39ZM273.315 41C273.868 41 274.315 40.5523 274.315 40C274.315 39.4477 273.868 39 273.315 39V41ZM269.395 39C268.843 39 268.395 39.4477 268.395 40C268.395 40.5523 268.843 41 269.395 41V39ZM265.475 41C266.028 41 266.475 40.5523 266.475 40C266.475 39.4477 266.028 39 265.475 39V41ZM261.555 39C261.003 39 260.555 39.4477 260.555 40C260.555 40.5523 261.003 41 261.555 41V39ZM257.635 41C258.188 41 258.635 40.5523 258.635 40C258.635 39.4477 258.188 39 257.635 39V41ZM253.715 39C253.163 39 252.715 39.4477 252.715 40C252.715 40.5523 253.163 41 253.715 41V39ZM249.795 41C250.348 41 250.795 40.5523 250.795 40C250.795 39.4477 250.348 39 249.795 39V41ZM245.875 39C245.323 39 244.875 39.4477 244.875 40C244.875 40.5523 245.323 41 245.875 41V39ZM241.955 41C242.508 41 242.955 40.5523 242.955 40C242.955 39.4477 242.508 39 241.955 39V41ZM238.035 39C237.483 39 237.035 39.4477 237.035 40C237.035 40.5523 237.483 41 238.035 41V39ZM234.115 41C234.668 41 235.115 40.5523 235.115 40C235.115 39.4477 234.668 39 234.115 39V41ZM233.155 38.25C233.155 37.6977 232.708 37.25 232.155 37.25C231.603 37.25 231.155 37.6977 231.155 38.25H233.155ZM231.155 34.75C231.155 35.3023 231.603 35.75 232.155 35.75C232.708 35.75 233.155 35.3023 233.155 34.75H231.155ZM233.155 31.25C233.155 30.6977 232.708 30.25 232.155 30.25C231.603 30.25 231.155 30.6977 231.155 31.25H233.155ZM231.155 27.75C231.155 28.3023 231.603 28.75 232.155 28.75C232.708 28.75 233.155 28.3023 233.155 27.75H231.155ZM233.155 24.25C233.155 23.6977 232.708 23.25 232.155 23.25C231.603 23.25 231.155 23.6977 231.155 24.25H233.155ZM231.155 20.75C231.155 21.3023 231.603 21.75 232.155 21.75C232.708 21.75 233.155 21.3023 233.155 20.75H231.155ZM233.155 17.25C233.155 16.6977 232.708 16.25 232.155 16.25C231.603 16.25 231.155 16.6977 231.155 17.25H233.155ZM231.155 13.75C231.155 14.3023 231.603 14.75 232.155 14.75C232.708 14.75 233.155 14.3023 233.155 13.75H231.155ZM233.365 9.85213C233.472 9.31034 233.12 8.78425 232.578 8.67707C232.036 8.56989 231.51 8.9222 231.403 9.46399L233.365 9.85213ZM233.346 4.77629C233.038 5.23522 233.161 5.85633 233.62 6.16358C234.079 6.47083 234.7 6.34786 235.007 5.88893L233.346 4.77629ZM238.044 2.85218C238.503 2.54494 238.626 1.92383 238.319 1.4649C238.012 1.00596 237.39 0.883 236.932 1.19025L238.044 2.85218ZM241.619 -0.752579C241.077 -0.645398 240.725 -0.119307 240.832 0.422477C240.94 0.964262 241.466 1.31658 242.007 1.2094L241.619 -0.752579ZM246.11 1C246.662 1 247.11 0.552285 247.11 0C247.11 -0.552285 246.662 -1 246.11 -1V1ZM250.019 -1C249.467 -1 249.019 -0.552285 249.019 0C249.019 0.552285 249.467 1 250.019 1V-1ZM253.928 1C254.48 1 254.928 0.552285 254.928 0C254.928 -0.552285 254.48 -1 253.928 -1V1ZM257.837 -1C257.285 -1 256.837 -0.552285 256.837 0C256.837 0.552285 257.285 1 257.837 1V-1ZM261.746 1C262.298 1 262.746 0.552285 262.746 0C262.746 -0.552285 262.298 -1 261.746 -1V1ZM265.655 -1C265.103 -1 264.655 -0.552285 264.655 0C264.655 0.552285 265.103 1 265.655 1V-1ZM269.564 1C270.117 1 270.564 0.552285 270.564 0C270.564 -0.552285 270.117 -1 269.564 -1V1ZM273.473 -1C272.921 -1 272.473 -0.552285 272.473 0C272.473 0.552285 272.921 1 273.473 1V-1ZM277.383 1C277.935 1 278.383 0.552285 278.383 0C278.383 -0.552285 277.935 -1 277.383 -1V1ZM281.292 -1C280.739 -1 280.292 -0.552285 280.292 0C280.292 0.552285 280.739 1 281.292 1V-1ZM285.201 1C285.753 1 286.201 0.552285 286.201 0C286.201 -0.552285 285.753 -1 285.201 -1V1ZM289.11 -1C288.558 -1 288.11 -0.552285 288.11 0C288.11 0.552285 288.558 1 289.11 1V-1ZM293.019 1C293.571 1 294.019 0.552285 294.019 0C294.019 -0.552285 293.571 -1 293.019 -1V1ZM296.928 -1C296.376 -1 295.928 -0.552285 295.928 0C295.928 0.552285 296.376 1 296.928 1V-1ZM300.837 1C301.389 1 301.837 0.552285 301.837 0C301.837 -0.552285 301.389 -1 300.837 -1V1ZM304.746 -1C304.194 -1 303.746 -0.552285 303.746 0C303.746 0.552285 304.194 1 304.746 1V-1ZM308.655 1C309.208 1 309.655 0.552285 309.655 0C309.655 -0.552285 309.208 -1 308.655 -1V1ZM312.564 -1C312.012 -1 311.564 -0.552285 311.564 0C311.564 0.552285 312.012 1 312.564 1V-1ZM316.473 1C317.026 1 317.473 0.552285 317.473 0C317.473 -0.552285 317.026 -1 316.473 -1V1ZM320.383 -1C319.83 -1 319.383 -0.552285 319.383 0C319.383 0.552285 319.83 1 320.383 1V-1ZM324.292 1C324.844 1 325.292 0.552285 325.292 0C325.292 -0.552285 324.844 -1 324.292 -1V1ZM328.201 -1C327.648 -1 327.201 -0.552285 327.201 0C327.201 0.552285 327.648 1 328.201 1V-1ZM332.11 1C332.662 1 333.11 0.552285 333.11 0C333.11 -0.552285 332.662 -1 332.11 -1V1ZM336.019 -1C335.467 -1 335.019 -0.552285 335.019 0C335.019 0.552285 335.467 1 336.019 1V-1ZM339.928 1C340.48 1 340.928 0.552285 340.928 0C340.928 -0.552285 340.48 -1 339.928 -1V1ZM343.837 -1C343.285 -1 342.837 -0.552285 342.837 0C342.837 0.552285 343.285 1 343.837 1V-1ZM347.746 1C348.298 1 348.746 0.552285 348.746 0C348.746 -0.552285 348.298 -1 347.746 -1V1ZM351.655 -1C351.103 -1 350.655 -0.552285 350.655 0C350.655 0.552285 351.103 1 351.655 1V-1ZM355.564 1C356.117 1 356.564 0.552285 356.564 0C356.564 -0.552285 356.117 -1 355.564 -1V1ZM359.473 -1C358.921 -1 358.473 -0.552285 358.473 0C358.473 0.552285 358.921 1 359.473 1V-1ZM363.383 1C363.935 1 364.383 0.552285 364.383 0C364.383 -0.552285 363.935 -1 363.383 -1V1ZM367.292 -1C366.739 -1 366.292 -0.552285 366.292 0C366.292 0.552285 366.739 1 367.292 1V-1ZM371.201 1C371.753 1 372.201 0.552285 372.201 0C372.201 -0.552285 371.753 -1 371.201 -1V1ZM375.11 -1C374.558 -1 374.11 -0.552285 374.11 0C374.11 0.552285 374.558 1 375.11 1V-1ZM379.019 1C379.571 1 380.019 0.552285 380.019 0C380.019 -0.552285 379.571 -1 379.019 -1V1ZM382.928 -1C382.376 -1 381.928 -0.552285 381.928 0C381.928 0.552285 382.376 1 382.928 1V-1ZM386.837 1C387.389 1 387.837 0.552285 387.837 0C387.837 -0.552285 387.389 -1 386.837 -1V1ZM390.746 -1C390.194 -1 389.746 -0.552285 389.746 0C389.746 0.552285 390.194 1 390.746 1V-1ZM394.655 1C395.208 1 395.655 0.552285 395.655 0C395.655 -0.552285 395.208 -1 394.655 -1V1ZM398.564 -1C398.012 -1 397.564 -0.552285 397.564 0C397.564 0.552285 398.012 1 398.564 1V-1ZM402.473 1C403.026 1 403.473 0.552285 403.473 0C403.473 -0.552285 403.026 -1 402.473 -1V1ZM406.382 -1C405.83 -1 405.382 -0.552285 405.382 0C405.382 0.552285 405.83 1 406.382 1V-1ZM410.292 1C410.844 1 411.292 0.552285 411.292 0C411.292 -0.552285 410.844 -1 410.292 -1V1ZM414.201 -1C413.648 -1 413.201 -0.552285 413.201 0C413.201 0.552285 413.648 1 414.201 1V-1ZM418.303 1.2094C418.845 1.31658 419.371 0.964262 419.478 0.422478C419.585 -0.119307 419.233 -0.645398 418.691 -0.752579L418.303 1.2094ZM423.379 1.19025C422.92 0.883 422.299 1.00596 421.992 1.4649C421.684 1.92383 421.807 2.54494 422.266 2.85218L423.379 1.19025ZM425.303 5.88893C425.61 6.34786 426.231 6.47083 426.69 6.16358C427.149 5.85634 427.272 5.23523 426.965 4.77629L425.303 5.88893ZM428.908 9.46399C428.801 8.9222 428.275 8.56989 427.733 8.67707C427.191 8.78425 426.839 9.31034 426.946 9.85213L428.908 9.46399ZM427.155 13.75C427.155 14.3023 427.603 14.75 428.155 14.75C428.708 14.75 429.155 14.3023 429.155 13.75H427.155ZM429.155 17.25C429.155 16.6977 428.708 16.25 428.155 16.25C427.603 16.25 427.155 16.6977 427.155 17.25H429.155ZM427.155 20.75C427.155 21.3023 427.603 21.75 428.155 21.75C428.708 21.75 429.155 21.3023 429.155 20.75H427.155ZM429.155 24.25C429.155 23.6977 428.708 23.25 428.155 23.25C427.603 23.25 427.155 23.6977 427.155 24.25H429.155ZM427.155 27.75C427.155 28.3023 427.603 28.75 428.155 28.75C428.708 28.75 429.155 28.3023 429.155 27.75H427.155ZM429.155 31.25C429.155 30.6977 428.708 30.25 428.155 30.25C427.603 30.25 427.155 30.6977 427.155 31.25H429.155ZM427.155 34.75C427.155 35.3023 427.603 35.75 428.155 35.75C428.708 35.75 429.155 35.3023 429.155 34.75H427.155ZM429.155 38.25C429.155 37.6977 428.708 37.25 428.155 37.25C427.603 37.25 427.155 37.6977 427.155 38.25H429.155ZM428.155 39H426.195V41H428.155V39ZM422.275 39H418.355V41H422.275V39ZM414.435 39H410.515V41H414.435V39ZM406.595 39H402.675V41H406.595V39ZM398.755 39H394.835V41H398.755V39ZM390.915 39H386.995V41H390.915V39ZM383.075 39H379.155V41H383.075V39ZM375.235 39H371.315V41H375.235V39ZM367.395 39H363.475V41H367.395V39ZM359.555 39H355.635V41H359.555V39ZM351.715 39H347.795V41H351.715V39ZM343.875 39H339.955V41H343.875V39ZM336.035 39H332.115V41H336.035V39ZM328.195 39H324.275V41H328.195V39ZM320.355 39H316.435V41H320.355V39ZM312.515 39H308.595V41H312.515V39ZM304.675 39H300.755V41H304.675V39ZM296.835 39H292.915V41H296.835V39ZM288.995 39H285.075V41H288.995V39ZM281.155 39H277.235V41H281.155V39ZM273.315 39H269.395V41H273.315V39ZM265.475 39H261.555V41H265.475V39ZM257.635 39H253.715V41H257.635V39ZM249.795 39H245.875V41H249.795V39ZM241.955 39H238.035V41H241.955V39ZM234.115 39H232.155V41H234.115V39ZM233.155 40V38.25H231.155V40H233.155ZM233.155 34.75V31.25H231.155V34.75H233.155ZM233.155 27.75V24.25H231.155V27.75H233.155ZM233.155 20.75V17.25H231.155V20.75H233.155ZM233.155 13.75V12H231.155V13.75H233.155ZM233.155 12C233.155 11.2641 233.227 10.546 233.365 9.85213L231.403 9.46399C231.24 10.285 231.155 11.1331 231.155 12H233.155ZM235.007 5.88893C235.811 4.68893 236.844 3.65556 238.044 2.85218L236.932 1.19025C235.514 2.13906 234.294 3.35906 233.346 4.77629L235.007 5.88893ZM242.007 1.2094C242.701 1.07213 243.419 1 244.155 1V-1C243.288 -1 242.44 -0.915001 241.619 -0.752579L242.007 1.2094ZM244.155 1H246.11V-1H244.155V1ZM250.019 1H253.928V-1H250.019V1ZM257.837 1H261.746V-1H257.837V1ZM265.655 1H269.564V-1H265.655V1ZM273.473 1H277.383V-1H273.473V1ZM281.292 1H285.201V-1H281.292V1ZM289.11 1H293.019V-1H289.11V1ZM296.928 1H300.837V-1H296.928V1ZM304.746 1H308.655V-1H304.746V1ZM312.564 1H316.473V-1H312.564V1ZM320.383 1H324.292V-1H320.383V1ZM328.201 1H332.11V-1H328.201V1ZM336.019 1H339.928V-1H336.019V1ZM343.837 1H347.746V-1H343.837V1ZM351.655 1H355.564V-1H351.655V1ZM359.473 1H363.383V-1H359.473V1ZM367.292 1H371.201V-1H367.292V1ZM375.11 1H379.019V-1H375.11V1ZM382.928 1H386.837V-1H382.928V1ZM390.746 1H394.655V-1H390.746V1ZM398.564 1H402.473V-1H398.564V1ZM406.382 1H410.292V-1H406.382V1ZM414.201 1H416.155V-1H414.201V1ZM416.155 1C416.891 1 417.609 1.07213 418.303 1.2094L418.691 -0.752579C417.87 -0.915001 417.022 -1 416.155 -1V1ZM422.266 2.85218C423.466 3.65556 424.5 4.68894 425.303 5.88893L426.965 4.77629C426.016 3.35906 424.796 2.13906 423.379 1.19025L422.266 2.85218ZM426.946 9.85213C427.083 10.546 427.155 11.2641 427.155 12H429.155C429.155 11.1331 429.07 10.285 428.908 9.46399L426.946 9.85213ZM427.155 12V13.75H429.155V12H427.155ZM427.155 17.25V20.75H429.155V17.25H427.155ZM427.155 24.25V27.75H429.155V24.25H427.155ZM427.155 31.25V34.75H429.155V31.25H427.155ZM427.155 38.25V40H429.155V38.25H427.155Z" fill="#CCB29C"/>
<circle cx="446.733" cy="20" r="2.57762" fill="#DFC6B0"/>
<path d="M465.311 12C465.311 5.37258 470.683 0 477.311 0H591.311C597.938 0 603.311 5.37258 603.311 12V40H465.311V12Z" fill="#CCB29C" fill-opacity="0.1"/>
<path d="M494.719 13.8H493.327L490.079 22.008L486.847 13.8H485.375L490.047 25.32L494.719 13.8ZM497.854 17.416C495.63 17.416 494.158 19.144 494.158 21.304C494.158 23.496 495.774 25.192 498.014 25.192C499.966 25.192 501.086 23.736 501.086 23.736L500.238 22.856C500.238 22.856 499.47 23.944 498.014 23.944C496.622 23.944 495.55 22.904 495.47 21.784H501.438C501.454 21.608 501.454 21.496 501.454 21.352C501.454 18.968 499.918 17.416 497.854 17.416ZM495.502 20.664C495.598 19.896 496.254 18.664 497.854 18.664C499.342 18.664 500.094 19.832 500.142 20.664H495.502ZM508.259 25.096C508.259 26.76 507.283 27.624 505.715 27.624C504.195 27.624 503.299 26.456 503.299 26.456L502.483 27.464C502.483 27.464 503.683 28.872 505.715 28.872C507.859 28.872 509.603 27.592 509.603 25.032V17.608H508.371V18.68C508.371 18.68 507.651 17.416 505.875 17.416C503.875 17.416 502.291 19.128 502.291 21.304C502.291 23.48 503.875 25.192 505.875 25.192C507.235 25.192 508.003 24.408 508.259 24.072V25.096ZM508.259 22.696C508.259 22.696 507.555 23.944 506.083 23.944C504.579 23.944 503.635 22.76 503.635 21.304C503.635 19.848 504.579 18.664 506.083 18.664C507.539 18.664 508.259 19.912 508.259 19.912V22.696ZM516.922 22.696C516.922 22.696 516.202 23.944 514.762 23.944C513.258 23.944 512.298 22.76 512.298 21.304C512.298 19.848 513.258 18.664 514.762 18.664C516.202 18.664 516.922 19.912 516.922 19.912V22.696ZM517.034 17.608V18.68C517.034 18.68 516.314 17.416 514.506 17.416C512.538 17.416 510.954 19.128 510.954 21.304C510.954 23.48 512.538 25.192 514.506 25.192C516.314 25.192 517.034 23.928 517.034 23.928V25H518.266V17.608H517.034ZM523.65 17.416C522.05 17.416 521.378 18.648 521.378 18.648V17.608H520.13V25H521.474V19.912C521.474 19.912 522.114 18.664 523.314 18.664C524.306 18.664 525.09 19.208 525.09 20.472V25H526.434V20.248C526.434 18.424 525.122 17.416 523.65 17.416ZM538.07 22.888C538.07 22.888 537.35 23.944 535.91 23.944C534.422 23.944 533.446 22.76 533.446 21.304C533.446 19.848 534.422 18.664 535.91 18.664C537.222 18.664 537.942 19.56 537.942 19.56L538.854 18.744C538.854 18.744 537.798 17.416 535.91 17.416C533.734 17.416 532.102 19.144 532.102 21.304C532.102 23.48 533.734 25.192 535.91 25.192C537.862 25.192 538.934 23.768 538.934 23.768L538.07 22.888ZM543.355 17.416C541.179 17.416 539.547 19.128 539.547 21.304C539.547 23.48 541.179 25.192 543.355 25.192C545.531 25.192 547.163 23.48 547.163 21.304C547.163 19.128 545.531 17.416 543.355 17.416ZM543.355 23.944C541.867 23.944 540.891 22.76 540.891 21.304C540.891 19.848 541.867 18.664 543.355 18.664C544.843 18.664 545.819 19.848 545.819 21.304C545.819 22.76 544.843 23.944 543.355 23.944ZM551.304 25.192C552.904 25.192 553.576 23.864 553.576 23.864V25H554.824V17.608H553.48V22.728C553.48 22.728 552.888 23.944 551.64 23.944C550.648 23.944 549.864 23.4 549.864 22.136V17.608H548.52V22.36C548.52 24.184 549.832 25.192 551.304 25.192ZM556.219 23.64C556.219 23.64 557.307 25.192 559.387 25.192C560.811 25.192 562.315 24.456 562.315 23.032C562.315 21.528 561.115 21 559.707 20.696C558.491 20.44 557.915 20.136 557.915 19.576C557.915 19.096 558.379 18.632 559.323 18.632C560.443 18.632 561.179 19.448 561.179 19.448L562.059 18.536C562.059 18.536 561.067 17.416 559.323 17.416C557.675 17.416 556.603 18.472 556.603 19.544C556.603 20.936 557.723 21.56 559.307 21.88C560.443 22.104 560.987 22.424 560.987 23.064C560.987 23.656 560.139 23.976 559.387 23.976C557.931 23.976 557.147 22.776 557.147 22.776L556.219 23.64ZM564.04 25H565.384V17.608H564.04V25ZM563.8 15.24C563.8 15.736 564.216 16.152 564.712 16.152C565.208 16.152 565.624 15.736 565.624 15.24C565.624 14.744 565.208 14.328 564.712 14.328C564.216 14.328 563.8 14.744 563.8 15.24ZM571.015 17.416C569.415 17.416 568.743 18.648 568.743 18.648V17.608H567.495V25H568.839V19.912C568.839 19.912 569.479 18.664 570.679 18.664C571.671 18.664 572.455 19.208 572.455 20.472V25H573.799V20.248C573.799 18.424 572.487 17.416 571.015 17.416ZM578.859 17.416C576.635 17.416 575.163 19.144 575.163 21.304C575.163 23.496 576.779 25.192 579.019 25.192C580.971 25.192 582.091 23.736 582.091 23.736L581.243 22.856C581.243 22.856 580.475 23.944 579.019 23.944C577.627 23.944 576.555 22.904 576.475 21.784H582.443C582.459 21.608 582.459 21.496 582.459 21.352C582.459 18.968 580.923 17.416 578.859 17.416ZM576.507 20.664C576.603 19.896 577.259 18.664 578.859 18.664C580.347 18.664 581.099 19.832 581.147 20.664H576.507Z" fill="#CCB29C"/>
<path d="M603.311 40V40.5C603.587 40.5 603.811 40.2761 603.811 40H603.311ZM465.311 40H464.811C464.811 40.2761 465.034 40.5 465.311 40.5V40ZM601.281 39.5C601.005 39.5 600.781 39.7239 600.781 40C600.781 40.2761 601.005 40.5 601.281 40.5V39.5ZM597.222 40.5C597.498 40.5 597.722 40.2761 597.722 40C597.722 39.7239 597.498 39.5 597.222 39.5V40.5ZM593.163 39.5C592.887 39.5 592.663 39.7239 592.663 40C592.663 40.2761 592.887 40.5 593.163 40.5V39.5ZM589.105 40.5C589.381 40.5 589.605 40.2761 589.605 40C589.605 39.7239 589.381 39.5 589.105 39.5V40.5ZM585.046 39.5C584.77 39.5 584.546 39.7239 584.546 40C584.546 40.2761 584.77 40.5 585.046 40.5V39.5ZM580.987 40.5C581.263 40.5 581.487 40.2761 581.487 40C581.487 39.7239 581.263 39.5 580.987 39.5V40.5ZM576.928 39.5C576.652 39.5 576.428 39.7239 576.428 40C576.428 40.2761 576.652 40.5 576.928 40.5V39.5ZM572.869 40.5C573.146 40.5 573.369 40.2761 573.369 40C573.369 39.7239 573.146 39.5 572.869 39.5V40.5ZM568.811 39.5C568.534 39.5 568.311 39.7239 568.311 40C568.311 40.2761 568.534 40.5 568.811 40.5V39.5ZM564.752 40.5C565.028 40.5 565.252 40.2761 565.252 40C565.252 39.7239 565.028 39.5 564.752 39.5V40.5ZM560.693 39.5C560.417 39.5 560.193 39.7239 560.193 40C560.193 40.2761 560.417 40.5 560.693 40.5V39.5ZM556.634 40.5C556.91 40.5 557.134 40.2761 557.134 40C557.134 39.7239 556.91 39.5 556.634 39.5V40.5ZM552.575 39.5C552.299 39.5 552.075 39.7239 552.075 40C552.075 40.2761 552.299 40.5 552.575 40.5V39.5ZM548.516 40.5C548.793 40.5 549.016 40.2761 549.016 40C549.016 39.7239 548.793 39.5 548.516 39.5V40.5ZM544.458 39.5C544.181 39.5 543.958 39.7239 543.958 40C543.958 40.2761 544.181 40.5 544.458 40.5V39.5ZM540.399 40.5C540.675 40.5 540.899 40.2761 540.899 40C540.899 39.7239 540.675 39.5 540.399 39.5V40.5ZM536.34 39.5C536.064 39.5 535.84 39.7239 535.84 40C535.84 40.2761 536.064 40.5 536.34 40.5V39.5ZM532.281 40.5C532.557 40.5 532.781 40.2761 532.781 40C532.781 39.7239 532.557 39.5 532.281 39.5V40.5ZM528.222 39.5C527.946 39.5 527.722 39.7239 527.722 40C527.722 40.2761 527.946 40.5 528.222 40.5V39.5ZM524.163 40.5C524.44 40.5 524.663 40.2761 524.663 40C524.663 39.7239 524.44 39.5 524.163 39.5V40.5ZM520.105 39.5C519.829 39.5 519.605 39.7239 519.605 40C519.605 40.2761 519.829 40.5 520.105 40.5V39.5ZM516.046 40.5C516.322 40.5 516.546 40.2761 516.546 40C516.546 39.7239 516.322 39.5 516.046 39.5V40.5ZM511.987 39.5C511.711 39.5 511.487 39.7239 511.487 40C511.487 40.2761 511.711 40.5 511.987 40.5V39.5ZM507.928 40.5C508.204 40.5 508.428 40.2761 508.428 40C508.428 39.7239 508.204 39.5 507.928 39.5V40.5ZM503.869 39.5C503.593 39.5 503.369 39.7239 503.369 40C503.369 40.2761 503.593 40.5 503.869 40.5V39.5ZM499.811 40.5C500.087 40.5 500.311 40.2761 500.311 40C500.311 39.7239 500.087 39.5 499.811 39.5V40.5ZM495.752 39.5C495.476 39.5 495.252 39.7239 495.252 40C495.252 40.2761 495.476 40.5 495.752 40.5V39.5ZM491.693 40.5C491.969 40.5 492.193 40.2761 492.193 40C492.193 39.7239 491.969 39.5 491.693 39.5V40.5ZM487.634 39.5C487.358 39.5 487.134 39.7239 487.134 40C487.134 40.2761 487.358 40.5 487.634 40.5V39.5ZM483.575 40.5C483.851 40.5 484.075 40.2761 484.075 40C484.075 39.7239 483.851 39.5 483.575 39.5V40.5ZM479.516 39.5C479.24 39.5 479.016 39.7239 479.016 40C479.016 40.2761 479.24 40.5 479.516 40.5V39.5ZM475.458 40.5C475.734 40.5 475.958 40.2761 475.958 40C475.958 39.7239 475.734 39.5 475.458 39.5V40.5ZM471.399 39.5C471.123 39.5 470.899 39.7239 470.899 40C470.899 40.2761 471.123 40.5 471.399 40.5V39.5ZM467.34 40.5C467.616 40.5 467.84 40.2761 467.84 40C467.84 39.7239 467.616 39.5 467.34 39.5V40.5ZM465.811 38.25C465.811 37.9739 465.587 37.75 465.311 37.75C465.034 37.75 464.811 37.9739 464.811 38.25H465.811ZM464.811 34.75C464.811 35.0261 465.034 35.25 465.311 35.25C465.587 35.25 465.811 35.0261 465.811 34.75H464.811ZM465.811 31.25C465.811 30.9739 465.587 30.75 465.311 30.75C465.034 30.75 464.811 30.9739 464.811 31.25H465.811ZM464.811 27.75C464.811 28.0261 465.034 28.25 465.311 28.25C465.587 28.25 465.811 28.0261 465.811 27.75H464.811ZM465.811 24.25C465.811 23.9739 465.587 23.75 465.311 23.75C465.034 23.75 464.811 23.9739 464.811 24.25H465.811ZM464.811 20.75C464.811 21.0261 465.034 21.25 465.311 21.25C465.587 21.25 465.811 21.0261 465.811 20.75H464.811ZM465.811 17.25C465.811 16.9739 465.587 16.75 465.311 16.75C465.034 16.75 464.811 16.9739 464.811 17.25H465.811ZM464.811 13.75C464.811 14.0261 465.034 14.25 465.311 14.25C465.587 14.25 465.811 14.0261 465.811 13.75H464.811ZM466.029 9.75509C466.083 9.4842 465.907 9.22115 465.636 9.16756C465.365 9.11397 465.102 9.29013 465.048 9.56102L466.029 9.75509ZM466.916 5.05445C466.763 5.28392 466.824 5.59447 467.054 5.7481C467.283 5.90172 467.594 5.84024 467.747 5.61077L466.916 5.05445ZM470.921 2.4367C471.151 2.28308 471.212 1.97252 471.059 1.74305C470.905 1.51359 470.594 1.45211 470.365 1.60573L470.921 2.4367ZM474.872 -0.262085C474.601 -0.208495 474.425 0.0545506 474.478 0.325443C474.532 0.596335 474.795 0.772493 475.066 0.718902L474.872 -0.262085ZM479.346 0.5C479.622 0.5 479.846 0.276142 479.846 0C479.846 -0.276142 479.622 -0.5 479.346 -0.5V0.5ZM483.418 -0.5C483.142 -0.5 482.918 -0.276142 482.918 0C482.918 0.276142 483.142 0.5 483.418 0.5V-0.5ZM487.489 0.5C487.765 0.5 487.989 0.276142 487.989 0C487.989 -0.276142 487.765 -0.5 487.489 -0.5V0.5ZM491.561 -0.5C491.284 -0.5 491.061 -0.276142 491.061 0C491.061 0.276142 491.284 0.5 491.561 0.5V-0.5ZM495.632 0.5C495.908 0.5 496.132 0.276142 496.132 0C496.132 -0.276142 495.908 -0.5 495.632 -0.5V0.5ZM499.703 -0.5C499.427 -0.5 499.203 -0.276142 499.203 0C499.203 0.276142 499.427 0.5 499.703 0.5V-0.5ZM503.775 0.5C504.051 0.5 504.275 0.276142 504.275 0C504.275 -0.276142 504.051 -0.5 503.775 -0.5V0.5ZM507.846 -0.5C507.57 -0.5 507.346 -0.276142 507.346 0C507.346 0.276142 507.57 0.5 507.846 0.5V-0.5ZM511.918 0.5C512.194 0.5 512.418 0.276142 512.418 0C512.418 -0.276142 512.194 -0.5 511.918 -0.5V0.5ZM515.989 -0.5C515.713 -0.5 515.489 -0.276142 515.489 0C515.489 0.276142 515.713 0.5 515.989 0.5V-0.5ZM520.061 0.5C520.337 0.5 520.561 0.276142 520.561 0C520.561 -0.276142 520.337 -0.5 520.061 -0.5V0.5ZM524.132 -0.5C523.856 -0.5 523.632 -0.276142 523.632 0C523.632 0.276142 523.856 0.5 524.132 0.5V-0.5ZM528.203 0.5C528.48 0.5 528.703 0.276142 528.703 0C528.703 -0.276142 528.48 -0.5 528.203 -0.5V0.5ZM532.275 -0.5C531.999 -0.5 531.775 -0.276142 531.775 0C531.775 0.276142 531.999 0.5 532.275 0.5V-0.5ZM536.346 0.5C536.622 0.5 536.846 0.276142 536.846 0C536.846 -0.276142 536.622 -0.5 536.346 -0.5V0.5ZM540.418 -0.5C540.142 -0.5 539.918 -0.276142 539.918 0C539.918 0.276142 540.142 0.5 540.418 0.5V-0.5ZM544.489 0.5C544.765 0.5 544.989 0.276142 544.989 0C544.989 -0.276142 544.765 -0.5 544.489 -0.5V0.5ZM548.561 -0.5C548.284 -0.5 548.061 -0.276142 548.061 0C548.061 0.276142 548.284 0.5 548.561 0.5V-0.5ZM552.632 0.5C552.908 0.5 553.132 0.276142 553.132 0C553.132 -0.276142 552.908 -0.5 552.632 -0.5V0.5ZM556.703 -0.5C556.427 -0.5 556.203 -0.276142 556.203 0C556.203 0.276142 556.427 0.5 556.703 0.5V-0.5ZM560.775 0.5C561.051 0.5 561.275 0.276142 561.275 0C561.275 -0.276142 561.051 -0.5 560.775 -0.5V0.5ZM564.846 -0.5C564.57 -0.5 564.346 -0.276142 564.346 0C564.346 0.276142 564.57 0.5 564.846 0.5V-0.5ZM568.918 0.5C569.194 0.5 569.418 0.276142 569.418 0C569.418 -0.276142 569.194 -0.5 568.918 -0.5V0.5ZM572.989 -0.5C572.713 -0.5 572.489 -0.276142 572.489 0C572.489 0.276142 572.713 0.5 572.989 0.5V-0.5ZM577.061 0.5C577.337 0.5 577.561 0.276142 577.561 0C577.561 -0.276142 577.337 -0.5 577.061 -0.5V0.5ZM581.132 -0.5C580.856 -0.5 580.632 -0.276142 580.632 0C580.632 0.276142 580.856 0.5 581.132 0.5V-0.5ZM585.203 0.5C585.48 0.5 585.703 0.276142 585.703 0C585.703 -0.276142 585.48 -0.5 585.203 -0.5V0.5ZM589.275 -0.5C588.999 -0.5 588.775 -0.276142 588.775 0C588.775 0.276142 588.999 0.5 589.275 0.5V-0.5ZM593.555 0.718903C593.826 0.772493 594.089 0.596335 594.143 0.325443C594.197 0.0545508 594.02 -0.208495 593.75 -0.262085L593.555 0.718903ZM598.256 1.60573C598.027 1.45211 597.716 1.51359 597.562 1.74306C597.409 1.97252 597.47 2.28308 597.7 2.4367L598.256 1.60573ZM600.874 5.61077C601.027 5.84024 601.338 5.90172 601.567 5.7481C601.797 5.59447 601.858 5.28392 601.705 5.05445L600.874 5.61077ZM603.573 9.56102C603.519 9.29013 603.256 9.11397 602.985 9.16756C602.714 9.22115 602.538 9.4842 602.592 9.75509L603.573 9.56102ZM602.811 13.75C602.811 14.0261 603.034 14.25 603.311 14.25C603.587 14.25 603.811 14.0261 603.811 13.75H602.811ZM603.811 17.25C603.811 16.9739 603.587 16.75 603.311 16.75C603.034 16.75 602.811 16.9739 602.811 17.25H603.811ZM602.811 20.75C602.811 21.0261 603.034 21.25 603.311 21.25C603.587 21.25 603.811 21.0261 603.811 20.75H602.811ZM603.811 24.25C603.811 23.9739 603.587 23.75 603.311 23.75C603.034 23.75 602.811 23.9739 602.811 24.25H603.811ZM602.811 27.75C602.811 28.0261 603.034 28.25 603.311 28.25C603.587 28.25 603.811 28.0261 603.811 27.75H602.811ZM603.811 31.25C603.811 30.9739 603.587 30.75 603.311 30.75C603.034 30.75 602.811 30.9739 602.811 31.25H603.811ZM602.811 34.75C602.811 35.0261 603.034 35.25 603.311 35.25C603.587 35.25 603.811 35.0261 603.811 34.75H602.811ZM603.811 38.25C603.811 37.9739 603.587 37.75 603.311 37.75C603.034 37.75 602.811 37.9739 602.811 38.25H603.811ZM603.311 39.5H601.281V40.5H603.311V39.5ZM597.222 39.5H593.163V40.5H597.222V39.5ZM589.105 39.5H585.046V40.5H589.105V39.5ZM580.987 39.5H576.928V40.5H580.987V39.5ZM572.869 39.5H568.811V40.5H572.869V39.5ZM564.752 39.5H560.693V40.5H564.752V39.5ZM556.634 39.5H552.575V40.5H556.634V39.5ZM548.516 39.5H544.458V40.5H548.516V39.5ZM540.399 39.5H536.34V40.5H540.399V39.5ZM532.281 39.5H528.222V40.5H532.281V39.5ZM524.163 39.5H520.105V40.5H524.163V39.5ZM516.046 39.5H511.987V40.5H516.046V39.5ZM507.928 39.5H503.869V40.5H507.928V39.5ZM499.811 39.5H495.752V40.5H499.811V39.5ZM491.693 39.5H487.634V40.5H491.693V39.5ZM483.575 39.5H479.516V40.5H483.575V39.5ZM475.458 39.5H471.399V40.5H475.458V39.5ZM467.34 39.5H465.311V40.5H467.34V39.5ZM465.811 40V38.25H464.811V40H465.811ZM465.811 34.75V31.25H464.811V34.75H465.811ZM465.811 27.75V24.25H464.811V27.75H465.811ZM465.811 20.75V17.25H464.811V20.75H465.811ZM465.811 13.75V12H464.811V13.75H465.811ZM465.811 12C465.811 11.2313 465.886 10.4807 466.029 9.75509L465.048 9.56102C464.892 10.3503 464.811 11.1658 464.811 12H465.811ZM467.747 5.61077C468.587 4.35646 469.667 3.27644 470.921 2.4367L470.365 1.60573C469.002 2.51819 467.829 3.69152 466.916 5.05445L467.747 5.61077ZM475.066 0.718902C475.791 0.575345 476.542 0.5 477.311 0.5V-0.5C476.476 -0.5 475.661 -0.418219 474.872 -0.262085L475.066 0.718902ZM477.311 0.5H479.346V-0.5H477.311V0.5ZM483.418 0.5H487.489V-0.5H483.418V0.5ZM491.561 0.5H495.632V-0.5H491.561V0.5ZM499.703 0.5H503.775V-0.5H499.703V0.5ZM507.846 0.5H511.918V-0.5H507.846V0.5ZM515.989 0.5H520.061V-0.5H515.989V0.5ZM524.132 0.5H528.203V-0.5H524.132V0.5ZM532.275 0.5H536.346V-0.5H532.275V0.5ZM540.418 0.5H544.489V-0.5H540.418V0.5ZM548.561 0.5H552.632V-0.5H548.561V0.5ZM556.703 0.5H560.775V-0.5H556.703V0.5ZM564.846 0.5H568.918V-0.5H564.846V0.5ZM572.989 0.5H577.061V-0.5H572.989V0.5ZM581.132 0.5H585.203V-0.5H581.132V0.5ZM589.275 0.5H591.311V-0.5H589.275V0.5ZM591.311 0.5C592.079 0.5 592.83 0.575345 593.555 0.718903L593.75 -0.262085C592.96 -0.418219 592.145 -0.5 591.311 -0.5V0.5ZM597.7 2.4367C598.954 3.27644 600.034 4.35647 600.874 5.61077L601.705 5.05445C600.792 3.69153 599.619 2.51819 598.256 1.60573L597.7 2.4367ZM602.592 9.75509C602.735 10.4808 602.811 11.2313 602.811 12H603.811C603.811 11.1658 603.729 10.3503 603.573 9.56102L602.592 9.75509ZM602.811 12V13.75H603.811V12H602.811ZM602.811 17.25V20.75H603.811V17.25H602.811ZM602.811 24.25V27.75H603.811V24.25H602.811ZM602.811 31.25V34.75H603.811V31.25H602.811ZM602.811 38.25V40H603.811V38.25H602.811ZM603.311 40V41C603.863 41 604.311 40.5523 604.311 40H603.311ZM465.311 40H464.311C464.311 40.5523 464.758 41 465.311 41V40ZM601.281 39C600.729 39 600.281 39.4477 600.281 40C600.281 40.5523 600.729 41 601.281 41V39ZM597.222 41C597.775 41 598.222 40.5523 598.222 40C598.222 39.4477 597.775 39 597.222 39V41ZM593.163 39C592.611 39 592.163 39.4477 592.163 40C592.163 40.5523 592.611 41 593.163 41V39ZM589.105 41C589.657 41 590.105 40.5523 590.105 40C590.105 39.4477 589.657 39 589.105 39V41ZM585.046 39C584.494 39 584.046 39.4477 584.046 40C584.046 40.5523 584.494 41 585.046 41V39ZM580.987 41C581.539 41 581.987 40.5523 581.987 40C581.987 39.4477 581.539 39 580.987 39V41ZM576.928 39C576.376 39 575.928 39.4477 575.928 40C575.928 40.5523 576.376 41 576.928 41V39ZM572.869 41C573.422 41 573.869 40.5523 573.869 40C573.869 39.4477 573.422 39 572.869 39V41ZM568.811 39C568.258 39 567.811 39.4477 567.811 40C567.811 40.5523 568.258 41 568.811 41V39ZM564.752 41C565.304 41 565.752 40.5523 565.752 40C565.752 39.4477 565.304 39 564.752 39V41ZM560.693 39C560.141 39 559.693 39.4477 559.693 40C559.693 40.5523 560.141 41 560.693 41V39ZM556.634 41C557.186 41 557.634 40.5523 557.634 40C557.634 39.4477 557.186 39 556.634 39V41ZM552.575 39C552.023 39 551.575 39.4477 551.575 40C551.575 40.5523 552.023 41 552.575 41V39ZM548.516 41C549.069 41 549.516 40.5523 549.516 40C549.516 39.4477 549.069 39 548.516 39V41ZM544.458 39C543.905 39 543.458 39.4477 543.458 40C543.458 40.5523 543.905 41 544.458 41V39ZM540.399 41C540.951 41 541.399 40.5523 541.399 40C541.399 39.4477 540.951 39 540.399 39V41ZM536.34 39C535.788 39 535.34 39.4477 535.34 40C535.34 40.5523 535.788 41 536.34 41V39ZM532.281 41C532.833 41 533.281 40.5523 533.281 40C533.281 39.4477 532.833 39 532.281 39V41ZM528.222 39C527.67 39 527.222 39.4477 527.222 40C527.222 40.5523 527.67 41 528.222 41V39ZM524.163 41C524.716 41 525.163 40.5523 525.163 40C525.163 39.4477 524.716 39 524.163 39V41ZM520.105 39C519.552 39 519.105 39.4477 519.105 40C519.105 40.5523 519.552 41 520.105 41V39ZM516.046 41C516.598 41 517.046 40.5523 517.046 40C517.046 39.4477 516.598 39 516.046 39V41ZM511.987 39C511.435 39 510.987 39.4477 510.987 40C510.987 40.5523 511.435 41 511.987 41V39ZM507.928 41C508.48 41 508.928 40.5523 508.928 40C508.928 39.4477 508.48 39 507.928 39V41ZM503.869 39C503.317 39 502.869 39.4477 502.869 40C502.869 40.5523 503.317 41 503.869 41V39ZM499.811 41C500.363 41 500.811 40.5523 500.811 40C500.811 39.4477 500.363 39 499.811 39V41ZM495.752 39C495.199 39 494.752 39.4477 494.752 40C494.752 40.5523 495.199 41 495.752 41V39ZM491.693 41C492.245 41 492.693 40.5523 492.693 40C492.693 39.4477 492.245 39 491.693 39V41ZM487.634 39C487.082 39 486.634 39.4477 486.634 40C486.634 40.5523 487.082 41 487.634 41V39ZM483.575 41C484.128 41 484.575 40.5523 484.575 40C484.575 39.4477 484.128 39 483.575 39V41ZM479.516 39C478.964 39 478.516 39.4477 478.516 40C478.516 40.5523 478.964 41 479.516 41V39ZM475.458 41C476.01 41 476.458 40.5523 476.458 40C476.458 39.4477 476.01 39 475.458 39V41ZM471.399 39C470.847 39 470.399 39.4477 470.399 40C470.399 40.5523 470.847 41 471.399 41V39ZM467.34 41C467.892 41 468.34 40.5523 468.34 40C468.34 39.4477 467.892 39 467.34 39V41ZM466.311 38.25C466.311 37.6977 465.863 37.25 465.311 37.25C464.758 37.25 464.311 37.6977 464.311 38.25H466.311ZM464.311 34.75C464.311 35.3023 464.758 35.75 465.311 35.75C465.863 35.75 466.311 35.3023 466.311 34.75H464.311ZM466.311 31.25C466.311 30.6977 465.863 30.25 465.311 30.25C464.758 30.25 464.311 30.6977 464.311 31.25H466.311ZM464.311 27.75C464.311 28.3023 464.758 28.75 465.311 28.75C465.863 28.75 466.311 28.3023 466.311 27.75H464.311ZM466.311 24.25C466.311 23.6977 465.863 23.25 465.311 23.25C464.758 23.25 464.311 23.6977 464.311 24.25H466.311ZM464.311 20.75C464.311 21.3023 464.758 21.75 465.311 21.75C465.863 21.75 466.311 21.3023 466.311 20.75H464.311ZM466.311 17.25C466.311 16.6977 465.863 16.25 465.311 16.25C464.758 16.25 464.311 16.6977 464.311 17.25H466.311ZM464.311 13.75C464.311 14.3023 464.758 14.75 465.311 14.75C465.863 14.75 466.311 14.3023 466.311 13.75H464.311ZM466.52 9.85213C466.627 9.31034 466.275 8.78425 465.733 8.67707C465.191 8.56989 464.665 8.9222 464.558 9.46399L466.52 9.85213ZM466.501 4.77629C466.194 5.23522 466.317 5.85633 466.775 6.16358C467.234 6.47083 467.855 6.34786 468.163 5.88893L466.501 4.77629ZM471.199 2.85218C471.658 2.54494 471.781 1.92383 471.474 1.4649C471.167 1.00596 470.546 0.883 470.087 1.19025L471.199 2.85218ZM474.775 -0.752579C474.233 -0.645398 473.88 -0.119307 473.988 0.422477C474.095 0.964262 474.621 1.31658 475.163 1.2094L474.775 -0.752579ZM479.346 1C479.899 1 480.346 0.552285 480.346 0C480.346 -0.552285 479.899 -1 479.346 -1V1ZM483.418 -1C482.865 -1 482.418 -0.552285 482.418 0C482.418 0.552285 482.865 1 483.418 1V-1ZM487.489 1C488.041 1 488.489 0.552285 488.489 0C488.489 -0.552285 488.041 -1 487.489 -1V1ZM491.561 -1C491.008 -1 490.561 -0.552285 490.561 0C490.561 0.552285 491.008 1 491.561 1V-1ZM495.632 1C496.184 1 496.632 0.552285 496.632 0C496.632 -0.552285 496.184 -1 495.632 -1V1ZM499.703 -1C499.151 -1 498.703 -0.552285 498.703 0C498.703 0.552285 499.151 1 499.703 1V-1ZM503.775 1C504.327 1 504.775 0.552285 504.775 0C504.775 -0.552285 504.327 -1 503.775 -1V1ZM507.846 -1C507.294 -1 506.846 -0.552285 506.846 0C506.846 0.552285 507.294 1 507.846 1V-1ZM511.918 1C512.47 1 512.918 0.552285 512.918 0C512.918 -0.552285 512.47 -1 511.918 -1V1ZM515.989 -1C515.437 -1 514.989 -0.552285 514.989 0C514.989 0.552285 515.437 1 515.989 1V-1ZM520.061 1C520.613 1 521.061 0.552285 521.061 0C521.061 -0.552285 520.613 -1 520.061 -1V1ZM524.132 -1C523.58 -1 523.132 -0.552285 523.132 0C523.132 0.552285 523.58 1 524.132 1V-1ZM528.203 1C528.756 1 529.203 0.552285 529.203 0C529.203 -0.552285 528.756 -1 528.203 -1V1ZM532.275 -1C531.723 -1 531.275 -0.552285 531.275 0C531.275 0.552285 531.723 1 532.275 1V-1ZM536.346 1C536.899 1 537.346 0.552285 537.346 0C537.346 -0.552285 536.899 -1 536.346 -1V1ZM540.418 -1C539.865 -1 539.418 -0.552285 539.418 0C539.418 0.552285 539.865 1 540.418 1V-1ZM544.489 1C545.041 1 545.489 0.552285 545.489 0C545.489 -0.552285 545.041 -1 544.489 -1V1ZM548.561 -1C548.008 -1 547.561 -0.552285 547.561 0C547.561 0.552285 548.008 1 548.561 1V-1ZM552.632 1C553.184 1 553.632 0.552285 553.632 0C553.632 -0.552285 553.184 -1 552.632 -1V1ZM556.703 -1C556.151 -1 555.703 -0.552285 555.703 0C555.703 0.552285 556.151 1 556.703 1V-1ZM560.775 1C561.327 1 561.775 0.552285 561.775 0C561.775 -0.552285 561.327 -1 560.775 -1V1ZM564.846 -1C564.294 -1 563.846 -0.552285 563.846 0C563.846 0.552285 564.294 1 564.846 1V-1ZM568.918 1C569.47 1 569.918 0.552285 569.918 0C569.918 -0.552285 569.47 -1 568.918 -1V1ZM572.989 -1C572.437 -1 571.989 -0.552285 571.989 0C571.989 0.552285 572.437 1 572.989 1V-1ZM577.061 1C577.613 1 578.061 0.552285 578.061 0C578.061 -0.552285 577.613 -1 577.061 -1V1ZM581.132 -1C580.58 -1 580.132 -0.552285 580.132 0C580.132 0.552285 580.58 1 581.132 1V-1ZM585.203 1C585.756 1 586.203 0.552285 586.203 0C586.203 -0.552285 585.756 -1 585.203 -1V1ZM589.275 -1C588.723 -1 588.275 -0.552285 588.275 0C588.275 0.552285 588.723 1 589.275 1V-1ZM593.458 1.2094C594 1.31658 594.526 0.964262 594.633 0.422478C594.741 -0.119307 594.388 -0.645398 593.847 -0.752579L593.458 1.2094ZM598.534 1.19025C598.075 0.883001 597.454 1.00597 597.147 1.4649C596.84 1.92383 596.963 2.54494 597.422 2.85218L598.534 1.19025ZM600.458 5.88893C600.766 6.34786 601.387 6.47083 601.846 6.16358C602.305 5.85633 602.428 5.23522 602.12 4.77629L600.458 5.88893ZM604.063 9.46399C603.956 8.9222 603.43 8.56989 602.888 8.67707C602.346 8.78425 601.994 9.31034 602.101 9.85213L604.063 9.46399ZM602.311 13.75C602.311 14.3023 602.758 14.75 603.311 14.75C603.863 14.75 604.311 14.3023 604.311 13.75H602.311ZM604.311 17.25C604.311 16.6977 603.863 16.25 603.311 16.25C602.758 16.25 602.311 16.6977 602.311 17.25H604.311ZM602.311 20.75C602.311 21.3023 602.758 21.75 603.311 21.75C603.863 21.75 604.311 21.3023 604.311 20.75H602.311ZM604.311 24.25C604.311 23.6977 603.863 23.25 603.311 23.25C602.758 23.25 602.311 23.6977 602.311 24.25H604.311ZM602.311 27.75C602.311 28.3023 602.758 28.75 603.311 28.75C603.863 28.75 604.311 28.3023 604.311 27.75H602.311ZM604.311 31.25C604.311 30.6977 603.863 30.25 603.311 30.25C602.758 30.25 602.311 30.6977 602.311 31.25H604.311ZM602.311 34.75C602.311 35.3023 602.758 35.75 603.311 35.75C603.863 35.75 604.311 35.3023 604.311 34.75H602.311ZM604.311 38.25C604.311 37.6977 603.863 37.25 603.311 37.25C602.758 37.25 602.311 37.6977 602.311 38.25H604.311ZM603.311 39H601.281V41H603.311V39ZM597.222 39H593.163V41H597.222V39ZM589.105 39H585.046V41H589.105V39ZM580.987 39H576.928V41H580.987V39ZM572.869 39H568.811V41H572.869V39ZM564.752 39H560.693V41H564.752V39ZM556.634 39H552.575V41H556.634V39ZM548.516 39H544.458V41H548.516V39ZM540.399 39H536.34V41H540.399V39ZM532.281 39H528.222V41H532.281V39ZM524.163 39H520.105V41H524.163V39ZM516.046 39H511.987V41H516.046V39ZM507.928 39H503.869V41H507.928V39ZM499.811 39H495.752V41H499.811V39ZM491.693 39H487.634V41H491.693V39ZM483.575 39H479.516V41H483.575V39ZM475.458 39H471.399V41H475.458V39ZM467.34 39H465.311V41H467.34V39ZM466.311 40V38.25H464.311V40H466.311ZM466.311 34.75V31.25H464.311V34.75H466.311ZM466.311 27.75V24.25H464.311V27.75H466.311ZM466.311 20.75V17.25H464.311V20.75H466.311ZM466.311 13.75V12H464.311V13.75H466.311ZM466.311 12C466.311 11.2641 466.383 10.546 466.52 9.85213L464.558 9.46399C464.396 10.285 464.311 11.1331 464.311 12H466.311ZM468.163 5.88893C468.966 4.68893 469.999 3.65556 471.199 2.85218L470.087 1.19025C468.67 2.13906 467.45 3.35906 466.501 4.77629L468.163 5.88893ZM475.163 1.2094C475.857 1.07213 476.575 1 477.311 1V-1C476.444 -1 475.596 -0.915001 474.775 -0.752579L475.163 1.2094ZM477.311 1H479.346V-1H477.311V1ZM483.418 1H487.489V-1H483.418V1ZM491.561 1H495.632V-1H491.561V1ZM499.703 1H503.775V-1H499.703V1ZM507.846 1H511.918V-1H507.846V1ZM515.989 1H520.061V-1H515.989V1ZM524.132 1H528.203V-1H524.132V1ZM532.275 1H536.346V-1H532.275V1ZM540.418 1H544.489V-1H540.418V1ZM548.561 1H552.632V-1H548.561V1ZM556.703 1H560.775V-1H556.703V1ZM564.846 1H568.918V-1H564.846V1ZM572.989 1H577.061V-1H572.989V1ZM581.132 1H585.203V-1H581.132V1ZM589.275 1H591.311V-1H589.275V1ZM591.311 1C592.046 1 592.765 1.07213 593.458 1.2094L593.847 -0.752579C593.026 -0.915001 592.177 -1 591.311 -1V1ZM597.422 2.85218C598.622 3.65556 599.655 4.68894 600.458 5.88893L602.12 4.77629C601.171 3.35906 599.951 2.13906 598.534 1.19025L597.422 2.85218ZM602.101 9.85213C602.238 10.546 602.311 11.2641 602.311 12H604.311C604.311 11.1331 604.226 10.285 604.063 9.46399L602.101 9.85213ZM602.311 12V13.75H604.311V12H602.311ZM602.311 17.25V20.75H604.311V17.25H602.311ZM602.311 24.25V27.75H604.311V24.25H602.311ZM602.311 31.25V34.75H604.311V31.25H602.311ZM602.311 38.25V40H604.311V38.25H602.311Z" fill="#CCB29C"/>
</svg>
