<svg width="176" height="138" viewBox="0 0 176 138" fill="none" xmlns="http://www.w3.org/2000/svg">
<path d="M0.5 12C0.5 5.37258 5.87258 0 12.5 0H163.5C170.127 0 175.5 5.37258 175.5 12V32H0.5V12Z" fill="#CCB29C" fill-opacity="0.1"/>
<path d="M23.51 20H24.686V11.32H27.5V10.2H20.696V11.32H23.51V20ZM31.7394 13.364C30.6194 13.364 30.0314 14.036 29.8354 14.316V9.416H28.6594V20H29.8354V15.548C29.8354 15.548 30.3954 14.456 31.4454 14.456C32.3134 14.456 32.9994 14.932 32.9994 16.038V20H34.1754V15.842C34.1754 14.246 33.0274 13.364 31.7394 13.364ZM35.998 20H37.174V13.532H35.998V20ZM35.788 11.46C35.788 11.894 36.152 12.258 36.586 12.258C37.02 12.258 37.384 11.894 37.384 11.46C37.384 11.026 37.02 10.662 36.586 10.662C36.152 10.662 35.788 11.026 35.788 11.46ZM42.0786 13.364C40.6786 13.364 40.0906 14.442 40.0906 14.442V13.532H38.9986V20H40.1746V15.548C40.1746 15.548 40.7346 14.456 41.7846 14.456C42.6526 14.456 43.3386 14.932 43.3386 16.038V20H44.5146V15.842C44.5146 14.246 43.3666 13.364 42.0786 13.364ZM54.6509 18.152C54.6509 18.152 54.0209 19.076 52.7609 19.076C51.4589 19.076 50.6049 18.04 50.6049 16.766C50.6049 15.492 51.4589 14.456 52.7609 14.456C53.9089 14.456 54.5389 15.24 54.5389 15.24L55.3369 14.526C55.3369 14.526 54.4129 13.364 52.7609 13.364C50.8569 13.364 49.4289 14.876 49.4289 16.766C49.4289 18.67 50.8569 20.168 52.7609 20.168C54.4689 20.168 55.4069 18.922 55.4069 18.922L54.6509 18.152ZM59.2667 13.364C58.0347 13.364 57.4607 14.526 57.4607 14.526V13.532H56.3687V20H57.5447V15.548C57.5447 15.548 58.0067 14.456 59.0287 14.456C59.5187 14.456 59.7707 14.596 59.7707 14.596L60.2047 13.532C60.2047 13.532 59.7987 13.364 59.2667 13.364ZM63.3825 20.168C64.7825 20.168 65.3705 19.006 65.3705 19.006V20H66.4625V13.532H65.2865V18.012C65.2865 18.012 64.7685 19.076 63.6765 19.076C62.8085 19.076 62.1225 18.6 62.1225 17.494V13.532H60.9465V17.69C60.9465 19.286 62.0945 20.168 63.3825 20.168ZM67.661 18.81C67.661 18.81 68.613 20.168 70.433 20.168C71.679 20.168 72.995 19.524 72.995 18.278C72.995 16.962 71.945 16.5 70.713 16.234C69.649 16.01 69.145 15.744 69.145 15.254C69.145 14.834 69.551 14.428 70.377 14.428C71.357 14.428 72.001 15.142 72.001 15.142L72.771 14.344C72.771 14.344 71.903 13.364 70.377 13.364C68.935 13.364 67.997 14.288 67.997 15.226C67.997 16.444 68.977 16.99 70.363 17.27C71.357 17.466 71.833 17.746 71.833 18.306C71.833 18.824 71.091 19.104 70.433 19.104C69.159 19.104 68.473 18.054 68.473 18.054L67.661 18.81ZM73.7121 14.596H74.9721V18.138C74.9721 19.566 75.9941 20.168 76.9181 20.168C77.2961 20.168 77.7021 20.084 78.2621 19.776L77.8281 18.81C77.8281 18.81 77.4501 19.076 77.0861 19.076C76.4561 19.076 76.1481 18.712 76.1481 18.082V14.596H78.1641V13.532H76.1481V11.558H74.9721V13.532H73.7121V14.596ZM83.5476 20H84.7236V10.2H83.5476V20ZM86.2287 14.596H87.4887V18.138C87.4887 19.566 88.5107 20.168 89.4347 20.168C89.8127 20.168 90.2187 20.084 90.7787 19.776L90.3447 18.81C90.3447 18.81 89.9667 19.076 89.6027 19.076C88.9727 19.076 88.6647 18.712 88.6647 18.082V14.596H90.6807V13.532H88.6647V11.558H87.4887V13.532H86.2287V14.596ZM96.6464 17.984C96.6464 17.984 96.0164 19.076 94.7564 19.076C93.4404 19.076 92.6004 18.04 92.6004 16.766C92.6004 15.492 93.4404 14.456 94.7564 14.456C96.0164 14.456 96.6464 15.548 96.6464 15.548V17.984ZM96.7444 13.532V14.47C96.7444 14.47 96.1144 13.364 94.5324 13.364C92.8104 13.364 91.4244 14.862 91.4244 16.766C91.4244 18.67 92.8104 20.168 94.5324 20.168C96.1144 20.168 96.7444 19.062 96.7444 19.062V20H97.8224V13.532H96.7444ZM99.6827 20H100.859V9.416H99.6827V20ZM102.933 20H104.109V13.532H102.933V20ZM102.723 11.46C102.723 11.894 103.087 12.258 103.521 12.258C103.955 12.258 104.319 11.894 104.319 11.46C104.319 11.026 103.955 10.662 103.521 10.662C103.087 10.662 102.723 11.026 102.723 11.46ZM110.708 17.984C110.708 17.984 110.078 19.076 108.818 19.076C107.502 19.076 106.662 18.04 106.662 16.766C106.662 15.492 107.502 14.456 108.818 14.456C110.078 14.456 110.708 15.548 110.708 15.548V17.984ZM110.806 13.532V14.47C110.806 14.47 110.176 13.364 108.594 13.364C106.872 13.364 105.486 14.862 105.486 16.766C105.486 18.67 106.872 20.168 108.594 20.168C110.176 20.168 110.806 19.062 110.806 19.062V20H111.884V13.532H110.806ZM116.572 13.364C115.172 13.364 114.584 14.442 114.584 14.442V13.532H113.492V20H114.668V15.548C114.668 15.548 115.228 14.456 116.278 14.456C117.146 14.456 117.832 14.932 117.832 16.038V20H119.008V15.842C119.008 14.246 117.86 13.364 116.572 13.364ZM124.371 13.532V23.22H125.547V19.202C125.771 19.496 126.443 20.168 127.633 20.168C129.383 20.168 130.769 18.67 130.769 16.766C130.769 14.862 129.383 13.364 127.633 13.364C126.093 13.364 125.449 14.47 125.449 14.47V13.532H124.371ZM125.547 15.562C125.547 15.562 126.163 14.456 127.451 14.456C128.767 14.456 129.593 15.492 129.593 16.766C129.593 18.04 128.767 19.076 127.451 19.076C126.163 19.076 125.547 17.97 125.547 17.97V15.562ZM132.139 20H133.315V13.532H132.139V20ZM131.929 11.46C131.929 11.894 132.293 12.258 132.727 12.258C133.161 12.258 133.525 11.894 133.525 11.46C133.525 11.026 133.161 10.662 132.727 10.662C132.293 10.662 131.929 11.026 131.929 11.46ZM134.915 13.532V14.624H138.429L134.719 20H140.347V18.908H136.791L140.501 13.532H134.915ZM141.312 13.532V14.624H144.826L141.116 20H146.744V18.908H143.188L146.898 13.532H141.312ZM152.706 17.984C152.706 17.984 152.076 19.076 150.816 19.076C149.5 19.076 148.66 18.04 148.66 16.766C148.66 15.492 149.5 14.456 150.816 14.456C152.076 14.456 152.706 15.548 152.706 15.548V17.984ZM152.804 13.532V14.47C152.804 14.47 152.174 13.364 150.592 13.364C148.87 13.364 147.484 14.862 147.484 16.766C147.484 18.67 148.87 20.168 150.592 20.168C152.174 20.168 152.804 19.062 152.804 19.062V20H153.882V13.532H152.804Z" fill="#CCB29C"/>
<path d="M175.5 32V32.5C175.776 32.5 176 32.2761 176 32H175.5ZM0.5 32H0C0 32.2761 0.223858 32.5 0.5 32.5L0.5 32ZM173.511 31.5C173.235 31.5 173.011 31.7239 173.011 32C173.011 32.2761 173.235 32.5 173.511 32.5V31.5ZM169.534 32.5C169.81 32.5 170.034 32.2761 170.034 32C170.034 31.7239 169.81 31.5 169.534 31.5V32.5ZM165.557 31.5C165.281 31.5 165.057 31.7239 165.057 32C165.057 32.2761 165.281 32.5 165.557 32.5V31.5ZM161.58 32.5C161.856 32.5 162.08 32.2761 162.08 32C162.08 31.7239 161.856 31.5 161.58 31.5V32.5ZM157.602 31.5C157.326 31.5 157.102 31.7239 157.102 32C157.102 32.2761 157.326 32.5 157.602 32.5V31.5ZM153.625 32.5C153.901 32.5 154.125 32.2761 154.125 32C154.125 31.7239 153.901 31.5 153.625 31.5V32.5ZM149.648 31.5C149.372 31.5 149.148 31.7239 149.148 32C149.148 32.2761 149.372 32.5 149.648 32.5V31.5ZM145.67 32.5C145.947 32.5 146.17 32.2761 146.17 32C146.17 31.7239 145.947 31.5 145.67 31.5V32.5ZM141.693 31.5C141.417 31.5 141.193 31.7239 141.193 32C141.193 32.2761 141.417 32.5 141.693 32.5V31.5ZM137.716 32.5C137.992 32.5 138.216 32.2761 138.216 32C138.216 31.7239 137.992 31.5 137.716 31.5V32.5ZM133.739 31.5C133.462 31.5 133.239 31.7239 133.239 32C133.239 32.2761 133.462 32.5 133.739 32.5V31.5ZM129.761 32.5C130.038 32.5 130.261 32.2761 130.261 32C130.261 31.7239 130.038 31.5 129.761 31.5V32.5ZM125.784 31.5C125.508 31.5 125.284 31.7239 125.284 32C125.284 32.2761 125.508 32.5 125.784 32.5V31.5ZM121.807 32.5C122.083 32.5 122.307 32.2761 122.307 32C122.307 31.7239 122.083 31.5 121.807 31.5V32.5ZM117.83 31.5C117.553 31.5 117.33 31.7239 117.33 32C117.33 32.2761 117.553 32.5 117.83 32.5V31.5ZM113.852 32.5C114.128 32.5 114.352 32.2761 114.352 32C114.352 31.7239 114.128 31.5 113.852 31.5V32.5ZM109.875 31.5C109.599 31.5 109.375 31.7239 109.375 32C109.375 32.2761 109.599 32.5 109.875 32.5V31.5ZM105.898 32.5C106.174 32.5 106.398 32.2761 106.398 32C106.398 31.7239 106.174 31.5 105.898 31.5V32.5ZM101.92 31.5C101.644 31.5 101.42 31.7239 101.42 32C101.42 32.2761 101.644 32.5 101.92 32.5V31.5ZM97.9432 32.5C98.2193 32.5 98.4432 32.2761 98.4432 32C98.4432 31.7239 98.2193 31.5 97.9432 31.5V32.5ZM93.9659 31.5C93.6898 31.5 93.4659 31.7239 93.4659 32C93.4659 32.2761 93.6898 32.5 93.9659 32.5V31.5ZM89.9886 32.5C90.2648 32.5 90.4886 32.2761 90.4886 32C90.4886 31.7239 90.2648 31.5 89.9886 31.5V32.5ZM86.0114 31.5C85.7352 31.5 85.5114 31.7239 85.5114 32C85.5114 32.2761 85.7352 32.5 86.0114 32.5V31.5ZM82.0341 32.5C82.3102 32.5 82.5341 32.2761 82.5341 32C82.5341 31.7239 82.3102 31.5 82.0341 31.5V32.5ZM78.0568 31.5C77.7807 31.5 77.5568 31.7239 77.5568 32C77.5568 32.2761 77.7807 32.5 78.0568 32.5V31.5ZM74.0796 32.5C74.3557 32.5 74.5796 32.2761 74.5796 32C74.5796 31.7239 74.3557 31.5 74.0796 31.5V32.5ZM70.1023 31.5C69.8261 31.5 69.6023 31.7239 69.6023 32C69.6023 32.2761 69.8261 32.5 70.1023 32.5V31.5ZM66.125 32.5C66.4012 32.5 66.625 32.2761 66.625 32C66.625 31.7239 66.4012 31.5 66.125 31.5V32.5ZM62.1477 31.5C61.8716 31.5 61.6477 31.7239 61.6477 32C61.6477 32.2761 61.8716 32.5 62.1477 32.5V31.5ZM58.1705 32.5C58.4466 32.5 58.6705 32.2761 58.6705 32C58.6705 31.7239 58.4466 31.5 58.1705 31.5V32.5ZM54.1932 31.5C53.9171 31.5 53.6932 31.7239 53.6932 32C53.6932 32.2761 53.9171 32.5 54.1932 32.5V31.5ZM50.2159 32.5C50.4921 32.5 50.7159 32.2761 50.7159 32C50.7159 31.7239 50.4921 31.5 50.2159 31.5V32.5ZM46.2386 31.5C45.9625 31.5 45.7386 31.7239 45.7386 32C45.7386 32.2761 45.9625 32.5 46.2386 32.5V31.5ZM42.2614 32.5C42.5375 32.5 42.7614 32.2761 42.7614 32C42.7614 31.7239 42.5375 31.5 42.2614 31.5V32.5ZM38.2841 31.5C38.0079 31.5 37.7841 31.7239 37.7841 32C37.7841 32.2761 38.0079 32.5 38.2841 32.5V31.5ZM34.3068 32.5C34.5829 32.5 34.8068 32.2761 34.8068 32C34.8068 31.7239 34.5829 31.5 34.3068 31.5V32.5ZM30.3295 31.5C30.0534 31.5 29.8295 31.7239 29.8295 32C29.8295 32.2761 30.0534 32.5 30.3295 32.5V31.5ZM26.3522 32.5C26.6284 32.5 26.8522 32.2761 26.8522 32C26.8522 31.7239 26.6284 31.5 26.3522 31.5V32.5ZM22.375 31.5C22.0988 31.5 21.875 31.7239 21.875 32C21.875 32.2761 22.0988 32.5 22.375 32.5V31.5ZM18.3977 32.5C18.6738 32.5 18.8977 32.2761 18.8977 32C18.8977 31.7239 18.6738 31.5 18.3977 31.5V32.5ZM14.4204 31.5C14.1443 31.5 13.9204 31.7239 13.9204 32C13.9204 32.2761 14.1443 32.5 14.4204 32.5V31.5ZM10.4431 32.5C10.7193 32.5 10.9431 32.2761 10.9431 32C10.9431 31.7239 10.7193 31.5 10.4431 31.5V32.5ZM6.46585 31.5C6.18971 31.5 5.96585 31.7239 5.96585 32C5.96585 32.2761 6.18971 32.5 6.46585 32.5V31.5ZM2.48857 32.5C2.76471 32.5 2.98857 32.2761 2.98857 32C2.98857 31.7239 2.76471 31.5 2.48857 31.5V32.5ZM1 30.3333C1 30.0572 0.776142 29.8333 0.5 29.8333C0.223858 29.8333 0 30.0572 0 30.3333H1ZM0 27C0 27.2761 0.223858 27.5 0.5 27.5C0.776142 27.5 1 27.2761 1 27H0ZM1 23.6667C1 23.3905 0.776142 23.1667 0.5 23.1667C0.223858 23.1667 0 23.3905 0 23.6667H1ZM0 20.3333C0 20.6095 0.223858 20.8333 0.5 20.8333C0.776142 20.8333 1 20.6095 1 20.3333H0ZM1 17C1 16.7239 0.776142 16.5 0.5 16.5C0.223858 16.5 0 16.7239 0 17H1ZM0 13.6667C0 13.9428 0.223858 14.1667 0.5 14.1667C0.776142 14.1667 1 13.9428 1 13.6667H0ZM1.2189 9.75509C1.27249 9.4842 1.09634 9.22115 0.825443 9.16756C0.554551 9.11397 0.291505 9.29013 0.237915 9.56102L1.2189 9.75509ZM2.10573 5.05445C1.95211 5.28392 2.01359 5.59447 2.24306 5.7481C2.47252 5.90172 2.78308 5.84024 2.9367 5.61077L2.10573 5.05445ZM6.11077 2.4367C6.34024 2.28308 6.40172 1.97252 6.2481 1.74305C6.09447 1.51359 5.78392 1.45211 5.55445 1.60573L6.11077 2.4367ZM10.061 -0.262085C9.79013 -0.208495 9.61397 0.0545506 9.66756 0.325443C9.72115 0.596335 9.9842 0.772493 10.2551 0.718902L10.061 -0.262085ZM14.4868 0.5C14.763 0.5 14.9868 0.276142 14.9868 0C14.9868 -0.276142 14.763 -0.5 14.4868 -0.5V0.5ZM18.4605 -0.5C18.1844 -0.5 17.9605 -0.276142 17.9605 0C17.9605 0.276142 18.1844 0.5 18.4605 0.5V-0.5ZM22.4342 0.5C22.7104 0.5 22.9342 0.276142 22.9342 0C22.9342 -0.276142 22.7104 -0.5 22.4342 -0.5V0.5ZM26.4079 -0.5C26.1318 -0.5 25.9079 -0.276142 25.9079 0C25.9079 0.276142 26.1318 0.5 26.4079 0.5V-0.5ZM30.3816 0.5C30.6577 0.5 30.8816 0.276142 30.8816 0C30.8816 -0.276142 30.6577 -0.5 30.3816 -0.5V0.5ZM34.3553 -0.5C34.0791 -0.5 33.8553 -0.276142 33.8553 0C33.8553 0.276142 34.0791 0.5 34.3553 0.5V-0.5ZM38.3289 0.5C38.6051 0.5 38.8289 0.276142 38.8289 0C38.8289 -0.276142 38.6051 -0.5 38.3289 -0.5V0.5ZM42.3026 -0.5C42.0265 -0.5 41.8026 -0.276142 41.8026 0C41.8026 0.276142 42.0265 0.5 42.3026 0.5V-0.5ZM46.2763 0.5C46.5525 0.5 46.7763 0.276142 46.7763 0C46.7763 -0.276142 46.5525 -0.5 46.2763 -0.5V0.5ZM50.25 -0.5C49.9739 -0.5 49.75 -0.276142 49.75 0C49.75 0.276142 49.9739 0.5 50.25 0.5V-0.5ZM54.2237 0.5C54.4998 0.5 54.7237 0.276142 54.7237 0C54.7237 -0.276142 54.4998 -0.5 54.2237 -0.5V0.5ZM58.1974 -0.5C57.9212 -0.5 57.6974 -0.276142 57.6974 0C57.6974 0.276142 57.9212 0.5 58.1974 0.5V-0.5ZM62.1711 0.5C62.4472 0.5 62.6711 0.276142 62.6711 0C62.6711 -0.276142 62.4472 -0.5 62.1711 -0.5V0.5ZM66.1447 -0.5C65.8686 -0.5 65.6447 -0.276142 65.6447 0C65.6447 0.276142 65.8686 0.5 66.1447 0.5V-0.5ZM70.1184 0.5C70.3946 0.5 70.6184 0.276142 70.6184 0C70.6184 -0.276142 70.3946 -0.5 70.1184 -0.5V0.5ZM74.0921 -0.5C73.816 -0.5 73.5921 -0.276142 73.5921 0C73.5921 0.276142 73.816 0.5 74.0921 0.5V-0.5ZM78.0658 0.5C78.3419 0.5 78.5658 0.276142 78.5658 0C78.5658 -0.276142 78.3419 -0.5 78.0658 -0.5V0.5ZM82.0395 -0.5C81.7633 -0.5 81.5395 -0.276142 81.5395 0C81.5395 0.276142 81.7633 0.5 82.0395 0.5V-0.5ZM86.0132 0.5C86.2893 0.5 86.5132 0.276142 86.5132 0C86.5132 -0.276142 86.2893 -0.5 86.0132 -0.5V0.5ZM89.9869 -0.5C89.7107 -0.5 89.4869 -0.276142 89.4869 0C89.4869 0.276142 89.7107 0.5 89.9869 0.5V-0.5ZM93.9605 0.5C94.2367 0.5 94.4605 0.276142 94.4605 0C94.4605 -0.276142 94.2367 -0.5 93.9605 -0.5V0.5ZM97.9342 -0.5C97.6581 -0.5 97.4342 -0.276142 97.4342 0C97.4342 0.276142 97.6581 0.5 97.9342 0.5V-0.5ZM101.908 0.5C102.184 0.5 102.408 0.276142 102.408 0C102.408 -0.276142 102.184 -0.5 101.908 -0.5V0.5ZM105.882 -0.5C105.605 -0.5 105.382 -0.276142 105.382 0C105.382 0.276142 105.605 0.5 105.882 0.5V-0.5ZM109.855 0.5C110.131 0.5 110.355 0.276142 110.355 0C110.355 -0.276142 110.131 -0.5 109.855 -0.5V0.5ZM113.829 -0.5C113.553 -0.5 113.329 -0.276142 113.329 0C113.329 0.276142 113.553 0.5 113.829 0.5V-0.5ZM117.803 0.5C118.079 0.5 118.303 0.276142 118.303 0C118.303 -0.276142 118.079 -0.5 117.803 -0.5V0.5ZM121.776 -0.5C121.5 -0.5 121.276 -0.276142 121.276 0C121.276 0.276142 121.5 0.5 121.776 0.5V-0.5ZM125.75 0.5C126.026 0.5 126.25 0.276142 126.25 0C126.25 -0.276142 126.026 -0.5 125.75 -0.5V0.5ZM129.724 -0.5C129.448 -0.5 129.224 -0.276142 129.224 0C129.224 0.276142 129.448 0.5 129.724 0.5V-0.5ZM133.697 0.5C133.974 0.5 134.197 0.276142 134.197 0C134.197 -0.276142 133.974 -0.5 133.697 -0.5V0.5ZM137.671 -0.5C137.395 -0.5 137.171 -0.276142 137.171 0C137.171 0.276142 137.395 0.5 137.671 0.5V-0.5ZM141.645 0.5C141.921 0.5 142.145 0.276142 142.145 0C142.145 -0.276142 141.921 -0.5 141.645 -0.5V0.5ZM145.618 -0.5C145.342 -0.5 145.118 -0.276142 145.118 0C145.118 0.276142 145.342 0.5 145.618 0.5V-0.5ZM149.592 0.5C149.868 0.5 150.092 0.276142 150.092 0C150.092 -0.276142 149.868 -0.5 149.592 -0.5V0.5ZM153.566 -0.5C153.29 -0.5 153.066 -0.276142 153.066 0C153.066 0.276142 153.29 0.5 153.566 0.5V-0.5ZM157.539 0.5C157.816 0.5 158.039 0.276142 158.039 0C158.039 -0.276142 157.816 -0.5 157.539 -0.5V0.5ZM161.513 -0.5C161.237 -0.5 161.013 -0.276142 161.013 0C161.013 0.276142 161.237 0.5 161.513 0.5V-0.5ZM165.745 0.718903C166.016 0.772493 166.279 0.596335 166.332 0.325443C166.386 0.0545508 166.21 -0.208495 165.939 -0.262085L165.745 0.718903ZM170.446 1.60573C170.216 1.45211 169.906 1.51359 169.752 1.74306C169.598 1.97252 169.66 2.28308 169.889 2.4367L170.446 1.60573ZM173.063 5.61077C173.217 5.84024 173.527 5.90172 173.757 5.7481C173.986 5.59447 174.048 5.28392 173.894 5.05445L173.063 5.61077ZM175.762 9.56102C175.708 9.29013 175.445 9.11397 175.175 9.16756C174.904 9.22115 174.728 9.4842 174.781 9.75509L175.762 9.56102ZM175 13.6667C175 13.9428 175.224 14.1667 175.5 14.1667C175.776 14.1667 176 13.9428 176 13.6667H175ZM176 17C176 16.7239 175.776 16.5 175.5 16.5C175.224 16.5 175 16.7239 175 17H176ZM175 20.3333C175 20.6095 175.224 20.8333 175.5 20.8333C175.776 20.8333 176 20.6095 176 20.3333H175ZM176 23.6667C176 23.3905 175.776 23.1667 175.5 23.1667C175.224 23.1667 175 23.3905 175 23.6667H176ZM175 27C175 27.2761 175.224 27.5 175.5 27.5C175.776 27.5 176 27.2761 176 27H175ZM176 30.3333C176 30.0572 175.776 29.8333 175.5 29.8333C175.224 29.8333 175 30.0572 175 30.3333H176ZM175.5 31.5H173.511V32.5H175.5V31.5ZM169.534 31.5H165.557V32.5H169.534V31.5ZM161.58 31.5H157.602V32.5H161.58V31.5ZM153.625 31.5H149.648V32.5H153.625V31.5ZM145.67 31.5H141.693V32.5H145.67V31.5ZM137.716 31.5H133.739V32.5H137.716V31.5ZM129.761 31.5H125.784V32.5H129.761V31.5ZM121.807 31.5H117.83V32.5H121.807V31.5ZM113.852 31.5H109.875V32.5H113.852V31.5ZM105.898 31.5H101.92V32.5H105.898V31.5ZM97.9432 31.5H93.9659V32.5H97.9432V31.5ZM89.9886 31.5H86.0114V32.5H89.9886V31.5ZM82.0341 31.5H78.0568V32.5H82.0341V31.5ZM74.0796 31.5H70.1023V32.5H74.0796V31.5ZM66.125 31.5H62.1477V32.5H66.125V31.5ZM58.1705 31.5H54.1932V32.5H58.1705V31.5ZM50.2159 31.5H46.2386V32.5H50.2159V31.5ZM42.2614 31.5H38.2841V32.5H42.2614V31.5ZM34.3068 31.5H30.3295V32.5H34.3068V31.5ZM26.3522 31.5H22.375V32.5H26.3522V31.5ZM18.3977 31.5H14.4204V32.5H18.3977V31.5ZM10.4431 31.5H6.46585V32.5H10.4431V31.5ZM2.48857 31.5H0.5V32.5H2.48857V31.5ZM1 32V30.3333H0V32H1ZM1 27V23.6667H0V27H1ZM1 20.3333V17H0V20.3333H1ZM1 13.6667V12H0V13.6667H1ZM1 12C1 11.2313 1.07535 10.4807 1.2189 9.75509L0.237915 9.56102C0.0817813 10.3503 0 11.1658 0 12H1ZM2.9367 5.61077C3.77644 4.35646 4.85647 3.27644 6.11077 2.4367L5.55445 1.60573C4.19153 2.51819 3.01819 3.69152 2.10573 5.05445L2.9367 5.61077ZM10.2551 0.718902C10.9807 0.575345 11.7313 0.5 12.5 0.5V-0.5C11.6658 -0.5 10.8503 -0.418219 10.061 -0.262085L10.2551 0.718902ZM12.5 0.5H14.4868V-0.5H12.5V0.5ZM18.4605 0.5H22.4342V-0.5H18.4605V0.5ZM26.4079 0.5H30.3816V-0.5H26.4079V0.5ZM34.3553 0.5H38.3289V-0.5H34.3553V0.5ZM42.3026 0.5H46.2763V-0.5H42.3026V0.5ZM50.25 0.5H54.2237V-0.5H50.25V0.5ZM58.1974 0.5H62.1711V-0.5H58.1974V0.5ZM66.1447 0.5H70.1184V-0.5H66.1447V0.5ZM74.0921 0.5H78.0658V-0.5H74.0921V0.5ZM82.0395 0.5H86.0132V-0.5H82.0395V0.5ZM89.9869 0.5H93.9605V-0.5H89.9869V0.5ZM97.9342 0.5H101.908V-0.5H97.9342V0.5ZM105.882 0.5H109.855V-0.5H105.882V0.5ZM113.829 0.5H117.803V-0.5H113.829V0.5ZM121.776 0.5H125.75V-0.5H121.776V0.5ZM129.724 0.5H133.697V-0.5H129.724V0.5ZM137.671 0.5H141.645V-0.5H137.671V0.5ZM145.618 0.5H149.592V-0.5H145.618V0.5ZM153.566 0.5H157.539V-0.5H153.566V0.5ZM161.513 0.5H163.5V-0.5H161.513V0.5ZM163.5 0.5C164.269 0.5 165.019 0.575345 165.745 0.718903L165.939 -0.262085C165.15 -0.418219 164.334 -0.5 163.5 -0.5V0.5ZM169.889 2.4367C171.144 3.27644 172.224 4.35647 173.063 5.61077L173.894 5.05445C172.982 3.69153 171.808 2.51819 170.446 1.60573L169.889 2.4367ZM174.781 9.75509C174.925 10.4807 175 11.2313 175 12H176C176 11.1658 175.918 10.3503 175.762 9.56102L174.781 9.75509ZM175 12V13.6667H176V12H175ZM175 17V20.3333H176V17H175ZM175 23.6667V27H176V23.6667H175ZM175 30.3333V32H176V30.3333H175ZM175.5 32V33C176.052 33 176.5 32.5523 176.5 32H175.5ZM0.5 32H-0.5C-0.5 32.5523 -0.0522847 33 0.5 33L0.5 32ZM173.511 31C172.959 31 172.511 31.4477 172.511 32C172.511 32.5523 172.959 33 173.511 33V31ZM169.534 33C170.086 33 170.534 32.5523 170.534 32C170.534 31.4477 170.086 31 169.534 31V33ZM165.557 31C165.005 31 164.557 31.4477 164.557 32C164.557 32.5523 165.005 33 165.557 33V31ZM161.58 33C162.132 33 162.58 32.5523 162.58 32C162.58 31.4477 162.132 31 161.58 31V33ZM157.602 31C157.05 31 156.602 31.4477 156.602 32C156.602 32.5523 157.05 33 157.602 33V31ZM153.625 33C154.177 33 154.625 32.5523 154.625 32C154.625 31.4477 154.177 31 153.625 31V33ZM149.648 31C149.095 31 148.648 31.4477 148.648 32C148.648 32.5523 149.095 33 149.648 33V31ZM145.67 33C146.223 33 146.67 32.5523 146.67 32C146.67 31.4477 146.223 31 145.67 31V33ZM141.693 31C141.141 31 140.693 31.4477 140.693 32C140.693 32.5523 141.141 33 141.693 33V31ZM137.716 33C138.268 33 138.716 32.5523 138.716 32C138.716 31.4477 138.268 31 137.716 31V33ZM133.739 31C133.186 31 132.739 31.4477 132.739 32C132.739 32.5523 133.186 33 133.739 33V31ZM129.761 33C130.314 33 130.761 32.5523 130.761 32C130.761 31.4477 130.314 31 129.761 31V33ZM125.784 31C125.232 31 124.784 31.4477 124.784 32C124.784 32.5523 125.232 33 125.784 33V31ZM121.807 33C122.359 33 122.807 32.5523 122.807 32C122.807 31.4477 122.359 31 121.807 31V33ZM117.83 31C117.277 31 116.83 31.4477 116.83 32C116.83 32.5523 117.277 33 117.83 33V31ZM113.852 33C114.405 33 114.852 32.5523 114.852 32C114.852 31.4477 114.405 31 113.852 31V33ZM109.875 31C109.323 31 108.875 31.4477 108.875 32C108.875 32.5523 109.323 33 109.875 33V31ZM105.898 33C106.45 33 106.898 32.5523 106.898 32C106.898 31.4477 106.45 31 105.898 31V33ZM101.92 31C101.368 31 100.92 31.4477 100.92 32C100.92 32.5523 101.368 33 101.92 33V31ZM97.9432 33C98.4955 33 98.9432 32.5523 98.9432 32C98.9432 31.4477 98.4955 31 97.9432 31V33ZM93.9659 31C93.4136 31 92.9659 31.4477 92.9659 32C92.9659 32.5523 93.4136 33 93.9659 33V31ZM89.9886 33C90.5409 33 90.9886 32.5523 90.9886 32C90.9886 31.4477 90.5409 31 89.9886 31V33ZM86.0114 31C85.4591 31 85.0114 31.4477 85.0114 32C85.0114 32.5523 85.4591 33 86.0114 33V31ZM82.0341 33C82.5864 33 83.0341 32.5523 83.0341 32C83.0341 31.4477 82.5864 31 82.0341 31V33ZM78.0568 31C77.5045 31 77.0568 31.4477 77.0568 32C77.0568 32.5523 77.5045 33 78.0568 33V31ZM74.0796 33C74.6318 33 75.0796 32.5523 75.0796 32C75.0796 31.4477 74.6318 31 74.0796 31V33ZM70.1023 31C69.55 31 69.1023 31.4477 69.1023 32C69.1023 32.5523 69.55 33 70.1023 33V31ZM66.125 33C66.6773 33 67.125 32.5523 67.125 32C67.125 31.4477 66.6773 31 66.125 31V33ZM62.1477 31C61.5955 31 61.1477 31.4477 61.1477 32C61.1477 32.5523 61.5955 33 62.1477 33V31ZM58.1705 33C58.7228 33 59.1705 32.5523 59.1705 32C59.1705 31.4477 58.7228 31 58.1705 31V33ZM54.1932 31C53.6409 31 53.1932 31.4477 53.1932 32C53.1932 32.5523 53.6409 33 54.1932 33V31ZM50.2159 33C50.7682 33 51.2159 32.5523 51.2159 32C51.2159 31.4477 50.7682 31 50.2159 31V33ZM46.2386 31C45.6864 31 45.2386 31.4477 45.2386 32C45.2386 32.5523 45.6864 33 46.2386 33V31ZM42.2614 33C42.8137 33 43.2614 32.5523 43.2614 32C43.2614 31.4477 42.8137 31 42.2614 31V33ZM38.2841 31C37.7318 31 37.2841 31.4477 37.2841 32C37.2841 32.5523 37.7318 33 38.2841 33V31ZM34.3068 33C34.8591 33 35.3068 32.5523 35.3068 32C35.3068 31.4477 34.8591 31 34.3068 31V33ZM30.3295 31C29.7772 31 29.3295 31.4477 29.3295 32C29.3295 32.5523 29.7772 33 30.3295 33V31ZM26.3522 33C26.9045 33 27.3522 32.5523 27.3522 32C27.3522 31.4477 26.9045 31 26.3522 31V33ZM22.375 31C21.8227 31 21.375 31.4477 21.375 32C21.375 32.5523 21.8227 33 22.375 33V31ZM18.3977 33C18.95 33 19.3977 32.5523 19.3977 32C19.3977 31.4477 18.95 31 18.3977 31V33ZM14.4204 31C13.8681 31 13.4204 31.4477 13.4204 32C13.4204 32.5523 13.8681 33 14.4204 33V31ZM10.4431 33C10.9954 33 11.4431 32.5523 11.4431 32C11.4431 31.4477 10.9954 31 10.4431 31V33ZM6.46585 31C5.91357 31 5.46585 31.4477 5.46585 32C5.46585 32.5523 5.91357 33 6.46585 33V31ZM2.48857 33C3.04086 33 3.48857 32.5523 3.48857 32C3.48857 31.4477 3.04086 31 2.48857 31V33ZM1.5 30.3333C1.5 29.781 1.05228 29.3333 0.5 29.3333C-0.0522847 29.3333 -0.5 29.781 -0.5 30.3333H1.5ZM-0.5 27C-0.5 27.5523 -0.0522847 28 0.5 28C1.05228 28 1.5 27.5523 1.5 27H-0.5ZM1.5 23.6667C1.5 23.1144 1.05228 22.6667 0.5 22.6667C-0.0522847 22.6667 -0.5 23.1144 -0.5 23.6667H1.5ZM-0.5 20.3333C-0.5 20.8856 -0.0522847 21.3333 0.5 21.3333C1.05228 21.3333 1.5 20.8856 1.5 20.3333H-0.5ZM1.5 17C1.5 16.4477 1.05228 16 0.5 16C-0.0522847 16 -0.5 16.4477 -0.5 17H1.5ZM-0.5 13.6667C-0.5 14.219 -0.0522847 14.6667 0.5 14.6667C1.05228 14.6667 1.5 14.219 1.5 13.6667H-0.5ZM1.7094 9.85212C1.81658 9.31034 1.46426 8.78425 0.922478 8.67707C0.380693 8.56989 -0.145398 8.9222 -0.252579 9.46399L1.7094 9.85212ZM1.69025 4.77629C1.383 5.23522 1.50596 5.85633 1.9649 6.16358C2.42383 6.47083 3.04494 6.34786 3.35218 5.88893L1.69025 4.77629ZM6.38893 2.85218C6.84786 2.54494 6.97083 1.92383 6.66358 1.4649C6.35633 1.00596 5.73522 0.882999 5.27629 1.19025L6.38893 2.85218ZM9.96399 -0.752579C9.4222 -0.645398 9.06989 -0.119307 9.17707 0.422477C9.28425 0.964262 9.81034 1.31658 10.3521 1.2094L9.96399 -0.752579ZM14.4868 1C15.0391 1 15.4868 0.552285 15.4868 0C15.4868 -0.552285 15.0391 -1 14.4868 -1V1ZM18.4605 -1C17.9082 -1 17.4605 -0.552285 17.4605 0C17.4605 0.552285 17.9082 1 18.4605 1V-1ZM22.4342 1C22.9865 1 23.4342 0.552285 23.4342 0C23.4342 -0.552285 22.9865 -1 22.4342 -1V1ZM26.4079 -1C25.8556 -1 25.4079 -0.552285 25.4079 0C25.4079 0.552285 25.8556 1 26.4079 1V-1ZM30.3816 1C30.9339 1 31.3816 0.552285 31.3816 0C31.3816 -0.552285 30.9339 -1 30.3816 -1V1ZM34.3553 -1C33.803 -1 33.3553 -0.552285 33.3553 0C33.3553 0.552285 33.803 1 34.3553 1V-1ZM38.3289 1C38.8812 1 39.3289 0.552285 39.3289 0C39.3289 -0.552285 38.8812 -1 38.3289 -1V1ZM42.3026 -1C41.7503 -1 41.3026 -0.552285 41.3026 0C41.3026 0.552285 41.7503 1 42.3026 1V-1ZM46.2763 1C46.8286 1 47.2763 0.552285 47.2763 0C47.2763 -0.552285 46.8286 -1 46.2763 -1V1ZM50.25 -1C49.6977 -1 49.25 -0.552285 49.25 0C49.25 0.552285 49.6977 1 50.25 1V-1ZM54.2237 1C54.776 1 55.2237 0.552285 55.2237 0C55.2237 -0.552285 54.776 -1 54.2237 -1V1ZM58.1974 -1C57.6451 -1 57.1974 -0.552285 57.1974 0C57.1974 0.552285 57.6451 1 58.1974 1V-1ZM62.1711 1C62.7233 1 63.1711 0.552285 63.1711 0C63.1711 -0.552285 62.7233 -1 62.1711 -1V1ZM66.1447 -1C65.5925 -1 65.1447 -0.552285 65.1447 0C65.1447 0.552285 65.5925 1 66.1447 1V-1ZM70.1184 1C70.6707 1 71.1184 0.552285 71.1184 0C71.1184 -0.552285 70.6707 -1 70.1184 -1V1ZM74.0921 -1C73.5398 -1 73.0921 -0.552285 73.0921 0C73.0921 0.552285 73.5398 1 74.0921 1V-1ZM78.0658 1C78.6181 1 79.0658 0.552285 79.0658 0C79.0658 -0.552285 78.6181 -1 78.0658 -1V1ZM82.0395 -1C81.4872 -1 81.0395 -0.552285 81.0395 0C81.0395 0.552285 81.4872 1 82.0395 1V-1ZM86.0132 1C86.5655 1 87.0132 0.552285 87.0132 0C87.0132 -0.552285 86.5655 -1 86.0132 -1V1ZM89.9869 -1C89.4346 -1 88.9869 -0.552285 88.9869 0C88.9869 0.552285 89.4346 1 89.9869 1V-1ZM93.9605 1C94.5128 1 94.9605 0.552285 94.9605 0C94.9605 -0.552285 94.5128 -1 93.9605 -1V1ZM97.9342 -1C97.3819 -1 96.9342 -0.552285 96.9342 0C96.9342 0.552285 97.3819 1 97.9342 1V-1ZM101.908 1C102.46 1 102.908 0.552285 102.908 0C102.908 -0.552285 102.46 -1 101.908 -1V1ZM105.882 -1C105.329 -1 104.882 -0.552285 104.882 0C104.882 0.552285 105.329 1 105.882 1V-1ZM109.855 1C110.408 1 110.855 0.552285 110.855 0C110.855 -0.552285 110.408 -1 109.855 -1V1ZM113.829 -1C113.277 -1 112.829 -0.552285 112.829 0C112.829 0.552285 113.277 1 113.829 1V-1ZM117.803 1C118.355 1 118.803 0.552285 118.803 0C118.803 -0.552285 118.355 -1 117.803 -1V1ZM121.776 -1C121.224 -1 120.776 -0.552285 120.776 0C120.776 0.552285 121.224 1 121.776 1V-1ZM125.75 1C126.302 1 126.75 0.552285 126.75 0C126.75 -0.552285 126.302 -1 125.75 -1V1ZM129.724 -1C129.171 -1 128.724 -0.552285 128.724 0C128.724 0.552285 129.171 1 129.724 1V-1ZM133.697 1C134.25 1 134.697 0.552285 134.697 0C134.697 -0.552285 134.25 -1 133.697 -1V1ZM137.671 -1C137.119 -1 136.671 -0.552285 136.671 0C136.671 0.552285 137.119 1 137.671 1V-1ZM141.645 1C142.197 1 142.645 0.552285 142.645 0C142.645 -0.552285 142.197 -1 141.645 -1V1ZM145.618 -1C145.066 -1 144.618 -0.552285 144.618 0C144.618 0.552285 145.066 1 145.618 1V-1ZM149.592 1C150.144 1 150.592 0.552285 150.592 0C150.592 -0.552285 150.144 -1 149.592 -1V1ZM153.566 -1C153.014 -1 152.566 -0.552285 152.566 0C152.566 0.552285 153.014 1 153.566 1V-1ZM157.539 1C158.092 1 158.539 0.552285 158.539 0C158.539 -0.552285 158.092 -1 157.539 -1V1ZM161.513 -1C160.961 -1 160.513 -0.552285 160.513 0C160.513 0.552285 160.961 1 161.513 1V-1ZM165.648 1.2094C166.19 1.31658 166.716 0.964262 166.823 0.422478C166.93 -0.119307 166.578 -0.645398 166.036 -0.752579L165.648 1.2094ZM170.724 1.19025C170.265 0.883 169.644 1.00596 169.336 1.4649C169.029 1.92383 169.152 2.54494 169.611 2.85218L170.724 1.19025ZM172.648 5.88893C172.955 6.34786 173.576 6.47083 174.035 6.16358C174.494 5.85633 174.617 5.23522 174.31 4.77629L172.648 5.88893ZM176.253 9.46399C176.145 8.9222 175.619 8.56989 175.078 8.67707C174.536 8.78425 174.183 9.31034 174.291 9.85213L176.253 9.46399ZM174.5 13.6667C174.5 14.219 174.948 14.6667 175.5 14.6667C176.052 14.6667 176.5 14.219 176.5 13.6667H174.5ZM176.5 17C176.5 16.4477 176.052 16 175.5 16C174.948 16 174.5 16.4477 174.5 17H176.5ZM174.5 20.3333C174.5 20.8856 174.948 21.3333 175.5 21.3333C176.052 21.3333 176.5 20.8856 176.5 20.3333H174.5ZM176.5 23.6667C176.5 23.1144 176.052 22.6667 175.5 22.6667C174.948 22.6667 174.5 23.1144 174.5 23.6667H176.5ZM174.5 27C174.5 27.5523 174.948 28 175.5 28C176.052 28 176.5 27.5523 176.5 27H174.5ZM176.5 30.3333C176.5 29.781 176.052 29.3333 175.5 29.3333C174.948 29.3333 174.5 29.781 174.5 30.3333H176.5ZM175.5 31H173.511V33H175.5V31ZM169.534 31H165.557V33H169.534V31ZM161.58 31H157.602V33H161.58V31ZM153.625 31H149.648V33H153.625V31ZM145.67 31H141.693V33H145.67V31ZM137.716 31H133.739V33H137.716V31ZM129.761 31H125.784V33H129.761V31ZM121.807 31H117.83V33H121.807V31ZM113.852 31H109.875V33H113.852V31ZM105.898 31H101.92V33H105.898V31ZM97.9432 31H93.9659V33H97.9432V31ZM89.9886 31H86.0114V33H89.9886V31ZM82.0341 31H78.0568V33H82.0341V31ZM74.0796 31H70.1023V33H74.0796V31ZM66.125 31H62.1477V33H66.125V31ZM58.1705 31H54.1932V33H58.1705V31ZM50.2159 31H46.2386V33H50.2159V31ZM42.2614 31H38.2841V33H42.2614V31ZM34.3068 31H30.3295V33H34.3068V31ZM26.3522 31H22.375V33H26.3522V31ZM18.3977 31H14.4204V33H18.3977V31ZM10.4431 31H6.46585V33H10.4431V31ZM2.48857 31H0.5V33H2.48857V31ZM1.5 32V30.3333H-0.5V32H1.5ZM1.5 27V23.6667H-0.5V27H1.5ZM1.5 20.3333V17H-0.5V20.3333H1.5ZM1.5 13.6667V12H-0.5V13.6667H1.5ZM1.5 12C1.5 11.2641 1.57213 10.546 1.7094 9.85212L-0.252579 9.46399C-0.415001 10.285 -0.5 11.1331 -0.5 12H1.5ZM3.35218 5.88893C4.15556 4.68893 5.18894 3.65556 6.38893 2.85218L5.27629 1.19025C3.85906 2.13906 2.63906 3.35905 1.69025 4.77629L3.35218 5.88893ZM10.3521 1.2094C11.046 1.07213 11.7641 1 12.5 1V-1C11.6331 -1 10.785 -0.915001 9.96399 -0.752579L10.3521 1.2094ZM12.5 1H14.4868V-1H12.5V1ZM18.4605 1H22.4342V-1H18.4605V1ZM26.4079 1H30.3816V-1H26.4079V1ZM34.3553 1H38.3289V-1H34.3553V1ZM42.3026 1H46.2763V-1H42.3026V1ZM50.25 1H54.2237V-1H50.25V1ZM58.1974 1H62.1711V-1H58.1974V1ZM66.1447 1H70.1184V-1H66.1447V1ZM74.0921 1H78.0658V-1H74.0921V1ZM82.0395 1H86.0132V-1H82.0395V1ZM89.9869 1H93.9605V-1H89.9869V1ZM97.9342 1H101.908V-1H97.9342V1ZM105.882 1H109.855V-1H105.882V1ZM113.829 1H117.803V-1H113.829V1ZM121.776 1H125.75V-1H121.776V1ZM129.724 1H133.697V-1H129.724V1ZM137.671 1H141.645V-1H137.671V1ZM145.618 1H149.592V-1H145.618V1ZM153.566 1H157.539V-1H153.566V1ZM161.513 1H163.5V-1H161.513V1ZM163.5 1C164.236 1 164.954 1.07213 165.648 1.2094L166.036 -0.752579C165.215 -0.915001 164.367 -1 163.5 -1V1ZM169.611 2.85218C170.811 3.65556 171.844 4.68894 172.648 5.88893L174.31 4.77629C173.361 3.35906 172.141 2.13906 170.724 1.19025L169.611 2.85218ZM174.291 9.85213C174.428 10.546 174.5 11.2641 174.5 12H176.5C176.5 11.1331 176.415 10.285 176.253 9.46399L174.291 9.85213ZM174.5 12V13.6667H176.5V12H174.5ZM174.5 17V20.3333H176.5V17H174.5ZM174.5 23.6667V27H176.5V23.6667H174.5ZM174.5 30.3333V32H176.5V30.3333H174.5Z" fill="#CCB29C"/>
<circle cx="88" cy="42.5" r="2.5" fill="#DFC6B0"/>
<path d="M0 65C0 58.3726 5.37258 53 12 53H164C170.627 53 176 58.3726 176 65V85H0V65Z" fill="#CCB29C" fill-opacity="0.1"/>
<path d="M21.148 63.2V73H22.324V65.342L25.67 70.774L29.016 65.328V73H30.192V63.2H29.058L25.698 68.674L22.324 63.2H21.148ZM34.836 66.364C32.89 66.364 31.602 67.876 31.602 69.766C31.602 71.684 33.016 73.168 34.976 73.168C36.684 73.168 37.664 71.894 37.664 71.894L36.922 71.124C36.922 71.124 36.25 72.076 34.976 72.076C33.758 72.076 32.82 71.166 32.75 70.186H37.972C37.986 70.032 37.986 69.934 37.986 69.808C37.986 67.722 36.642 66.364 34.836 66.364ZM32.778 69.206C32.862 68.534 33.436 67.456 34.836 67.456C36.138 67.456 36.796 68.478 36.838 69.206H32.778ZM41.8314 66.364C40.0814 66.364 38.6954 67.862 38.6954 69.766C38.6954 71.67 40.0814 73.168 41.8314 73.168C43.3854 73.168 44.0154 72.062 44.0154 72.062V73H45.0934V62.416H43.9174V67.33C43.9174 67.33 43.2594 66.364 41.8314 66.364ZM43.9174 70.956C43.9174 70.956 43.3014 72.076 42.0134 72.076C40.6974 72.076 39.8714 71.04 39.8714 69.766C39.8714 68.492 40.7254 67.456 42.0134 67.456C43.3014 67.456 43.9174 68.576 43.9174 68.576V70.956ZM47.1715 73H48.3475V66.532H47.1715V73ZM46.9615 64.46C46.9615 64.894 47.3255 65.258 47.7595 65.258C48.1935 65.258 48.5575 64.894 48.5575 64.46C48.5575 64.026 48.1935 63.662 47.7595 63.662C47.3255 63.662 46.9615 64.026 46.9615 64.46ZM49.6121 67.596H50.8721V71.138C50.8721 72.566 51.8941 73.168 52.8181 73.168C53.1961 73.168 53.6021 73.084 54.1621 72.776L53.7281 71.81C53.7281 71.81 53.3501 72.076 52.9861 72.076C52.3561 72.076 52.0481 71.712 52.0481 71.082V67.596H54.0641V66.532H52.0481V64.558H50.8721V66.532H49.6121V67.596ZM58.0418 66.364C56.0958 66.364 54.8078 67.876 54.8078 69.766C54.8078 71.684 56.2218 73.168 58.1818 73.168C59.8898 73.168 60.8698 71.894 60.8698 71.894L60.1278 71.124C60.1278 71.124 59.4558 72.076 58.1818 72.076C56.9638 72.076 56.0258 71.166 55.9558 70.186H61.1778C61.1918 70.032 61.1918 69.934 61.1918 69.808C61.1918 67.722 59.8478 66.364 58.0418 66.364ZM55.9838 69.206C56.0678 68.534 56.6418 67.456 58.0418 67.456C59.3438 67.456 60.0018 68.478 60.0438 69.206H55.9838ZM65.2472 66.364C64.0152 66.364 63.4412 67.526 63.4412 67.526V66.532H62.3492V73H63.5252V68.548C63.5252 68.548 63.9872 67.456 65.0092 67.456C65.4992 67.456 65.7512 67.596 65.7512 67.596L66.1852 66.532C66.1852 66.532 65.7792 66.364 65.2472 66.364ZM69.825 66.364C68.593 66.364 68.019 67.526 68.019 67.526V66.532H66.927V73H68.103V68.548C68.103 68.548 68.565 67.456 69.587 67.456C70.077 67.456 70.329 67.596 70.329 67.596L70.763 66.532C70.763 66.532 70.357 66.364 69.825 66.364ZM76.0601 70.984C76.0601 70.984 75.4301 72.076 74.1701 72.076C72.8541 72.076 72.0141 71.04 72.0141 69.766C72.0141 68.492 72.8541 67.456 74.1701 67.456C75.4301 67.456 76.0601 68.548 76.0601 68.548V70.984ZM76.1581 66.532V67.47C76.1581 67.47 75.5281 66.364 73.9461 66.364C72.2241 66.364 70.8381 67.862 70.8381 69.766C70.8381 71.67 72.2241 73.168 73.9461 73.168C75.5281 73.168 76.1581 72.062 76.1581 72.062V73H77.2361V66.532H76.1581ZM81.9244 66.364C80.5244 66.364 79.9364 67.442 79.9364 67.442V66.532H78.8444V73H80.0204V68.548C80.0204 68.548 80.5804 67.456 81.6304 67.456C82.4984 67.456 83.1844 67.932 83.1844 69.038V73H84.3604V68.842C84.3604 67.246 83.2124 66.364 81.9244 66.364ZM88.7648 66.364C86.8188 66.364 85.5308 67.876 85.5308 69.766C85.5308 71.684 86.9448 73.168 88.9048 73.168C90.6128 73.168 91.5928 71.894 91.5928 71.894L90.8508 71.124C90.8508 71.124 90.1788 72.076 88.9048 72.076C87.6868 72.076 86.7488 71.166 86.6788 70.186H91.9008C91.9148 70.032 91.9148 69.934 91.9148 69.808C91.9148 67.722 90.5708 66.364 88.7648 66.364ZM86.7068 69.206C86.7908 68.534 87.3648 67.456 88.7648 67.456C90.0668 67.456 90.7248 68.478 90.7668 69.206H86.7068ZM97.8462 70.984C97.8462 70.984 97.2162 72.076 95.9562 72.076C94.6402 72.076 93.8002 71.04 93.8002 69.766C93.8002 68.492 94.6402 67.456 95.9562 67.456C97.2162 67.456 97.8462 68.548 97.8462 68.548V70.984ZM97.9442 66.532V67.47C97.9442 67.47 97.3142 66.364 95.7322 66.364C94.0102 66.364 92.6242 67.862 92.6242 69.766C92.6242 71.67 94.0102 73.168 95.7322 73.168C97.3142 73.168 97.9442 72.062 97.9442 72.062V73H99.0222V66.532H97.9442ZM103.711 66.364C102.311 66.364 101.723 67.442 101.723 67.442V66.532H100.631V73H101.807V68.548C101.807 68.548 102.367 67.456 103.417 67.456C104.285 67.456 104.971 67.932 104.971 69.038V73H106.147V68.842C106.147 67.246 104.999 66.364 103.711 66.364ZM116.283 71.152C116.283 71.152 115.653 72.076 114.393 72.076C113.091 72.076 112.237 71.04 112.237 69.766C112.237 68.492 113.091 67.456 114.393 67.456C115.541 67.456 116.171 68.24 116.171 68.24L116.969 67.526C116.969 67.526 116.045 66.364 114.393 66.364C112.489 66.364 111.061 67.876 111.061 69.766C111.061 71.67 112.489 73.168 114.393 73.168C116.101 73.168 117.039 71.922 117.039 71.922L116.283 71.152ZM120.885 66.364C118.981 66.364 117.553 67.862 117.553 69.766C117.553 71.67 118.981 73.168 120.885 73.168C122.789 73.168 124.217 71.67 124.217 69.766C124.217 67.862 122.789 66.364 120.885 66.364ZM120.885 72.076C119.583 72.076 118.729 71.04 118.729 69.766C118.729 68.492 119.583 67.456 120.885 67.456C122.187 67.456 123.041 68.492 123.041 69.766C123.041 71.04 122.187 72.076 120.885 72.076ZM127.817 73.168C129.217 73.168 129.805 72.006 129.805 72.006V73H130.897V66.532H129.721V71.012C129.721 71.012 129.203 72.076 128.111 72.076C127.243 72.076 126.557 71.6 126.557 70.494V66.532H125.381V70.69C125.381 72.286 126.529 73.168 127.817 73.168ZM132.096 71.81C132.096 71.81 133.048 73.168 134.868 73.168C136.114 73.168 137.43 72.524 137.43 71.278C137.43 69.962 136.38 69.5 135.148 69.234C134.084 69.01 133.58 68.744 133.58 68.254C133.58 67.834 133.986 67.428 134.812 67.428C135.792 67.428 136.436 68.142 136.436 68.142L137.206 67.344C137.206 67.344 136.338 66.364 134.812 66.364C133.37 66.364 132.432 67.288 132.432 68.226C132.432 69.444 133.412 69.99 134.798 70.27C135.792 70.466 136.268 70.746 136.268 71.306C136.268 71.824 135.526 72.104 134.868 72.104C133.594 72.104 132.908 71.054 132.908 71.054L132.096 71.81ZM138.917 73H140.093V66.532H138.917V73ZM138.707 64.46C138.707 64.894 139.071 65.258 139.505 65.258C139.939 65.258 140.303 64.894 140.303 64.46C140.303 64.026 139.939 63.662 139.505 63.662C139.071 63.662 138.707 64.026 138.707 64.46ZM144.997 66.364C143.597 66.364 143.009 67.442 143.009 67.442V66.532H141.917V73H143.093V68.548C143.093 68.548 143.653 67.456 144.703 67.456C145.571 67.456 146.257 67.932 146.257 69.038V73H147.433V68.842C147.433 67.246 146.285 66.364 144.997 66.364ZM151.838 66.364C149.892 66.364 148.604 67.876 148.604 69.766C148.604 71.684 150.018 73.168 151.978 73.168C153.686 73.168 154.666 71.894 154.666 71.894L153.924 71.124C153.924 71.124 153.252 72.076 151.978 72.076C150.76 72.076 149.822 71.166 149.752 70.186H154.974C154.988 70.032 154.988 69.934 154.988 69.808C154.988 67.722 153.644 66.364 151.838 66.364ZM149.78 69.206C149.864 68.534 150.438 67.456 151.838 67.456C153.14 67.456 153.798 68.478 153.84 69.206H149.78Z" fill="#CCB29C"/>
<path d="M176 85V85.5C176.276 85.5 176.5 85.2761 176.5 85H176ZM0 85H-0.5C-0.5 85.2761 -0.276142 85.5 0 85.5L0 85ZM174 84.5C173.724 84.5 173.5 84.7239 173.5 85C173.5 85.2761 173.724 85.5 174 85.5V84.5ZM170 85.5C170.276 85.5 170.5 85.2761 170.5 85C170.5 84.7239 170.276 84.5 170 84.5V85.5ZM166 84.5C165.724 84.5 165.5 84.7239 165.5 85C165.5 85.2761 165.724 85.5 166 85.5V84.5ZM162 85.5C162.276 85.5 162.5 85.2761 162.5 85C162.5 84.7239 162.276 84.5 162 84.5V85.5ZM158 84.5C157.724 84.5 157.5 84.7239 157.5 85C157.5 85.2761 157.724 85.5 158 85.5V84.5ZM154 85.5C154.276 85.5 154.5 85.2761 154.5 85C154.5 84.7239 154.276 84.5 154 84.5V85.5ZM150 84.5C149.724 84.5 149.5 84.7239 149.5 85C149.5 85.2761 149.724 85.5 150 85.5V84.5ZM146 85.5C146.276 85.5 146.5 85.2761 146.5 85C146.5 84.7239 146.276 84.5 146 84.5V85.5ZM142 84.5C141.724 84.5 141.5 84.7239 141.5 85C141.5 85.2761 141.724 85.5 142 85.5V84.5ZM138 85.5C138.276 85.5 138.5 85.2761 138.5 85C138.5 84.7239 138.276 84.5 138 84.5V85.5ZM134 84.5C133.724 84.5 133.5 84.7239 133.5 85C133.5 85.2761 133.724 85.5 134 85.5V84.5ZM130 85.5C130.276 85.5 130.5 85.2761 130.5 85C130.5 84.7239 130.276 84.5 130 84.5V85.5ZM126 84.5C125.724 84.5 125.5 84.7239 125.5 85C125.5 85.2761 125.724 85.5 126 85.5V84.5ZM122 85.5C122.276 85.5 122.5 85.2761 122.5 85C122.5 84.7239 122.276 84.5 122 84.5V85.5ZM118 84.5C117.724 84.5 117.5 84.7239 117.5 85C117.5 85.2761 117.724 85.5 118 85.5V84.5ZM114 85.5C114.276 85.5 114.5 85.2761 114.5 85C114.5 84.7239 114.276 84.5 114 84.5V85.5ZM110 84.5C109.724 84.5 109.5 84.7239 109.5 85C109.5 85.2761 109.724 85.5 110 85.5V84.5ZM106 85.5C106.276 85.5 106.5 85.2761 106.5 85C106.5 84.7239 106.276 84.5 106 84.5V85.5ZM102 84.5C101.724 84.5 101.5 84.7239 101.5 85C101.5 85.2761 101.724 85.5 102 85.5V84.5ZM98 85.5C98.2761 85.5 98.5 85.2761 98.5 85C98.5 84.7239 98.2761 84.5 98 84.5V85.5ZM94 84.5C93.7239 84.5 93.5 84.7239 93.5 85C93.5 85.2761 93.7239 85.5 94 85.5V84.5ZM90 85.5C90.2761 85.5 90.5 85.2761 90.5 85C90.5 84.7239 90.2761 84.5 90 84.5V85.5ZM86 84.5C85.7239 84.5 85.5 84.7239 85.5 85C85.5 85.2761 85.7239 85.5 86 85.5V84.5ZM82 85.5C82.2761 85.5 82.5 85.2761 82.5 85C82.5 84.7239 82.2761 84.5 82 84.5V85.5ZM78 84.5C77.7239 84.5 77.5 84.7239 77.5 85C77.5 85.2761 77.7239 85.5 78 85.5V84.5ZM74 85.5C74.2761 85.5 74.5 85.2761 74.5 85C74.5 84.7239 74.2761 84.5 74 84.5V85.5ZM70 84.5C69.7239 84.5 69.5 84.7239 69.5 85C69.5 85.2761 69.7239 85.5 70 85.5V84.5ZM66 85.5C66.2761 85.5 66.5 85.2761 66.5 85C66.5 84.7239 66.2761 84.5 66 84.5V85.5ZM62 84.5C61.7239 84.5 61.5 84.7239 61.5 85C61.5 85.2761 61.7239 85.5 62 85.5V84.5ZM58 85.5C58.2761 85.5 58.5 85.2761 58.5 85C58.5 84.7239 58.2761 84.5 58 84.5V85.5ZM54 84.5C53.7239 84.5 53.5 84.7239 53.5 85C53.5 85.2761 53.7239 85.5 54 85.5V84.5ZM50 85.5C50.2761 85.5 50.5 85.2761 50.5 85C50.5 84.7239 50.2761 84.5 50 84.5V85.5ZM46 84.5C45.7239 84.5 45.5 84.7239 45.5 85C45.5 85.2761 45.7239 85.5 46 85.5V84.5ZM42 85.5C42.2761 85.5 42.5 85.2761 42.5 85C42.5 84.7239 42.2761 84.5 42 84.5V85.5ZM38 84.5C37.7239 84.5 37.5 84.7239 37.5 85C37.5 85.2761 37.7239 85.5 38 85.5V84.5ZM34 85.5C34.2761 85.5 34.5 85.2761 34.5 85C34.5 84.7239 34.2761 84.5 34 84.5V85.5ZM30 84.5C29.7239 84.5 29.5 84.7239 29.5 85C29.5 85.2761 29.7239 85.5 30 85.5V84.5ZM26 85.5C26.2761 85.5 26.5 85.2761 26.5 85C26.5 84.7239 26.2761 84.5 26 84.5V85.5ZM22 84.5C21.7239 84.5 21.5 84.7239 21.5 85C21.5 85.2761 21.7239 85.5 22 85.5V84.5ZM18 85.5C18.2761 85.5 18.5 85.2761 18.5 85C18.5 84.7239 18.2761 84.5 18 84.5V85.5ZM14 84.5C13.7239 84.5 13.5 84.7239 13.5 85C13.5 85.2761 13.7239 85.5 14 85.5V84.5ZM10 85.5C10.2761 85.5 10.5 85.2761 10.5 85C10.5 84.7239 10.2761 84.5 10 84.5V85.5ZM6 84.5C5.72386 84.5 5.5 84.7239 5.5 85C5.5 85.2761 5.72386 85.5 6 85.5V84.5ZM2 85.5C2.27614 85.5 2.5 85.2761 2.5 85C2.5 84.7239 2.27614 84.5 2 84.5V85.5ZM0.5 83.3333C0.5 83.0572 0.276142 82.8333 0 82.8333C-0.276142 82.8333 -0.5 83.0572 -0.5 83.3333H0.5ZM-0.5 80C-0.5 80.2761 -0.276142 80.5 0 80.5C0.276142 80.5 0.5 80.2761 0.5 80H-0.5ZM0.5 76.6667C0.5 76.3905 0.276142 76.1667 0 76.1667C-0.276142 76.1667 -0.5 76.3905 -0.5 76.6667H0.5ZM-0.5 73.3333C-0.5 73.6095 -0.276142 73.8333 0 73.8333C0.276142 73.8333 0.5 73.6095 0.5 73.3333H-0.5ZM0.5 70C0.5 69.7239 0.276142 69.5 0 69.5C-0.276142 69.5 -0.5 69.7239 -0.5 70H0.5ZM-0.5 66.6667C-0.5 66.9428 -0.276142 67.1667 0 67.1667C0.276142 67.1667 0.5 66.9428 0.5 66.6667H-0.5ZM0.718903 62.7551C0.772493 62.4842 0.596335 62.2212 0.325443 62.1676C0.0545508 62.114 -0.208495 62.2901 -0.262085 62.561L0.718903 62.7551ZM1.60573 58.0545C1.45211 58.2839 1.51359 58.5945 1.74306 58.7481C1.97252 58.9017 2.28308 58.8402 2.4367 58.6108L1.60573 58.0545ZM5.61077 55.4367C5.84024 55.2831 5.90172 54.9725 5.7481 54.7431C5.59447 54.5136 5.28392 54.4521 5.05445 54.6057L5.61077 55.4367ZM9.56102 52.7379C9.29013 52.7915 9.11397 53.0546 9.16756 53.3254C9.22115 53.5963 9.4842 53.7725 9.75509 53.7189L9.56102 52.7379ZM14 53.5C14.2761 53.5 14.5 53.2761 14.5 53C14.5 52.7239 14.2761 52.5 14 52.5V53.5ZM18 52.5C17.7239 52.5 17.5 52.7239 17.5 53C17.5 53.2761 17.7239 53.5 18 53.5V52.5ZM22 53.5C22.2761 53.5 22.5 53.2761 22.5 53C22.5 52.7239 22.2761 52.5 22 52.5V53.5ZM26 52.5C25.7239 52.5 25.5 52.7239 25.5 53C25.5 53.2761 25.7239 53.5 26 53.5V52.5ZM30 53.5C30.2761 53.5 30.5 53.2761 30.5 53C30.5 52.7239 30.2761 52.5 30 52.5V53.5ZM34 52.5C33.7239 52.5 33.5 52.7239 33.5 53C33.5 53.2761 33.7239 53.5 34 53.5V52.5ZM38 53.5C38.2761 53.5 38.5 53.2761 38.5 53C38.5 52.7239 38.2761 52.5 38 52.5V53.5ZM42 52.5C41.7239 52.5 41.5 52.7239 41.5 53C41.5 53.2761 41.7239 53.5 42 53.5V52.5ZM46 53.5C46.2761 53.5 46.5 53.2761 46.5 53C46.5 52.7239 46.2761 52.5 46 52.5V53.5ZM50 52.5C49.7239 52.5 49.5 52.7239 49.5 53C49.5 53.2761 49.7239 53.5 50 53.5V52.5ZM54 53.5C54.2761 53.5 54.5 53.2761 54.5 53C54.5 52.7239 54.2761 52.5 54 52.5V53.5ZM58 52.5C57.7239 52.5 57.5 52.7239 57.5 53C57.5 53.2761 57.7239 53.5 58 53.5V52.5ZM62 53.5C62.2761 53.5 62.5 53.2761 62.5 53C62.5 52.7239 62.2761 52.5 62 52.5V53.5ZM66 52.5C65.7239 52.5 65.5 52.7239 65.5 53C65.5 53.2761 65.7239 53.5 66 53.5V52.5ZM70 53.5C70.2761 53.5 70.5 53.2761 70.5 53C70.5 52.7239 70.2761 52.5 70 52.5V53.5ZM74 52.5C73.7239 52.5 73.5 52.7239 73.5 53C73.5 53.2761 73.7239 53.5 74 53.5V52.5ZM78 53.5C78.2761 53.5 78.5 53.2761 78.5 53C78.5 52.7239 78.2761 52.5 78 52.5V53.5ZM82 52.5C81.7239 52.5 81.5 52.7239 81.5 53C81.5 53.2761 81.7239 53.5 82 53.5V52.5ZM86 53.5C86.2761 53.5 86.5 53.2761 86.5 53C86.5 52.7239 86.2761 52.5 86 52.5V53.5ZM90 52.5C89.7239 52.5 89.5 52.7239 89.5 53C89.5 53.2761 89.7239 53.5 90 53.5V52.5ZM94 53.5C94.2761 53.5 94.5 53.2761 94.5 53C94.5 52.7239 94.2761 52.5 94 52.5V53.5ZM98 52.5C97.7239 52.5 97.5 52.7239 97.5 53C97.5 53.2761 97.7239 53.5 98 53.5V52.5ZM102 53.5C102.276 53.5 102.5 53.2761 102.5 53C102.5 52.7239 102.276 52.5 102 52.5V53.5ZM106 52.5C105.724 52.5 105.5 52.7239 105.5 53C105.5 53.2761 105.724 53.5 106 53.5V52.5ZM110 53.5C110.276 53.5 110.5 53.2761 110.5 53C110.5 52.7239 110.276 52.5 110 52.5V53.5ZM114 52.5C113.724 52.5 113.5 52.7239 113.5 53C113.5 53.2761 113.724 53.5 114 53.5V52.5ZM118 53.5C118.276 53.5 118.5 53.2761 118.5 53C118.5 52.7239 118.276 52.5 118 52.5V53.5ZM122 52.5C121.724 52.5 121.5 52.7239 121.5 53C121.5 53.2761 121.724 53.5 122 53.5V52.5ZM126 53.5C126.276 53.5 126.5 53.2761 126.5 53C126.5 52.7239 126.276 52.5 126 52.5V53.5ZM130 52.5C129.724 52.5 129.5 52.7239 129.5 53C129.5 53.2761 129.724 53.5 130 53.5V52.5ZM134 53.5C134.276 53.5 134.5 53.2761 134.5 53C134.5 52.7239 134.276 52.5 134 52.5V53.5ZM138 52.5C137.724 52.5 137.5 52.7239 137.5 53C137.5 53.2761 137.724 53.5 138 53.5V52.5ZM142 53.5C142.276 53.5 142.5 53.2761 142.5 53C142.5 52.7239 142.276 52.5 142 52.5V53.5ZM146 52.5C145.724 52.5 145.5 52.7239 145.5 53C145.5 53.2761 145.724 53.5 146 53.5V52.5ZM150 53.5C150.276 53.5 150.5 53.2761 150.5 53C150.5 52.7239 150.276 52.5 150 52.5V53.5ZM154 52.5C153.724 52.5 153.5 52.7239 153.5 53C153.5 53.2761 153.724 53.5 154 53.5V52.5ZM158 53.5C158.276 53.5 158.5 53.2761 158.5 53C158.5 52.7239 158.276 52.5 158 52.5V53.5ZM162 52.5C161.724 52.5 161.5 52.7239 161.5 53C161.5 53.2761 161.724 53.5 162 53.5V52.5ZM166.245 53.7189C166.516 53.7725 166.779 53.5963 166.832 53.3254C166.886 53.0546 166.71 52.7915 166.439 52.7379L166.245 53.7189ZM170.946 54.6057C170.716 54.4521 170.406 54.5136 170.252 54.7431C170.098 54.9725 170.16 55.2831 170.389 55.4367L170.946 54.6057ZM173.563 58.6108C173.717 58.8402 174.027 58.9017 174.257 58.7481C174.486 58.5945 174.548 58.2839 174.394 58.0545L173.563 58.6108ZM176.262 62.561C176.208 62.2901 175.945 62.114 175.675 62.1676C175.404 62.2212 175.228 62.4842 175.281 62.7551L176.262 62.561ZM175.5 66.6667C175.5 66.9428 175.724 67.1667 176 67.1667C176.276 67.1667 176.5 66.9428 176.5 66.6667H175.5ZM176.5 70C176.5 69.7239 176.276 69.5 176 69.5C175.724 69.5 175.5 69.7239 175.5 70H176.5ZM175.5 73.3333C175.5 73.6095 175.724 73.8333 176 73.8333C176.276 73.8333 176.5 73.6095 176.5 73.3333H175.5ZM176.5 76.6667C176.5 76.3905 176.276 76.1667 176 76.1667C175.724 76.1667 175.5 76.3905 175.5 76.6667H176.5ZM175.5 80C175.5 80.2761 175.724 80.5 176 80.5C176.276 80.5 176.5 80.2761 176.5 80H175.5ZM176.5 83.3333C176.5 83.0572 176.276 82.8333 176 82.8333C175.724 82.8333 175.5 83.0572 175.5 83.3333H176.5ZM176 84.5H174V85.5H176V84.5ZM170 84.5H166V85.5H170V84.5ZM162 84.5H158V85.5H162V84.5ZM154 84.5H150V85.5H154V84.5ZM146 84.5H142V85.5H146V84.5ZM138 84.5H134V85.5H138V84.5ZM130 84.5H126V85.5H130V84.5ZM122 84.5H118V85.5H122V84.5ZM114 84.5H110V85.5H114V84.5ZM106 84.5H102V85.5H106V84.5ZM98 84.5H94V85.5H98V84.5ZM90 84.5H86V85.5H90V84.5ZM82 84.5H78V85.5H82V84.5ZM74 84.5H70V85.5H74V84.5ZM66 84.5H62V85.5H66V84.5ZM58 84.5H54V85.5H58V84.5ZM50 84.5H46V85.5H50V84.5ZM42 84.5H38V85.5H42V84.5ZM34 84.5H30V85.5H34V84.5ZM26 84.5H22V85.5H26V84.5ZM18 84.5H14V85.5H18V84.5ZM10 84.5H6V85.5H10V84.5ZM2 84.5H0V85.5H2V84.5ZM0.5 85V83.3333H-0.5V85H0.5ZM0.5 80V76.6667H-0.5V80H0.5ZM0.5 73.3333V70H-0.5V73.3333H0.5ZM0.5 66.6667V65H-0.5V66.6667H0.5ZM0.5 65C0.5 64.2313 0.575345 63.4807 0.718903 62.7551L-0.262085 62.561C-0.418219 63.3503 -0.5 64.1658 -0.5 65H0.5ZM2.4367 58.6108C3.27644 57.3565 4.35647 56.2764 5.61077 55.4367L5.05445 54.6057C3.69153 55.5182 2.51819 56.6915 1.60573 58.0545L2.4367 58.6108ZM9.75509 53.7189C10.4808 53.5753 11.2313 53.5 12 53.5V52.5C11.1658 52.5 10.3503 52.5818 9.56102 52.7379L9.75509 53.7189ZM12 53.5H14V52.5H12V53.5ZM18 53.5H22V52.5H18V53.5ZM26 53.5H30V52.5H26V53.5ZM34 53.5H38V52.5H34V53.5ZM42 53.5H46V52.5H42V53.5ZM50 53.5H54V52.5H50V53.5ZM58 53.5H62V52.5H58V53.5ZM66 53.5H70V52.5H66V53.5ZM74 53.5H78V52.5H74V53.5ZM82 53.5H86V52.5H82V53.5ZM90 53.5H94V52.5H90V53.5ZM98 53.5H102V52.5H98V53.5ZM106 53.5H110V52.5H106V53.5ZM114 53.5H118V52.5H114V53.5ZM122 53.5H126V52.5H122V53.5ZM130 53.5H134V52.5H130V53.5ZM138 53.5H142V52.5H138V53.5ZM146 53.5H150V52.5H146V53.5ZM154 53.5H158V52.5H154V53.5ZM162 53.5H164V52.5H162V53.5ZM164 53.5C164.769 53.5 165.519 53.5753 166.245 53.7189L166.439 52.7379C165.65 52.5818 164.834 52.5 164 52.5V53.5ZM170.389 55.4367C171.644 56.2764 172.724 57.3565 173.563 58.6108L174.394 58.0545C173.482 56.6915 172.308 55.5182 170.946 54.6057L170.389 55.4367ZM175.281 62.7551C175.425 63.4807 175.5 64.2313 175.5 65H176.5C176.5 64.1658 176.418 63.3503 176.262 62.561L175.281 62.7551ZM175.5 65V66.6667H176.5V65H175.5ZM175.5 70V73.3333H176.5V70H175.5ZM175.5 76.6667V80H176.5V76.6667H175.5ZM175.5 83.3333V85H176.5V83.3333H175.5ZM176 85V86C176.552 86 177 85.5523 177 85H176ZM0 85H-1C-1 85.5523 -0.552285 86 0 86L0 85ZM174 84C173.448 84 173 84.4477 173 85C173 85.5523 173.448 86 174 86V84ZM170 86C170.552 86 171 85.5523 171 85C171 84.4477 170.552 84 170 84V86ZM166 84C165.448 84 165 84.4477 165 85C165 85.5523 165.448 86 166 86V84ZM162 86C162.552 86 163 85.5523 163 85C163 84.4477 162.552 84 162 84V86ZM158 84C157.448 84 157 84.4477 157 85C157 85.5523 157.448 86 158 86V84ZM154 86C154.552 86 155 85.5523 155 85C155 84.4477 154.552 84 154 84V86ZM150 84C149.448 84 149 84.4477 149 85C149 85.5523 149.448 86 150 86V84ZM146 86C146.552 86 147 85.5523 147 85C147 84.4477 146.552 84 146 84V86ZM142 84C141.448 84 141 84.4477 141 85C141 85.5523 141.448 86 142 86V84ZM138 86C138.552 86 139 85.5523 139 85C139 84.4477 138.552 84 138 84V86ZM134 84C133.448 84 133 84.4477 133 85C133 85.5523 133.448 86 134 86V84ZM130 86C130.552 86 131 85.5523 131 85C131 84.4477 130.552 84 130 84V86ZM126 84C125.448 84 125 84.4477 125 85C125 85.5523 125.448 86 126 86V84ZM122 86C122.552 86 123 85.5523 123 85C123 84.4477 122.552 84 122 84V86ZM118 84C117.448 84 117 84.4477 117 85C117 85.5523 117.448 86 118 86V84ZM114 86C114.552 86 115 85.5523 115 85C115 84.4477 114.552 84 114 84V86ZM110 84C109.448 84 109 84.4477 109 85C109 85.5523 109.448 86 110 86V84ZM106 86C106.552 86 107 85.5523 107 85C107 84.4477 106.552 84 106 84V86ZM102 84C101.448 84 101 84.4477 101 85C101 85.5523 101.448 86 102 86V84ZM98 86C98.5523 86 99 85.5523 99 85C99 84.4477 98.5523 84 98 84V86ZM94 84C93.4477 84 93 84.4477 93 85C93 85.5523 93.4477 86 94 86V84ZM90 86C90.5523 86 91 85.5523 91 85C91 84.4477 90.5523 84 90 84V86ZM86 84C85.4477 84 85 84.4477 85 85C85 85.5523 85.4477 86 86 86V84ZM82 86C82.5523 86 83 85.5523 83 85C83 84.4477 82.5523 84 82 84V86ZM78 84C77.4477 84 77 84.4477 77 85C77 85.5523 77.4477 86 78 86V84ZM74 86C74.5523 86 75 85.5523 75 85C75 84.4477 74.5523 84 74 84V86ZM70 84C69.4477 84 69 84.4477 69 85C69 85.5523 69.4477 86 70 86V84ZM66 86C66.5523 86 67 85.5523 67 85C67 84.4477 66.5523 84 66 84V86ZM62 84C61.4477 84 61 84.4477 61 85C61 85.5523 61.4477 86 62 86V84ZM58 86C58.5523 86 59 85.5523 59 85C59 84.4477 58.5523 84 58 84V86ZM54 84C53.4477 84 53 84.4477 53 85C53 85.5523 53.4477 86 54 86V84ZM50 86C50.5523 86 51 85.5523 51 85C51 84.4477 50.5523 84 50 84V86ZM46 84C45.4477 84 45 84.4477 45 85C45 85.5523 45.4477 86 46 86V84ZM42 86C42.5523 86 43 85.5523 43 85C43 84.4477 42.5523 84 42 84V86ZM38 84C37.4477 84 37 84.4477 37 85C37 85.5523 37.4477 86 38 86V84ZM34 86C34.5523 86 35 85.5523 35 85C35 84.4477 34.5523 84 34 84V86ZM30 84C29.4477 84 29 84.4477 29 85C29 85.5523 29.4477 86 30 86V84ZM26 86C26.5523 86 27 85.5523 27 85C27 84.4477 26.5523 84 26 84V86ZM22 84C21.4477 84 21 84.4477 21 85C21 85.5523 21.4477 86 22 86V84ZM18 86C18.5523 86 19 85.5523 19 85C19 84.4477 18.5523 84 18 84V86ZM14 84C13.4477 84 13 84.4477 13 85C13 85.5523 13.4477 86 14 86V84ZM10 86C10.5523 86 11 85.5523 11 85C11 84.4477 10.5523 84 10 84V86ZM6 84C5.44772 84 5 84.4477 5 85C5 85.5523 5.44772 86 6 86V84ZM2 86C2.55228 86 3 85.5523 3 85C3 84.4477 2.55228 84 2 84V86ZM1 83.3333C1 82.781 0.552285 82.3333 0 82.3333C-0.552285 82.3333 -1 82.781 -1 83.3333H1ZM-1 80C-1 80.5523 -0.552285 81 0 81C0.552285 81 1 80.5523 1 80H-1ZM1 76.6667C1 76.1144 0.552285 75.6667 0 75.6667C-0.552285 75.6667 -1 76.1144 -1 76.6667H1ZM-1 73.3333C-1 73.8856 -0.552285 74.3333 0 74.3333C0.552285 74.3333 1 73.8856 1 73.3333H-1ZM1 70C1 69.4477 0.552285 69 0 69C-0.552285 69 -1 69.4477 -1 70H1ZM-1 66.6667C-1 67.219 -0.552285 67.6667 0 67.6667C0.552285 67.6667 1 67.219 1 66.6667H-1ZM1.2094 62.8521C1.31658 62.3103 0.964262 61.7842 0.422478 61.6771C-0.119307 61.5699 -0.645398 61.9222 -0.752579 62.464L1.2094 62.8521ZM1.19025 57.7763C0.883 58.2352 1.00596 58.8563 1.4649 59.1636C1.92383 59.4708 2.54494 59.3479 2.85218 58.8889L1.19025 57.7763ZM5.88893 55.8522C6.34786 55.5449 6.47083 54.9238 6.16358 54.4649C5.85633 54.006 5.23522 53.883 4.77629 54.1902L5.88893 55.8522ZM9.46399 52.2474C8.9222 52.3546 8.56989 52.8807 8.67707 53.4225C8.78425 53.9643 9.31034 54.3166 9.85213 54.2094L9.46399 52.2474ZM14 54C14.5523 54 15 53.5523 15 53C15 52.4477 14.5523 52 14 52V54ZM18 52C17.4477 52 17 52.4477 17 53C17 53.5523 17.4477 54 18 54V52ZM22 54C22.5523 54 23 53.5523 23 53C23 52.4477 22.5523 52 22 52V54ZM26 52C25.4477 52 25 52.4477 25 53C25 53.5523 25.4477 54 26 54V52ZM30 54C30.5523 54 31 53.5523 31 53C31 52.4477 30.5523 52 30 52V54ZM34 52C33.4477 52 33 52.4477 33 53C33 53.5523 33.4477 54 34 54V52ZM38 54C38.5523 54 39 53.5523 39 53C39 52.4477 38.5523 52 38 52V54ZM42 52C41.4477 52 41 52.4477 41 53C41 53.5523 41.4477 54 42 54V52ZM46 54C46.5523 54 47 53.5523 47 53C47 52.4477 46.5523 52 46 52V54ZM50 52C49.4477 52 49 52.4477 49 53C49 53.5523 49.4477 54 50 54V52ZM54 54C54.5523 54 55 53.5523 55 53C55 52.4477 54.5523 52 54 52V54ZM58 52C57.4477 52 57 52.4477 57 53C57 53.5523 57.4477 54 58 54V52ZM62 54C62.5523 54 63 53.5523 63 53C63 52.4477 62.5523 52 62 52V54ZM66 52C65.4477 52 65 52.4477 65 53C65 53.5523 65.4477 54 66 54V52ZM70 54C70.5523 54 71 53.5523 71 53C71 52.4477 70.5523 52 70 52V54ZM74 52C73.4477 52 73 52.4477 73 53C73 53.5523 73.4477 54 74 54V52ZM78 54C78.5523 54 79 53.5523 79 53C79 52.4477 78.5523 52 78 52V54ZM82 52C81.4477 52 81 52.4477 81 53C81 53.5523 81.4477 54 82 54V52ZM86 54C86.5523 54 87 53.5523 87 53C87 52.4477 86.5523 52 86 52V54ZM90 52C89.4477 52 89 52.4477 89 53C89 53.5523 89.4477 54 90 54V52ZM94 54C94.5523 54 95 53.5523 95 53C95 52.4477 94.5523 52 94 52V54ZM98 52C97.4477 52 97 52.4477 97 53C97 53.5523 97.4477 54 98 54V52ZM102 54C102.552 54 103 53.5523 103 53C103 52.4477 102.552 52 102 52V54ZM106 52C105.448 52 105 52.4477 105 53C105 53.5523 105.448 54 106 54V52ZM110 54C110.552 54 111 53.5523 111 53C111 52.4477 110.552 52 110 52V54ZM114 52C113.448 52 113 52.4477 113 53C113 53.5523 113.448 54 114 54V52ZM118 54C118.552 54 119 53.5523 119 53C119 52.4477 118.552 52 118 52V54ZM122 52C121.448 52 121 52.4477 121 53C121 53.5523 121.448 54 122 54V52ZM126 54C126.552 54 127 53.5523 127 53C127 52.4477 126.552 52 126 52V54ZM130 52C129.448 52 129 52.4477 129 53C129 53.5523 129.448 54 130 54V52ZM134 54C134.552 54 135 53.5523 135 53C135 52.4477 134.552 52 134 52V54ZM138 52C137.448 52 137 52.4477 137 53C137 53.5523 137.448 54 138 54V52ZM142 54C142.552 54 143 53.5523 143 53C143 52.4477 142.552 52 142 52V54ZM146 52C145.448 52 145 52.4477 145 53C145 53.5523 145.448 54 146 54V52ZM150 54C150.552 54 151 53.5523 151 53C151 52.4477 150.552 52 150 52V54ZM154 52C153.448 52 153 52.4477 153 53C153 53.5523 153.448 54 154 54V52ZM158 54C158.552 54 159 53.5523 159 53C159 52.4477 158.552 52 158 52V54ZM162 52C161.448 52 161 52.4477 161 53C161 53.5523 161.448 54 162 54V52ZM166.148 54.2094C166.69 54.3166 167.216 53.9643 167.323 53.4225C167.43 52.8807 167.078 52.3546 166.536 52.2474L166.148 54.2094ZM171.224 54.1902C170.765 53.883 170.144 54.006 169.836 54.4649C169.529 54.9238 169.652 55.5449 170.111 55.8522L171.224 54.1902ZM173.148 58.8889C173.455 59.3479 174.076 59.4708 174.535 59.1636C174.994 58.8563 175.117 58.2352 174.81 57.7763L173.148 58.8889ZM176.753 62.464C176.645 61.9222 176.119 61.5699 175.578 61.6771C175.036 61.7842 174.683 62.3103 174.791 62.8521L176.753 62.464ZM175 66.6667C175 67.219 175.448 67.6667 176 67.6667C176.552 67.6667 177 67.219 177 66.6667H175ZM177 70C177 69.4477 176.552 69 176 69C175.448 69 175 69.4477 175 70H177ZM175 73.3333C175 73.8856 175.448 74.3333 176 74.3333C176.552 74.3333 177 73.8856 177 73.3333H175ZM177 76.6667C177 76.1144 176.552 75.6667 176 75.6667C175.448 75.6667 175 76.1144 175 76.6667H177ZM175 80C175 80.5523 175.448 81 176 81C176.552 81 177 80.5523 177 80H175ZM177 83.3333C177 82.781 176.552 82.3333 176 82.3333C175.448 82.3333 175 82.781 175 83.3333H177ZM176 84H174V86H176V84ZM170 84H166V86H170V84ZM162 84H158V86H162V84ZM154 84H150V86H154V84ZM146 84H142V86H146V84ZM138 84H134V86H138V84ZM130 84H126V86H130V84ZM122 84H118V86H122V84ZM114 84H110V86H114V84ZM106 84H102V86H106V84ZM98 84H94V86H98V84ZM90 84H86V86H90V84ZM82 84H78V86H82V84ZM74 84H70V86H74V84ZM66 84H62V86H66V84ZM58 84H54V86H58V84ZM50 84H46V86H50V84ZM42 84H38V86H42V84ZM34 84H30V86H34V84ZM26 84H22V86H26V84ZM18 84H14V86H18V84ZM10 84H6V86H10V84ZM2 84H0V86H2V84ZM1 85V83.3333H-1V85H1ZM1 80V76.6667H-1V80H1ZM1 73.3333V70H-1V73.3333H1ZM1 66.6667V65H-1V66.6667H1ZM1 65C1 64.2641 1.07213 63.546 1.2094 62.8521L-0.752579 62.464C-0.915001 63.285 -1 64.1331 -1 65H1ZM2.85218 58.8889C3.65556 57.6889 4.68894 56.6556 5.88893 55.8522L4.77629 54.1902C3.35906 55.1391 2.13906 56.3591 1.19025 57.7763L2.85218 58.8889ZM9.85213 54.2094C10.546 54.0721 11.2641 54 12 54V52C11.1331 52 10.285 52.085 9.46399 52.2474L9.85213 54.2094ZM12 54H14V52H12V54ZM18 54H22V52H18V54ZM26 54H30V52H26V54ZM34 54H38V52H34V54ZM42 54H46V52H42V54ZM50 54H54V52H50V54ZM58 54H62V52H58V54ZM66 54H70V52H66V54ZM74 54H78V52H74V54ZM82 54H86V52H82V54ZM90 54H94V52H90V54ZM98 54H102V52H98V54ZM106 54H110V52H106V54ZM114 54H118V52H114V54ZM122 54H126V52H122V54ZM130 54H134V52H130V54ZM138 54H142V52H138V54ZM146 54H150V52H146V54ZM154 54H158V52H154V54ZM162 54H164V52H162V54ZM164 54C164.736 54 165.454 54.0721 166.148 54.2094L166.536 52.2474C165.715 52.085 164.867 52 164 52V54ZM170.111 55.8522C171.311 56.6556 172.344 57.6889 173.148 58.8889L174.81 57.7763C173.861 56.3591 172.641 55.1391 171.224 54.1902L170.111 55.8522ZM174.791 62.8521C174.928 63.546 175 64.2641 175 65H177C177 64.1331 176.915 63.285 176.753 62.464L174.791 62.8521ZM175 65V66.6667H177V65H175ZM175 70V73.3333H177V70H175ZM175 76.6667V80H177V76.6667H175ZM175 83.3333V85H177V83.3333H175Z" fill="#CCB29C"/>
<circle cx="88" cy="95.5" r="2.5" fill="#DFC6B0"/>
<path d="M25 118C25 111.373 30.3726 106 37 106H139C145.627 106 151 111.373 151 118V138H25V118Z" fill="#CCB29C" fill-opacity="0.1"/>
<path d="M53.232 116.2H52.014L49.172 123.382L46.344 116.2H45.056L49.144 126.28L53.232 116.2ZM55.9532 119.364C54.0072 119.364 52.7192 120.876 52.7192 122.766C52.7192 124.684 54.1332 126.168 56.0932 126.168C57.8012 126.168 58.7812 124.894 58.7812 124.894L58.0392 124.124C58.0392 124.124 57.3672 125.076 56.0932 125.076C54.8752 125.076 53.9372 124.166 53.8672 123.186H59.0892C59.1032 123.032 59.1032 122.934 59.1032 122.808C59.1032 120.722 57.7592 119.364 55.9532 119.364ZM53.8952 122.206C53.9792 121.534 54.5532 120.456 55.9532 120.456C57.2552 120.456 57.9132 121.478 57.9552 122.206H53.8952ZM65.0346 126.084C65.0346 127.54 64.1806 128.296 62.8086 128.296C61.4786 128.296 60.6946 127.274 60.6946 127.274L59.9806 128.156C59.9806 128.156 61.0306 129.388 62.8086 129.388C64.6846 129.388 66.2106 128.268 66.2106 126.028V119.532H65.1326V120.47C65.1326 120.47 64.5026 119.364 62.9486 119.364C61.1986 119.364 59.8126 120.862 59.8126 122.766C59.8126 124.67 61.1986 126.168 62.9486 126.168C64.1386 126.168 64.8106 125.482 65.0346 125.188V126.084ZM65.0346 123.984C65.0346 123.984 64.4186 125.076 63.1306 125.076C61.8146 125.076 60.9886 124.04 60.9886 122.766C60.9886 121.492 61.8146 120.456 63.1306 120.456C64.4046 120.456 65.0346 121.548 65.0346 121.548V123.984ZM72.5929 123.984C72.5929 123.984 71.9629 125.076 70.7029 125.076C69.3869 125.076 68.5469 124.04 68.5469 122.766C68.5469 121.492 69.3869 120.456 70.7029 120.456C71.9629 120.456 72.5929 121.548 72.5929 121.548V123.984ZM72.6909 119.532V120.47C72.6909 120.47 72.0609 119.364 70.4789 119.364C68.7569 119.364 67.3709 120.862 67.3709 122.766C67.3709 124.67 68.7569 126.168 70.4789 126.168C72.0609 126.168 72.6909 125.062 72.6909 125.062V126H73.7689V119.532H72.6909ZM78.4572 119.364C77.0572 119.364 76.4692 120.442 76.4692 120.442V119.532H75.3772V126H76.5532V121.548C76.5532 121.548 77.1132 120.456 78.1632 120.456C79.0312 120.456 79.7172 120.932 79.7172 122.038V126H80.8932V121.842C80.8932 120.246 79.7452 119.364 78.4572 119.364ZM91.0295 124.152C91.0295 124.152 90.3995 125.076 89.1395 125.076C87.8375 125.076 86.9835 124.04 86.9835 122.766C86.9835 121.492 87.8375 120.456 89.1395 120.456C90.2875 120.456 90.9175 121.24 90.9175 121.24L91.7155 120.526C91.7155 120.526 90.7915 119.364 89.1395 119.364C87.2355 119.364 85.8075 120.876 85.8075 122.766C85.8075 124.67 87.2355 126.168 89.1395 126.168C90.8475 126.168 91.7855 124.922 91.7855 124.922L91.0295 124.152ZM95.6313 119.364C93.7273 119.364 92.2993 120.862 92.2993 122.766C92.2993 124.67 93.7273 126.168 95.6313 126.168C97.5353 126.168 98.9633 124.67 98.9633 122.766C98.9633 120.862 97.5353 119.364 95.6313 119.364ZM95.6313 125.076C94.3293 125.076 93.4753 124.04 93.4753 122.766C93.4753 121.492 94.3293 120.456 95.6313 120.456C96.9333 120.456 97.7873 121.492 97.7873 122.766C97.7873 124.04 96.9333 125.076 95.6313 125.076ZM102.564 126.168C103.964 126.168 104.552 125.006 104.552 125.006V126H105.644V119.532H104.468V124.012C104.468 124.012 103.95 125.076 102.858 125.076C101.99 125.076 101.304 124.6 101.304 123.494V119.532H100.128V123.69C100.128 125.286 101.276 126.168 102.564 126.168ZM106.842 124.81C106.842 124.81 107.794 126.168 109.614 126.168C110.86 126.168 112.176 125.524 112.176 124.278C112.176 122.962 111.126 122.5 109.894 122.234C108.83 122.01 108.326 121.744 108.326 121.254C108.326 120.834 108.732 120.428 109.558 120.428C110.538 120.428 111.182 121.142 111.182 121.142L111.952 120.344C111.952 120.344 111.084 119.364 109.558 119.364C108.116 119.364 107.178 120.288 107.178 121.226C107.178 122.444 108.158 122.99 109.544 123.27C110.538 123.466 111.014 123.746 111.014 124.306C111.014 124.824 110.272 125.104 109.614 125.104C108.34 125.104 107.654 124.054 107.654 124.054L106.842 124.81ZM113.663 126H114.839V119.532H113.663V126ZM113.453 117.46C113.453 117.894 113.817 118.258 114.251 118.258C114.685 118.258 115.049 117.894 115.049 117.46C115.049 117.026 114.685 116.662 114.251 116.662C113.817 116.662 113.453 117.026 113.453 117.46ZM119.744 119.364C118.344 119.364 117.756 120.442 117.756 120.442V119.532H116.664V126H117.84V121.548C117.84 121.548 118.4 120.456 119.45 120.456C120.318 120.456 121.004 120.932 121.004 122.038V126H122.18V121.842C122.18 120.246 121.032 119.364 119.744 119.364ZM126.584 119.364C124.638 119.364 123.35 120.876 123.35 122.766C123.35 124.684 124.764 126.168 126.724 126.168C128.432 126.168 129.412 124.894 129.412 124.894L128.67 124.124C128.67 124.124 127.998 125.076 126.724 125.076C125.506 125.076 124.568 124.166 124.498 123.186H129.72C129.734 123.032 129.734 122.934 129.734 122.808C129.734 120.722 128.39 119.364 126.584 119.364ZM124.526 122.206C124.61 121.534 125.184 120.456 126.584 120.456C127.886 120.456 128.544 121.478 128.586 122.206H124.526Z" fill="#CCB29C"/>
<path d="M151 138V138.5C151.276 138.5 151.5 138.276 151.5 138H151ZM25 138H24.5C24.5 138.276 24.7239 138.5 25 138.5V138ZM149.031 137.5C148.755 137.5 148.531 137.724 148.531 138C148.531 138.276 148.755 138.5 149.031 138.5V137.5ZM145.094 138.5C145.37 138.5 145.594 138.276 145.594 138C145.594 137.724 145.37 137.5 145.094 137.5V138.5ZM141.156 137.5C140.88 137.5 140.656 137.724 140.656 138C140.656 138.276 140.88 138.5 141.156 138.5V137.5ZM137.219 138.5C137.495 138.5 137.719 138.276 137.719 138C137.719 137.724 137.495 137.5 137.219 137.5V138.5ZM133.281 137.5C133.005 137.5 132.781 137.724 132.781 138C132.781 138.276 133.005 138.5 133.281 138.5V137.5ZM129.344 138.5C129.62 138.5 129.844 138.276 129.844 138C129.844 137.724 129.62 137.5 129.344 137.5V138.5ZM125.406 137.5C125.13 137.5 124.906 137.724 124.906 138C124.906 138.276 125.13 138.5 125.406 138.5V137.5ZM121.469 138.5C121.745 138.5 121.969 138.276 121.969 138C121.969 137.724 121.745 137.5 121.469 137.5V138.5ZM117.531 137.5C117.255 137.5 117.031 137.724 117.031 138C117.031 138.276 117.255 138.5 117.531 138.5V137.5ZM113.594 138.5C113.87 138.5 114.094 138.276 114.094 138C114.094 137.724 113.87 137.5 113.594 137.5V138.5ZM109.656 137.5C109.38 137.5 109.156 137.724 109.156 138C109.156 138.276 109.38 138.5 109.656 138.5V137.5ZM105.719 138.5C105.995 138.5 106.219 138.276 106.219 138C106.219 137.724 105.995 137.5 105.719 137.5V138.5ZM101.781 137.5C101.505 137.5 101.281 137.724 101.281 138C101.281 138.276 101.505 138.5 101.781 138.5V137.5ZM97.8438 138.5C98.1199 138.5 98.3438 138.276 98.3438 138C98.3438 137.724 98.1199 137.5 97.8438 137.5V138.5ZM93.9062 137.5C93.6301 137.5 93.4062 137.724 93.4062 138C93.4062 138.276 93.6301 138.5 93.9062 138.5V137.5ZM89.9688 138.5C90.2449 138.5 90.4688 138.276 90.4688 138C90.4688 137.724 90.2449 137.5 89.9688 137.5V138.5ZM86.0312 137.5C85.7551 137.5 85.5312 137.724 85.5312 138C85.5312 138.276 85.7551 138.5 86.0312 138.5V137.5ZM82.0938 138.5C82.3699 138.5 82.5938 138.276 82.5938 138C82.5938 137.724 82.3699 137.5 82.0938 137.5V138.5ZM78.1562 137.5C77.8801 137.5 77.6562 137.724 77.6562 138C77.6562 138.276 77.8801 138.5 78.1562 138.5V137.5ZM74.2188 138.5C74.4949 138.5 74.7188 138.276 74.7188 138C74.7188 137.724 74.4949 137.5 74.2188 137.5V138.5ZM70.2812 137.5C70.0051 137.5 69.7812 137.724 69.7812 138C69.7812 138.276 70.0051 138.5 70.2812 138.5V137.5ZM66.3438 138.5C66.6199 138.5 66.8438 138.276 66.8438 138C66.8438 137.724 66.6199 137.5 66.3438 137.5V138.5ZM62.4062 137.5C62.1301 137.5 61.9062 137.724 61.9062 138C61.9062 138.276 62.1301 138.5 62.4062 138.5V137.5ZM58.4688 138.5C58.7449 138.5 58.9688 138.276 58.9688 138C58.9688 137.724 58.7449 137.5 58.4688 137.5V138.5ZM54.5312 137.5C54.2551 137.5 54.0312 137.724 54.0312 138C54.0312 138.276 54.2551 138.5 54.5312 138.5V137.5ZM50.5938 138.5C50.8699 138.5 51.0938 138.276 51.0938 138C51.0938 137.724 50.8699 137.5 50.5938 137.5V138.5ZM46.6562 137.5C46.3801 137.5 46.1562 137.724 46.1562 138C46.1562 138.276 46.3801 138.5 46.6562 138.5V137.5ZM42.7188 138.5C42.9949 138.5 43.2188 138.276 43.2188 138C43.2188 137.724 42.9949 137.5 42.7188 137.5V138.5ZM38.7812 137.5C38.5051 137.5 38.2812 137.724 38.2812 138C38.2812 138.276 38.5051 138.5 38.7812 138.5V137.5ZM34.8438 138.5C35.1199 138.5 35.3438 138.276 35.3438 138C35.3438 137.724 35.1199 137.5 34.8438 137.5V138.5ZM30.9062 137.5C30.6301 137.5 30.4062 137.724 30.4062 138C30.4062 138.276 30.6301 138.5 30.9062 138.5V137.5ZM26.9688 138.5C27.2449 138.5 27.4688 138.276 27.4688 138C27.4688 137.724 27.2449 137.5 26.9688 137.5V138.5ZM25.5 136.333C25.5 136.057 25.2761 135.833 25 135.833C24.7239 135.833 24.5 136.057 24.5 136.333H25.5ZM24.5 133C24.5 133.276 24.7239 133.5 25 133.5C25.2761 133.5 25.5 133.276 25.5 133H24.5ZM25.5 129.667C25.5 129.391 25.2761 129.167 25 129.167C24.7239 129.167 24.5 129.391 24.5 129.667H25.5ZM24.5 126.333C24.5 126.609 24.7239 126.833 25 126.833C25.2761 126.833 25.5 126.609 25.5 126.333H24.5ZM25.5 123C25.5 122.724 25.2761 122.5 25 122.5C24.7239 122.5 24.5 122.724 24.5 123H25.5ZM24.5 119.667C24.5 119.943 24.7239 120.167 25 120.167C25.2761 120.167 25.5 119.943 25.5 119.667H24.5ZM25.7189 115.755C25.7725 115.484 25.5963 115.221 25.3254 115.168C25.0546 115.114 24.7915 115.29 24.7379 115.561L25.7189 115.755ZM26.6057 111.054C26.4521 111.284 26.5136 111.594 26.7431 111.748C26.9725 111.902 27.2831 111.84 27.4367 111.611L26.6057 111.054ZM30.6108 108.437C30.8402 108.283 30.9017 107.973 30.7481 107.743C30.5945 107.514 30.2839 107.452 30.0545 107.606L30.6108 108.437ZM34.561 105.738C34.2901 105.792 34.114 106.055 34.1676 106.325C34.2212 106.596 34.4842 106.772 34.7551 106.719L34.561 105.738ZM38.9615 106.5C39.2377 106.5 39.4615 106.276 39.4615 106C39.4615 105.724 39.2377 105.5 38.9615 105.5V106.5ZM42.8846 105.5C42.6085 105.5 42.3846 105.724 42.3846 106C42.3846 106.276 42.6085 106.5 42.8846 106.5V105.5ZM46.8077 106.5C47.0838 106.5 47.3077 106.276 47.3077 106C47.3077 105.724 47.0838 105.5 46.8077 105.5V106.5ZM50.7308 105.5C50.4546 105.5 50.2308 105.724 50.2308 106C50.2308 106.276 50.4546 106.5 50.7308 106.5V105.5ZM54.6538 106.5C54.93 106.5 55.1538 106.276 55.1538 106C55.1538 105.724 54.93 105.5 54.6538 105.5V106.5ZM58.5769 105.5C58.3008 105.5 58.0769 105.724 58.0769 106C58.0769 106.276 58.3008 106.5 58.5769 106.5V105.5ZM62.5 106.5C62.7761 106.5 63 106.276 63 106C63 105.724 62.7761 105.5 62.5 105.5V106.5ZM66.4231 105.5C66.1469 105.5 65.9231 105.724 65.9231 106C65.9231 106.276 66.1469 106.5 66.4231 106.5V105.5ZM70.3462 106.5C70.6223 106.5 70.8462 106.276 70.8462 106C70.8462 105.724 70.6223 105.5 70.3462 105.5V106.5ZM74.2692 105.5C73.9931 105.5 73.7692 105.724 73.7692 106C73.7692 106.276 73.9931 106.5 74.2692 106.5V105.5ZM78.1923 106.5C78.4684 106.5 78.6923 106.276 78.6923 106C78.6923 105.724 78.4684 105.5 78.1923 105.5V106.5ZM82.1154 105.5C81.8392 105.5 81.6154 105.724 81.6154 106C81.6154 106.276 81.8392 106.5 82.1154 106.5V105.5ZM86.0385 106.5C86.3146 106.5 86.5385 106.276 86.5385 106C86.5385 105.724 86.3146 105.5 86.0385 105.5V106.5ZM89.9615 105.5C89.6854 105.5 89.4615 105.724 89.4615 106C89.4615 106.276 89.6854 106.5 89.9615 106.5V105.5ZM93.8846 106.5C94.1608 106.5 94.3846 106.276 94.3846 106C94.3846 105.724 94.1608 105.5 93.8846 105.5V106.5ZM97.8077 105.5C97.5315 105.5 97.3077 105.724 97.3077 106C97.3077 106.276 97.5315 106.5 97.8077 106.5V105.5ZM101.731 106.5C102.007 106.5 102.231 106.276 102.231 106C102.231 105.724 102.007 105.5 101.731 105.5V106.5ZM105.654 105.5C105.378 105.5 105.154 105.724 105.154 106C105.154 106.276 105.378 106.5 105.654 106.5V105.5ZM109.577 106.5C109.853 106.5 110.077 106.276 110.077 106C110.077 105.724 109.853 105.5 109.577 105.5V106.5ZM113.5 105.5C113.224 105.5 113 105.724 113 106C113 106.276 113.224 106.5 113.5 106.5V105.5ZM117.423 106.5C117.699 106.5 117.923 106.276 117.923 106C117.923 105.724 117.699 105.5 117.423 105.5V106.5ZM121.346 105.5C121.07 105.5 120.846 105.724 120.846 106C120.846 106.276 121.07 106.5 121.346 106.5V105.5ZM125.269 106.5C125.545 106.5 125.769 106.276 125.769 106C125.769 105.724 125.545 105.5 125.269 105.5V106.5ZM129.192 105.5C128.916 105.5 128.692 105.724 128.692 106C128.692 106.276 128.916 106.5 129.192 106.5V105.5ZM133.115 106.5C133.392 106.5 133.615 106.276 133.615 106C133.615 105.724 133.392 105.5 133.115 105.5V106.5ZM137.038 105.5C136.762 105.5 136.538 105.724 136.538 106C136.538 106.276 136.762 106.5 137.038 106.5V105.5ZM141.245 106.719C141.516 106.772 141.779 106.596 141.832 106.325C141.886 106.055 141.71 105.792 141.439 105.738L141.245 106.719ZM145.946 107.606C145.716 107.452 145.406 107.514 145.252 107.743C145.098 107.973 145.16 108.283 145.389 108.437L145.946 107.606ZM148.563 111.611C148.717 111.84 149.027 111.902 149.257 111.748C149.486 111.594 149.548 111.284 149.394 111.054L148.563 111.611ZM151.262 115.561C151.208 115.29 150.945 115.114 150.675 115.168C150.404 115.221 150.228 115.484 150.281 115.755L151.262 115.561ZM150.5 119.667C150.5 119.943 150.724 120.167 151 120.167C151.276 120.167 151.5 119.943 151.5 119.667H150.5ZM151.5 123C151.5 122.724 151.276 122.5 151 122.5C150.724 122.5 150.5 122.724 150.5 123H151.5ZM150.5 126.333C150.5 126.609 150.724 126.833 151 126.833C151.276 126.833 151.5 126.609 151.5 126.333H150.5ZM151.5 129.667C151.5 129.391 151.276 129.167 151 129.167C150.724 129.167 150.5 129.391 150.5 129.667H151.5ZM150.5 133C150.5 133.276 150.724 133.5 151 133.5C151.276 133.5 151.5 133.276 151.5 133H150.5ZM151.5 136.333C151.5 136.057 151.276 135.833 151 135.833C150.724 135.833 150.5 136.057 150.5 136.333H151.5ZM151 137.5H149.031V138.5H151V137.5ZM145.094 137.5H141.156V138.5H145.094V137.5ZM137.219 137.5H133.281V138.5H137.219V137.5ZM129.344 137.5H125.406V138.5H129.344V137.5ZM121.469 137.5H117.531V138.5H121.469V137.5ZM113.594 137.5H109.656V138.5H113.594V137.5ZM105.719 137.5H101.781V138.5H105.719V137.5ZM97.8438 137.5H93.9062V138.5H97.8438V137.5ZM89.9688 137.5H86.0312V138.5H89.9688V137.5ZM82.0938 137.5H78.1562V138.5H82.0938V137.5ZM74.2188 137.5H70.2812V138.5H74.2188V137.5ZM66.3438 137.5H62.4062V138.5H66.3438V137.5ZM58.4688 137.5H54.5312V138.5H58.4688V137.5ZM50.5938 137.5H46.6562V138.5H50.5938V137.5ZM42.7188 137.5H38.7812V138.5H42.7188V137.5ZM34.8438 137.5H30.9062V138.5H34.8438V137.5ZM26.9688 137.5H25V138.5H26.9688V137.5ZM25.5 138V136.333H24.5V138H25.5ZM25.5 133V129.667H24.5V133H25.5ZM25.5 126.333V123H24.5V126.333H25.5ZM25.5 119.667V118H24.5V119.667H25.5ZM25.5 118C25.5 117.231 25.5753 116.481 25.7189 115.755L24.7379 115.561C24.5818 116.35 24.5 117.166 24.5 118H25.5ZM27.4367 111.611C28.2764 110.356 29.3565 109.276 30.6108 108.437L30.0545 107.606C28.6915 108.518 27.5182 109.692 26.6057 111.054L27.4367 111.611ZM34.7551 106.719C35.4807 106.575 36.2313 106.5 37 106.5V105.5C36.1658 105.5 35.3503 105.582 34.561 105.738L34.7551 106.719ZM37 106.5H38.9615V105.5H37V106.5ZM42.8846 106.5H46.8077V105.5H42.8846V106.5ZM50.7308 106.5H54.6538V105.5H50.7308V106.5ZM58.5769 106.5H62.5V105.5H58.5769V106.5ZM66.4231 106.5H70.3462V105.5H66.4231V106.5ZM74.2692 106.5H78.1923V105.5H74.2692V106.5ZM82.1154 106.5H86.0385V105.5H82.1154V106.5ZM89.9615 106.5H93.8846V105.5H89.9615V106.5ZM97.8077 106.5H101.731V105.5H97.8077V106.5ZM105.654 106.5H109.577V105.5H105.654V106.5ZM113.5 106.5H117.423V105.5H113.5V106.5ZM121.346 106.5H125.269V105.5H121.346V106.5ZM129.192 106.5H133.115V105.5H129.192V106.5ZM137.038 106.5H139V105.5H137.038V106.5ZM139 106.5C139.769 106.5 140.519 106.575 141.245 106.719L141.439 105.738C140.65 105.582 139.834 105.5 139 105.5V106.5ZM145.389 108.437C146.644 109.276 147.724 110.356 148.563 111.611L149.394 111.054C148.482 109.692 147.308 108.518 145.946 107.606L145.389 108.437ZM150.281 115.755C150.425 116.481 150.5 117.231 150.5 118H151.5C151.5 117.166 151.418 116.35 151.262 115.561L150.281 115.755ZM150.5 118V119.667H151.5V118H150.5ZM150.5 123V126.333H151.5V123H150.5ZM150.5 129.667V133H151.5V129.667H150.5ZM150.5 136.333V138H151.5V136.333H150.5ZM151 138V139C151.552 139 152 138.552 152 138H151ZM25 138H24C24 138.552 24.4477 139 25 139V138ZM149.031 137C148.479 137 148.031 137.448 148.031 138C148.031 138.552 148.479 139 149.031 139V137ZM145.094 139C145.646 139 146.094 138.552 146.094 138C146.094 137.448 145.646 137 145.094 137V139ZM141.156 137C140.604 137 140.156 137.448 140.156 138C140.156 138.552 140.604 139 141.156 139V137ZM137.219 139C137.771 139 138.219 138.552 138.219 138C138.219 137.448 137.771 137 137.219 137V139ZM133.281 137C132.729 137 132.281 137.448 132.281 138C132.281 138.552 132.729 139 133.281 139V137ZM129.344 139C129.896 139 130.344 138.552 130.344 138C130.344 137.448 129.896 137 129.344 137V139ZM125.406 137C124.854 137 124.406 137.448 124.406 138C124.406 138.552 124.854 139 125.406 139V137ZM121.469 139C122.021 139 122.469 138.552 122.469 138C122.469 137.448 122.021 137 121.469 137V139ZM117.531 137C116.979 137 116.531 137.448 116.531 138C116.531 138.552 116.979 139 117.531 139V137ZM113.594 139C114.146 139 114.594 138.552 114.594 138C114.594 137.448 114.146 137 113.594 137V139ZM109.656 137C109.104 137 108.656 137.448 108.656 138C108.656 138.552 109.104 139 109.656 139V137ZM105.719 139C106.271 139 106.719 138.552 106.719 138C106.719 137.448 106.271 137 105.719 137V139ZM101.781 137C101.229 137 100.781 137.448 100.781 138C100.781 138.552 101.229 139 101.781 139V137ZM97.8438 139C98.396 139 98.8438 138.552 98.8438 138C98.8438 137.448 98.396 137 97.8438 137V139ZM93.9062 137C93.354 137 92.9062 137.448 92.9062 138C92.9062 138.552 93.354 139 93.9062 139V137ZM89.9688 139C90.521 139 90.9688 138.552 90.9688 138C90.9688 137.448 90.521 137 89.9688 137V139ZM86.0312 137C85.479 137 85.0312 137.448 85.0312 138C85.0312 138.552 85.479 139 86.0312 139V137ZM82.0938 139C82.646 139 83.0938 138.552 83.0938 138C83.0938 137.448 82.646 137 82.0938 137V139ZM78.1562 137C77.604 137 77.1562 137.448 77.1562 138C77.1562 138.552 77.604 139 78.1562 139V137ZM74.2188 139C74.771 139 75.2188 138.552 75.2188 138C75.2188 137.448 74.771 137 74.2188 137V139ZM70.2812 137C69.729 137 69.2812 137.448 69.2812 138C69.2812 138.552 69.729 139 70.2812 139V137ZM66.3438 139C66.896 139 67.3438 138.552 67.3438 138C67.3438 137.448 66.896 137 66.3438 137V139ZM62.4062 137C61.854 137 61.4062 137.448 61.4062 138C61.4062 138.552 61.854 139 62.4062 139V137ZM58.4688 139C59.021 139 59.4688 138.552 59.4688 138C59.4688 137.448 59.021 137 58.4688 137V139ZM54.5312 137C53.979 137 53.5312 137.448 53.5312 138C53.5312 138.552 53.979 139 54.5312 139V137ZM50.5938 139C51.146 139 51.5938 138.552 51.5938 138C51.5938 137.448 51.146 137 50.5938 137V139ZM46.6562 137C46.104 137 45.6562 137.448 45.6562 138C45.6562 138.552 46.104 139 46.6562 139V137ZM42.7188 139C43.271 139 43.7188 138.552 43.7188 138C43.7188 137.448 43.271 137 42.7188 137V139ZM38.7812 137C38.229 137 37.7812 137.448 37.7812 138C37.7812 138.552 38.229 139 38.7812 139V137ZM34.8438 139C35.396 139 35.8438 138.552 35.8438 138C35.8438 137.448 35.396 137 34.8438 137V139ZM30.9062 137C30.354 137 29.9062 137.448 29.9062 138C29.9062 138.552 30.354 139 30.9062 139V137ZM26.9688 139C27.521 139 27.9688 138.552 27.9688 138C27.9688 137.448 27.521 137 26.9688 137V139ZM26 136.333C26 135.781 25.5523 135.333 25 135.333C24.4477 135.333 24 135.781 24 136.333H26ZM24 133C24 133.552 24.4477 134 25 134C25.5523 134 26 133.552 26 133H24ZM26 129.667C26 129.114 25.5523 128.667 25 128.667C24.4477 128.667 24 129.114 24 129.667H26ZM24 126.333C24 126.886 24.4477 127.333 25 127.333C25.5523 127.333 26 126.886 26 126.333H24ZM26 123C26 122.448 25.5523 122 25 122C24.4477 122 24 122.448 24 123H26ZM24 119.667C24 120.219 24.4477 120.667 25 120.667C25.5523 120.667 26 120.219 26 119.667H24ZM26.2094 115.852C26.3166 115.31 25.9643 114.784 25.4225 114.677C24.8807 114.57 24.3546 114.922 24.2474 115.464L26.2094 115.852ZM26.1902 110.776C25.883 111.235 26.006 111.856 26.4649 112.164C26.9238 112.471 27.5449 112.348 27.8522 111.889L26.1902 110.776ZM30.8889 108.852C31.3479 108.545 31.4708 107.924 31.1636 107.465C30.8563 107.006 30.2352 106.883 29.7763 107.19L30.8889 108.852ZM34.464 105.247C33.9222 105.355 33.5699 105.881 33.6771 106.422C33.7843 106.964 34.3103 107.317 34.8521 107.209L34.464 105.247ZM38.9615 107C39.5138 107 39.9615 106.552 39.9615 106C39.9615 105.448 39.5138 105 38.9615 105V107ZM42.8846 105C42.3323 105 41.8846 105.448 41.8846 106C41.8846 106.552 42.3323 107 42.8846 107V105ZM46.8077 107C47.36 107 47.8077 106.552 47.8077 106C47.8077 105.448 47.36 105 46.8077 105V107ZM50.7308 105C50.1785 105 49.7308 105.448 49.7308 106C49.7308 106.552 50.1785 107 50.7308 107V105ZM54.6538 107C55.2061 107 55.6538 106.552 55.6538 106C55.6538 105.448 55.2061 105 54.6538 105V107ZM58.5769 105C58.0246 105 57.5769 105.448 57.5769 106C57.5769 106.552 58.0246 107 58.5769 107V105ZM62.5 107C63.0523 107 63.5 106.552 63.5 106C63.5 105.448 63.0523 105 62.5 105V107ZM66.4231 105C65.8708 105 65.4231 105.448 65.4231 106C65.4231 106.552 65.8708 107 66.4231 107V105ZM70.3462 107C70.8984 107 71.3462 106.552 71.3462 106C71.3462 105.448 70.8984 105 70.3462 105V107ZM74.2692 105C73.7169 105 73.2692 105.448 73.2692 106C73.2692 106.552 73.7169 107 74.2692 107V105ZM78.1923 107C78.7446 107 79.1923 106.552 79.1923 106C79.1923 105.448 78.7446 105 78.1923 105V107ZM82.1154 105C81.5631 105 81.1154 105.448 81.1154 106C81.1154 106.552 81.5631 107 82.1154 107V105ZM86.0385 107C86.5907 107 87.0385 106.552 87.0385 106C87.0385 105.448 86.5907 105 86.0385 105V107ZM89.9615 105C89.4092 105 88.9615 105.448 88.9615 106C88.9615 106.552 89.4092 107 89.9615 107V105ZM93.8846 107C94.4369 107 94.8846 106.552 94.8846 106C94.8846 105.448 94.4369 105 93.8846 105V107ZM97.8077 105C97.2554 105 96.8077 105.448 96.8077 106C96.8077 106.552 97.2554 107 97.8077 107V105ZM101.731 107C102.283 107 102.731 106.552 102.731 106C102.731 105.448 102.283 105 101.731 105V107ZM105.654 105C105.102 105 104.654 105.448 104.654 106C104.654 106.552 105.102 107 105.654 107V105ZM109.577 107C110.129 107 110.577 106.552 110.577 106C110.577 105.448 110.129 105 109.577 105V107ZM113.5 105C112.948 105 112.5 105.448 112.5 106C112.5 106.552 112.948 107 113.5 107V105ZM117.423 107C117.975 107 118.423 106.552 118.423 106C118.423 105.448 117.975 105 117.423 105V107ZM121.346 105C120.794 105 120.346 105.448 120.346 106C120.346 106.552 120.794 107 121.346 107V105ZM125.269 107C125.822 107 126.269 106.552 126.269 106C126.269 105.448 125.822 105 125.269 105V107ZM129.192 105C128.64 105 128.192 105.448 128.192 106C128.192 106.552 128.64 107 129.192 107V105ZM133.115 107C133.668 107 134.115 106.552 134.115 106C134.115 105.448 133.668 105 133.115 105V107ZM137.038 105C136.486 105 136.038 105.448 136.038 106C136.038 106.552 136.486 107 137.038 107V105ZM141.148 107.209C141.69 107.317 142.216 106.964 142.323 106.422C142.43 105.881 142.078 105.355 141.536 105.247L141.148 107.209ZM146.224 107.19C145.765 106.883 145.144 107.006 144.836 107.465C144.529 107.924 144.652 108.545 145.111 108.852L146.224 107.19ZM148.148 111.889C148.455 112.348 149.076 112.471 149.535 112.164C149.994 111.856 150.117 111.235 149.81 110.776L148.148 111.889ZM151.753 115.464C151.645 114.922 151.119 114.57 150.578 114.677C150.036 114.784 149.683 115.31 149.791 115.852L151.753 115.464ZM150 119.667C150 120.219 150.448 120.667 151 120.667C151.552 120.667 152 120.219 152 119.667H150ZM152 123C152 122.448 151.552 122 151 122C150.448 122 150 122.448 150 123H152ZM150 126.333C150 126.886 150.448 127.333 151 127.333C151.552 127.333 152 126.886 152 126.333H150ZM152 129.667C152 129.114 151.552 128.667 151 128.667C150.448 128.667 150 129.114 150 129.667H152ZM150 133C150 133.552 150.448 134 151 134C151.552 134 152 133.552 152 133H150ZM152 136.333C152 135.781 151.552 135.333 151 135.333C150.448 135.333 150 135.781 150 136.333H152ZM151 137H149.031V139H151V137ZM145.094 137H141.156V139H145.094V137ZM137.219 137H133.281V139H137.219V137ZM129.344 137H125.406V139H129.344V137ZM121.469 137H117.531V139H121.469V137ZM113.594 137H109.656V139H113.594V137ZM105.719 137H101.781V139H105.719V137ZM97.8438 137H93.9062V139H97.8438V137ZM89.9688 137H86.0312V139H89.9688V137ZM82.0938 137H78.1562V139H82.0938V137ZM74.2188 137H70.2812V139H74.2188V137ZM66.3438 137H62.4062V139H66.3438V137ZM58.4688 137H54.5312V139H58.4688V137ZM50.5938 137H46.6562V139H50.5938V137ZM42.7188 137H38.7812V139H42.7188V137ZM34.8438 137H30.9062V139H34.8438V137ZM26.9688 137H25V139H26.9688V137ZM26 138V136.333H24V138H26ZM26 133V129.667H24V133H26ZM26 126.333V123H24V126.333H26ZM26 119.667V118H24V119.667H26ZM26 118C26 117.264 26.0721 116.546 26.2094 115.852L24.2474 115.464C24.085 116.285 24 117.133 24 118H26ZM27.8522 111.889C28.6556 110.689 29.6889 109.656 30.8889 108.852L29.7763 107.19C28.3591 108.139 27.1391 109.359 26.1902 110.776L27.8522 111.889ZM34.8521 107.209C35.546 107.072 36.2641 107 37 107V105C36.1331 105 35.285 105.085 34.464 105.247L34.8521 107.209ZM37 107H38.9615V105H37V107ZM42.8846 107H46.8077V105H42.8846V107ZM50.7308 107H54.6538V105H50.7308V107ZM58.5769 107H62.5V105H58.5769V107ZM66.4231 107H70.3462V105H66.4231V107ZM74.2692 107H78.1923V105H74.2692V107ZM82.1154 107H86.0385V105H82.1154V107ZM89.9615 107H93.8846V105H89.9615V107ZM97.8077 107H101.731V105H97.8077V107ZM105.654 107H109.577V105H105.654V107ZM113.5 107H117.423V105H113.5V107ZM121.346 107H125.269V105H121.346V107ZM129.192 107H133.115V105H129.192V107ZM137.038 107H139V105H137.038V107ZM139 107C139.736 107 140.454 107.072 141.148 107.209L141.536 105.247C140.715 105.085 139.867 105 139 105V107ZM145.111 108.852C146.311 109.656 147.344 110.689 148.148 111.889L149.81 110.776C148.861 109.359 147.641 108.139 146.224 107.19L145.111 108.852ZM149.791 115.852C149.928 116.546 150 117.264 150 118H152C152 117.133 151.915 116.285 151.753 115.464L149.791 115.852ZM150 118V119.667H152V118H150ZM150 123V126.333H152V123H150ZM150 129.667V133H152V129.667H150ZM150 136.333V138H152V136.333H150Z" fill="#CCB29C"/>
</svg>
