<svg width="48" height="48" viewBox="0 0 48 48" fill="none" xmlns="http://www.w3.org/2000/svg">
<circle cx="24" cy="24" r="23.5" stroke="#EDD7C3"/>
<path d="M15.1493 11.0455C16.9248 11.9164 18.2983 12.6111 19.5243 13.4894C21.2179 11.5325 23.3413 11.4352 25.4712 13.0024C24.2327 14.4202 22.8458 15.1177 21.2159 14.9142C22.1776 15.8742 23.115 17.0904 24.1937 18.7829C26.0593 18.8063 27.1937 20.3037 27.2358 21.6598C27.2358 23.2536 25.9191 24.5456 24.2947 24.5456C22.6702 24.5456 21.3535 23.2535 21.3535 21.6598C21.3535 20.5242 22.0176 19.5426 22.9894 19.0715C20.2251 14.8185 18.6259 14.0404 14.6161 12.0735C14.3717 11.9544 14.2367 11.6534 14.3126 11.3962C14.3955 11.0148 14.7802 10.9354 15.1493 11.0456L15.1493 11.0455ZM34 16.1767L32.6948 17.9081H23.8897C23.4638 17.2568 23.0573 16.6853 22.6674 16.1767H34ZM20.4523 16.1767C20.8753 16.6549 21.308 17.2222 21.785 17.9081H15.305L14 16.1767H20.4523ZM32.2631 18.4852L24.5888 28.6667V35.8452H29.9381C30.246 35.8593 30.5133 36.1472 30.4988 36.4493C30.4844 36.7516 30.1908 37.0136 29.8829 36.9995H18.1182C17.8074 36.9995 17.5217 36.7272 17.5217 36.4223C17.5217 36.1174 17.8074 35.8409 18.1182 35.8451H23.4123V28.6666L15.738 18.4852C17.8243 18.5176 20.1772 18.5176 22.2085 18.5303C21.1658 19.2026 20.4715 20.3611 20.4715 21.6687C20.4715 23.7305 22.1938 25.4204 24.295 25.4204C26.3963 25.4204 28.1186 23.7305 28.1186 21.6687C28.1186 20.3311 27.3913 19.15 26.3078 18.4854L32.2631 18.4852Z" fill="#EDD7C3"/>
</svg>
