<svg width="48" height="48" viewBox="0 0 48 48" fill="none" xmlns="http://www.w3.org/2000/svg">
<circle cx="24" cy="24" r="23.5" stroke="#EDD7C3"/>
<g clip-path="url(#clip0_303_3798)">
<path d="M14.4642 29.6103V19.0131H13.2174V17.7664H14.4642V16.5197H13.2174V15.2729H14.4642V14.0262H13.2174V12.7795H20.6978C21.3212 12.8169 21.8822 13.0787 22.3684 13.5649C22.8546 14.0511 23.1289 14.6496 23.1912 15.2729H35.6585V16.5197H23.1912C23.1289 17.1804 22.8546 17.7664 22.3684 18.3025C21.8822 18.8386 21.3212 19.0754 20.6978 19.0131H18.2043V27.8025C18.2667 27.8025 18.3664 27.7901 18.5036 27.7402C18.6407 27.6903 18.7529 27.7402 18.8277 27.7402C19.5259 27.7402 20.3238 27.9147 21.2214 28.2638C21.7326 27.1168 22.6053 26.0945 23.852 25.2467C25.0987 24.399 26.3455 24 27.5922 24C29.4997 24 31.1204 24.6608 32.442 25.9823C33.7635 27.3038 34.4118 28.9246 34.4118 30.857V31.1936C34.4118 31.3557 34.3744 31.443 34.3744 31.4804H13.392C13.554 30.857 13.9031 30.2337 14.4642 29.6103ZM16.9576 28.0269V19.0131H15.7109V28.6129C16.3342 28.3012 16.7207 28.1142 16.9576 28.0269ZM20.6978 17.7664V16.5197H18.2043V17.7664H20.6978ZM20.6978 14.0262H18.2043V15.2729H20.6978V14.0262ZM15.7109 14.0262V15.2729H16.9576V14.0262H15.7109ZM15.7109 16.5197V17.7664H16.9576V16.5197H15.7109ZM11.9707 32.7271H36.9052L34.4118 35.2206H14.4642L11.9707 32.7271Z" fill="#EDD7C3"/>
</g>
<defs>
<clipPath id="clip0_303_3798">
<rect width="26.1813" height="22.4411" fill="white" transform="translate(10.9094 12.7795)"/>
</clipPath>
</defs>
</svg>
