<svg width="48" height="48" viewBox="0 0 48 48" fill="none" xmlns="http://www.w3.org/2000/svg">
<circle cx="24" cy="24" r="23.5" stroke="#EDD7C3"/>
<g clip-path="url(#clip0_305_3640)">
<path d="M36.2513 18.0975C36.2513 18.6954 36.0544 19.2717 35.6894 19.813L23.8415 16.5496L27.812 23.5159C26.6452 23.6907 25.4017 23.7851 24.111 23.7851C17.4061 23.7851 11.9707 21.2387 11.9707 18.0975C11.9707 14.9564 17.4061 12.41 24.111 12.41C30.8159 12.41 36.2513 14.9565 36.2513 18.0975ZM12.4239 21.1623L12.7911 23.8046C16.5541 27.7157 22.116 28.0807 27.6498 27.6551L27.7743 24.4794C20.951 25.3287 15.2211 23.8458 12.4239 21.1623ZM28.7692 23.2636L28.6739 25.3469L34.4372 27.2047L34.8775 24.6298L28.3487 22.541L28.7691 23.2636L28.7692 23.2636ZM27.4883 31.6989L27.5984 28.7421C21.7124 28.9623 16.1982 28.4634 12.9668 25.0689L13.2779 27.3077C17.2073 31.3335 22.0823 32.1148 27.4882 31.6989H27.4883ZM25.8028 18.0742L27.6303 21.2805L35.0127 23.5348L35.519 20.7504L25.8028 18.0742V18.0742ZM28.6287 26.3327L28.4812 29.5551L33.6771 31.7511L34.2527 28.2904L28.6287 26.3327V26.3327ZM13.4788 28.7528L13.5534 29.29C13.5534 29.29 13.5708 32.2381 17.4321 34.2557C21.2933 36.2733 27.346 35.4036 27.346 35.4036L27.4452 32.7859C21.6991 33.0009 16.7835 32.1549 13.4788 28.7528Z" fill="#EDD7C3"/>
</g>
<defs>
<clipPath id="clip0_305_3640">
<rect width="24.2806" height="24.2806" fill="white" transform="translate(11.9707 11.8597)"/>
</clipPath>
</defs>
</svg>
