<svg width="48" height="48" viewBox="0 0 48 48" fill="none" xmlns="http://www.w3.org/2000/svg">
<circle cx="24" cy="24" r="23.5" stroke="#EDD7C3"/>
<path d="M32.1172 25.1698L34.0137 24.8679L33.8999 24.4906C34.046 24.4537 34.1831 24.3878 34.303 24.2968C34.4229 24.2059 34.523 24.0918 34.5974 23.9614C34.6718 23.831 34.7189 23.6869 34.736 23.5379C34.753 23.3889 34.7396 23.238 34.6965 23.0943C34.6513 22.9291 34.5702 22.7758 34.4587 22.6454C34.3473 22.5149 34.2083 22.4105 34.0517 22.3396C34.3426 22.0115 34.5118 21.5941 34.5311 21.157C34.5452 20.8046 34.4578 20.4556 34.2792 20.1509C34.0629 19.7919 33.7347 19.5129 33.3445 19.3563C32.9543 19.1996 32.5234 19.1739 32.1172 19.283C32.1658 19.1037 32.1688 18.9152 32.1259 18.7345C32.0829 18.5537 31.9953 18.3865 31.8711 18.2479C31.7468 18.1093 31.5898 18.0037 31.4142 17.9407C31.2386 17.8776 31.05 17.8591 30.8654 17.8868C30.9464 17.4868 30.8943 17.0714 30.717 16.7035C30.5396 16.3356 30.2467 16.0352 29.8824 15.8476C29.5182 15.66 29.1025 15.5955 28.6982 15.6639C28.2938 15.7322 27.9228 15.9297 27.6413 16.2264C27.5914 16.0316 27.4918 15.8529 27.3523 15.7075C27.2128 15.5621 27.038 15.4549 26.8448 15.3962C26.676 15.3613 26.5019 15.36 26.3327 15.3924C26.1634 15.4248 26.0023 15.4902 25.8586 15.5849C25.7345 15.2118 25.4956 14.8871 25.1756 14.6568C24.8556 14.4265 24.4708 14.3023 24.0758 14.3019C23.6528 14.296 23.2407 14.4354 22.909 14.6966C22.5773 14.9578 22.3464 15.3249 22.2551 15.7358C22.1195 15.5867 21.9441 15.4791 21.7493 15.4256C21.5544 15.3722 21.3483 15.3751 21.1551 15.434C20.989 15.4789 20.835 15.5596 20.7038 15.6705C20.5727 15.7814 20.4678 15.9196 20.3965 16.0755C20.1004 15.8122 19.7283 15.6486 19.3333 15.6079C18.9383 15.5673 18.5405 15.6516 18.1965 15.849C17.8356 16.0643 17.5552 16.3908 17.3977 16.779C17.2403 17.1672 17.2144 17.5959 17.3241 18C17.1439 17.9516 16.9543 17.9486 16.7727 17.9913C16.591 18.0341 16.4229 18.1212 16.2836 18.2448C16.1443 18.3684 16.0382 18.5246 15.9748 18.6993C15.9114 18.874 15.8928 19.0616 15.9206 19.2453C15.5186 19.1647 15.1011 19.2166 14.7313 19.393C14.3614 19.5694 14.0594 19.8609 13.8709 20.2232C13.6824 20.5856 13.6175 20.9992 13.6862 21.4014C13.7549 21.8037 13.9534 22.1727 14.2517 22.4528C14.0054 22.5097 13.7852 22.6469 13.6262 22.8425C13.4673 23.0381 13.3786 23.2809 13.3742 23.5324C13.3698 23.7839 13.4501 24.0297 13.6022 24.2306C13.7543 24.4316 13.9695 24.5762 14.2137 24.6415V25.0189L15.3896 25.283" fill="#40372F"/>
<path d="M18.5747 25.0566C19.8316 25.0566 20.8506 24.0429 20.8506 22.7925C20.8506 21.542 19.8316 20.5283 18.5747 20.5283C17.3178 20.5283 16.2988 21.542 16.2988 22.7925C16.2988 24.0429 17.3178 25.0566 18.5747 25.0566Z" fill="#8C7A6A"/>
<path d="M24.2644 24.6792C25.5213 24.6792 26.5402 23.6655 26.5402 22.4151C26.5402 21.1646 25.5213 20.1509 24.2644 20.1509C23.0075 20.1509 21.9885 21.1646 21.9885 22.4151C21.9885 23.6655 23.0075 24.6792 24.2644 24.6792Z" fill="#8C7A6A"/>
<path d="M29.9541 24.6792C31.211 24.6792 32.2299 23.6655 32.2299 22.4151C32.2299 21.1646 31.211 20.1509 29.9541 20.1509C28.6972 20.1509 27.6782 21.1646 27.6782 22.4151C27.6782 23.6655 28.6972 24.6792 29.9541 24.6792Z" fill="#8C7A6A"/>
<path d="M35 23.0566C35 25.9589 33.8411 28.7424 31.7782 30.7947C29.7153 32.847 26.9174 34 24 34C21.0826 34 18.2847 32.847 16.2218 30.7947C14.1589 28.7424 13 25.9589 13 23.0566H35Z" fill="#EDD7C3"/>
<path d="M28.931 23.0566C28.931 29.0943 27.4138 34 24 34C26.9168 33.998 29.7135 32.8444 31.776 30.7925C33.8384 28.7407 34.998 25.9583 35 23.0566H28.931Z" fill="#DFC6B0"/>
</svg>
