<svg width="48" height="48" viewBox="0 0 48 48" fill="none" xmlns="http://www.w3.org/2000/svg">
<circle cx="24" cy="24" r="23.5" stroke="#EDD7C3"/>
<path d="M33.53 26.9054L36.0695 26.5011L35.9171 25.9959C36.1127 25.9465 36.2963 25.8582 36.4568 25.7365C36.6173 25.6147 36.7514 25.4619 36.851 25.2873C36.9507 25.1127 37.0138 24.9198 37.0366 24.7203C37.0594 24.5208 37.0414 24.3187 36.9837 24.1263C36.9233 23.9051 37.8149 23.6632 38.2125 23.2183C39.2953 22.0067 39.008 19.1937 38.7983 19.0987C39.1878 18.6593 39.4144 18.1005 39.4403 17.5152C39.4591 17.0433 39.3421 16.576 39.103 16.1681C38.8133 15.6873 38.3739 15.3138 37.8514 15.104C37.3289 14.8943 36.7519 14.8598 36.208 15.0059C36.2732 14.7659 34.9382 15.8524 34.8806 15.6104C34.8231 15.3684 34.7058 15.1445 34.5395 14.959C34.3731 14.7734 34.1629 14.632 33.9277 14.5475C33.6926 14.4631 33.4401 14.4383 33.1929 14.4754C33.3014 13.9398 33.2316 13.3836 32.9941 12.891C32.7566 12.3984 33.7034 9.31808 33.2157 9.06692C32.728 8.81576 32.1713 8.72941 31.6299 8.82091C31.0885 8.91242 30.5918 9.17682 30.2148 9.57413C30.1479 9.31332 30.0147 9.07404 29.8278 8.87935C29.641 8.68465 29.407 8.54109 29.1482 8.4625C28.9222 8.41575 28.6892 8.414 28.4625 8.45737C28.2359 8.50073 28.0201 8.58834 27.8277 8.71514C27.6616 8.21561 24.6637 9.11979 24.2352 8.81141C23.8067 8.50303 23.2914 8.33675 22.7626 8.33618C22.1962 8.32826 21.6444 8.51494 21.2002 8.86472C20.7561 9.21451 20.4469 9.706 20.3246 10.2563C20.1431 10.0566 19.9082 9.9125 19.6473 9.84091C19.3865 9.76932 19.1105 9.77318 18.8517 9.85203C18.6294 9.91215 18.4231 10.0203 18.2475 10.1688C18.0719 10.3172 18.0674 9.63484 17.8359 9.37201C17.4346 8.91622 16.9413 8.80039 16.4124 8.74596C15.8835 8.69152 14.0118 11.4825 13.5511 11.7468C13.0679 12.0351 12.6924 12.4722 12.4816 12.992C12.2708 13.5118 12.2361 14.0858 12.383 14.627C12.1417 14.5621 10.5489 14.5581 10.3057 14.6154C10.0624 14.6726 9.83736 14.7893 9.65082 14.9548C9.46428 15.1203 9.32215 15.3295 9.23728 15.5634C9.15242 15.7973 9.12749 16.0485 9.16475 16.2944C8.62639 16.1865 10.7454 18.934 10.2502 19.1702C9.75502 19.4065 9.35063 19.7967 9.09818 20.2819C8.84572 20.7671 8.75892 21.3209 8.8509 21.8595C8.94288 22.3981 9.20865 22.8923 9.60801 23.2673C9.27821 23.3435 8.98346 23.5271 8.77059 23.7891C8.55771 24.051 8.43892 24.3762 8.43309 24.7129C8.42725 25.0497 8.5347 25.3788 8.73838 25.6478C8.94205 25.9169 9.23026 26.1105 9.55722 26.198V26.7033L11.1317 27.057" fill="#40372F"/>
<path d="M13.7639 26.39C15.447 26.39 16.8113 25.0327 16.8113 23.3583C16.8113 21.6839 15.447 20.3266 13.7639 20.3266C12.0809 20.3266 10.7166 21.6839 10.7166 23.3583C10.7166 25.0327 12.0809 26.39 13.7639 26.39Z" fill="#8C7A6A"/>
<path d="M18.444 15.6571C19.6011 15.6571 20.5391 14.7239 20.5391 13.5727C20.5391 12.4216 19.6011 11.4884 18.444 11.4884C17.2869 11.4884 16.3489 12.4216 16.3489 13.5727C16.3489 14.7239 17.2869 15.6571 18.444 15.6571Z" fill="#8C7A6A"/>
<path d="M11.8849 17.9818C12.5302 17.9818 13.0533 17.4614 13.0533 16.8195C13.0533 16.1775 12.5302 15.6571 11.8849 15.6571C11.2397 15.6571 10.7166 16.1775 10.7166 16.8195C10.7166 17.4614 11.2397 17.9818 11.8849 17.9818Z" fill="#8C7A6A"/>
<path d="M24.1835 19.1442C24.8288 19.1442 25.3519 18.6238 25.3519 17.9819C25.3519 17.3399 24.8288 16.8195 24.1835 16.8195C23.5382 16.8195 23.0151 17.3399 23.0151 17.9819C23.0151 18.6238 23.5382 19.1442 24.1835 19.1442Z" fill="#8C7A6A"/>
<path d="M23.0149 27.5875C24.6979 27.5875 26.0623 26.2302 26.0623 24.5558C26.0623 22.8814 24.6979 21.5241 23.0149 21.5241C21.3319 21.5241 19.9675 22.8814 19.9675 24.5558C19.9675 26.2302 21.3319 27.5875 23.0149 27.5875Z" fill="#8C7A6A"/>
<path d="M33.0728 25.6502C34.7558 25.6502 36.1202 24.2929 36.1202 22.6185C36.1202 20.9441 34.7558 19.5868 33.0728 19.5868C31.3898 19.5868 30.0254 20.9441 30.0254 22.6185C30.0254 24.2929 31.3898 25.6502 33.0728 25.6502Z" fill="#8C7A6A"/>
<path d="M37.3899 25.4147C37.3899 29.301 35.8381 33.0281 33.0759 35.7761C30.3137 38.5242 26.5673 40.068 22.6609 40.068C18.7545 40.068 15.0081 38.5242 12.2459 35.7761C9.48369 33.0281 7.93188 29.301 7.93188 25.4147H37.3899Z" fill="#EDD7C3"/>
<path d="M29.2636 25.4147C29.2636 33.4993 27.232 40.068 22.6609 40.068C26.5664 40.0653 30.3113 38.5206 33.0729 35.7732C35.8346 33.0257 37.3872 29.3002 37.3899 25.4147H29.2636Z" fill="#DFC6B0"/>
<path d="M33.681 16.8195C34.2917 16.8195 34.7868 16.327 34.7868 15.7194C34.7868 15.1118 34.2917 14.6193 33.681 14.6193C33.0703 14.6193 32.5752 15.1118 32.5752 15.7194C32.5752 16.327 33.0703 16.8195 33.681 16.8195Z" fill="#8C7A6A"/>
<path d="M26.5202 14.2457C27.7416 14.2457 28.7317 13.2606 28.7317 12.0455C28.7317 10.8304 27.7416 9.84534 26.5202 9.84534C25.2987 9.84534 24.3086 10.8304 24.3086 12.0455C24.3086 13.2606 25.2987 14.2457 26.5202 14.2457Z" fill="#8C7A6A"/>
</svg>
