<svg width="48" height="48" viewBox="0 0 48 48" fill="none" xmlns="http://www.w3.org/2000/svg">
<circle cx="24" cy="24" r="23.5" stroke="#EDD7C3"/>
<g clip-path="url(#clip0_303_3772)">
<path d="M36.8341 23.8506C36.3145 14.818 31.6483 13.4973 27.8863 13.4969H27.8859C26.9353 13.4973 26.0435 13.5813 25.29 13.6473C25.2835 13.2364 25.3011 12.7965 25.3701 12.3103C25.3714 12.3035 25.3684 12.2975 25.3675 12.291C25.3684 12.2876 25.3701 12.2842 25.3701 12.2807C25.3701 12.1295 25.0856 12.0066 24.7335 12.0066C24.3822 12.0066 24.0978 12.1295 24.0978 12.2807C24.0015 12.7708 23.8702 13.2534 23.705 13.7248C18.7415 13.7548 12.2032 14.5421 11.2051 23.5439C10.4812 30.077 16.8618 35.9954 24.04 35.9954C31.2182 35.9954 37.2115 30.4158 36.8341 23.8506ZM25.5573 14.9139C25.7325 14.8985 25.9141 14.8827 26.1009 14.8677C25.8764 14.9581 25.6584 15.0519 25.4532 15.1461C25.4382 15.0784 25.4279 14.9979 25.4142 14.9259L25.5573 14.9139ZM23.176 15.0159C23.1198 15.1328 23.065 15.2451 23.0123 15.3483C22.886 15.234 22.7525 15.1278 22.6126 15.0305C22.8003 15.024 22.9879 15.0198 23.176 15.0159ZM32.8447 30.9946C30.615 33.3562 27.4057 34.7103 24.04 34.7103C20.61 34.7103 17.2032 33.1921 14.9259 30.6493C13.081 28.5884 12.2131 26.1154 12.4825 23.6853C12.9884 19.124 15.0065 16.9453 17.5964 15.9133C20.1058 15.4473 22.467 16.3032 22.467 16.3032C22.467 16.3032 17.0999 14.9709 14.9953 21.8668C17.644 17.7378 22.2018 18.9531 23.4008 17.4311C23.4008 20.3735 25.5393 18.9458 26.6201 20.2712C28.0106 21.9752 28.5195 25.0286 30.119 25.6301C28.5434 22.2477 31.1231 22.3796 27.4986 17.8402C29.4079 19.0263 30.3979 17.826 33.0049 18.8948C30.7744 15.2489 27.2061 16.3032 27.2061 16.3032C27.2061 16.3032 28.6582 14.9799 30.1978 15.0168C32.7989 15.6242 35.1913 17.6679 35.5516 23.9247C35.6981 26.48 34.7368 28.9907 32.8447 30.9946Z" fill="#EDD7C3"/>
</g>
<defs>
<clipPath id="clip0_303_3772">
<rect width="25.7023" height="23.9888" fill="white" transform="translate(11.1489 12.0066)"/>
</clipPath>
</defs>
</svg>
