<svg width="48" height="48" viewBox="0 0 48 48" fill="none" xmlns="http://www.w3.org/2000/svg">
<circle cx="24" cy="24" r="23.5" stroke="#EDD7C3"/>
<path d="M17 11.0002V25.6253C17 26.1453 17.1399 26.6003 17.385 27.0227C17.8049 27.7377 18.575 28.2902 19.45 28.4851V35.7001H17.7C17.3149 35.7001 17 35.9926 17 36.3501C17 36.7076 17.315 37 17.7 37H22.5998C22.9848 37 23.2998 36.7076 23.2998 36.3501C23.2998 35.9925 22.9848 35.7001 22.5998 35.7001H20.8498V28.4851C21.4448 28.3552 21.97 28.0952 22.3899 27.705C22.46 27.64 22.5298 27.5751 22.5999 27.5101C22.7398 27.3802 22.845 27.2176 22.95 27.0551C23.1599 26.6001 23.2998 26.1451 23.2998 25.625V11L17 11.0002ZM19.2749 23.3503C18.7849 23.3503 18.3999 22.9928 18.3999 22.5378C18.3999 22.0828 18.7849 21.7253 19.2749 21.7253C19.7649 21.7253 20.1499 22.0828 20.1499 22.5378C20.1499 22.9928 19.7649 23.3503 19.2749 23.3503ZM19.0998 17.9876C19.0998 17.7276 19.3449 17.5002 19.6247 17.5002C19.9048 17.5002 20.1496 17.7278 20.1496 17.9876C20.1499 18.2477 19.9048 18.4753 19.625 18.4753C19.3449 18.4753 19.0998 18.2477 19.0998 17.9876ZM20.1499 20.7503C19.7649 20.7503 19.45 20.4578 19.45 20.1003C19.45 19.7428 19.7649 19.4504 20.1499 19.4504C20.5349 19.4504 20.8498 19.7428 20.8498 20.1003C20.8498 20.4578 20.5349 20.7503 20.1499 20.7503ZM21.8999 16.0051L20.8498 16.1026V16.1677C20.8498 16.3626 20.7099 16.4928 20.4997 16.4928C20.2898 16.4928 20.1496 16.3629 20.1496 16.1677L18.3996 16.3626L18.3999 12.3001H21.8999L21.8999 16.0051Z" fill="#EDD7C3"/>
<path d="M25.6155 16.0002V27.8127C25.6155 28.2328 25.735 28.6003 25.9446 28.9414C26.3035 29.5189 26.9616 29.9651 27.7095 30.1226V35.9501H26.2137C25.8847 35.9501 25.6155 36.1863 25.6155 36.475C25.6155 36.7638 25.8847 37 26.2137 37H30.4018C30.7309 37 31.0001 36.7638 31.0001 36.475C31.0001 36.1863 30.7309 35.9501 30.4018 35.9501H28.906V30.1226C29.4146 30.0177 29.8634 29.8076 30.2224 29.4925C30.2823 29.44 30.3419 29.3876 30.4018 29.3351C30.5214 29.2301 30.6113 29.0989 30.7011 28.9676C30.8805 28.6001 31.0001 28.2326 31.0001 27.8125V16L25.6155 16.0002ZM27.5599 25.9752C27.1411 25.9752 26.812 25.6865 26.812 25.319C26.812 24.9515 27.1411 24.6627 27.5599 24.6627C27.9787 24.6627 28.3078 24.9515 28.3078 25.319C28.3078 25.6865 27.9787 25.9752 27.5599 25.9752ZM27.4103 21.6439C27.4103 21.4338 27.6198 21.2502 27.8589 21.2502C28.0983 21.2502 28.3075 21.434 28.3075 21.6439C28.3078 21.8539 28.0982 22.0377 27.8591 22.0377C27.6198 22.0377 27.4103 21.8539 27.4103 21.6439ZM28.3078 23.8752C27.9787 23.8752 27.7095 23.639 27.7095 23.3503C27.7095 23.0615 27.9787 22.8253 28.3078 22.8253C28.6368 22.8253 28.906 23.0615 28.906 23.3503C28.906 23.639 28.6368 23.8752 28.3078 23.8752ZM29.8035 20.0426L28.906 20.1213V20.1739C28.906 20.3314 28.7865 20.4365 28.6068 20.4365C28.4273 20.4365 28.3075 20.3316 28.3075 20.1739L26.8118 20.3314L26.812 17.0501H29.8035L29.8035 20.0426Z" fill="#EDD7C3"/>
</svg>
