<svg width="48" height="48" viewBox="0 0 48 48" fill="none" xmlns="http://www.w3.org/2000/svg">
<circle cx="24" cy="24" r="23.5" stroke="#EDD7C3"/>
<g clip-path="url(#clip0_305_3661)">
<path d="M18.3008 33.1143C18.2341 33.1126 18.3647 33.1199 18.3008 33.1143V33.1143Z" fill="#EDD7C3"/>
<path d="M33.1329 32.1753C31.8809 30.7975 31.2796 29.1246 30.1152 27.7926C29.9796 27.6348 29.8379 27.4824 29.6903 27.3356C30.235 26.6789 30.4673 25.91 31.1481 25.3457C31.9488 24.6532 33.4122 24.297 34.1076 23.6258C34.7527 22.9655 34.6767 21.9892 35.2394 21.3501C35.4452 21.1029 35.7458 20.9088 36.0573 20.7243C35.8206 20.5772 35.6028 20.4016 35.409 20.2014C35.3434 20.1324 35.281 20.0603 35.2221 19.9855C34.9637 19.6511 34.7205 19.3991 34.4958 19.2098C34.024 18.789 33.5718 18.6604 33.1666 18.5535C32.829 18.4614 32.5103 18.377 32.2543 18.1202C32.1333 17.9908 32.0268 17.8123 31.9488 17.5715C31.9158 17.4639 31.8795 17.3574 31.8399 17.252C31.6445 16.6728 31.3845 16.2942 31.1622 16.0547C30.7719 16.2878 30.36 16.51 29.9994 16.8726C29.3009 17.539 28.8439 18.6403 28.0613 19.3264C27.2293 20.0273 26.028 20.3272 25.0915 21.0495C24.9769 21.1347 24.87 21.2299 24.7635 21.3252C24.5915 20.9956 24.4062 20.6789 24.1895 20.3863C23.3792 19.2504 22.1272 18.5209 21.4287 17.4449C20.7795 16.3991 20.6389 14.9759 20.0794 13.9799C19.7968 13.4445 19.4074 13.0575 19.0456 12.6636C18.7152 12.871 18.294 13.2271 17.8768 13.838C17.8008 13.9401 17.7217 14.0539 17.6445 14.1732C17.4749 14.4301 17.2944 14.6009 17.1139 14.7142C16.7486 14.9252 16.3712 14.9285 15.9729 14.9285H15.9383C15.4451 14.9228 14.8921 14.9293 14.2172 15.2681C13.8997 15.4156 13.5388 15.6338 13.1348 15.9385C13.0432 16.0062 12.9485 16.0697 12.8511 16.1286C12.5508 16.3075 12.2433 16.4409 11.9419 16.5322C12.2321 16.8437 12.5026 17.1656 12.6513 17.5173C13.0685 18.4373 12.6501 19.5482 13.1537 20.5161C13.71 21.5153 15.2373 22.3939 15.9049 23.453C16.5762 24.4667 16.4552 25.6146 17.095 26.6857C16.419 27.2914 15.7626 27.9325 14.9335 28.4309C14.0717 28.9418 12.9941 29.3264 11.9419 29.7424C12.0729 30.0117 12.3603 30.3067 12.9302 30.5189C13.2361 30.6266 14.206 30.775 14.2554 30.7794C14.831 30.8553 15.1344 31.0197 15.302 31.2267C15.6115 31.5917 15.5372 32.1074 15.9608 32.5109C16.2956 32.7975 17.0106 33.0378 18.3004 33.1138C19.0926 33.1435 19.8398 33.2488 20.3173 33.3923C20.9664 33.146 21.6055 32.8992 22.1485 32.6218C22.3913 33.1849 22.669 33.7505 23.1413 34.3051C23.7064 34.9518 24.534 35.5865 25.3772 36.2259C25.9628 36.2127 26.6859 36.2894 27.5886 36.5053C27.6646 36.5258 27.7494 36.5455 27.8226 36.5595C28.5328 36.7151 29.0891 36.7794 29.5272 36.7794C30.0022 36.7794 30.3395 36.7038 30.587 36.5849C31.2016 36.2505 31.2928 35.6295 31.7655 35.3035C31.954 35.1681 32.239 35.0849 32.6377 35.0849C32.8125 35.0857 32.987 35.0993 33.1598 35.1255L33.1494 35.123C33.5871 35.201 34.0549 35.2412 34.4182 35.2412C34.5131 35.2412 34.6011 35.2384 34.6795 35.2328C35.3945 35.1677 35.8178 34.9181 36.0581 34.6447C35.0127 33.8292 33.9295 33.0418 33.1329 32.1753ZM33.2695 21.4044C33.407 21.0748 33.5372 20.7629 33.7338 20.5064C33.903 20.2729 34.1473 20.0587 34.4066 19.8316L34.4934 19.7556C34.6039 19.8686 34.7157 19.9948 34.827 20.1326C34.5971 20.3091 34.3797 20.498 34.2113 20.7163C33.9275 21.0651 33.7836 21.4663 33.6441 21.8541C33.4918 22.2778 33.3483 22.6777 33.0404 22.9622C32.7012 23.2605 32.1606 23.4852 31.5875 23.7231C31.0252 23.9562 30.4436 24.1978 29.9842 24.5386C29.4886 24.8935 29.1437 25.3356 28.8101 25.7637C28.6867 25.9221 28.5637 26.074 28.4371 26.2231C28.2044 26.0306 27.9721 25.8397 27.7442 25.6479C27.7916 25.5989 27.8403 25.5499 27.8869 25.5012C28.2755 25.0977 28.6425 24.7163 29.0882 24.4353C29.5022 24.166 30.0332 23.9703 30.5461 23.781C31.1739 23.5495 31.8222 23.3099 32.3045 22.9172C32.8186 22.4827 33.0581 21.9096 33.2695 21.4044ZM26.3025 22.3831C26.7241 22.0953 27.2281 21.8907 27.7157 21.6933C28.294 21.4586 28.8933 21.2159 29.3821 20.822C29.8821 20.4027 30.2004 19.8626 30.5083 19.34C30.7217 18.9775 30.9235 18.6347 31.1747 18.3577C31.3203 18.1959 31.479 18.0464 31.6494 17.9108C31.7325 18.0993 31.8391 18.2633 31.9709 18.4047C32.1051 18.539 32.2506 18.6367 32.4014 18.7122C32.2439 18.8587 32.0985 19.0175 31.9665 19.1873C31.708 19.5121 31.5288 19.8826 31.3551 20.2416C31.1196 20.7275 30.8973 21.1865 30.5095 21.506C30.1224 21.8095 29.5742 22.0064 28.9938 22.2155C28.4488 22.4112 27.8845 22.6142 27.3901 22.9257C26.9214 23.2122 26.5155 23.5852 26.1256 23.9574C25.9182 23.6441 25.7308 23.318 25.5645 22.9811C25.8021 22.7581 26.0432 22.5527 26.3025 22.3831ZM15.3679 30.742C15.1131 30.5587 14.7663 30.4418 14.2996 30.3799C14.2815 30.3779 14.2494 30.373 14.2064 30.3666C14.8491 30.0676 15.4893 29.7565 16.0155 29.4188C16.4512 29.1335 17.3105 28.5989 18.298 27.9912C18.5215 28.1837 18.7574 28.3762 18.9954 28.5692C18.1815 29.0692 17.4942 29.5037 17.1272 29.7613C16.6437 30.0901 16.0251 30.4076 15.3679 30.742ZM18.9552 29.4968C19.1091 29.2991 19.2904 29.1078 19.4616 28.949C19.5484 29.0201 19.6344 29.0913 19.7201 29.1628C19.6746 29.2207 19.6288 29.2786 19.5742 29.3461C18.5862 30.5205 16.7586 31.0105 16.7586 31.0105C18.011 30.4984 18.6979 29.8212 18.9552 29.4968ZM20.7703 31.4277C20.1409 31.8449 19.325 32.2123 18.4616 32.6009L18.2265 32.707C17.6043 32.6652 17.1654 32.5865 16.8559 32.4988C16.9942 32.4289 17.1324 32.3602 17.2687 32.2922C17.9805 31.9369 18.6533 31.6013 19.1867 31.234C19.5135 31.0041 20.1003 30.6262 20.8029 30.1861C20.8611 30.2521 20.9178 30.318 20.9705 30.3847C21.1377 30.5897 21.2763 30.7979 21.3997 31.0081C21.1417 31.1777 20.9266 31.3212 20.7703 31.4277ZM29.5272 36.3775C29.116 36.3775 28.6047 36.3144 28.0071 36.1886C27.8274 36.0338 27.6453 35.8795 27.4636 35.7263C26.7008 35.08 25.9801 34.4695 25.4817 33.8682C24.9898 33.2617 24.7068 32.6391 24.4078 31.9799C24.087 31.2746 23.7558 30.5451 23.159 29.8574C22.5999 29.1978 21.827 28.6178 21.0786 28.0567C20.3672 27.5229 19.6955 27.0189 19.2446 26.4876C18.8012 25.9474 18.5733 25.3525 18.3322 24.7219C18.1035 24.1246 17.8672 23.5069 17.4391 22.951C17.0368 22.4084 16.466 21.947 15.9142 21.5004C15.345 21.0398 14.8073 20.6045 14.5271 20.1507C14.2626 19.6966 14.2357 19.1769 14.2076 18.6266C14.1823 18.1391 14.1569 17.6355 13.9648 17.1616C13.8398 16.8284 13.6384 16.5205 13.423 16.2251C13.6285 16.0709 13.843 15.929 14.0653 15.8002L14.1638 15.9594C14.382 16.3099 14.5882 16.6407 14.7064 16.9847C14.8402 17.3433 14.8816 17.7516 14.925 18.1841C14.9897 18.8288 15.0637 19.5595 15.4893 20.2191C15.8884 20.8103 16.5331 21.2894 17.1561 21.7528C17.6738 22.1379 18.2092 22.5358 18.593 22.9904C19.001 23.459 19.2864 24.0209 19.589 24.6158C19.9363 25.2999 20.296 26.0073 20.8772 26.6399C21.4299 27.2243 22.1594 27.736 22.8652 28.2311C23.6047 28.7496 24.3692 29.2862 24.9198 29.8992C25.5163 30.5507 25.8732 31.2629 26.251 32.0173C26.581 32.6769 26.9222 33.3582 27.4427 34.023C27.9142 34.6126 28.5585 35.2151 29.241 35.8534C29.4223 36.0226 29.6059 36.195 29.788 36.3678C29.7012 36.3744 29.6142 36.3776 29.5272 36.3775ZM27.5907 31.7645C26.7603 29.7484 26.1204 29.2384 23.7136 27.6001C21.5115 26.0881 21.2502 24.322 21.2502 24.322C21.7 25.1423 22.331 26.1833 25.1815 28.0973C26.9966 29.3087 27.7884 30.9635 28.2362 32.1355C28.4158 32.5957 28.96 33.5989 30.198 34.5909C30.1976 34.5909 28.3041 33.4414 27.5907 31.7645ZM33.2137 34.7267L33.2129 34.7283L33.2036 34.7255L33.1799 34.7223C33.0001 34.6973 32.8188 34.6841 32.6373 34.6829C32.3278 34.6829 32.0593 34.7271 31.8342 34.8144C31.1948 34.2066 30.5935 33.6315 30.1554 33.0865C29.6775 32.4795 29.3238 31.8216 28.9813 31.1849C28.5505 30.3835 28.1043 29.5543 27.4102 28.8111C26.782 28.1246 25.987 27.5736 25.2181 27.041C24.5267 26.5623 23.874 26.1098 23.3672 25.5864C22.8435 25.035 22.4644 24.3553 22.0975 23.6982C21.751 23.0768 21.3921 22.4345 20.9158 21.9023C20.4632 21.3835 19.8989 20.9711 19.3527 20.5716C18.7659 20.1423 18.2112 19.7371 17.8784 19.2629C17.5348 18.7456 17.4383 18.1338 17.3366 17.4863C17.2631 17.0201 17.1875 16.5382 17.0143 16.0969C16.9134 15.8203 16.7727 15.5547 16.6232 15.2962C16.8709 15.2615 17.1097 15.1795 17.3266 15.0547C17.5408 14.9173 17.728 14.7416 17.8788 14.5366C18.0452 14.7805 18.2008 15.0313 18.3181 15.2934C18.507 15.6937 18.6188 16.16 18.7373 16.6531C18.9049 17.3501 19.0782 18.0707 19.4962 18.7142C19.9037 19.3083 20.4906 19.7757 21.0585 20.2275C21.5444 20.6146 22.0468 21.0145 22.4343 21.4944C22.8435 21.9823 23.1602 22.5756 23.495 23.2038C23.8772 23.9208 24.2727 24.662 24.8431 25.3063C25.3965 25.9172 26.0987 26.4357 26.7776 26.9369C27.4673 27.4466 28.1799 27.9727 28.7382 28.5973C29.3326 29.2464 29.7555 29.9795 30.2032 30.7565C30.6176 31.4755 31.0465 32.2195 31.6337 32.9185C32.1642 33.5402 32.8427 34.1443 33.5641 34.7802C33.447 34.7647 33.3301 34.7469 33.2137 34.7267Z" fill="#EDD7C3"/>
<path d="M21.3394 21.7545C21.3394 21.7545 22.1336 22.5459 22.6312 23.6652C23.3792 25.2754 24.8993 26.1419 24.8993 26.1419C22.9181 24.6765 23.2333 22.7774 21.3394 21.7545Z" fill="#EDD7C3"/>
</g>
<defs>
<clipPath id="clip0_305_3661">
<rect width="25.7235" height="25.7235" fill="white" transform="translate(11.1382 11.8597)"/>
</clipPath>
</defs>
</svg>
