<svg width="48" height="48" viewBox="0 0 48 48" fill="none" xmlns="http://www.w3.org/2000/svg">
<circle cx="24" cy="24" r="23.5" stroke="#EDD7C3"/>
<path d="M31.9435 14.6258C31.6021 12.5253 29.823 11 27.7134 11C27.4813 11 27.2473 11.0193 27.0166 11.0573C25.8855 11.2435 24.8943 11.8623 24.2251 12.7996C23.5557 13.7368 23.2892 14.8809 23.4742 16.0201C23.489 16.1109 23.5098 16.1992 23.5297 16.2876H20.9592L20.4525 13.083C20.3953 12.7189 20.2003 12.3988 19.9034 12.1824C19.6072 11.9659 19.2451 11.879 18.8829 11.9365L16.2888 12.3529C16.1016 12.383 15.9745 12.56 16.0044 12.7481C16.0342 12.9361 16.2099 13.0652 16.3966 13.0349L18.9907 12.6185C19.1695 12.5898 19.3529 12.6329 19.5011 12.7413C19.6495 12.8494 19.7468 13.0091 19.7755 13.1914L20.2653 16.2877H19.0206C18.9551 16.1374 18.903 16.0332 18.8855 15.9987C18.7988 15.8289 18.5922 15.7615 18.4242 15.8485C18.2557 15.9351 18.1887 16.1432 18.2748 16.3132C18.4369 16.6318 18.8389 17.5806 18.7579 18.1363C18.6486 18.8889 17.6839 22.6331 17.6743 22.6712C17.6712 22.6825 17.6688 22.694 17.6671 22.7056C17.4728 23.9843 17.8964 25.345 18.8296 26.4402C19.7905 27.5674 21.1265 28.2417 22.5371 28.3373V36.3094H19.9189C19.7294 36.3094 19.5761 36.464 19.5761 36.6547C19.5761 36.8452 19.7294 37 19.9189 37H25.8407C26.0303 37 26.1835 36.8454 26.1835 36.6547C26.1835 36.4642 26.0303 36.3094 25.8407 36.3094H23.2223L23.2225 28.3379C24.6845 28.2464 26.0417 27.5846 26.986 26.4772C27.9029 25.4017 28.2947 24.0624 28.0891 22.7059C28.0875 22.6931 28.0846 22.6806 28.0815 22.6683C28.075 22.645 27.6388 21.0082 27.317 19.6291C27.4444 19.6404 27.5733 19.6465 27.7036 19.6465C27.9357 19.6465 28.1697 19.6272 28.4004 19.5891C30.7356 19.2043 32.325 16.9781 31.9434 14.6256L31.9435 14.6258ZM28.2905 18.9078C28.0966 18.9396 27.8987 18.9562 27.7041 18.9562C27.5176 18.9562 27.3353 18.9389 27.1562 18.9116C27.0883 18.5947 27.0345 18.3176 27.0047 18.1136C26.8741 17.2219 27.4505 16.3661 27.4591 16.3538C27.5666 16.1975 27.5286 15.9827 27.3737 15.8737C27.2188 15.7638 27.0047 15.8026 26.8964 15.9594C26.8868 15.9736 26.8048 16.094 26.7051 16.2888H24.2344C24.2005 16.1648 24.1713 16.0388 24.1505 15.9098C23.9949 14.9528 24.2191 13.9918 24.7814 13.2038C25.3438 12.4162 26.1769 11.8962 27.1271 11.7397C27.3209 11.7079 27.5189 11.6913 27.7134 11.6913C29.4859 11.6913 30.9804 12.9729 31.2668 14.7382C31.5876 16.7141 30.2525 18.5848 28.2904 18.9078L28.2905 18.9078Z" fill="#EDD7C3"/>
<path d="M27.7276 13.5218L27.5988 12.547C27.5742 12.3583 27.4018 12.2246 27.2139 12.2506C27.026 12.2759 26.8941 12.4495 26.9197 12.6383L27.0485 13.6131C27.0712 13.7867 27.2185 13.9126 27.3877 13.9126C27.4028 13.9126 27.4178 13.9117 27.4334 13.9095C27.6208 13.8847 27.7527 13.7111 27.7276 13.5218L27.7276 13.5218Z" fill="#EDD7C3"/>
<path d="M29.7014 13.2616C29.8121 13.107 29.7772 12.8912 29.6233 12.7797C29.4698 12.6682 29.2556 12.7034 29.1449 12.8585L28.6398 13.5655C28.5292 13.7201 28.5641 13.9358 28.718 14.0473C28.7787 14.0912 28.8485 14.1124 28.9178 14.1124C29.0245 14.1124 29.1294 14.0623 29.1961 13.9688L29.7014 13.2616Z" fill="#EDD7C3"/>
<path d="M25.512 13.4175C25.358 13.306 25.1443 13.3417 25.0336 13.4963C24.923 13.6509 24.9579 13.8666 25.1118 13.9781L25.8767 14.5325C25.9375 14.5763 26.0073 14.5975 26.0766 14.5975C26.1832 14.5975 26.2881 14.5474 26.3548 14.454C26.4655 14.2994 26.4306 14.0836 26.2767 13.9721L25.512 13.4175Z" fill="#EDD7C3"/>
<path d="M27.9402 16.7637C27.7528 16.7921 27.624 16.9676 27.6517 17.1562L27.7906 18.0927C27.8159 18.2639 27.9622 18.3867 28.1291 18.3867C28.1458 18.3867 28.163 18.3857 28.1797 18.3828C28.3672 18.3544 28.496 18.1789 28.4683 17.9903L28.3294 17.0538C28.3017 16.866 28.1283 16.7362 27.9402 16.7637H27.9402Z" fill="#EDD7C3"/>
<path d="M29.5532 16.0634C29.399 15.9517 29.1851 15.9876 29.0749 16.1424C28.9645 16.297 28.9996 16.5128 29.1533 16.6243L29.8685 17.142C29.9293 17.1858 29.9991 17.207 30.0684 17.207C30.1752 17.207 30.2802 17.1569 30.3471 17.063C30.4575 16.9079 30.4224 16.6927 30.2687 16.5812L29.5532 16.0634Z" fill="#EDD7C3"/>
<path d="M30.3585 14.5376L29.4227 14.712C29.2367 14.7469 29.1136 14.9268 29.1478 15.1146C29.1784 15.2808 29.3225 15.3971 29.4844 15.3971C29.5052 15.3971 29.5257 15.3954 29.547 15.3913L30.4828 15.217C30.6688 15.182 30.7919 15.0022 30.7577 14.8143C30.7236 14.6263 30.5443 14.5027 30.3585 14.5376V14.5376Z" fill="#EDD7C3"/>
<path d="M25.8007 15.2997L24.9186 15.4335C24.7315 15.462 24.6026 15.638 24.6308 15.8263C24.6566 15.9975 24.8029 16.1201 24.9693 16.1201C24.986 16.1201 25.0035 16.1191 25.0207 16.1162L25.9028 15.9823C26.0899 15.9539 26.2188 15.7779 26.1906 15.5896C26.1626 15.4013 25.9917 15.2705 25.8007 15.2997H25.8007Z" fill="#EDD7C3"/>
</svg>
