<svg width="48" height="48" viewBox="0 0 48 48" fill="none" xmlns="http://www.w3.org/2000/svg">
<circle cx="24" cy="24" r="23.5" stroke="#EDD7C3"/>
<path d="M29.2083 23.4764H29.6819V22.5104H19.2612V23.4764H29.2083Z" fill="#EDD7C3"/>
<path d="M28.5789 26.1673L28.6997 24.4423H21.9043L28.4842 27.519L28.5789 26.1673Z" fill="#EDD7C3"/>
<path d="M22.4022 30.9398C22.314 30.4919 22.0272 30.1109 21.6259 29.9082C21.2245 29.7055 20.7536 29.7038 20.3508 29.9037C20.3404 29.9097 20.3296 29.9151 20.3188 29.9201C20.1873 29.9899 20.0672 30.0798 19.9625 30.1866C19.7642 30.3893 19.5193 30.538 19.2501 30.6191C19.2478 30.6683 19.2459 30.7174 19.2446 30.7664C19.2489 30.5973 19.2599 30.4276 19.2783 30.2601H19.278C19.3396 29.6924 19.4808 29.1367 19.698 28.6102C19.7995 28.3644 19.6862 28.0813 19.4449 27.9778C19.2038 27.8745 18.9262 27.99 18.8247 28.2359C18.5724 28.848 18.4079 29.494 18.3364 30.1538C18.3193 30.312 18.3079 30.472 18.3015 30.6333C18.3015 30.6299 18.3015 30.6264 18.3019 30.6232C18.0271 30.5432 17.7767 30.3929 17.5747 30.1868C17.4777 30.0876 17.3671 30.0031 17.2467 29.9356C17.2393 29.9317 17.2319 29.9278 17.2248 29.9235C16.8213 29.7079 16.3417 29.6988 15.9306 29.8987C15.5196 30.0988 15.2248 30.4845 15.1351 30.9399C14.7564 32.8868 15.1817 34.9066 16.3107 36.5238L16.3809 36.6241V36.6243C16.549 36.8643 16.822 37.0046 17.111 36.9999C17.4003 36.9951 17.6686 36.8457 17.8291 36.6006L18.3747 35.7661H18.3745C18.4625 35.6318 18.6103 35.5512 18.7687 35.5512C18.927 35.5512 19.0748 35.6318 19.1628 35.7661L19.7084 36.6006H19.7082C19.8687 36.8457 20.137 36.9951 20.4263 36.9999C20.7154 37.0046 20.9884 36.8643 21.1564 36.6243L21.2269 36.524V36.5238C22.3557 34.9069 22.7809 32.8869 22.4022 30.9399L22.4022 30.9398ZM17.0852 31.6056V31.6058C16.9793 31.5353 16.9055 31.4247 16.8799 31.2983C16.8545 31.172 16.8797 31.0406 16.9499 30.9333C17.0201 30.8261 17.1292 30.7517 17.2533 30.7271C17.3775 30.7026 17.506 30.7295 17.6107 30.802C17.8192 30.9438 18.0512 31.0463 18.2954 31.1043V30.9154C18.2954 30.8634 18.2962 30.8114 18.2975 30.7595C18.2962 30.8132 18.2954 30.8669 18.2954 30.9208L18.3081 32.0909C17.8706 32.0221 17.4531 31.8565 17.0848 31.6058L17.0852 31.6056ZM20.4527 31.6056L20.4525 31.6058C20.0917 31.8514 19.6836 32.0152 19.2554 32.0866L19.2446 31.1038V31.1036C19.488 31.0454 19.7192 30.9432 19.927 30.8017C20.0317 30.7293 20.1602 30.7023 20.2844 30.7269C20.4085 30.7515 20.5176 30.8259 20.5878 30.933C20.658 31.0404 20.6832 31.1717 20.6578 31.2981C20.6322 31.4242 20.5584 31.535 20.4525 31.6055L20.4527 31.6056Z" fill="#EDD7C3"/>
<path d="M26.4417 36.0644C25.9204 35.1881 25.762 34.1367 26.0012 33.1414C26.2402 32.1462 26.8572 31.2884 27.7166 30.7569C27.8957 30.6465 28.0835 30.5512 28.2778 30.4719L28.4123 28.5479L20.2646 24.7383L20.5512 28.8297C21.1691 28.7137 21.807 28.85 22.3272 29.2094C22.8475 29.5689 23.2082 30.1226 23.3315 30.7509C23.754 32.9241 23.294 35.1791 22.0564 36.9999H27.2212C26.9142 36.7323 26.6512 36.4165 26.4418 36.0641L26.4417 36.0644Z" fill="#EDD7C3"/>
<path d="M32.9313 28.0556C32.7955 27.8277 32.5041 27.7551 32.2806 27.8933C31.0929 28.6236 30.2343 29.8007 29.8896 31.1705C29.8186 31.1651 29.7475 31.1612 29.6765 31.1612C28.8097 31.1631 27.9911 31.5683 27.4534 32.2615C26.9157 32.9545 26.7171 33.8599 26.9146 34.7205C27.1119 35.5812 27.6835 36.3029 28.467 36.6809C28.4788 36.6858 28.4906 36.691 28.5019 36.6968V36.6971C28.664 36.7721 28.8328 36.8318 29.0055 36.8752C29.9364 37.1065 30.9188 36.8441 31.619 36.1774C32.3191 35.5105 32.6424 34.529 32.4794 33.5662C32.3164 32.6037 31.6888 31.7897 30.8097 31.401C31.0952 30.2799 31.7995 29.3174 32.7721 28.7191C32.9958 28.5807 33.0668 28.2837 32.9313 28.0556V28.0556ZM28.7966 32.2473V32.2475C28.6609 32.0194 28.7323 31.7223 28.9558 31.584C29.1796 31.4456 29.471 31.5183 29.6065 31.7464C29.6317 31.788 29.6602 31.8273 29.6917 31.8641L29.4046 32.8657C29.1559 32.7128 28.9474 32.5007 28.7967 32.2475L28.7966 32.2473ZM30.6295 36.0338H29.6822V35.0678H30.6295V36.0338ZM31.5769 34.5849H30.6295V33.6189H31.5769V34.5849ZM30.7961 32.0436C31.0199 31.9051 31.3113 31.978 31.4468 32.2059C31.5826 32.4341 31.5113 32.7312 31.2876 32.8694C31.0051 33.0447 30.6809 33.1374 30.3502 33.1372C30.3384 33.1372 30.3265 33.1364 30.3143 33.1361L30.6349 32.1216V32.1214C30.6911 32.1012 30.7452 32.0753 30.7962 32.0436L30.7961 32.0436Z" fill="#EDD7C3"/>
<path d="M24.9452 21.5444H28.7346V21.0614C28.7331 19.9926 28.3461 18.9617 27.6472 18.1652C26.9486 17.3687 25.9866 16.862 24.9452 16.7419V13.5922L27.5764 11.8036L27.0509 11L24.2089 12.9319L24.2087 12.9317C24.0769 13.0214 23.9978 13.1722 23.9978 13.3336V16.7419C22.9564 16.862 21.9945 17.3687 21.2958 18.1652C20.597 18.9617 20.21 19.9926 20.2085 21.0614V21.5444L24.9452 21.5444ZM22.8928 19.2615C22.5961 19.5318 22.3711 19.874 22.2379 20.2563C22.1505 20.5079 21.8801 20.6397 21.6333 20.5508C21.3868 20.462 21.2573 20.186 21.3447 19.9346C21.531 19.3992 21.846 18.9203 22.2609 18.5415C22.3546 18.4561 22.4777 18.4121 22.6031 18.4192C22.7285 18.4264 22.846 18.4839 22.9298 18.5792C23.1042 18.778 23.0877 19.0833 22.8928 19.2614L22.8928 19.2615Z" fill="#EDD7C3"/>
</svg>
