<svg width="48" height="48" viewBox="0 0 48 48" fill="none" xmlns="http://www.w3.org/2000/svg">
<circle cx="24" cy="24" r="23.5" stroke="#EDD7C3"/>
<path d="M26.1601 14C25.9317 13.9658 25.6985 14.0118 25.5001 14.13L13.5001 21.13C13.4527 21.1576 13.409 21.1913 13.3701 21.23L13.2701 21.31C13.2021 21.3888 13.145 21.4762 13.1001 21.57C13.029 21.7019 12.9945 21.8503 13.0001 22V32C13.0001 32.2652 13.1055 32.5196 13.293 32.7071C13.4805 32.8947 13.7349 33 14.0001 33H32.0001C32.2653 33 32.5197 32.8947 32.7072 32.7071C32.8947 32.5196 33.0001 32.2652 33.0001 32V22C33.0039 20.0693 32.3161 18.201 31.0614 16.7335C29.8067 15.266 28.068 14.2963 26.1601 14ZM26.1601 16.05C27.3624 16.2962 28.4618 16.901 29.3133 17.7847C30.1649 18.6684 30.7286 19.7895 30.9301 21H17.7001L26.1601 16.05ZM17.5001 30C17.2034 30 16.9134 29.9121 16.6667 29.7472C16.4201 29.5824 16.2278 29.3481 16.1143 29.0741C16.0007 28.8 15.971 28.4984 16.0289 28.2074C16.0868 27.9164 16.2297 27.6491 16.4394 27.4394C16.6492 27.2296 16.9165 27.0867 17.2075 27.0289C17.4984 26.971 17.8 27.0007 18.0741 27.1142C18.3482 27.2277 18.5825 27.42 18.7473 27.6667C18.9121 27.9133 19.0001 28.2034 19.0001 28.5C19.0001 28.8979 18.8421 29.2794 18.5608 29.5607C18.2795 29.842 17.8979 30 17.5001 30ZM22.5001 27C22.2034 27 21.9134 26.9121 21.6667 26.7472C21.4201 26.5824 21.2278 26.3481 21.1143 26.0741C21.0007 25.8 20.971 25.4984 21.0289 25.2074C21.0868 24.9164 21.2297 24.6491 21.4394 24.4394C21.6492 24.2296 21.9165 24.0867 22.2075 24.0289C22.4984 23.971 22.8 24.0007 23.0741 24.1142C23.3482 24.2277 23.5825 24.42 23.7473 24.6667C23.9121 24.9133 24.0001 25.2034 24.0001 25.5C24.0001 25.8979 23.8421 26.2794 23.5608 26.5607C23.2795 26.842 22.8979 27 22.5001 27ZM28.0001 30C27.6045 30 27.2179 29.8827 26.889 29.663C26.5601 29.4432 26.3037 29.1308 26.1523 28.7654C26.001 28.3999 25.9614 27.9978 26.0385 27.6098C26.1157 27.2219 26.3062 26.8655 26.5859 26.5858C26.8656 26.3061 27.222 26.1156 27.6099 26.0385C27.9979 25.9613 28.4 26.0009 28.7655 26.1523C29.1309 26.3036 29.4433 26.56 29.663 26.8889C29.8828 27.2178 30.0001 27.6045 30.0001 28C30.0001 28.5305 29.7894 29.0392 29.4143 29.4142C29.0392 29.7893 28.5305 30 28.0001 30Z" fill="#EDD7C3"/>
</svg>
