<svg width="48" height="48" viewBox="0 0 48 48" fill="none" xmlns="http://www.w3.org/2000/svg">
<path d="M24.0812 14.8978L25.5002 11.2633C25.5653 11.1054 25.7277 11 25.8901 11H31.155V11.8217H26.1828L24.9803 14.898H29.0534C29.4 14.898 29.7141 15.0349 29.9416 15.2562C30.1691 15.4774 30.3099 15.7829 30.3099 16.12V17.3525H17.679V16.12C17.679 15.7933 17.8198 15.4984 18.0365 15.2772L18.0581 15.2562C18.2857 15.0349 18.5997 14.898 18.9464 14.898H24.0809L24.0812 14.8978ZM16 20.6289H32V18.1744H16V20.6289ZM17.7116 21.4507L18.7733 37H29.2157L30.2882 21.4507H17.7116Z" fill="#EDD7C3"/>
<circle cx="24" cy="24" r="23.5" stroke="#EDD7C3"/>
</svg>
