<svg width="48" height="48" viewBox="0 0 48 48" fill="none" xmlns="http://www.w3.org/2000/svg">
<circle cx="24" cy="24" r="23.5" stroke="#EDD7C3"/>
<path d="M15.6132 26.6255C15.8976 26.8612 16.2895 26.9319 16.6418 26.8111C16.9943 26.6905 17.254 26.3966 17.324 26.0397L17.4342 25.4772C17.4957 25.1623 17.6887 24.8865 17.9668 24.715C18.2452 24.5435 18.5841 24.4916 18.9031 24.5716L19.0712 24.6138C19.3173 24.6765 19.5796 24.6248 19.7808 24.4735C19.9895 24.3172 20.2502 24.2423 20.5125 24.2631C20.7749 24.2836 21.0198 24.3987 21.1995 24.5857L21.7206 25.1248C21.8548 25.2639 22.0511 25.3293 22.2448 25.2996C22.4386 25.2699 22.6047 25.1487 22.6882 24.9762C22.9268 24.4822 23.382 24.1197 23.9267 23.9895L25.387 23.638C25.9452 23.4043 26.5752 23.3938 27.1414 23.6082C27.1533 23.6111 27.1651 23.6158 27.1755 23.6223C27.4099 23.7143 27.6269 23.8437 27.8179 24.005L27.8424 24.0258C28.1488 24.2844 28.5726 24.3675 28.958 24.2445L28.9856 24.2358C29.1421 24.1867 29.3055 24.1622 29.4697 24.1633C29.8268 24.1661 30.1762 24.2639 30.4801 24.4458C30.8619 24.6739 31.1028 24.9963 31.1585 25.3546L31.3306 26.4595L31.3308 26.4593C31.3811 26.7797 31.555 27.0693 31.8172 27.2694C32.0796 27.4694 32.4103 27.5645 32.7423 27.5356L32.7767 27.5325C33.1177 27.5022 33.4346 27.3478 33.6637 27.1003C33.8929 26.8526 34.0175 26.53 34.0125 26.197C33.98 24.6278 33.9174 22.0686 33.883 20.683C33.8786 20.3724 33.7624 20.073 33.5548 19.8369C33.347 19.6006 33.0609 19.4427 32.7461 19.3902C32.2464 19.3124 31.7026 19.4177 31.2364 19.5309L30.6841 19.6652H30.6839C30.633 19.6776 30.5798 19.6556 30.5536 19.6112C30.5276 19.567 30.5349 19.5112 30.5718 19.4747C30.5718 19.4747 31.5101 18.5461 32.02 18.0433C32.2441 17.8235 32.3612 17.5214 32.3421 17.2126C32.3232 16.9038 32.1697 16.6175 31.9205 16.4254C31.671 16.2333 31.3493 16.1537 31.036 16.2062C30.7224 16.259 30.4468 16.439 30.2781 16.7014L28.5679 19.3671C28.4651 19.5311 28.2913 19.6409 28.0954 19.6655C27.8939 19.6877 27.6947 19.6081 27.5676 19.4543C27.4405 19.3005 27.4034 19.094 27.4692 18.9075C27.5192 18.7645 27.4941 18.6066 27.4017 18.485C27.3117 18.3616 27.1644 18.2899 27.0088 18.2936L26.7983 18.2958C26.6186 18.2972 26.455 18.3968 26.375 18.5532L25.8687 19.5378V19.5381C25.7799 19.7083 25.6308 19.8419 25.4488 19.9142C25.267 19.9863 25.0645 19.9925 24.8782 19.9312C24.6476 19.8548 24.4658 19.6794 24.3856 19.4558C24.2989 19.2219 24.3278 18.962 24.4637 18.7516L26.3329 15.8441C26.3366 15.8384 26.3408 15.8331 26.3454 15.828L28.9803 12.9993C29.238 12.7249 29.3454 12.3475 29.27 11.9833C29.203 11.6346 28.9688 11.3379 28.64 11.1843C28.335 11.0421 27.9817 11.035 27.6711 11.1648C27.3602 11.2945 27.1223 11.5485 27.0184 11.8613L26.2424 14.1986C26.1745 14.4169 26.0231 14.6014 25.8191 14.7139C25.6151 14.8263 25.3744 14.8581 25.147 14.8025C24.9195 14.7469 24.7228 14.6081 24.5978 14.4153L24.5852 14.3961L24.5854 14.3963C23.9097 13.37 22.8939 12.599 21.7063 12.2106L21.3582 12.0972H21.358C21.0269 11.9839 20.6593 12.0401 20.3797 12.2467C20.1103 12.4512 19.9645 12.7734 19.9911 13.1046C20.0177 13.4358 20.2134 13.7319 20.512 13.8932L22.6836 15.0664H22.6834C23.0278 15.2605 23.158 15.6811 22.9815 16.028C22.8891 16.2168 22.9289 16.4416 23.0807 16.5897L23.401 16.9011H23.4012C23.6027 17.0918 23.6657 17.3822 23.5602 17.6358C23.4821 17.8195 23.3233 17.9597 23.1277 18.0175C22.932 18.0754 22.7201 18.0448 22.5498 17.9346L22.1923 17.7028H22.1925C21.952 17.5427 21.6303 17.5635 21.4138 17.7529C21.2935 17.8633 21.2244 18.0163 21.2219 18.177C21.2196 18.3377 21.2843 18.4927 21.4012 18.6064L21.7774 18.9722C21.907 19.0991 21.991 19.2632 22.0164 19.4404C22.0419 19.6176 22.0076 19.7979 21.9187 19.9545C21.8649 20.0553 21.8197 20.1602 21.7832 20.2682L21.7721 20.2977H21.7723C21.7332 20.4169 21.6391 20.5116 21.5181 20.5533C21.3782 20.5981 21.2095 20.5635 21.043 20.4558L20.5716 20.15C20.1085 19.8563 19.5333 19.7836 19.0084 19.9521C18.578 20.0663 18.1277 20.0904 17.687 20.0227L17.3079 19.949C17.2603 19.9398 17.2105 19.9323 17.1596 19.927C16.6569 19.8722 16.1546 20.0329 15.7835 20.3674C15.3937 20.7124 15.1748 21.2035 15.1826 21.7159L15.2446 25.8641C15.249 26.1578 15.3834 26.4352 15.6132 26.6256L15.6132 26.6255ZM24.5558 15.3341C24.7929 15.3341 25.0068 15.4731 25.0977 15.6861C25.1884 15.8994 25.1383 16.1446 24.9705 16.3077C24.8028 16.4709 24.5506 16.5196 24.3313 16.4314C24.1122 16.343 23.9693 16.135 23.9693 15.9045C23.9698 15.5896 24.232 15.3346 24.5558 15.3342L24.5558 15.3341ZM23.1483 19.8966C23.3854 19.8966 23.5993 20.0355 23.6901 20.2485C23.7808 20.4618 23.7308 20.707 23.563 20.8702C23.3952 21.0333 23.1431 21.082 22.9238 20.9938C22.7047 20.9054 22.5618 20.6975 22.5618 20.4669C22.5622 20.152 22.8245 19.897 23.1483 19.8966L23.1483 19.8966Z" fill="#EDD7C3"/>
<path d="M31.3807 32.8428C31.6063 33.0039 31.8885 33.0716 32.1652 33.0304C32.4421 32.9893 32.6908 32.8428 32.8565 32.6234C33.0224 32.404 33.0917 32.1296 33.0494 31.8603L32.4042 27.7525V27.7528C32.0768 27.7067 31.7731 27.5594 31.5381 27.3329C31.3031 27.1062 31.1491 26.8123 31.0988 26.4941L30.9264 25.389C30.8812 25.0986 30.6791 24.8327 30.3571 24.6405C30.169 24.5292 29.9612 24.4535 29.7444 24.417L30.9623 32.1708C31.0039 32.4401 31.1546 32.6823 31.3808 32.843L31.3807 32.8428Z" fill="#EDD7C3"/>
<path d="M23.5002 20.4671C23.5002 20.6561 23.3427 20.8093 23.1483 20.8093C22.9539 20.8093 22.7964 20.6561 22.7964 20.4671C22.7964 20.2781 22.9539 20.1249 23.1483 20.1249C23.3427 20.1249 23.5002 20.2781 23.5002 20.4671Z" fill="#EDD7C3"/>
<path d="M24.9079 15.9047C24.9079 16.0937 24.7504 16.2469 24.556 16.2469C24.3616 16.2469 24.2041 16.0937 24.2041 15.9047C24.2041 15.7156 24.3616 15.5624 24.556 15.5624C24.7504 15.5624 24.9079 15.7156 24.9079 15.9047Z" fill="#EDD7C3"/>
<path d="M29.0593 24.4523L29.0316 24.4613H29.0318C28.5674 24.6094 28.0573 24.5093 27.6882 24.1979L27.6637 24.1771H27.6635C27.5506 24.0814 27.4275 23.998 27.2959 23.9286C27.2967 23.9343 27.2967 23.9398 27.2976 23.9453L28.6438 32.5152C28.684 32.7861 28.8338 33.0301 29.06 33.1931C29.2861 33.3561 29.5699 33.4245 29.8481 33.3834C30.1265 33.342 30.3762 33.1943 30.542 32.9729C30.7077 32.7517 30.7758 32.4753 30.731 32.2051L29.5037 24.3935C29.353 24.3884 29.2029 24.4081 29.0592 24.4523L29.0593 24.4523Z" fill="#EDD7C3"/>
<path d="M22.9002 25.0738C22.807 25.2665 22.6388 25.4152 22.4327 25.4873C22.2266 25.5594 21.9993 25.549 21.8012 25.4584L20.5592 33.3892C20.5175 33.6583 20.5872 33.9324 20.7531 34.1516C20.9192 34.3709 21.1676 34.517 21.4443 34.5583C21.5051 34.5671 21.5486 34.62 21.544 34.6797C21.5394 34.7392 21.4883 34.7852 21.4267 34.7852C21.4209 34.785 21.415 34.7846 21.4091 34.7838C21.1647 34.7473 20.9362 34.6434 20.7509 34.4846C20.5653 34.3257 20.4306 34.1184 20.3625 33.8872C20.1256 34.2408 19.7212 34.4544 19.2872 34.4551C19.221 34.4551 19.155 34.4502 19.0897 34.4404C18.8452 34.4041 18.6169 34.3003 18.4316 34.1414C18.246 33.9825 18.1116 33.7752 18.0437 33.5442C17.8066 33.8978 17.4024 34.1113 16.9681 34.1121C16.9022 34.1121 16.836 34.1072 16.7706 34.0974C16.526 34.0614 16.2973 33.9577 16.1117 33.7986C15.9263 33.6395 15.7919 33.432 15.7244 33.2004C15.4875 33.5542 15.0831 33.7681 14.6487 33.7686C14.5827 33.7686 14.5165 33.7638 14.4512 33.754C14.3871 33.7444 14.3433 33.6862 14.353 33.624C14.3628 33.5617 14.4227 33.5189 14.4868 33.5285C14.7635 33.5696 15.0456 33.502 15.2712 33.3407C15.4968 33.1794 15.647 32.9374 15.6891 32.6682L16.5656 27.0686C16.5371 27.0743 16.5087 27.08 16.4795 27.0843V27.0845C16.1138 27.1365 15.7429 27.0328 15.4614 26.7998C15.1801 26.5666 15.0157 26.227 15.0103 25.8675L14.9596 22.4826V22.4828C14.8372 22.5644 14.6873 22.5978 14.5405 22.5761L13.6673 22.4465V22.4467C12.9147 22.3353 12.1477 22.5192 11.5346 22.9578C10.9216 23.3965 10.5127 24.0539 10.3984 24.7856L10.057 26.9629C9.89152 28.0453 10.0886 29.1509 10.6196 30.1159C11.1503 31.0808 11.9864 31.8539 13.0044 32.3208C13.1671 32.3927 13.3012 32.5143 13.3862 32.667C13.4713 32.8198 13.5027 32.9956 13.4755 33.1673C13.4181 33.5353 13.3448 33.9054 13.2585 34.2696L22.3958 35.6224C22.4289 35.1984 22.4783 34.7751 22.5441 34.3564L24.1378 24.174L23.9832 24.2113H23.9834C23.5072 24.325 23.1092 24.6419 22.9006 25.0737L22.9002 25.0738ZM13.5012 31.2902C13.4245 31.3246 13.3412 31.3426 13.257 31.3426C13.1491 31.3426 13.0433 31.313 12.952 31.2576C12.2411 30.8283 11.6758 30.2054 11.3261 29.4663C10.9763 28.7271 10.8577 27.9045 10.9847 27.1001L11.3254 24.923C11.4031 24.4307 11.6786 23.9885 12.091 23.6936C12.5036 23.3984 13.0197 23.2744 13.5259 23.3489L14.3991 23.4783V23.4781C14.7194 23.5255 14.9395 23.8164 14.8907 24.1278L13.8372 30.8568C13.8077 31.0472 13.6811 31.2101 13.5012 31.2904L13.5012 31.2902Z" fill="#EDD7C3"/>
<path d="M38.9423 26.1307L38.6005 23.9533C38.4855 23.2215 38.0763 22.5642 37.463 22.1259C36.8495 21.6876 36.0823 21.5041 35.3297 21.6159L34.4572 21.7458V21.7461C34.3508 21.7615 34.2421 21.7481 34.143 21.7074C34.1524 22.0923 34.1625 22.5101 34.1727 22.9392C34.2601 22.7828 34.4176 22.6748 34.5986 22.6477L35.4717 22.518V22.5182C35.9782 22.4428 36.4947 22.5663 36.9075 22.8614C37.3204 23.1565 37.5956 23.599 37.673 24.0914L38.0151 26.2686C38.1424 27.0727 38.0241 27.8954 37.6747 28.6347C37.3254 29.3741 36.7605 29.9974 36.05 30.4269C35.8841 30.5273 35.6776 30.5396 35.5004 30.4597C35.3205 30.3795 35.1942 30.2165 35.1644 30.0263L34.1947 23.8532C34.2146 24.7007 34.2336 25.5339 34.2475 26.1926C34.2533 26.5833 34.1073 26.9619 33.8386 27.2526C33.5699 27.543 33.1983 27.7243 32.7981 27.7599L32.7637 27.763C32.7237 27.7665 32.6839 27.7677 32.6443 27.7683L33.2817 31.8254V31.8252C33.3242 32.0945 33.4748 32.3363 33.7004 32.4974C33.9262 32.6587 34.2083 32.7261 34.4852 32.685C34.5485 32.6768 34.6069 32.7196 34.6165 32.7809C34.6262 32.8424 34.5835 32.9001 34.5204 32.9104C34.2758 32.9471 34.0257 32.9143 33.7997 32.8163C33.5739 32.7182 33.3818 32.5589 33.2466 32.3573C33.1565 32.6677 32.9468 32.9322 32.6611 33.096C32.3757 33.2598 32.0362 33.3103 31.7132 33.2367C31.3904 33.1634 31.1091 32.9718 30.9277 32.7019C30.8607 32.9335 30.7264 33.1412 30.5409 33.3005C30.3555 33.4597 30.1268 33.5636 29.8822 33.5997C29.8168 33.6094 29.7506 33.6143 29.6844 33.6143C29.2502 33.6137 28.8458 33.4003 28.6087 33.0467C28.5417 33.2782 28.4074 33.486 28.2221 33.6453C28.0365 33.8043 27.8078 33.9082 27.5631 33.9441C27.5575 33.9449 27.5514 33.9455 27.5455 33.9455C27.4842 33.9455 27.4331 33.8994 27.4285 33.84C27.4239 33.7803 27.4672 33.7273 27.528 33.7186C27.8049 33.6774 28.0535 33.5312 28.2194 33.3118C28.3851 33.0925 28.4544 32.8179 28.4121 32.5488L27.0661 23.9798C27.0565 23.9213 27.0416 23.8639 27.0219 23.8081C26.519 23.6274 25.9638 23.6427 25.4722 23.8509C25.4661 23.8535 25.4599 23.8558 25.4534 23.8572L24.9595 23.9761L26.46 33.5301C26.5249 33.9432 26.5737 34.3601 26.6066 34.7783L35.7412 33.421C35.6566 33.0617 35.5854 32.7004 35.5276 32.3366C35.5004 32.1647 35.5316 31.9889 35.6168 31.836C35.7018 31.683 35.8359 31.5614 35.9986 31.4893C37.0162 31.022 37.8518 30.2487 38.3822 29.2834C38.9123 28.3184 39.109 27.2128 38.9427 26.1304L38.9423 26.1307Z" fill="#EDD7C3"/>
<path d="M35.7961 33.6439L26.623 35.0066C26.6486 35.3955 26.6605 35.7846 26.6591 36.1736L36.126 34.7673L36.1206 34.751C35.9978 34.387 35.8899 34.0173 35.7961 33.6439L35.7961 33.6439Z" fill="#EDD7C3"/>
<path d="M13.2042 34.4922C13.1119 34.8573 13.0048 35.2231 12.8846 35.5817L12.8792 35.5982L22.3472 37V36.8951C22.3472 36.5478 22.3585 36.1999 22.3813 35.8513L13.2042 34.4922Z" fill="#EDD7C3"/>
<path d="M19.0132 24.835L18.845 24.7928C18.5888 24.7284 18.3165 24.77 18.093 24.9077C17.8695 25.0456 17.7145 25.2672 17.6651 25.52L17.5549 26.0826V26.0828C17.4757 26.4841 17.1998 26.8227 16.8159 26.9889L15.921 32.7032C15.8642 33.066 16.0108 33.4306 16.3054 33.6598C16.6001 33.8889 16.9981 33.9478 17.3494 33.8144C17.7009 33.6808 17.9522 33.375 18.009 33.0124L19.2841 24.868V24.8678C19.1927 24.8682 19.1018 24.8572 19.0132 24.835L19.0132 24.835Z" fill="#EDD7C3"/>
<path d="M19.1247 34.2158C19.4016 34.2567 19.6838 34.1893 19.9094 34.0278C20.1348 33.8665 20.2852 33.6247 20.3271 33.3553L21.5864 25.3142C21.5743 25.3028 21.5613 25.2926 21.5498 25.2808L21.0286 24.7416V24.7414C20.8887 24.5958 20.6978 24.5061 20.4936 24.49C20.2892 24.474 20.086 24.5324 19.9236 24.6542C19.8055 24.7422 19.6695 24.8054 19.5248 24.839L18.2401 33.0459C18.1984 33.315 18.2679 33.5892 18.4339 33.8086C18.5998 34.0278 18.8482 34.174 19.1247 34.2154L19.1247 34.2158Z" fill="#EDD7C3"/>
<path d="M16.8143 16.475C17.0515 16.475 17.2653 16.614 17.3562 16.827C17.4469 17.0403 17.3969 17.2856 17.2291 17.4487C17.0613 17.6119 16.8091 17.6606 16.5898 17.5724C16.3706 17.484 16.2278 17.276 16.2278 17.0454C16.2282 16.7305 16.4905 16.4755 16.8143 16.475L16.8143 16.475Z" fill="#EDD7C3"/>
<path d="M31.5934 11C31.7356 11 31.864 11.0833 31.9185 11.2112C31.9729 11.3392 31.9428 11.4862 31.8422 11.5842C31.7415 11.682 31.5902 11.7113 31.4587 11.6584C31.3271 11.6054 31.2415 11.4805 31.2415 11.3422C31.2417 11.1534 31.3992 11.0002 31.5934 11Z" fill="#EDD7C3"/>
<path d="M32.5318 14.6501C32.6741 14.6501 32.8025 14.7334 32.8569 14.8613C32.9114 14.9892 32.8812 15.1363 32.7807 15.2343C32.6799 15.3321 32.5287 15.3614 32.3972 15.3084C32.2656 15.2555 32.1799 15.1306 32.1799 14.9923C32.1801 14.8035 32.3377 14.6503 32.5318 14.6501Z" fill="#EDD7C3"/>
</svg>
