<svg width="48" height="48" viewBox="0 0 48 48" fill="none" xmlns="http://www.w3.org/2000/svg">
<circle cx="24" cy="24" r="23.5" stroke="#EDD7C3"/>
<path d="M23.9996 11.0001C20.6736 11.0001 17.8444 12.9789 16.7911 15.739C17.8352 15.2419 19.0146 14.9555 20.2665 14.9555C21.2394 14.9555 22.1656 15.1319 23.0209 15.4426C23.0963 15.3729 23.1803 15.3117 23.2707 15.2596C24.5669 14.5251 26.0986 14.0899 27.7332 14.0899C28.7492 14.0899 29.7207 14.2645 30.6272 14.5685C29.3046 12.4373 26.8332 11 24 11L23.9996 11.0001ZM34.2817 18.4056L37.1228 14.3959C37.4026 14.001 37.2818 13.4541 36.8568 13.1941L34.908 12.0015C34.8005 11.9359 34.6816 11.8941 34.5634 11.8737C34.4697 11.8573 34.3797 11.8561 34.2945 11.8639C34.0288 11.8902 33.7716 12.0253 33.6136 12.2483L31.1563 15.7169C30.1247 15.2352 28.9644 14.9572 27.7328 14.9572C26.3778 14.9572 25.1087 15.2943 24.0059 15.8687C26.3397 17.0892 27.9222 19.4106 27.9207 22.0719C27.9203 22.6408 27.8322 23.1415 27.7247 23.6532C27.6778 23.8431 27.5003 23.9808 27.2907 23.9895H36.5995C36.8662 23.9895 37.0662 24.1753 37.0662 24.4231C37.0662 24.671 36.8662 24.8568 36.5995 24.8568L24.3291 24.8564C24.3306 26.0515 24.331 27.2466 24.332 28.4435C24.3287 29.292 23.5854 29.9977 22.6677 29.9977C21.75 29.9977 20.997 29.298 20.997 28.4452V25.728C20.997 25.2411 20.5912 24.8632 20.0674 24.8632C19.5435 24.8632 19.1368 25.2411 19.1368 25.728V26.7682C19.1368 27.7206 18.295 28.5004 17.2702 28.5004C16.2454 28.5004 15.4062 27.7206 15.4062 26.7682L15.4058 24.8566H11.4C11.1333 24.8566 10.9333 24.6708 10.9333 24.423C10.9333 24.1751 11.1333 23.9893 11.4 23.9893H13.2667C13.0494 23.9893 12.8606 23.8499 12.8119 23.653C12.7677 23.4772 12.7337 23.3001 12.7044 23.1219H11.4C10.6325 23.1219 10 23.7097 10 24.4229C10 25.1362 10.6325 25.7239 11.4 25.7239H11.9817L13.5429 30.8011C19.4175 31.553 22.4506 30.8886 25.8293 30.1556C27.8297 29.7218 29.9486 29.2649 32.7146 29.0893C33.5644 29.0352 34.4846 29.0124 35.4717 29.0205L36.4852 25.7239H36.6C37.3675 25.7239 38 25.1361 38 24.4229C38 23.7096 37.3675 23.1219 36.6 23.1219H35.2986C35.3556 22.7745 35.3873 22.4239 35.3888 22.0716C35.3888 20.7286 34.9796 19.4771 34.2823 18.405L34.2817 18.4056ZM20.2663 15.8239C16.5494 15.8239 13.5473 18.616 13.5452 22.0697C13.5471 22.424 13.6135 22.774 13.68 23.1225H15.874C16.1302 23.1235 16.3377 23.3163 16.3388 23.5544V26.7688C16.3388 27.2557 16.7454 27.6328 17.2694 27.6328C17.7933 27.6328 18.2027 27.2557 18.2027 26.7688V25.7286C18.2027 24.7762 19.0419 23.9964 20.0667 23.9964C21.0915 23.9964 21.9306 24.7762 21.9306 25.7286V28.4457C21.9306 28.833 22.2504 29.1309 22.6671 29.1309C23.0838 29.1309 23.3965 28.8364 23.3981 28.4432L23.3944 23.5577C23.3935 23.3182 23.6014 23.1233 23.8592 23.1223H26.856C26.9218 22.7748 26.9856 22.4252 26.9873 22.072C26.9873 18.6168 23.9843 15.8237 20.2662 15.8237L20.2663 15.8239ZM34.9436 29.8648C31.303 29.8747 28.8743 30.4257 26.3676 30.9693C23.0903 31.6802 19.6631 32.372 13.8241 31.7189L14.6846 34.5174C14.8739 35.1337 15.1517 35.7319 15.5979 36.2021C16.0439 36.6724 16.6889 37 17.4664 37H30.9998C31.7773 37 32.4221 36.6722 32.8683 36.2021C33.3143 35.7319 33.592 35.1336 33.7816 34.5174L35.2108 29.8683C35.1235 29.8679 35.0298 29.865 34.9437 29.865L34.9436 29.8648Z" fill="#EDD7C3"/>
</svg>
