<svg width="48" height="48" viewBox="0 0 48 48" fill="none" xmlns="http://www.w3.org/2000/svg">
<circle cx="24" cy="24" r="23.5" stroke="#EDD7C3"/>
<path d="M33.6819 15.9885H32.0899C31.9138 15.9885 31.7714 16.1268 31.7714 16.2974V16.6963H28.2562V13.8463C28.2562 13.3263 25.9541 13.1667 22.9955 13.1475V12.1461C23.8299 12.1128 24.4382 12.0096 24.4382 11.8877V11.2701C24.4382 11.1211 23.5298 11 22.4084 11C21.2872 11 20.3786 11.1211 20.3786 11.2701V11.8877C20.3786 12.01 20.9868 12.1127 21.8214 12.1461V13.1469C18.7966 13.1619 16.4219 13.3185 16.4219 13.8467V14.5862C15.6032 14.7884 14.3787 15.0303 14.3787 15.0303C14.203 15.0303 14.0602 15.1686 14.0602 15.3392L14.0002 15.8732C13.9936 15.9695 14.1293 16.0106 14.1792 16.0276C15.7866 16.5711 16.2906 16.2335 16.4214 16.7654V33.52C16.4214 33.5206 16.4216 33.5206 16.4216 33.5213V35.6811C16.4216 36.2392 19.0711 37 22.3389 37C25.6067 37 28.2562 36.2388 28.2562 35.6811V25.8894C28.2562 25.8887 28.256 25.8887 28.256 25.8881L28.2557 18.3947H31.771V29.962C31.771 30.1329 31.9133 30.2709 32.0895 30.2709H33.6815C33.8576 30.2709 34 30.1329 34 29.962V16.2977C34.0009 16.1271 33.8585 15.9888 33.6824 15.9888L33.6819 15.9885Z" fill="#EDD7C3"/>
</svg>
