<svg width="514" height="452" viewBox="0 0 514 452" fill="none" xmlns="http://www.w3.org/2000/svg">
<circle cx="90.5" cy="69" r="68" stroke="#C27634" stroke-width="2"/>
<path d="M73.7461 52.1071C73.7461 48.6274 76.5902 45.6816 80.197 45.904C94.3285 46.7748 106.722 51.5287 116.43 60.7983C119.185 63.4263 118.642 67.7195 115.785 69.9121L115.009 70.5095L113.748 69.1081L113.726 69.0859C104.396 59.5049 90.8743 53.8803 76.5139 53.8803H73.7461V52.1071V52.1071ZM73.7461 57.0548V91.969C73.7461 95.884 78.214 98.1276 81.3569 95.7855L86.4667 91.9786V91.9849C86.4667 92.8277 86.8015 93.636 87.3975 94.2319C87.9934 94.8279 88.8017 95.1627 89.6445 95.1627C90.4873 95.1627 91.2956 94.8279 91.8915 94.2319C92.4875 93.636 92.8223 92.8277 92.8223 91.9849V85.623C92.8255 85.2201 92.9817 84.8334 93.2592 84.5413C93.5367 84.2492 93.9149 84.0734 94.3171 84.0496C94.7194 84.0258 95.1156 84.1557 95.4257 84.413C95.7358 84.6703 95.9366 85.0358 95.9873 85.4355V87.2151C95.9873 88.0579 96.3221 88.8662 96.9181 89.4621C97.514 90.0581 98.3223 90.3929 99.1651 90.3929C100.008 90.3929 100.816 90.0581 101.412 89.4621C102.008 88.8662 102.343 88.0579 102.343 87.2151V80.1032C104.965 78.1807 108.972 75.1332 112.48 72.4512L111.428 71.2786C102.724 62.3554 90.0481 57.0548 76.5108 57.0548H73.7461ZM87.2453 65.7683C87.2451 66.0802 87.1834 66.3891 87.0638 66.6772C86.9443 66.9653 86.7691 67.2271 86.5484 67.4475C86.3277 67.6679 86.0657 67.8427 85.7774 67.9619C85.4892 68.0811 85.1802 68.1423 84.8683 68.1421C84.5564 68.1419 84.2475 68.0802 83.9594 67.9607C83.6713 67.8411 83.4095 67.666 83.1891 67.4452C82.9687 67.2245 82.7939 66.9625 82.6747 66.6743C82.5555 66.386 82.4943 66.0771 82.4945 65.7651C82.4945 65.1351 82.7448 64.5309 83.1902 64.0855C83.6357 63.64 84.2399 63.3897 84.8699 63.3897C85.4999 63.3897 86.1041 63.64 86.5495 64.0855C86.995 64.5309 87.2453 65.1351 87.2453 65.7651V65.7683ZM96.6991 72.1238C96.6991 72.7538 96.4489 73.358 96.0034 73.8035C95.5579 74.249 94.9538 74.4992 94.3238 74.4992C93.6938 74.4992 93.0896 74.249 92.6441 73.8035C92.1986 73.358 91.9484 72.7538 91.9484 72.1238C91.9484 71.4939 92.1986 70.8897 92.6441 70.4442C93.0896 69.9987 93.6938 69.7485 94.3238 69.7485C94.9538 69.7485 95.5579 69.9987 96.0034 70.4442C96.4489 70.8897 96.6991 71.4939 96.6991 72.1238V72.1238ZM87.2707 80.0746C87.2707 80.708 87.0191 81.3154 86.5712 81.7633C86.1234 82.2111 85.516 82.4627 84.8826 82.4627C84.2492 82.4627 83.6418 82.2111 83.194 81.7633C82.7461 81.3154 82.4945 80.708 82.4945 80.0746C82.4945 79.4413 82.7461 78.8338 83.194 78.386C83.6418 77.9381 84.2492 77.6865 84.8826 77.6865C85.516 77.6865 86.1234 77.9381 86.5712 78.386C87.0191 78.8338 87.2707 79.4413 87.2707 80.0746V80.0746Z" fill="#C27634"/>
<path d="M30.456 176.216H27.984V170.12H30.456C32.712 170.12 33.936 171.32 33.936 173.168C33.936 175.016 32.712 176.216 30.456 176.216ZM25.968 185H27.984V178.136H29.544L34.08 185H36.504L31.848 177.968C32.328 177.896 35.952 177.152 35.952 173.168C35.952 170.168 33.672 168.2 30.336 168.2H25.968V185ZM43.5676 173.624C40.2316 173.624 38.0236 176.216 38.0236 179.456C38.0236 182.744 40.4476 185.288 43.8076 185.288C46.7356 185.288 48.4156 183.104 48.4156 183.104L47.1436 181.784C47.1436 181.784 45.9916 183.416 43.8076 183.416C41.7196 183.416 40.1116 181.856 39.9916 180.176H48.9436C48.9676 179.912 48.9676 179.744 48.9676 179.528C48.9676 175.952 46.6636 173.624 43.5676 173.624ZM40.0396 178.496C40.1836 177.344 41.1676 175.496 43.5676 175.496C45.7996 175.496 46.9276 177.248 46.9996 178.496H40.0396ZM50.5304 182.96C50.5304 182.96 52.1624 185.288 55.2824 185.288C57.4184 185.288 59.6744 184.184 59.6744 182.048C59.6744 179.792 57.8744 179 55.7624 178.544C53.9384 178.16 53.0744 177.704 53.0744 176.864C53.0744 176.144 53.7704 175.448 55.1864 175.448C56.8664 175.448 57.9704 176.672 57.9704 176.672L59.2904 175.304C59.2904 175.304 57.8024 173.624 55.1864 173.624C52.7144 173.624 51.1064 175.208 51.1064 176.816C51.1064 178.904 52.7864 179.84 55.1624 180.32C56.8664 180.656 57.6824 181.136 57.6824 182.096C57.6824 182.984 56.4104 183.464 55.2824 183.464C53.0984 183.464 51.9224 181.664 51.9224 181.664L50.5304 182.96ZM66.9383 173.624C63.6023 173.624 61.3943 176.216 61.3943 179.456C61.3943 182.744 63.8183 185.288 67.1783 185.288C70.1063 185.288 71.7863 183.104 71.7863 183.104L70.5143 181.784C70.5143 181.784 69.3623 183.416 67.1783 183.416C65.0903 183.416 63.4823 181.856 63.3623 180.176H72.3143C72.3383 179.912 72.3383 179.744 72.3383 179.528C72.3383 175.952 70.0343 173.624 66.9383 173.624ZM63.4103 178.496C63.5543 177.344 64.5383 175.496 66.9383 175.496C69.1703 175.496 70.2983 177.248 70.3703 178.496H63.4103ZM79.589 173.624C77.477 173.624 76.493 175.616 76.493 175.616V173.912H74.621V185H76.637V177.368C76.637 177.368 77.429 175.496 79.181 175.496C80.021 175.496 80.453 175.736 80.453 175.736L81.197 173.912C81.197 173.912 80.501 173.624 79.589 173.624ZM81.3753 173.912L86.9193 185.48L92.4633 173.912H90.3993L86.9913 181.424L83.5833 173.912H81.3753ZM101.98 181.544C101.98 181.544 100.9 183.416 98.7403 183.416C96.4843 183.416 95.0443 181.64 95.0443 179.456C95.0443 177.272 96.4843 175.496 98.7403 175.496C100.9 175.496 101.98 177.368 101.98 177.368V181.544ZM102.148 173.912V175.52C102.148 175.52 101.068 173.624 98.3563 173.624C95.4043 173.624 93.0283 176.192 93.0283 179.456C93.0283 182.72 95.4043 185.288 98.3563 185.288C101.068 185.288 102.148 183.392 102.148 183.392V185H103.996V173.912H102.148ZM106.092 175.736H108.252V181.808C108.252 184.256 110.004 185.288 111.588 185.288C112.236 185.288 112.932 185.144 113.892 184.616L113.148 182.96C113.148 182.96 112.5 183.416 111.876 183.416C110.796 183.416 110.268 182.792 110.268 181.712V175.736H113.724V173.912H110.268V170.528H108.252V173.912H106.092V175.736ZM116.425 185H118.441V173.912H116.425V185ZM116.065 170.36C116.065 171.104 116.689 171.728 117.433 171.728C118.177 171.728 118.801 171.104 118.801 170.36C118.801 169.616 118.177 168.992 117.433 168.992C116.689 168.992 116.065 169.616 116.065 170.36ZM126.812 173.624C123.548 173.624 121.1 176.192 121.1 179.456C121.1 182.72 123.548 185.288 126.812 185.288C130.076 185.288 132.524 182.72 132.524 179.456C132.524 176.192 130.076 173.624 126.812 173.624ZM126.812 183.416C124.58 183.416 123.116 181.64 123.116 179.456C123.116 177.272 124.58 175.496 126.812 175.496C129.044 175.496 130.508 177.272 130.508 179.456C130.508 181.64 129.044 183.416 126.812 183.416ZM140.099 173.624C137.699 173.624 136.691 175.472 136.691 175.472V173.912H134.819V185H136.835V177.368C136.835 177.368 137.795 175.496 139.595 175.496C141.083 175.496 142.259 176.312 142.259 178.208V185H144.275V177.872C144.275 175.136 142.307 173.624 140.099 173.624ZM146.628 182.96C146.628 182.96 148.26 185.288 151.38 185.288C153.516 185.288 155.772 184.184 155.772 182.048C155.772 179.792 153.972 179 151.86 178.544C150.036 178.16 149.172 177.704 149.172 176.864C149.172 176.144 149.868 175.448 151.284 175.448C152.964 175.448 154.068 176.672 154.068 176.672L155.388 175.304C155.388 175.304 153.9 173.624 151.284 173.624C148.812 173.624 147.204 175.208 147.204 176.816C147.204 178.904 148.884 179.84 151.26 180.32C152.964 180.656 153.78 181.136 153.78 182.096C153.78 182.984 152.508 183.464 151.38 183.464C149.196 183.464 148.02 181.664 148.02 181.664L146.628 182.96Z" fill="#CCB29C"/>
<circle cx="90.5" cy="327" r="68" stroke="#C27634" stroke-width="2"/>
<path d="M116.62 305.541C115.682 304.728 110.563 300.041 109.606 299.214C108.656 298.391 107.204 298.325 106.104 298.325H75.5216C74.4252 298.325 72.973 298.391 72.0197 299.214C71.0632 300.041 65.9438 304.731 65.0063 305.541C64.0625 306.355 63.2808 307.585 63.5318 309.329C63.7829 311.08 69.5378 352.741 69.6872 353.732C69.766 354.225 70.0154 354.674 70.3917 355.002C70.7681 355.329 71.2475 355.514 71.7464 355.524H109.88C110.379 355.514 110.859 355.329 111.235 355.001C111.612 354.672 111.861 354.222 111.939 353.729C112.088 352.741 117.843 311.077 118.097 309.326C118.345 307.585 117.563 306.355 116.62 305.541V305.541ZM90.813 333.194C80.4916 333.194 78.2831 318.589 77.8255 315.58H83.663C84.5401 319.968 86.5357 327.477 90.813 327.477C95.0903 327.477 97.0891 319.968 97.963 315.58H103.804C103.343 318.589 101.134 333.194 90.813 333.194V333.194ZM69.1088 307.877L74.9242 301.502H106.702L112.517 307.877H69.1088Z" fill="#C27634"/>
<path d="M1.968 443H3.984V436.328H6.312C9.816 436.328 12.048 434.48 12.048 431.264C12.048 428.048 9.816 426.2 6.312 426.2H1.968V443ZM3.984 434.408V428.12H6.192C8.472 428.12 10.032 429.128 10.032 431.264C10.032 433.4 8.472 434.408 6.192 434.408H3.984ZM14.5657 443H16.5817V431.912H14.5657V443ZM14.2057 428.36C14.2057 429.104 14.8297 429.728 15.5737 429.728C16.3177 429.728 16.9417 429.104 16.9417 428.36C16.9417 427.616 16.3177 426.992 15.5737 426.992C14.8297 426.992 14.2057 427.616 14.2057 428.36ZM28.1922 439.832C28.1922 439.832 27.1122 441.416 24.9522 441.416C22.7202 441.416 21.2562 439.64 21.2562 437.456C21.2562 435.272 22.7202 433.496 24.9522 433.496C26.9202 433.496 28.0002 434.84 28.0002 434.84L29.3682 433.616C29.3682 433.616 27.7842 431.624 24.9522 431.624C21.6882 431.624 19.2402 434.216 19.2402 437.456C19.2402 440.72 21.6882 443.288 24.9522 443.288C27.8802 443.288 29.4882 441.152 29.4882 441.152L28.1922 439.832ZM38.8997 443H41.7077L36.0917 437.144L41.2757 431.912H38.6357L33.8837 436.832V424.856H31.8677V443H33.8837V437.624L38.8997 443ZM54.1776 443.288C56.5776 443.288 57.5856 441.296 57.5856 441.296V443H59.4576V431.912H57.4416V439.592C57.4416 439.592 56.5536 441.416 54.6816 441.416C53.1936 441.416 52.0176 440.6 52.0176 438.704V431.912H50.0016V439.04C50.0016 441.776 51.9696 443.288 54.1776 443.288ZM62.5307 431.912V448.52H64.5467V441.632C64.9307 442.136 66.0827 443.288 68.1227 443.288C71.1227 443.288 73.4987 440.72 73.4987 437.456C73.4987 434.192 71.1227 431.624 68.1227 431.624C65.4827 431.624 64.3787 433.52 64.3787 433.52V431.912H62.5307ZM64.5467 435.392C64.5467 435.392 65.6027 433.496 67.8107 433.496C70.0667 433.496 71.4827 435.272 71.4827 437.456C71.4827 439.64 70.0667 441.416 67.8107 441.416C65.6027 441.416 64.5467 439.52 64.5467 439.52V435.392ZM81.4469 433.736H83.7509V443H85.7669V433.736H88.6469V431.912H85.7669V428.216C85.7669 427.136 86.3669 426.44 87.4469 426.44C88.0709 426.44 88.7429 426.872 88.7429 426.872L89.4869 425.216C88.5269 424.688 87.8069 424.568 87.1589 424.568C85.5749 424.568 83.7509 425.744 83.7509 428.096V431.912H81.4469V433.736ZM95.6874 431.624C93.5754 431.624 92.5914 433.616 92.5914 433.616V431.912H90.7194V443H92.7354V435.368C92.7354 435.368 93.5274 433.496 95.2794 433.496C96.1194 433.496 96.5514 433.736 96.5514 433.736L97.2954 431.912C97.2954 431.912 96.5994 431.624 95.6874 431.624ZM103.435 431.624C100.171 431.624 97.7227 434.192 97.7227 437.456C97.7227 440.72 100.171 443.288 103.435 443.288C106.699 443.288 109.147 440.72 109.147 437.456C109.147 434.192 106.699 431.624 103.435 431.624ZM103.435 441.416C101.203 441.416 99.7387 439.64 99.7387 437.456C99.7387 435.272 101.203 433.496 103.435 433.496C105.667 433.496 107.131 435.272 107.131 437.456C107.131 439.64 105.667 441.416 103.435 441.416ZM123.154 431.624C120.73 431.624 119.842 433.688 119.842 433.688C119.842 433.688 119.146 431.624 116.386 431.624C114.13 431.624 113.314 433.544 113.314 433.544V431.912H111.442V443H113.458V435.272C113.458 435.272 114.202 433.496 115.834 433.496C117.274 433.496 118.21 434.384 118.21 436.184V443H120.226V435.272C120.226 435.272 120.946 433.496 122.602 433.496C124.042 433.496 124.978 434.384 124.978 436.184V443H126.994V435.872C126.994 433.136 125.458 431.624 123.154 431.624ZM144.965 439.832C144.965 439.832 143.885 441.416 141.725 441.416C139.493 441.416 138.029 439.64 138.029 437.456C138.029 435.272 139.493 433.496 141.725 433.496C143.693 433.496 144.773 434.84 144.773 434.84L146.141 433.616C146.141 433.616 144.557 431.624 141.725 431.624C138.461 431.624 136.013 434.216 136.013 437.456C136.013 440.72 138.461 443.288 141.725 443.288C144.653 443.288 146.261 441.152 146.261 441.152L144.965 439.832ZM156.393 439.544C156.393 439.544 155.313 441.416 153.153 441.416C150.897 441.416 149.457 439.64 149.457 437.456C149.457 435.272 150.897 433.496 153.153 433.496C155.313 433.496 156.393 435.368 156.393 435.368V439.544ZM156.561 431.912V433.52C156.561 433.52 155.481 431.624 152.769 431.624C149.817 431.624 147.441 434.192 147.441 437.456C147.441 440.72 149.817 443.288 152.769 443.288C155.481 443.288 156.561 441.392 156.561 441.392V443H158.409V431.912H156.561ZM160.408 433.736H162.712V443H164.728V433.736H167.608V431.912H164.728V428.216C164.728 427.136 165.328 426.44 166.408 426.44C167.032 426.44 167.704 426.872 167.704 426.872L168.448 425.216C167.488 424.688 166.768 424.568 166.12 424.568C164.536 424.568 162.712 425.744 162.712 428.096V431.912H160.408V433.736ZM174.175 431.624C170.839 431.624 168.631 434.216 168.631 437.456C168.631 440.744 171.055 443.288 174.415 443.288C177.343 443.288 179.023 441.104 179.023 441.104L177.751 439.784C177.751 439.784 176.599 441.416 174.415 441.416C172.327 441.416 170.719 439.856 170.599 438.176H179.551C179.575 437.912 179.575 437.744 179.575 437.528C179.575 433.952 177.271 431.624 174.175 431.624ZM170.647 436.496C170.791 435.344 171.775 433.496 174.175 433.496C176.407 433.496 177.535 435.248 177.607 436.496H170.647Z" fill="#CCB29C"/>
<circle cx="445" cy="69" r="68" stroke="#C27634" stroke-width="2"/>
<path d="M430.267 45.4959C430.267 44.9691 430.058 44.464 429.685 44.0915C429.313 43.719 428.808 43.5098 428.281 43.5098C427.754 43.5098 427.249 43.719 426.877 44.0915C426.504 44.464 426.295 44.9691 426.295 45.4959V57.4125C426.294 59.7018 427.085 61.921 428.533 63.6944C429.98 65.4678 431.996 66.6866 434.239 67.1444V97.1347C434.239 97.6614 434.449 98.1666 434.821 98.5391C435.194 98.9115 435.699 99.1208 436.225 99.1208C436.752 99.1208 437.257 98.9115 437.63 98.5391C438.002 98.1666 438.212 97.6614 438.212 97.1347V67.1444C440.455 66.6866 442.471 65.4678 443.918 63.6944C445.366 61.921 446.156 59.7018 446.156 57.4125V45.4959C446.156 44.9691 445.947 44.464 445.574 44.0915C445.202 43.719 444.697 43.5098 444.17 43.5098C443.643 43.5098 443.138 43.719 442.766 44.0915C442.393 44.464 442.184 44.9691 442.184 45.4959V57.4125C442.184 58.6452 441.803 59.8477 441.091 60.8544C440.38 61.8611 439.374 62.6223 438.212 63.0332V45.4959C438.212 44.9691 438.002 44.464 437.63 44.0915C437.257 43.719 436.752 43.5098 436.225 43.5098C435.699 43.5098 435.194 43.719 434.821 44.0915C434.449 44.464 434.239 44.9691 434.239 45.4959V63.0332C433.077 62.6223 432.071 61.8611 431.36 60.8544C430.648 59.8477 430.266 58.6452 430.267 57.4125V45.4959ZM458.073 97.1347V71.3153H452.114C451.588 71.3153 451.082 71.106 450.71 70.7336C450.337 70.3611 450.128 69.8559 450.128 69.3292V53.4403C450.128 50.8067 451.423 48.344 453.191 46.5723C454.962 44.8047 457.425 43.5098 460.059 43.5098C460.586 43.5098 461.091 43.719 461.463 44.0915C461.836 44.464 462.045 44.9691 462.045 45.4959V97.1347C462.045 97.6614 461.836 98.1666 461.463 98.5391C461.091 98.9115 460.586 99.1208 460.059 99.1208C459.532 99.1208 459.027 98.9115 458.654 98.5391C458.282 98.1666 458.073 97.6614 458.073 97.1347Z" fill="#C27634"/>
<path d="M415.792 168.2H410.968V185H415.792C421 185 424.096 181.448 424.096 176.6C424.096 171.752 421 168.2 415.792 168.2ZM415.672 183.08H412.984V170.12H415.672C419.776 170.12 421.936 173.024 421.936 176.6C421.936 180.176 419.776 183.08 415.672 183.08ZM426.894 185H428.91V173.912H426.894V185ZM426.534 170.36C426.534 171.104 427.158 171.728 427.902 171.728C428.646 171.728 429.27 171.104 429.27 170.36C429.27 169.616 428.646 168.992 427.902 168.992C427.158 168.992 426.534 169.616 426.534 170.36ZM437.616 173.624C435.216 173.624 434.208 175.472 434.208 175.472V173.912H432.336V185H434.352V177.368C434.352 177.368 435.312 175.496 437.112 175.496C438.6 175.496 439.776 176.312 439.776 178.208V185H441.792V177.872C441.792 175.136 439.824 173.624 437.616 173.624ZM449.641 173.624C446.305 173.624 444.097 176.216 444.097 179.456C444.097 182.744 446.521 185.288 449.881 185.288C452.809 185.288 454.489 183.104 454.489 183.104L453.217 181.784C453.217 181.784 452.065 183.416 449.881 183.416C447.793 183.416 446.185 181.856 446.065 180.176H455.017C455.041 179.912 455.041 179.744 455.041 179.528C455.041 175.952 452.737 173.624 449.641 173.624ZM446.113 178.496C446.257 177.344 447.241 175.496 449.641 175.496C451.873 175.496 453.001 177.248 453.073 178.496H446.113ZM464.401 185H466.417V173.912H464.401V185ZM464.041 170.36C464.041 171.104 464.665 171.728 465.409 171.728C466.153 171.728 466.777 171.104 466.777 170.36C466.777 169.616 466.153 168.992 465.409 168.992C464.665 168.992 464.041 169.616 464.041 170.36ZM475.123 173.624C472.723 173.624 471.715 175.472 471.715 175.472V173.912H469.843V185H471.859V177.368C471.859 177.368 472.819 175.496 474.619 175.496C476.107 175.496 477.283 176.312 477.283 178.208V185H479.299V177.872C479.299 175.136 477.331 173.624 475.123 173.624Z" fill="#CCB29C"/>
<circle cx="445" cy="327" r="68" stroke="#C27634" stroke-width="2"/>
<path d="M463.538 312.102C463.538 309.189 461.155 306.806 458.242 306.806H450.297V312.102H458.242V319.12L449.026 330.639H439.705V317.399H429.112C423.26 317.399 418.52 322.139 418.52 327.991V335.936H423.816C423.816 340.332 427.364 343.88 431.76 343.88C436.156 343.88 439.705 340.332 439.705 335.936H451.568L463.538 320.974V312.102ZM431.76 338.584C430.304 338.584 429.112 337.392 429.112 335.936H434.408C434.408 337.392 433.217 338.584 431.76 338.584Z" fill="#C27634"/>
<path d="M426.463 309.454H439.704V314.75H426.463V309.454ZM463.537 327.991C459.141 327.991 455.592 331.54 455.592 335.936C455.592 340.332 459.141 343.88 463.537 343.88C467.933 343.88 471.481 340.332 471.481 335.936C471.481 331.54 467.933 327.991 463.537 327.991ZM463.537 338.584C462.08 338.584 460.889 337.392 460.889 335.936C460.889 334.479 462.08 333.287 463.537 333.287C464.993 333.287 466.185 334.479 466.185 335.936C466.185 337.392 464.993 338.584 463.537 338.584Z" fill="#C27634"/>
<path d="M409.792 426.2H404.968V443H409.792C415 443 418.096 439.448 418.096 434.6C418.096 429.752 415 426.2 409.792 426.2ZM409.672 441.08H406.984V428.12H409.672C413.776 428.12 415.936 431.024 415.936 434.6C415.936 438.176 413.776 441.08 409.672 441.08ZM425.31 431.624C421.974 431.624 419.766 434.216 419.766 437.456C419.766 440.744 422.19 443.288 425.55 443.288C428.478 443.288 430.158 441.104 430.158 441.104L428.886 439.784C428.886 439.784 427.734 441.416 425.55 441.416C423.462 441.416 421.854 439.856 421.734 438.176H430.686C430.71 437.912 430.71 437.744 430.71 437.528C430.71 433.952 428.406 431.624 425.31 431.624ZM421.782 436.496C421.926 435.344 422.91 433.496 425.31 433.496C427.542 433.496 428.67 435.248 428.742 436.496H421.782ZM433.425 443H435.441V424.856H433.425V443ZM439.296 443H441.312V431.912H439.296V443ZM438.936 428.36C438.936 429.104 439.56 429.728 440.304 429.728C441.048 429.728 441.672 429.104 441.672 428.36C441.672 427.616 441.048 426.992 440.304 426.992C439.56 426.992 438.936 427.616 438.936 428.36ZM443.346 431.912L448.89 443.48L454.434 431.912H452.37L448.962 439.424L445.554 431.912H443.346ZM460.543 431.624C457.207 431.624 454.999 434.216 454.999 437.456C454.999 440.744 457.423 443.288 460.783 443.288C463.711 443.288 465.391 441.104 465.391 441.104L464.119 439.784C464.119 439.784 462.967 441.416 460.783 441.416C458.695 441.416 457.087 439.856 456.967 438.176H465.919C465.943 437.912 465.943 437.744 465.943 437.528C465.943 433.952 463.639 431.624 460.543 431.624ZM457.015 436.496C457.159 435.344 458.143 433.496 460.543 433.496C462.775 433.496 463.903 435.248 463.975 436.496H457.015ZM473.194 431.624C471.082 431.624 470.098 433.616 470.098 433.616V431.912H468.226V443H470.242V435.368C470.242 435.368 471.034 433.496 472.786 433.496C473.626 433.496 474.058 433.736 474.058 433.736L474.802 431.912C474.802 431.912 474.106 431.624 473.194 431.624ZM475.484 448.016C475.484 448.016 476.468 448.808 477.836 448.808C479.012 448.808 480.26 448.184 480.908 446.576C481.172 445.928 486.74 431.912 486.74 431.912H484.556L481.244 440.672L477.356 431.912H475.076L480.26 443.048L479.396 445.232C478.964 446.312 478.556 446.936 477.668 446.936C477.044 446.936 476.348 446.36 476.348 446.36L475.484 448.016Z" fill="#CCB29C"/>
</svg>
