<svg width="1195" height="194" viewBox="0 0 1195 194" fill="none" xmlns="http://www.w3.org/2000/svg">
<circle cx="69" cy="69" r="68" stroke="#C27634" stroke-width="2"/>
<path d="M52.2466 52.1071C52.2466 48.6274 55.0907 45.6816 58.6975 45.9041C72.829 46.7748 85.2223 51.5287 94.9304 60.7983C97.6855 63.4263 97.1422 67.7195 94.2853 69.9121L93.51 70.5096L92.2484 69.1082L92.2261 69.0859C82.8962 59.5049 69.3748 53.8803 55.0144 53.8803H52.2466V52.1071V52.1071ZM52.2466 57.0549V91.9691C52.2466 95.8841 56.7145 98.1276 59.8573 95.7856L64.9672 91.9786V91.9849C64.9672 92.8277 65.302 93.636 65.898 94.232C66.4939 94.8279 67.3022 95.1627 68.145 95.1627C68.9878 95.1627 69.7961 94.8279 70.392 94.232C70.988 93.636 71.3228 92.8277 71.3228 91.9849V85.6231C71.326 85.2201 71.4822 84.8335 71.7597 84.5413C72.0372 84.2492 72.4154 84.0735 72.8176 84.0496C73.2199 84.0258 73.6161 84.1557 73.9262 84.413C74.2363 84.6703 74.437 85.0358 74.4878 85.4356V87.2151C74.4878 88.0579 74.8226 88.8662 75.4186 89.4621C76.0145 90.0581 76.8228 90.3929 77.6656 90.3929C78.5084 90.3929 79.3167 90.0581 79.9126 89.4621C80.5086 88.8662 80.8434 88.0579 80.8434 87.2151V80.1033C83.465 78.1807 87.4722 75.1332 90.9804 72.4512L89.9286 71.2786C81.2247 62.3554 68.5486 57.0549 55.0112 57.0549H52.2466ZM65.7458 65.7683C65.7456 66.0803 65.6839 66.3891 65.5643 66.6772C65.4448 66.9653 65.2696 67.2271 65.0489 67.4475C64.8282 67.6679 64.5662 67.8427 64.2779 67.9619C63.9897 68.0811 63.6807 68.1423 63.3688 68.1421C63.0568 68.1419 62.748 68.0803 62.4599 67.9607C62.1718 67.8411 61.91 67.666 61.6896 67.4453C61.4692 67.2245 61.2944 66.9626 61.1752 66.6743C61.056 66.386 60.9948 66.0771 60.995 65.7652C60.995 65.1352 61.2453 64.531 61.6907 64.0855C62.1362 63.64 62.7404 63.3898 63.3704 63.3898C64.0004 63.3898 64.6046 63.64 65.05 64.0855C65.4955 64.531 65.7458 65.1352 65.7458 65.7652V65.7683ZM75.1996 72.1239C75.1996 72.7539 74.9494 73.3581 74.5039 73.8035C74.0584 74.249 73.4542 74.4993 72.8242 74.4993C72.1943 74.4993 71.5901 74.249 71.1446 73.8035C70.6991 73.3581 70.4489 72.7539 70.4489 72.1239C70.4489 71.4939 70.6991 70.8897 71.1446 70.4442C71.5901 69.9988 72.1943 69.7485 72.8242 69.7485C73.4542 69.7485 74.0584 69.9988 74.5039 70.4442C74.9494 70.8897 75.1996 71.4939 75.1996 72.1239V72.1239ZM65.7712 80.0747C65.7712 80.708 65.5196 81.3154 65.0717 81.7633C64.6239 82.2112 64.0164 82.4628 63.3831 82.4628C62.7497 82.4628 62.1423 82.2112 61.6944 81.7633C61.2466 81.3154 60.995 80.708 60.995 80.0747C60.995 79.4413 61.2466 78.8339 61.6944 78.386C62.1423 77.9382 62.7497 77.6866 63.3831 77.6866C64.0164 77.6866 64.6239 77.9382 65.0717 78.386C65.5196 78.8339 65.7712 79.4413 65.7712 80.0747V80.0747Z" fill="#C27634"/>
<path d="M8.956 176.216H6.484V170.12H8.956C11.212 170.12 12.436 171.32 12.436 173.168C12.436 175.016 11.212 176.216 8.956 176.216ZM4.468 185H6.484V178.136H8.044L12.58 185H15.004L10.348 177.968C10.828 177.896 14.452 177.152 14.452 173.168C14.452 170.168 12.172 168.2 8.836 168.2H4.468V185ZM22.0676 173.624C18.7316 173.624 16.5236 176.216 16.5236 179.456C16.5236 182.744 18.9476 185.288 22.3076 185.288C25.2356 185.288 26.9156 183.104 26.9156 183.104L25.6436 181.784C25.6436 181.784 24.4916 183.416 22.3076 183.416C20.2196 183.416 18.6116 181.856 18.4916 180.176H27.4436C27.4676 179.912 27.4676 179.744 27.4676 179.528C27.4676 175.952 25.1636 173.624 22.0676 173.624ZM18.5396 178.496C18.6836 177.344 19.6676 175.496 22.0676 175.496C24.2996 175.496 25.4276 177.248 25.4996 178.496H18.5396ZM29.0304 182.96C29.0304 182.96 30.6624 185.288 33.7824 185.288C35.9184 185.288 38.1744 184.184 38.1744 182.048C38.1744 179.792 36.3744 179 34.2624 178.544C32.4384 178.16 31.5744 177.704 31.5744 176.864C31.5744 176.144 32.2704 175.448 33.6864 175.448C35.3664 175.448 36.4704 176.672 36.4704 176.672L37.7904 175.304C37.7904 175.304 36.3024 173.624 33.6864 173.624C31.2144 173.624 29.6064 175.208 29.6064 176.816C29.6064 178.904 31.2864 179.84 33.6624 180.32C35.3664 180.656 36.1824 181.136 36.1824 182.096C36.1824 182.984 34.9104 183.464 33.7824 183.464C31.5984 183.464 30.4224 181.664 30.4224 181.664L29.0304 182.96ZM45.4383 173.624C42.1023 173.624 39.8943 176.216 39.8943 179.456C39.8943 182.744 42.3183 185.288 45.6783 185.288C48.6063 185.288 50.2863 183.104 50.2863 183.104L49.0143 181.784C49.0143 181.784 47.8623 183.416 45.6783 183.416C43.5903 183.416 41.9823 181.856 41.8623 180.176H50.8143C50.8383 179.912 50.8383 179.744 50.8383 179.528C50.8383 175.952 48.5343 173.624 45.4383 173.624ZM41.9103 178.496C42.0543 177.344 43.0383 175.496 45.4383 175.496C47.6703 175.496 48.7983 177.248 48.8703 178.496H41.9103ZM58.089 173.624C55.977 173.624 54.993 175.616 54.993 175.616V173.912H53.121V185H55.137V177.368C55.137 177.368 55.929 175.496 57.681 175.496C58.521 175.496 58.953 175.736 58.953 175.736L59.697 173.912C59.697 173.912 59.001 173.624 58.089 173.624ZM59.8753 173.912L65.4193 185.48L70.9633 173.912H68.8993L65.4913 181.424L62.0833 173.912H59.8753ZM80.4803 181.544C80.4803 181.544 79.4003 183.416 77.2403 183.416C74.9843 183.416 73.5443 181.64 73.5443 179.456C73.5443 177.272 74.9843 175.496 77.2403 175.496C79.4003 175.496 80.4803 177.368 80.4803 177.368V181.544ZM80.6483 173.912V175.52C80.6483 175.52 79.5683 173.624 76.8563 173.624C73.9043 173.624 71.5283 176.192 71.5283 179.456C71.5283 182.72 73.9043 185.288 76.8563 185.288C79.5683 185.288 80.6483 183.392 80.6483 183.392V185H82.4963V173.912H80.6483ZM84.5919 175.736H86.7519V181.808C86.7519 184.256 88.5039 185.288 90.0879 185.288C90.7359 185.288 91.4319 185.144 92.3919 184.616L91.6479 182.96C91.6479 182.96 90.9999 183.416 90.3759 183.416C89.2959 183.416 88.7679 182.792 88.7679 181.712V175.736H92.2239V173.912H88.7679V170.528H86.7519V173.912H84.5919V175.736ZM94.9254 185H96.9414V173.912H94.9254V185ZM94.5654 170.36C94.5654 171.104 95.1894 171.728 95.9334 171.728C96.6774 171.728 97.3014 171.104 97.3014 170.36C97.3014 169.616 96.6774 168.992 95.9334 168.992C95.1894 168.992 94.5654 169.616 94.5654 170.36ZM105.312 173.624C102.048 173.624 99.5999 176.192 99.5999 179.456C99.5999 182.72 102.048 185.288 105.312 185.288C108.576 185.288 111.024 182.72 111.024 179.456C111.024 176.192 108.576 173.624 105.312 173.624ZM105.312 183.416C103.08 183.416 101.616 181.64 101.616 179.456C101.616 177.272 103.08 175.496 105.312 175.496C107.544 175.496 109.008 177.272 109.008 179.456C109.008 181.64 107.544 183.416 105.312 183.416ZM118.599 173.624C116.199 173.624 115.191 175.472 115.191 175.472V173.912H113.319V185H115.335V177.368C115.335 177.368 116.295 175.496 118.095 175.496C119.583 175.496 120.759 176.312 120.759 178.208V185H122.775V177.872C122.775 175.136 120.807 173.624 118.599 173.624ZM125.128 182.96C125.128 182.96 126.76 185.288 129.88 185.288C132.016 185.288 134.272 184.184 134.272 182.048C134.272 179.792 132.472 179 130.36 178.544C128.536 178.16 127.672 177.704 127.672 176.864C127.672 176.144 128.368 175.448 129.784 175.448C131.464 175.448 132.568 176.672 132.568 176.672L133.888 175.304C133.888 175.304 132.4 173.624 129.784 173.624C127.312 173.624 125.704 175.208 125.704 176.816C125.704 178.904 127.384 179.84 129.76 180.32C131.464 180.656 132.28 181.136 132.28 182.096C132.28 182.984 131.008 183.464 129.88 183.464C127.696 183.464 126.52 181.664 126.52 181.664L125.128 182.96Z" fill="#CCB29C"/>
<circle cx="428.5" cy="69" r="68" stroke="#C27634" stroke-width="2"/>
<path d="M454.62 47.5413C453.683 46.7278 448.563 42.0405 447.607 41.2143C446.657 40.3913 445.204 40.3245 444.105 40.3245H413.522C412.426 40.3245 410.973 40.3913 410.02 41.2143C409.064 42.0405 403.944 46.7309 403.007 47.5413C402.063 48.3548 401.281 49.5846 401.532 51.3292C401.783 53.0801 407.538 94.7407 407.688 95.7322C407.767 96.2249 408.016 96.6742 408.392 97.0018C408.769 97.3293 409.248 97.5143 409.747 97.5244H447.88C448.379 97.5142 448.859 97.3288 449.236 97.0005C449.612 96.6723 449.861 96.2223 449.939 95.729C450.089 94.7407 455.844 53.0769 456.098 51.326C456.346 49.5846 455.564 48.3548 454.62 47.5413V47.5413ZM428.814 75.1942C418.492 75.1942 416.284 60.5892 415.826 57.5798H421.664C422.541 61.9683 424.536 69.4774 428.814 69.4774C433.091 69.4774 435.09 61.9683 435.963 57.5798H441.804C441.343 60.5892 439.135 75.1942 428.814 75.1942V75.1942ZM407.109 49.8769L412.925 43.5023H444.702L450.518 49.8769H407.109Z" fill="#C27634"/>
<path d="M339.968 185H341.984V178.328H344.312C347.816 178.328 350.048 176.48 350.048 173.264C350.048 170.048 347.816 168.2 344.312 168.2H339.968V185ZM341.984 176.408V170.12H344.192C346.472 170.12 348.032 171.128 348.032 173.264C348.032 175.4 346.472 176.408 344.192 176.408H341.984ZM352.566 185H354.582V173.912H352.566V185ZM352.206 170.36C352.206 171.104 352.83 171.728 353.574 171.728C354.318 171.728 354.942 171.104 354.942 170.36C354.942 169.616 354.318 168.992 353.574 168.992C352.83 168.992 352.206 169.616 352.206 170.36ZM366.192 181.832C366.192 181.832 365.112 183.416 362.952 183.416C360.72 183.416 359.256 181.64 359.256 179.456C359.256 177.272 360.72 175.496 362.952 175.496C364.92 175.496 366 176.84 366 176.84L367.368 175.616C367.368 175.616 365.784 173.624 362.952 173.624C359.688 173.624 357.24 176.216 357.24 179.456C357.24 182.72 359.688 185.288 362.952 185.288C365.88 185.288 367.488 183.152 367.488 183.152L366.192 181.832ZM376.9 185H379.708L374.092 179.144L379.276 173.912H376.636L371.884 178.832V166.856H369.868V185H371.884V179.624L376.9 185ZM392.178 185.288C394.578 185.288 395.586 183.296 395.586 183.296V185H397.458V173.912H395.442V181.592C395.442 181.592 394.554 183.416 392.682 183.416C391.194 183.416 390.018 182.6 390.018 180.704V173.912H388.002V181.04C388.002 183.776 389.97 185.288 392.178 185.288ZM400.531 173.912V190.52H402.547V183.632C402.931 184.136 404.083 185.288 406.123 185.288C409.123 185.288 411.499 182.72 411.499 179.456C411.499 176.192 409.123 173.624 406.123 173.624C403.483 173.624 402.379 175.52 402.379 175.52V173.912H400.531ZM402.547 177.392C402.547 177.392 403.603 175.496 405.811 175.496C408.067 175.496 409.483 177.272 409.483 179.456C409.483 181.64 408.067 183.416 405.811 183.416C403.603 183.416 402.547 181.52 402.547 181.52V177.392ZM419.447 175.736H421.751V185H423.767V175.736H426.647V173.912H423.767V170.216C423.767 169.136 424.367 168.44 425.447 168.44C426.071 168.44 426.743 168.872 426.743 168.872L427.487 167.216C426.527 166.688 425.807 166.568 425.159 166.568C423.575 166.568 421.751 167.744 421.751 170.096V173.912H419.447V175.736ZM433.687 173.624C431.575 173.624 430.591 175.616 430.591 175.616V173.912H428.719V185H430.735V177.368C430.735 177.368 431.527 175.496 433.279 175.496C434.119 175.496 434.551 175.736 434.551 175.736L435.295 173.912C435.295 173.912 434.599 173.624 433.687 173.624ZM441.435 173.624C438.171 173.624 435.723 176.192 435.723 179.456C435.723 182.72 438.171 185.288 441.435 185.288C444.699 185.288 447.147 182.72 447.147 179.456C447.147 176.192 444.699 173.624 441.435 173.624ZM441.435 183.416C439.203 183.416 437.739 181.64 437.739 179.456C437.739 177.272 439.203 175.496 441.435 175.496C443.667 175.496 445.131 177.272 445.131 179.456C445.131 181.64 443.667 183.416 441.435 183.416ZM461.154 173.624C458.73 173.624 457.842 175.688 457.842 175.688C457.842 175.688 457.146 173.624 454.386 173.624C452.13 173.624 451.314 175.544 451.314 175.544V173.912H449.442V185H451.458V177.272C451.458 177.272 452.202 175.496 453.834 175.496C455.274 175.496 456.21 176.384 456.21 178.184V185H458.226V177.272C458.226 177.272 458.946 175.496 460.602 175.496C462.042 175.496 462.978 176.384 462.978 178.184V185H464.994V177.872C464.994 175.136 463.458 173.624 461.154 173.624ZM482.965 181.832C482.965 181.832 481.885 183.416 479.725 183.416C477.493 183.416 476.029 181.64 476.029 179.456C476.029 177.272 477.493 175.496 479.725 175.496C481.693 175.496 482.773 176.84 482.773 176.84L484.141 175.616C484.141 175.616 482.557 173.624 479.725 173.624C476.461 173.624 474.013 176.216 474.013 179.456C474.013 182.72 476.461 185.288 479.725 185.288C482.653 185.288 484.261 183.152 484.261 183.152L482.965 181.832ZM494.393 181.544C494.393 181.544 493.313 183.416 491.153 183.416C488.897 183.416 487.457 181.64 487.457 179.456C487.457 177.272 488.897 175.496 491.153 175.496C493.313 175.496 494.393 177.368 494.393 177.368V181.544ZM494.561 173.912V175.52C494.561 175.52 493.481 173.624 490.769 173.624C487.817 173.624 485.441 176.192 485.441 179.456C485.441 182.72 487.817 185.288 490.769 185.288C493.481 185.288 494.561 183.392 494.561 183.392V185H496.409V173.912H494.561ZM498.408 175.736H500.712V185H502.728V175.736H505.608V173.912H502.728V170.216C502.728 169.136 503.328 168.44 504.408 168.44C505.032 168.44 505.704 168.872 505.704 168.872L506.448 167.216C505.488 166.688 504.768 166.568 504.12 166.568C502.536 166.568 500.712 167.744 500.712 170.096V173.912H498.408V175.736ZM512.175 173.624C508.839 173.624 506.631 176.216 506.631 179.456C506.631 182.744 509.055 185.288 512.415 185.288C515.343 185.288 517.023 183.104 517.023 183.104L515.751 181.784C515.751 181.784 514.599 183.416 512.415 183.416C510.327 183.416 508.719 181.856 508.599 180.176H517.551C517.575 179.912 517.575 179.744 517.575 179.528C517.575 175.952 515.271 173.624 512.175 173.624ZM508.647 178.496C508.791 177.344 509.775 175.496 512.175 175.496C514.407 175.496 515.535 177.248 515.607 178.496H508.647Z" fill="#CCB29C"/>
<circle cx="788" cy="69" r="68" stroke="#C27634" stroke-width="2"/>
<path d="M773.267 45.4959C773.267 44.9691 773.058 44.4639 772.685 44.0915C772.313 43.719 771.808 43.5098 771.281 43.5098C770.754 43.5098 770.249 43.719 769.877 44.0915C769.504 44.4639 769.295 44.9691 769.295 45.4959V57.4125C769.294 59.7018 770.085 61.9209 771.533 63.6944C772.98 65.4678 774.996 66.6866 777.239 67.1444V97.1347C777.239 97.6614 777.449 98.1666 777.821 98.5391C778.194 98.9115 778.699 99.1208 779.225 99.1208C779.752 99.1208 780.257 98.9115 780.63 98.5391C781.002 98.1666 781.212 97.6614 781.212 97.1347V67.1444C783.455 66.6866 785.471 65.4678 786.918 63.6944C788.366 61.9209 789.156 59.7018 789.156 57.4125V45.4959C789.156 44.9691 788.947 44.4639 788.574 44.0915C788.202 43.719 787.697 43.5098 787.17 43.5098C786.643 43.5098 786.138 43.719 785.766 44.0915C785.393 44.4639 785.184 44.9691 785.184 45.4959V57.4125C785.184 58.6452 784.803 59.8477 784.091 60.8544C783.38 61.8611 782.374 62.6223 781.212 63.0332V45.4959C781.212 44.9691 781.002 44.4639 780.63 44.0915C780.257 43.719 779.752 43.5098 779.225 43.5098C778.699 43.5098 778.194 43.719 777.821 44.0915C777.449 44.4639 777.239 44.9691 777.239 45.4959V63.0332C776.077 62.6223 775.071 61.8611 774.36 60.8544C773.648 59.8477 773.266 58.6452 773.267 57.4125V45.4959ZM801.073 97.1347V71.3153H795.114C794.588 71.3153 794.082 71.106 793.71 70.7335C793.337 70.3611 793.128 69.8559 793.128 69.3292V53.4403C793.128 50.8067 794.423 48.3439 796.191 46.5723C797.962 44.8047 800.425 43.5098 803.059 43.5098C803.586 43.5098 804.091 43.719 804.463 44.0915C804.836 44.4639 805.045 44.9691 805.045 45.4959V97.1347C805.045 97.6614 804.836 98.1666 804.463 98.5391C804.091 98.9115 803.586 99.1208 803.059 99.1208C802.532 99.1208 802.027 98.9115 801.654 98.5391C801.282 98.1666 801.073 97.6614 801.073 97.1347Z" fill="#C27634"/>
<path d="M758.792 168.2H753.968V185H758.792C764 185 767.096 181.448 767.096 176.6C767.096 171.752 764 168.2 758.792 168.2ZM758.672 183.08H755.984V170.12H758.672C762.776 170.12 764.936 173.024 764.936 176.6C764.936 180.176 762.776 183.08 758.672 183.08ZM769.894 185H771.91V173.912H769.894V185ZM769.534 170.36C769.534 171.104 770.158 171.728 770.902 171.728C771.646 171.728 772.27 171.104 772.27 170.36C772.27 169.616 771.646 168.992 770.902 168.992C770.158 168.992 769.534 169.616 769.534 170.36ZM780.616 173.624C778.216 173.624 777.208 175.472 777.208 175.472V173.912H775.336V185H777.352V177.368C777.352 177.368 778.312 175.496 780.112 175.496C781.6 175.496 782.776 176.312 782.776 178.208V185H784.792V177.872C784.792 175.136 782.824 173.624 780.616 173.624ZM792.641 173.624C789.305 173.624 787.097 176.216 787.097 179.456C787.097 182.744 789.521 185.288 792.881 185.288C795.809 185.288 797.489 183.104 797.489 183.104L796.217 181.784C796.217 181.784 795.065 183.416 792.881 183.416C790.793 183.416 789.185 181.856 789.065 180.176H798.017C798.041 179.912 798.041 179.744 798.041 179.528C798.041 175.952 795.737 173.624 792.641 173.624ZM789.113 178.496C789.257 177.344 790.241 175.496 792.641 175.496C794.873 175.496 796.001 177.248 796.073 178.496H789.113ZM807.401 185H809.417V173.912H807.401V185ZM807.041 170.36C807.041 171.104 807.665 171.728 808.409 171.728C809.153 171.728 809.777 171.104 809.777 170.36C809.777 169.616 809.153 168.992 808.409 168.992C807.665 168.992 807.041 169.616 807.041 170.36ZM818.123 173.624C815.723 173.624 814.715 175.472 814.715 175.472V173.912H812.843V185H814.859V177.368C814.859 177.368 815.819 175.496 817.619 175.496C819.107 175.496 820.283 176.312 820.283 178.208V185H822.299V177.872C822.299 175.136 820.331 173.624 818.123 173.624Z" fill="#CCB29C"/>
<circle cx="1126" cy="69" r="68" stroke="#C27634" stroke-width="2"/>
<path d="M1144.54 54.1023C1144.54 51.1894 1142.15 48.806 1139.24 48.806H1131.3V54.1023H1139.24V61.1199L1130.03 72.6393H1120.7V59.3986H1110.11C1104.26 59.3986 1099.52 64.1388 1099.52 69.9912V77.9356H1104.82C1104.82 82.3315 1108.36 85.88 1112.76 85.88C1117.16 85.88 1120.7 82.3315 1120.7 77.9356H1132.57L1144.54 62.9736V54.1023ZM1112.76 80.5838C1111.3 80.5838 1110.11 79.3921 1110.11 77.9356H1115.41C1115.41 79.3921 1114.22 80.5838 1112.76 80.5838Z" fill="#C27634"/>
<path d="M1107.46 51.4542H1120.7V56.7505H1107.46V51.4542ZM1144.54 69.9912C1140.14 69.9912 1136.59 73.5397 1136.59 77.9356C1136.59 82.3315 1140.14 85.88 1144.54 85.88C1148.93 85.88 1152.48 82.3315 1152.48 77.9356C1152.48 73.5397 1148.93 69.9912 1144.54 69.9912ZM1144.54 80.5838C1143.08 80.5838 1141.89 79.3921 1141.89 77.9356C1141.89 76.4791 1143.08 75.2875 1144.54 75.2875C1145.99 75.2875 1147.19 76.4791 1147.19 77.9356C1147.19 79.3921 1145.99 80.5838 1144.54 80.5838Z" fill="#C27634"/>
<path d="M1090.79 168.2H1085.97V185H1090.79C1096 185 1099.1 181.448 1099.1 176.6C1099.1 171.752 1096 168.2 1090.79 168.2ZM1090.67 183.08H1087.98V170.12H1090.67C1094.78 170.12 1096.94 173.024 1096.94 176.6C1096.94 180.176 1094.78 183.08 1090.67 183.08ZM1106.31 173.624C1102.97 173.624 1100.77 176.216 1100.77 179.456C1100.77 182.744 1103.19 185.288 1106.55 185.288C1109.48 185.288 1111.16 183.104 1111.16 183.104L1109.89 181.784C1109.89 181.784 1108.73 183.416 1106.55 183.416C1104.46 183.416 1102.85 181.856 1102.73 180.176H1111.69C1111.71 179.912 1111.71 179.744 1111.71 179.528C1111.71 175.952 1109.41 173.624 1106.31 173.624ZM1102.78 178.496C1102.93 177.344 1103.91 175.496 1106.31 175.496C1108.54 175.496 1109.67 177.248 1109.74 178.496H1102.78ZM1114.42 185H1116.44V166.856H1114.42V185ZM1120.3 185H1122.31V173.912H1120.3V185ZM1119.94 170.36C1119.94 171.104 1120.56 171.728 1121.3 171.728C1122.05 171.728 1122.67 171.104 1122.67 170.36C1122.67 169.616 1122.05 168.992 1121.3 168.992C1120.56 168.992 1119.94 169.616 1119.94 170.36ZM1124.35 173.912L1129.89 185.48L1135.43 173.912H1133.37L1129.96 181.424L1126.55 173.912H1124.35ZM1141.54 173.624C1138.21 173.624 1136 176.216 1136 179.456C1136 182.744 1138.42 185.288 1141.78 185.288C1144.71 185.288 1146.39 183.104 1146.39 183.104L1145.12 181.784C1145.12 181.784 1143.97 183.416 1141.78 183.416C1139.7 183.416 1138.09 181.856 1137.97 180.176H1146.92C1146.94 179.912 1146.94 179.744 1146.94 179.528C1146.94 175.952 1144.64 173.624 1141.54 173.624ZM1138.02 178.496C1138.16 177.344 1139.14 175.496 1141.54 175.496C1143.78 175.496 1144.9 177.248 1144.98 178.496H1138.02ZM1154.19 173.624C1152.08 173.624 1151.1 175.616 1151.1 175.616V173.912H1149.23V185H1151.24V177.368C1151.24 177.368 1152.03 175.496 1153.79 175.496C1154.63 175.496 1155.06 175.736 1155.06 175.736L1155.8 173.912C1155.8 173.912 1155.11 173.624 1154.19 173.624ZM1156.48 190.016C1156.48 190.016 1157.47 190.808 1158.84 190.808C1160.01 190.808 1161.26 190.184 1161.91 188.576C1162.17 187.928 1167.74 173.912 1167.74 173.912H1165.56L1162.24 182.672L1158.36 173.912H1156.08L1161.26 185.048L1160.4 187.232C1159.96 188.312 1159.56 188.936 1158.67 188.936C1158.04 188.936 1157.35 188.36 1157.35 188.36L1156.48 190.016Z" fill="#CCB29C"/>
</svg>
