<svg width="32" height="32" viewBox="0 0 32 32" fill="none" xmlns="http://www.w3.org/2000/svg">
<path d="M16.0003 7.04004C12.2678 7.04004 8.86027 8.00754 6.26527 9.60004H1.28027C1.28027 9.60004 2.40277 10.9775 2.93027 12.53C1.90027 13.8375 1.28027 15.485 1.28027 17.28C1.28027 21.5225 4.71777 24.96 8.96027 24.96C11.1978 24.96 13.2078 23.995 14.6103 22.4675L16.0003 24.32L17.3903 22.4675C18.7928 23.995 20.8028 24.96 23.0403 24.96C27.2828 24.96 30.7203 21.5225 30.7203 17.28C30.7203 15.485 30.1003 13.8375 29.0703 12.53C29.5978 10.9775 30.7203 9.60004 30.7203 9.60004H25.7303C23.1353 8.00754 19.7303 7.04004 16.0003 7.04004ZM8.96027 11.52C12.1428 11.52 14.7203 14.0975 14.7203 17.28C14.7203 20.4625 12.1428 23.04 8.96027 23.04C5.77777 23.04 3.20027 20.4625 3.20027 17.28C3.20027 14.0975 5.77777 11.52 8.96027 11.52ZM23.0403 11.52C26.2228 11.52 28.8003 14.0975 28.8003 17.28C28.8003 20.4625 26.2228 23.04 23.0403 23.04C19.8578 23.04 17.2803 20.4625 17.2803 17.28C17.2803 14.0975 19.8578 11.52 23.0403 11.52ZM8.96027 13.44C6.84027 13.44 5.12027 15.16 5.12027 17.28C5.12027 19.4 6.84027 21.12 8.96027 21.12C11.0803 21.12 12.8003 19.4 12.8003 17.28C12.8003 15.16 11.0803 13.44 8.96027 13.44ZM23.0403 13.44C20.9203 13.44 19.2003 15.16 19.2003 17.28C19.2003 19.4 20.9203 21.12 23.0403 21.12C25.1603 21.12 26.8803 19.4 26.8803 17.28C26.8803 15.16 25.1603 13.44 23.0403 13.44ZM8.96027 14.72C10.3753 14.72 11.5203 15.865 11.5203 17.28C11.5203 18.695 10.3753 19.84 8.96027 19.84C7.54527 19.84 6.40027 18.695 6.40027 17.28C6.40027 15.865 7.54527 14.72 8.96027 14.72ZM23.0403 14.72C24.4553 14.72 25.6003 15.865 25.6003 17.28C25.6003 18.695 24.4553 19.84 23.0403 19.84C21.6253 19.84 20.4803 18.695 20.4803 17.28C20.4803 15.865 21.6253 14.72 23.0403 14.72ZM8.96027 16C8.25277 16 7.68027 16.5725 7.68027 17.28C7.68027 17.9875 8.25277 18.56 8.96027 18.56C9.66777 18.56 10.2403 17.9875 10.2403 17.28C10.2403 16.5725 9.66777 16 8.96027 16ZM23.0403 16C22.3328 16 21.7603 16.5725 21.7603 17.28C21.7603 17.9875 22.3328 18.56 23.0403 18.56C23.7478 18.56 24.3203 17.9875 24.3203 17.28C24.3203 16.5725 23.7478 16 23.0403 16Z" fill="#CCB29C"/>
</svg>
