<svg width="100" height="100" viewBox="0 0 100 100" fill="none" xmlns="http://www.w3.org/2000/svg">
<path d="M50 0C22.3724 0 0 22.3726 0 50C0 77.6274 22.3726 100 50 100C77.6274 100 100 77.6274 100 50C100 22.3726 77.6274 0 50 0V0ZM50.3006 18.0177C53.0028 18.0177 54.8054 19.8192 54.8054 19.8192L73.5741 35.4343C75.2258 36.7854 76.1265 38.8875 76.1265 40.8397C76.1265 42.4914 75.5264 43.9934 74.4749 45.3445C71.9224 48.3472 67.5674 48.7977 64.5647 46.2452L57.3577 40.2398V76.7262C57.3577 78.6785 56.6068 80.48 55.2557 81.6812C53.9046 83.0323 52.253 83.7832 50.3007 83.7832C46.3971 83.7832 43.2437 80.6296 43.2437 76.7262V40.2397L36.0367 46.2452C33.034 48.6478 28.5292 48.3472 26.1266 45.3444C25.075 43.9933 24.4749 42.4913 24.4749 40.8397C24.4749 38.8874 25.3756 36.7853 27.0273 35.4343L45.796 19.8192C45.796 19.8202 47.5975 18.0177 50.3008 18.0177L50.3006 18.0177Z" fill="#8C7A6A"/>
</svg>
